<?xml version="1.0" encoding="UTF-8"?>
<svg width="194px" height="96px" viewBox="0 0 194 96" version="1.1" xmlns="http://www.w3.org/2000/svg" xmlns:xlink="http://www.w3.org/1999/xlink">
    <title>Group 3</title>
    <defs>
        <rect id="path-1" x="5" y="0" width="60" height="60" rx="6"></rect>
        <filter x="-45.0%" y="-45.0%" width="190.0%" height="190.0%" filterUnits="objectBoundingBox" id="filter-2">
            <feOffset dx="0" dy="0" in="SourceAlpha" result="shadowOffsetOuter1"></feOffset>
            <feGaussianBlur stdDeviation="9" in="shadowOffsetOuter1" result="shadowBlurOuter1"></feGaussianBlur>
            <feComposite in="shadowBlurOuter1" in2="SourceAlpha" operator="out" result="shadowBlurOuter1"></feComposite>
            <feColorMatrix values="0 0 0 0 0.694117647   0 0 0 0 0.717647059   0 0 0 0 0.768627451  0 0 0 0.319458008 0" type="matrix" in="shadowBlurOuter1"></feColorMatrix>
        </filter>
    </defs>
    <g id="Page-1" stroke="none" stroke-width="1" fill="none" fill-rule="evenodd">
        <g id="Group-3" transform="translate(13.000000, 18.000000)">
            <g id="Group-40-Copy-4">
                <g id="Rectangle">
                    <use fill="black" fill-opacity="1" filter="url(#filter-2)" xlink:href="#path-1"></use>
                    <rect stroke="#E4E8EC" stroke-width="2" stroke-linejoin="square" fill="#FFFFFF" fill-rule="evenodd" x="6" y="1" width="58" height="58" rx="6"></rect>
                </g>
                <g id="Group-38" transform="translate(19.000000, 10.000000)" fill-rule="nonzero">
                    <g id="Group-31">
                        <path d="M35,29.4545455 C34.9921629,30.7125 33.9843522,31.9090909 32.4921672,31.9090909 L2.50628144,31.9090909 C1.01565901,31.9090909 0.00706699495,30.7125 0,29.4545455 C-0.00337752253,28.8349674 0.237694192,28.2381592 0.672690848,27.7892898 C2.18206325,26.1969034 5.00627713,23.8006534 5.00627713,15.9545455 C5.00627713,9.99460227 9.26251979,5.22357955 15.0015724,4.05306818 L15.0015724,2.45454545 C15.0015724,1.09893743 16.1208586,0 17.5015681,0 C18.8822776,0 20.0015638,1.09893743 20.0015638,2.45454545 L20.0015638,4.05306818 C25.7359289,5.22357955 29.9921716,9.99460227 29.9921716,15.9545455 C29.9921716,23.8014205 32.8163854,26.1969034 34.3257578,27.7892898 C34.7611851,28.2380054 35.002805,28.8347844 35,29.4545455 Z" id="Path-Copy" fill="#FFD150"></path>
                        <path d="M12.3958333,34.0363636 L22.6041667,34.0363636 C22.6041667,36.7777043 20.3189534,39 17.5,39 C14.6810466,39 12.3958333,36.7777043 12.3958333,34.0363636 Z" id="Path-Copy-2" fill="#0B59DE"></path>
                    </g>
                </g>
                <g id="Group-22" transform="translate(0.000000, 5.000000)">
                    <g id="Group-22-Copy">
                        <rect id="Rectangle" fill="#0B59DE" x="0" y="0" width="38" height="13.3721678"></rect>
                        <g id="TGX" transform="translate(9.212121, 2.431303)" fill="#FFFFFF" fill-rule="nonzero">
                            <polygon id="Path" points="6.00159801 1.4050036 3.7446733 1.4050036 3.7446733 7.88511528 2.2265625 7.88511528 2.2265625 1.4050036 0 1.4050036 0 0.10684438 6.00159801 0.10684438"></polygon>
                            <path d="M12.5547763,6.90214698 C12.2815163,7.24761048 11.8952415,7.5156118 11.3959517,7.70615094 C10.8966619,7.89669009 10.3433949,7.99195966 9.73615057,7.99195966 C9.09854403,7.99195966 8.53937322,7.84504864 8.05863814,7.55122659 C7.57790305,7.25740454 7.2068093,6.83091739 6.94535689,6.27176513 C6.68390447,5.71261288 6.54980469,5.05551994 6.54305753,4.30048631 L6.54305753,3.77160663 C6.54305753,2.99520413 6.66703658,2.32297491 6.91499467,1.75491895 C7.16295277,1.18686299 7.5205522,0.752362513 7.98779297,0.451417508 C8.45503374,0.150472503 9.00239702,0 9.62988281,0 C10.5036399,0 11.1867898,0.21992135 11.6793324,0.65976405 C12.171875,1.09960675 12.4636896,1.73978266 12.5547763,2.58029179 L11.0771484,2.58029179 C11.0096768,2.13510687 10.860396,1.80923151 10.6293058,1.60266571 C10.3982156,1.39609991 10.0802557,1.292817 9.67542614,1.292817 C9.15926847,1.292817 8.76624645,1.49760207 8.49636009,1.90717219 C8.22647372,2.31674232 8.08984375,2.92575529 8.08647017,3.7342111 L8.08647017,4.23103747 C8.08647017,5.04661624 8.23322088,5.66275217 8.5267223,6.07944525 C8.82022372,6.49613833 9.25035511,6.70448488 9.81711648,6.70448488 C10.3872514,6.70448488 10.7937678,6.57627162 11.0366655,6.31984511 L11.0366655,4.97894813 L9.65518466,4.97894813 L9.65518466,3.79831773 L12.5547763,3.79831773 L12.5547763,6.90214698 Z" id="Path"></path>
                            <polygon id="Path" points="16.4208984 2.78863833 17.8023793 0.10684438 19.5482067 0.10684438 17.4026101 3.96392652 19.6038707 7.88511528 17.8378018 7.88511528 16.4208984 5.16058358 15.003995 7.88511528 13.2379261 7.88511528 15.4391868 3.96392652 13.2935902 0.10684438 15.0394176 0.10684438"></polygon>
                        </g>
                    </g>
                    <polyline id="Path-2" fill="#002F80" points="0 13.3721678 5.56269272 19 5.56269272 13.3721678 0.300792937 13.3721678"></polyline>
                </g>
            </g>
            <g id="Group-2" transform="translate(77.000000, 5.750000)">
                <g id="Group" transform="translate(0.000000, 31.250000)">
                    <g id="logo-copy-2" transform="translate(17.000000, 0.000000)">
                        <g id="Group-10" transform="translate(71.991320, 0.000000)" fill="#0B59DE">
                            <polygon id="Fill-1" points="0.649989671 1.24092675 5.29855295 8.02999485 0 16 4.10977424 16 9.58850991 7.98348146 4.89131991 1.24092675"></polygon>
                            <polygon id="Fill-2" points="10.770114 0 7.85050061 4.31003055 10.047624 7.34282877 15.0086799 0"></polygon>
                            <polyline id="Fill-3" points="10.0020129 8.60854589 14.2405788 14.7767232 13.3923128 14.7767232 9.99937425 14.7767232 7.85050061 11.6547953"></polyline>
                        </g>
                        <g id="Group-9" transform="translate(0.000000, 3.957549)" fill="#182945">
                            <polygon id="Fill-4" points="0 0.0930522168 0 1.37676802 2.55092467 1.37676802 2.55092467 8.49348851 4.1248379 8.49348851 4.1248379 1.37676802 6.67576257 1.37676802 6.67576257 0.0930522168"></polygon>
                            <path d="M10.3439782,4.08999975 C10.6402901,4.08999975 10.8988552,4.05314367 11.1192962,3.97943152 C11.3394855,3.90596925 11.5209215,3.80427147 11.6633525,3.674713 C11.8056578,3.54490466 11.9121036,3.39085876 11.9823125,3.21282518 C12.0523956,3.03466667 12.0875001,2.8388922 12.0875001,2.62587659 C12.0875001,2.19984536 11.9462014,1.87263838 11.6633525,1.64425566 C11.3805036,1.41562306 10.9485551,1.3014317 10.367507,1.3014317 L9.36117888,1.3014317 L9.36117888,4.08999975 L10.3439782,4.08999975 Z M14.3926935,8.49348851 L12.9710254,8.49348851 C12.7018912,8.49348851 12.5067405,8.38904215 12.385951,8.17989955 L10.6074504,5.49015575 C10.5410161,5.38933253 10.4677875,5.31761935 10.388016,5.27514117 C10.3078671,5.23253804 10.1898456,5.21129895 10.0338258,5.21129895 L9.36117888,5.21129895 L9.36117888,8.49348851 L7.78726566,8.49348851 L7.78726566,0.0930522168 L10.367507,0.0930522168 C10.9408799,0.0930522168 11.4330974,0.152021935 11.8447885,0.270211244 C12.2561022,0.388275617 12.593558,0.553940546 12.8570303,0.766956161 C13.1201251,0.979971775 13.3142691,1.23459103 13.4392108,1.53081391 C13.5640267,1.82728667 13.6264347,2.15349416 13.6264347,2.50981119 C13.6264347,2.792541 13.58441,3.05977878 13.5006122,3.31164944 C13.4165628,3.56314529 13.2956474,3.79177789 13.137866,3.99704748 C12.979833,4.20219214 12.7846824,4.38234962 12.5527916,4.53727007 C12.3205233,4.69219052 12.0562961,4.81425284 11.7599842,4.90333209 C11.8612713,4.96142726 11.9548832,5.03014198 12.0408199,5.10947624 C12.1266309,5.18906037 12.204515,5.28301212 12.2748497,5.3913315 L14.3926935,8.49348851 Z" id="Fill-5"></path>
                            <path d="M19.7811538,5.32154234 L18.7514228,2.52710231 C18.7005905,2.40341582 18.6479967,2.2562414 18.5935156,2.08570397 C18.5389086,1.91529148 18.48405,1.73138592 18.4295689,1.53373741 C18.3788624,1.73138592 18.3262686,1.91629097 18.2717875,2.0885775 C18.2169289,2.26086403 18.1643351,2.41091197 18.1137545,2.53884628 L17.0896854,5.32154234 L19.7811538,5.32154234 Z M22.5603204,8.49353849 L21.3433656,8.49353849 C21.2067224,8.49353849 21.0956211,8.45955594 21.009936,8.39196565 C20.9241251,8.32412548 20.859704,8.23991872 20.8166727,8.13922043 L20.1849181,6.42547546 L16.6802591,6.42547546 L16.0485045,8.13922043 C16.0170489,8.22829969 15.9566541,8.30975786 15.8669427,8.38322014 C15.7772313,8.45693229 15.6661301,8.49353849 15.5333874,8.49353849 L14.3049826,8.49353849 L17.6338676,0.0929772553 L19.2370975,0.0929772553 L22.5603204,8.49353849 Z" id="Fill-7"></path>
                            <path d="M30.0140685,0.0930272297 L26.5972336,8.49346353 L25.1755656,8.49346353 L21.7587307,0.0930272297 L23.0223657,0.0930272297 C23.1590089,0.0930272297 23.2699843,0.126010293 23.3557952,0.191851482 C23.4416062,0.257692672 23.5059014,0.342898918 23.5489327,0.447345284 L25.5442254,5.571464 C25.6102822,5.73787855 25.6736967,5.92078462 25.7340915,6.1204321 C25.7946121,6.31982971 25.852113,6.52797283 25.9068457,6.74486145 C25.9536517,6.52797283 26.0042323,6.31982971 26.0589651,6.1204321 C26.113572,5.92078462 26.1739668,5.73787855 26.2404011,5.571464 L28.2237406,0.447345284 C28.2550704,0.358266027 28.3164718,0.277057728 28.4080705,0.20334558 C28.4995435,0.129883304 28.6117771,0.0930272297 28.7445198,0.0930272297 L30.0140685,0.0930272297 Z" id="Fill-9"></path>
                            <polygon id="Fill-11" points="32.4712932 1.3362888 32.4712932 3.66584256 35.43177 3.66584256 35.43177 4.86835006 32.4712932 4.86835006 32.4712932 7.24462982 36.2275971 7.24462982 36.2275971 8.49348851 30.8915921 8.49348851 30.8915921 0.0930522168 36.2275971 0.0930522168 36.2275971 1.3362888"></polygon>
                            <polygon id="Fill-13" points="42.5754286 7.20387574 42.5754286 8.49346353 37.6199107 8.49346353 37.6199107 0.0930272297 39.1936981 0.0930272297 39.1936981 7.20387574"></polygon>
                            <path d="M50.374207,4.28155138 L50.374207,7.68018116 C49.9451524,7.99402 49.4880393,8.22340221 49.0022388,8.36857766 C48.5165641,8.51400298 47.9967915,8.58646577 47.4431726,8.58646577 C46.7526589,8.58646577 46.1276987,8.48002043 45.5679146,8.26700482 C45.0081304,8.0539892 44.5303825,7.75776631 44.1344192,7.37808628 C43.7385818,6.99865612 43.4333365,6.54551382 43.2188092,6.01865936 C43.0042818,5.49205478 42.8970811,4.91697509 42.8970811,4.29329535 C42.8970811,3.66199453 43.0003814,3.08291689 43.2072335,2.55606244 C43.4139598,2.02958279 43.7073778,1.57644048 44.0877391,1.19676045 C44.4679746,0.817205357 44.9292398,0.522981444 45.4712829,0.313838841 C46.0134519,0.104446366 46.6219294,0 47.2967153,0 C47.6400848,0 47.9609321,0.0271110782 48.2592571,0.0813332346 C48.5575822,0.135680327 48.8346433,0.21014209 49.0901887,0.305093332 C49.3454825,0.400044573 49.5787573,0.515235422 49.7893841,0.650665877 C49.9998851,0.786221268 50.1928968,0.935394666 50.368545,1.09818607 L49.9178489,1.80669724 C49.8477658,1.91926444 49.756167,1.98785422 49.6429268,2.01296632 C49.5298124,2.0383283 49.4070097,2.01021773 49.2745186,1.92875956 C49.1456764,1.85529729 49.01696,1.78158514 48.8881178,1.70812286 C48.7594014,1.63453565 48.6160896,1.5705685 48.4580566,1.51634634 C48.3004011,1.46224912 48.1226139,1.41752209 47.9258276,1.38266499 C47.7287896,1.34780789 47.5016801,1.33044181 47.2441215,1.33044181 C46.8268942,1.33044181 46.4494268,1.40028094 46.1119709,1.53958441 C45.7745151,1.67888788 45.4870107,1.87853535 45.2492063,2.13790217 C45.0110244,2.39751885 44.827701,2.70935872 44.6991105,3.0731719 C44.5703941,3.43723495 44.505973,3.84402606 44.505973,4.29329535 C44.505973,4.77354874 44.5753012,5.20245349 44.7137059,5.58025948 C44.8519848,5.95769067 45.0471354,6.27715162 45.2987803,6.53864235 C45.5504253,6.80000813 45.8536574,6.99965561 46.2086026,7.1369601 C46.5634219,7.2746394 46.9592594,7.34322918 47.3962408,7.34322918 C47.7084064,7.34322918 47.987229,7.31049599 48.2329602,7.2446548 C48.4788173,7.17868868 48.718635,7.08973436 48.9525389,6.97716716 L48.9525389,5.45532364 L47.8877034,5.45532364 C47.7862905,5.45532364 47.7073998,5.42721308 47.6507797,5.37086701 C47.5942854,5.31489575 47.5661012,5.24618104 47.5661012,5.16459793 L47.5661012,4.28155138 L50.374207,4.28155138 Z" id="Fill-15"></path>
                            <path d="M56.2659823,5.32154234 L55.2362513,2.52710231 C55.185419,2.40341582 55.1328252,2.2562414 55.0783441,2.08570397 C55.0237371,1.91529148 54.9691302,1.73138592 54.9146491,1.53373741 C54.863691,1.73138592 54.8110972,1.91629097 54.756616,2.0885775 C54.7017574,2.26086403 54.6491637,2.41091197 54.598583,2.53884628 L53.574514,5.32154234 L56.2659823,5.32154234 Z M59.045149,8.49353849 L57.8281941,8.49353849 C57.6915509,8.49353849 57.5804496,8.45955594 57.4947645,8.39196565 C57.4089536,8.32412548 57.3445325,8.23991872 57.3015012,8.13922043 L56.6697466,6.42547546 L53.1650877,6.42547546 L52.5333331,8.13922043 C52.5018774,8.22829969 52.4416085,8.30975786 52.3520229,8.38322014 C52.2620598,8.45693229 52.1509586,8.49353849 52.0184675,8.49353849 L50.7898112,8.49353849 L54.1189478,0.0929772553 L55.721926,0.0929772553 L59.045149,8.49353849 Z" id="Fill-17"></path>
                            <polygon id="Fill-19" points="65.0069571 1.376793 62.4561583 1.376793 62.4561583 8.4935135 60.8823709 8.4935135 60.8823709 1.376793 58.3311945 1.376793 58.3311945 0.093077204 65.0069571 0.093077204"></polygon>
                            <polygon id="Fill-21" points="67.6981361 1.3362888 67.6981361 3.66584256 70.6586129 3.66584256 70.6586129 4.86835006 67.6981361 4.86835006 67.6981361 7.24462982 71.45444 7.24462982 71.45444 8.49348851 66.118435 8.49348851 66.118435 0.0930522168 71.45444 0.0930522168 71.45444 1.3362888"></polygon>
                        </g>
                    </g>
                    <g id="BY" transform="translate(0.000000, 4.000000)" fill="#182945" fill-rule="nonzero">
                        <path d="M0,8.46 L0,0 L3.16017324,0 C4.2030093,0 4.99674687,0.191744505 5.54138595,0.575233516 C6.08602502,0.958722527 6.35834456,1.53008242 6.35834456,2.28931319 C6.35834456,2.67667582 6.24435034,3.0253022 6.01636189,3.33519231 C5.78837344,3.64508242 5.45483478,3.88524725 5.01574591,4.05568681 C5.51394289,4.17964286 5.89920115,4.41302885 6.17152069,4.75584478 C6.44384023,5.09866071 6.58,5.51023352 6.58,5.99056319 C6.58,6.78465659 6.30240295,7.39475275 5.74720885,7.82085165 C5.19201476,8.24695055 4.39722169,8.46 3.36282964,8.46 L0,8.46 Z M1.60225217,4.64254121 L1.60225217,7.28629121 L3.38182868,7.28629121 C3.88424767,7.28629121 4.27689445,7.17201923 4.55976901,6.94347527 C4.84264357,6.71493132 4.98408085,6.39729396 4.98408085,5.99056319 C4.98408085,5.11125 4.49432788,4.66190934 3.51482194,4.64254121 L1.60225217,4.64254121 Z M1.60225217,3.56179945 L3.17283927,3.56179945 C3.67103625,3.56179945 4.06051652,3.45817995 4.34128008,3.25094093 C4.62204363,3.04370192 4.76242541,2.75027473 4.76242541,2.37065934 C4.76242541,1.95230769 4.63259865,1.65016484 4.37294514,1.46423077 C4.11329163,1.2782967 3.70903433,1.18532967 3.16017324,1.18532967 L1.60225217,1.18532967 L1.60225217,3.56179945 Z" id="Shape"></path>
                        <polygon id="Path" points="10.3430544 4.0092033 12.3895207 0 14.1 0 11.118879 5.3456044 11.118879 8.46 9.56722989 8.46 9.56722989 5.3456044 6.58 0 8.29658814 0"></polygon>
                    </g>
                </g>
                <g id="Alerts" transform="translate(0.307617, 0.000000)" fill="#182945" fill-rule="nonzero">
                    <path d="M16.1499023,20.456543 L6.51123047,20.456543 L4.49462891,26.25 L0,26.25 L9.39941406,1.3671875 L13.2788086,1.3671875 L22.6953125,26.25 L18.1835938,26.25 L16.1499023,20.456543 Z M7.72460938,16.9702148 L14.9365234,16.9702148 L11.3305664,6.64794922 L7.72460938,16.9702148 Z" id="Shape"></path>
                    <polygon id="Path" points="29.53125 26.25 25.378418 26.25 25.378418 0 29.53125 0"></polygon>
                    <path d="M42.1948242,26.5917969 C39.5629883,26.5917969 37.4296061,25.7629395 35.7946777,24.1052246 C34.1597493,22.4475098 33.3422852,20.2400716 33.3422852,17.4829102 L33.3422852,16.9702148 C33.3422852,15.1245117 33.6983236,13.4753418 34.4104004,12.0227051 C35.1224772,10.5700684 36.1222331,9.43929036 37.409668,8.63037109 C38.6971029,7.82145182 40.1326497,7.41699219 41.7163086,7.41699219 C44.2342122,7.41699219 46.1796061,8.22021484 47.5524902,9.82666016 C48.9253743,11.4331055 49.6118164,13.7060547 49.6118164,16.6455078 L49.6118164,18.3203125 L37.5292969,18.3203125 C37.6546224,19.8470052 38.1644694,21.0546875 39.0588379,21.9433594 C39.9532064,22.8320312 41.0782878,23.2763672 42.434082,23.2763672 C44.3367513,23.2763672 45.8862305,22.5073242 47.0825195,20.9692383 L49.3212891,23.1054688 C48.5807292,24.210612 47.5923665,25.0679525 46.3562012,25.6774902 C45.1200358,26.287028 43.7329102,26.5917969 42.1948242,26.5917969 Z M41.6992188,10.7495117 C40.5598958,10.7495117 39.6398926,11.1482747 38.939209,11.9458008 C38.2385254,12.7433268 37.7913411,13.8541667 37.5976562,15.2783203 L45.5102539,15.2783203 L45.5102539,14.9707031 C45.4191081,13.5807292 45.0488281,12.5297038 44.3994141,11.817627 C43.75,11.1055501 42.8499349,10.7495117 41.6992188,10.7495117 Z" id="Shape"></path>
                    <path d="M62.5146484,11.5527344 C61.9677734,11.4615885 61.4038086,11.4160156 60.8227539,11.4160156 C58.9200846,11.4160156 57.6383464,12.1451823 56.9775391,13.6035156 L56.9775391,26.25 L52.824707,26.25 L52.824707,7.75878906 L56.7895508,7.75878906 L56.8920898,9.82666016 C57.894694,8.22021484 59.284668,7.41699219 61.0620117,7.41699219 C61.6544596,7.41699219 62.1443685,7.49674479 62.5317383,7.65625 L62.5146484,11.5527344 Z" id="Path"></path>
                    <path d="M71.1962891,3.26416016 L71.1962891,7.75878906 L74.4604492,7.75878906 L74.4604492,10.8349609 L71.1962891,10.8349609 L71.1962891,21.1572266 C71.1962891,21.8636068 71.3358561,22.3734538 71.6149902,22.6867676 C71.8941243,23.0000814 72.3925781,23.1567383 73.1103516,23.1567383 C73.5888672,23.1567383 74.0730794,23.0997721 74.5629883,22.9858398 L74.5629883,26.1987305 C73.6173503,26.4607747 72.7058919,26.5917969 71.8286133,26.5917969 C68.6385091,26.5917969 67.043457,24.831543 67.043457,21.3110352 L67.043457,10.8349609 L64.0014648,10.8349609 L64.0014648,7.75878906 L67.043457,7.75878906 L67.043457,3.26416016 L71.1962891,3.26416016 Z" id="Path"></path>
                    <path d="M87.9956055,21.2255859 C87.9956055,20.485026 87.6908366,19.9210612 87.0812988,19.5336914 C86.4717611,19.1463216 85.460612,18.8045247 84.0478516,18.5083008 C82.6350911,18.2120768 81.4558919,17.8361003 80.5102539,17.3803711 C78.4366862,16.3777669 77.3999023,14.9251302 77.3999023,13.0224609 C77.3999023,11.4274089 78.0721029,10.094401 79.4165039,9.0234375 C80.7609049,7.95247396 82.4698893,7.41699219 84.543457,7.41699219 C86.7537435,7.41699219 88.5396322,7.96386719 89.901123,9.05761719 C91.2626139,10.1513672 91.9433594,11.5698242 91.9433594,13.3129883 L87.7905273,13.3129883 C87.7905273,12.5154622 87.4943034,11.8518066 86.9018555,11.3220215 C86.3094076,10.7922363 85.5232747,10.5273438 84.543457,10.5273438 C83.6319987,10.5273438 82.8885905,10.7381185 82.3132324,11.159668 C81.7378743,11.5812174 81.4501953,12.1451823 81.4501953,12.8515625 C81.4501953,13.4895833 81.7179362,13.9851888 82.253418,14.3383789 C82.7888997,14.691569 83.8712565,15.0476074 85.5004883,15.4064941 C87.1297201,15.7653809 88.40861,16.192627 89.3371582,16.6882324 C90.2657064,17.1838379 90.9549967,17.7791341 91.4050293,18.4741211 C91.8550618,19.1691081 92.0800781,20.012207 92.0800781,21.003418 C92.0800781,22.6668294 91.3907878,24.0140788 90.012207,25.045166 C88.6336263,26.0762533 86.8277995,26.5917969 84.5947266,26.5917969 C83.0794271,26.5917969 81.7293294,26.3183594 80.5444336,25.7714844 C79.3595378,25.2246094 78.4366862,24.4726562 77.7758789,23.515625 C77.1150716,22.5585938 76.784668,21.5275065 76.784668,20.4223633 L80.8178711,20.4223633 C80.8748372,21.402181 81.2451172,22.1569824 81.9287109,22.6867676 C82.6123047,23.2165527 83.5180664,23.4814453 84.6459961,23.4814453 C85.7397461,23.4814453 86.5714518,23.2735189 87.1411133,22.857666 C87.7107747,22.4418132 87.9956055,21.8977865 87.9956055,21.2255859 Z" id="Path"></path>
                </g>
            </g>
        </g>
    </g>
</svg>