<svg xmlns="http://www.w3.org/2000/svg" viewBox="0 0 30.86 26.72"><defs><style>.cls-1{fill:#c24413;}</style></defs><title>ico-error</title><g id="Capa_2" data-name="Capa 2"><g id="Capa_1-2" data-name="Capa 1"><path class="cls-1" d="M21.41,3l6,10.36-6,10.36h-12l-6-10.36L9.45,3h12m1.73-3H7.71L0,13.36,7.71,26.72H23.14l7.72-13.36L23.14,0Z"/><path class="cls-1" d="M17.19,13.59l2.63,2.64a.77.77,0,0,1,.24.58.86.86,0,0,1-.24.6l-.57.58a.89.89,0,0,1-.61.24.78.78,0,0,1-.58-.24l-2.63-2.63L12.79,18a.77.77,0,0,1-.58.24.86.86,0,0,1-.6-.24L11,17.41a.86.86,0,0,1-.24-.6.77.77,0,0,1,.24-.58l2.63-2.64L11,11a.78.78,0,0,1-.24-.58A.89.89,0,0,1,11,9.77l.58-.58a.9.9,0,0,1,.6-.23.8.8,0,0,1,.58.23l2.64,2.64,2.63-2.64A.82.82,0,0,1,18.64,9a.93.93,0,0,1,.61.23l.57.58a.89.89,0,0,1,.24.61.78.78,0,0,1-.24.58Z"/></g></g></svg>