<svg xmlns="http://www.w3.org/2000/svg" viewBox="0 0 30.86 26.72"><defs><style>.cls-1{fill:#00e37d;}</style></defs><title>ico-ok</title><g id="Capa_2" data-name="Capa 2"><g id="Capa_1-2" data-name="Capa 1"><path class="cls-1" d="M21.41,3l6,10.36-6,10.36h-12l-6-10.36L9.45,3h12m1.73-3H7.71L0,13.36,7.71,26.72H23.14l7.72-13.36L23.14,0Z"/><path class="cls-1" d="M9.59,14a.55.55,0,0,1-.16-.42.57.57,0,0,1,.16-.42l.87-.84a.52.52,0,0,1,.41-.19.57.57,0,0,1,.43.19l2.63,2.62,5.62-5.62A.59.59,0,0,1,20,9.09a.52.52,0,0,1,.41.19l.86.84a.57.57,0,0,1,.17.42.56.56,0,0,1-.17.42l-6.91,6.9a.58.58,0,0,1-.84,0Z"/></g></g></svg>