<svg xmlns="http://www.w3.org/2000/svg" viewBox="0 0 12.82 12.82"><defs><style>.cls-1{fill:#009df5;}</style></defs><title>ico-linkedin</title><g id="Capa_2" data-name="Capa 2"><g id="Capa_1-2" data-name="Capa 1"><path class="cls-1" d="M.46,2.63A1.44,1.44,0,0,1,0,1.55,1.47,1.47,0,0,1,.46.46,1.47,1.47,0,0,1,1.55,0,1.44,1.44,0,0,1,2.63.46a1.47,1.47,0,0,1,.46,1.09,1.44,1.44,0,0,1-.46,1.08,1.44,1.44,0,0,1-1.08.46A1.47,1.47,0,0,1,.46,2.63ZM.2,12.82V4.27H2.86v8.55Zm10,0V8.64A4.71,4.71,0,0,0,10,7.16a1.2,1.2,0,0,0-1.23-.78,1.34,1.34,0,0,0-1.29.69,3.2,3.2,0,0,0-.29,1.52v4.23H4.55V4.27H7.1V5.44h0a2.3,2.3,0,0,1,.91-1A2.89,2.89,0,0,1,9.65,4a2.83,2.83,0,0,1,2.6,1.17,5.8,5.8,0,0,1,.57,2.92v4.69Z"/></g></g></svg>