<svg xmlns="http://www.w3.org/2000/svg" viewBox="0 0 14.66 11.91"><defs><style>.cls-1{fill:#009df5;}</style></defs><title>ico-twitter</title><g id="Capa_2" data-name="Capa 2"><g id="Capa_1-2" data-name="Capa 1"><path class="cls-1" d="M13.17,3.35a8.6,8.6,0,0,1-1,4,8.16,8.16,0,0,1-2.9,3.23,8.22,8.22,0,0,1-4.66,1.35A8.31,8.31,0,0,1,0,10.56q.32,0,.72,0A6,6,0,0,0,4.47,9.3a2.78,2.78,0,0,1-1.76-.58,3,3,0,0,1-1-1.48l.54,0A3.72,3.72,0,0,0,3,7.18a3,3,0,0,1-1.72-1A2.9,2.9,0,0,1,.6,4.24V4.18A2.83,2.83,0,0,0,2,4.58,3.42,3.42,0,0,1,1,3.49,3,3,0,0,1,.6,2.05,2.86,2.86,0,0,1,1,.54,8.36,8.36,0,0,0,3.76,2.78a8.27,8.27,0,0,0,3.45.91,5.19,5.19,0,0,1,0-.68,3,3,0,0,1,.4-1.51A3,3,0,0,1,8.64.4,3,3,0,0,1,11.35.26a3.56,3.56,0,0,1,1,.68A6.26,6.26,0,0,0,14.26.23a3,3,0,0,1-1.32,1.66,6.66,6.66,0,0,0,1.72-.49A6.71,6.71,0,0,1,13.14,3,1.58,1.58,0,0,1,13.17,3.35Z"/></g></g></svg>