<svg xmlns="http://www.w3.org/2000/svg" viewBox="0 0 13.64 13.64"><defs><style>.cls-1{fill:#009df5;}</style></defs><title>ico-slack</title><g id="Capa_2" data-name="Capa 2"><g id="Capa_1-2" data-name="Capa 1"><path class="cls-1" d="M5,3.59A1.41,1.41,0,0,1,6,4a1.38,1.38,0,0,1,.43,1A1.4,1.4,0,0,1,6,6a1.35,1.35,0,0,1-1,.43H1.43A1.35,1.35,0,0,1,.43,6,1.35,1.35,0,0,1,0,5a1.47,1.47,0,0,1,.2-.74,1.34,1.34,0,0,1,.52-.51,1.33,1.33,0,0,1,.71-.19Zm-2.17,5a1.37,1.37,0,0,1-.42,1,1.43,1.43,0,0,1-1,.41,1.41,1.41,0,0,1-1-.41,1.34,1.34,0,0,1-.43-1,1.39,1.39,0,0,1,.43-1,1.38,1.38,0,0,1,1-.42H2.86ZM5,2.86a1.4,1.4,0,0,1-1-.42,1.43,1.43,0,0,1-.41-1A1.41,1.41,0,0,1,4,.43,1.34,1.34,0,0,1,5,0,1.36,1.36,0,0,1,6,.43a1.39,1.39,0,0,1,.43,1V2.86ZM3.59,8.62a1.43,1.43,0,0,1,.41-1,1.37,1.37,0,0,1,1-.42,1.39,1.39,0,0,1,1,.42,1.41,1.41,0,0,1,.43,1v3.59a1.41,1.41,0,0,1-.43,1,1.39,1.39,0,0,1-1,.42,1.37,1.37,0,0,1-1-.42,1.43,1.43,0,0,1-.41-1ZM10.05,5a1.41,1.41,0,0,1-.41,1,1.34,1.34,0,0,1-1,.43,1.39,1.39,0,0,1-1-.43,1.38,1.38,0,0,1-.42-1V1.43a1.38,1.38,0,0,1,.42-1,1.37,1.37,0,0,1,1-.43,1.43,1.43,0,0,1,.73.2,1.37,1.37,0,0,1,.52.52,1.41,1.41,0,0,1,.18.71Zm-1.43,5a1.43,1.43,0,0,1-1-.41,1.37,1.37,0,0,1-.42-1,1.42,1.42,0,0,1,.42-1,1.4,1.4,0,0,1,1-.42h3.59a1.4,1.4,0,0,1,1,.42,1.42,1.42,0,0,1,.42,1,1.37,1.37,0,0,1-.42,1,1.43,1.43,0,0,1-1,.41Zm0,.73a1.35,1.35,0,0,1,1,.43,1.41,1.41,0,0,1,.41,1,1.43,1.43,0,0,1-.41,1,1.37,1.37,0,0,1-1,.42,1.42,1.42,0,0,1-1-.42,1.4,1.4,0,0,1-.42-1V10.78ZM10.78,5a1.37,1.37,0,0,1,.43-1,1.41,1.41,0,0,1,1-.41,1.43,1.43,0,0,1,1,.41,1.37,1.37,0,0,1,.42,1,1.39,1.39,0,0,1-.42,1,1.37,1.37,0,0,1-1,.43H10.78Z"/></g></g></svg>