<svg width="150" height="22" viewBox="0 0 150 22" fill="none" xmlns="http://www.w3.org/2000/svg">
<path d="M127.18 5.85978C127.18 5.60795 127.384 5.40381 127.636 5.40381C127.888 5.40381 128.092 5.60795 128.092 5.85978V17.1653C128.092 17.4171 127.888 17.6212 127.636 17.6212C127.384 17.6212 127.18 17.4171 127.18 17.1652V5.85978Z" fill="#282828"/>
<path d="M113.337 12.6423C113.487 14.357 114.369 15.2143 115.984 15.2143C116.485 15.2143 116.988 15.158 117.495 15.0454C118.002 14.9265 118.562 14.7387 119.176 14.4821L119.87 16.275C118.343 16.9822 116.932 17.3326 115.637 17.3264C114.047 17.3264 112.799 16.8633 111.891 15.9371C110.984 15.0109 110.53 13.7249 110.53 12.0791C110.53 10.4395 110.975 9.16291 111.863 8.24926C112.752 7.32934 113.997 6.86938 115.599 6.86938C118.609 6.86938 120.114 8.57467 120.114 11.9852V12.6423H113.337ZM117.467 10.9715C117.386 9.56968 116.769 8.86879 115.618 8.86879C114.98 8.86879 114.476 9.04401 114.107 9.39446C113.744 9.73864 113.506 10.2643 113.393 10.9715H117.467Z" fill="#282828"/>
<path d="M109.545 16.7541C108.675 17.1108 107.842 17.2892 107.048 17.2892C104.832 17.2892 103.725 16.2316 103.725 14.1164V9.08501H102.063V7.06683H103.912L104.466 4.18506H106.588V7.06683H109.338V9.08501H106.588V13.7127C106.588 14.2259 106.682 14.592 106.869 14.811C107.063 15.03 107.392 15.1396 107.855 15.1396C108.249 15.1396 108.672 15.0613 109.122 14.9049L109.545 16.7541Z" fill="#282828"/>
<path d="M96.4029 6.86938C97.8234 6.86938 98.9123 7.21983 99.6695 7.92072C100.427 8.6216 100.805 9.63852 100.805 10.9715V17.1386H98.4211L98.0925 15.9465C97.6795 16.3846 97.2133 16.7194 96.6939 16.9509C96.1807 17.1762 95.63 17.2888 95.0418 17.2888C94.003 17.2888 93.1769 17.0197 92.5637 16.4816C91.9566 15.9434 91.6531 15.2206 91.6531 14.3132C91.6531 13.2619 92.0943 12.4421 92.9767 11.8538C93.8653 11.2656 95.1044 10.9715 96.6939 10.9715H97.9236V10.718C97.886 9.55403 97.2258 8.97205 95.9429 8.97205C95.5049 8.97205 94.998 9.03776 94.4223 9.16917C93.8465 9.29433 93.3271 9.45704 92.864 9.65729L92.2539 7.7142C92.9172 7.44511 93.615 7.2386 94.3472 7.09467C95.0793 6.94448 95.7646 6.86938 96.4029 6.86938ZM96.9379 12.5485C96.1182 12.5485 95.4799 12.6893 95.023 12.9709C94.5725 13.2525 94.3472 13.6436 94.3472 14.1442C94.3472 14.5572 94.4723 14.8733 94.7226 15.0923C94.973 15.3051 95.3265 15.4115 95.7834 15.4115C96.1964 15.4115 96.5906 15.3207 96.9661 15.1392C97.3478 14.9578 97.667 14.7137 97.9236 14.4071V12.5485H96.9379Z" fill="#282828"/>
<path d="M84.7914 6.97266C85.267 6.97266 85.7113 7.04149 86.1243 7.17917C86.5436 7.31058 86.9065 7.50458 87.2132 7.76115L87.5042 7.06653H89.8321V16.9697C89.8321 18.4716 89.369 19.6137 88.4429 20.3959C87.5229 21.1844 86.2682 21.5787 84.6787 21.5787C83.8715 21.5787 83.0704 21.4848 82.2757 21.297C81.4809 21.1156 80.7738 20.8496 80.1542 20.4992L81.046 18.6218C81.4966 18.8658 82.0473 19.0724 82.6981 19.2413C83.3489 19.4165 83.9497 19.5041 84.5004 19.5041C85.2826 19.5041 85.8834 19.3008 86.3027 18.894C86.7282 18.4935 86.941 17.9021 86.941 17.1199V16.0592C86.1712 16.7913 85.2638 17.1574 84.2188 17.1574C82.8233 17.1574 81.7375 16.7288 80.9615 15.8714C80.1855 15.0141 79.7975 13.8094 79.7975 12.2575C79.7975 10.6054 80.2387 9.31312 81.1211 8.38069C82.0035 7.442 83.2269 6.97266 84.7914 6.97266ZM85.3264 8.88758C84.4816 8.88758 83.8339 9.16919 83.3833 9.7324C82.939 10.2894 82.7169 11.0998 82.7169 12.1636C82.7169 13.1148 82.8952 13.847 83.2519 14.3601C83.6149 14.867 84.1343 15.1205 84.8101 15.1205C85.3233 15.1205 85.7707 14.9734 86.1525 14.6793C86.5405 14.3852 86.8033 13.9878 86.941 13.4872V9.30999C86.4528 9.02838 85.9147 8.88758 85.3264 8.88758Z" fill="#282828"/>
<path d="M74.8788 2.68311H77.7606V17.1389H74.8788V2.68311Z" fill="#282828"/>
<path d="M66.0833 12.6423C66.2335 14.357 67.1158 15.2143 68.7304 15.2143C69.231 15.2143 69.7348 15.158 70.2417 15.0454C70.7486 14.9265 71.3086 14.7387 71.9219 14.4821L72.6166 16.275C71.0896 16.9822 69.6785 17.3326 68.3831 17.3264C66.7936 17.3264 65.5451 16.8633 64.6377 15.9371C63.7303 15.0109 63.2766 13.7249 63.2766 12.0791C63.2766 10.4395 63.7209 9.16291 64.6095 8.24926C65.4982 7.32934 66.7435 6.86938 68.3455 6.86938C71.3556 6.86938 72.8606 8.57467 72.8606 11.9852V12.6423H66.0833ZM70.2135 10.9715C70.1322 9.56968 69.5158 8.86879 68.3643 8.86879C67.726 8.86879 67.2222 9.04401 66.853 9.39446C66.4901 9.73864 66.2523 10.2643 66.1396 10.9715H70.2135Z" fill="#282828"/>
<path d="M52.3315 7.06665H55.1758L56.6589 11.4879C56.8529 12.0886 57.0907 12.9647 57.3723 14.1162L57.5225 14.6982C57.6226 14.3165 57.6946 14.0286 57.7384 13.8346C57.9824 12.8458 58.1921 12.0573 58.3673 11.4691L59.8504 7.06665H62.6571L59.1934 17.1388H55.7953L52.3315 7.06665Z" fill="#282828"/>
<path d="M46.7839 6.86938C48.2045 6.86938 49.2934 7.21983 50.0506 7.92072C50.8078 8.6216 51.1864 9.63852 51.1864 10.9715V17.1386H48.8021L48.4736 15.9465C48.0606 16.3846 47.5943 16.7194 47.0749 16.9509C46.5618 17.1762 46.0111 17.2888 45.4228 17.2888C44.384 17.2888 43.558 17.0197 42.9447 16.4816C42.3377 15.9434 42.0342 15.2206 42.0342 14.3132C42.0342 13.2619 42.4754 12.4421 43.3577 11.8538C44.2464 11.2656 45.4854 10.9715 47.0749 10.9715H48.3046V10.718C48.2671 9.55403 47.6069 8.97205 46.324 8.97205C45.8859 8.97205 45.379 9.03776 44.8033 9.16917C44.2276 9.29433 43.7082 9.45704 43.2451 9.65729L42.6349 7.7142C43.2983 7.44511 43.996 7.2386 44.7282 7.09467C45.4604 6.94448 46.1456 6.86938 46.7839 6.86938ZM47.319 12.5485C46.4992 12.5485 45.8609 12.6893 45.4041 12.9709C44.9535 13.2525 44.7282 13.6436 44.7282 14.1442C44.7282 14.5572 44.8534 14.8733 45.1037 15.0923C45.354 15.3051 45.7076 15.4115 46.1644 15.4115C46.5774 15.4115 46.9717 15.3207 47.3472 15.1392C47.7289 14.9578 48.048 14.7137 48.3046 14.4071V12.5485H47.319Z" fill="#282828"/>
<path d="M37.6129 8.46521C38.2449 7.42639 39.1304 6.90698 40.2694 6.90698C40.5134 6.90698 40.7199 6.92263 40.8889 6.95392C41.0641 6.97895 41.2863 7.02901 41.5554 7.10411L41.2268 9.61979C40.6886 9.4258 40.213 9.33193 39.8 9.33819C39.3494 9.33819 38.9677 9.41954 38.6548 9.58225C38.3419 9.73869 38.0791 9.98901 37.8663 10.3332V17.1387H34.9752V7.06656H37.2656L37.6129 8.46521Z" fill="#282828"/>
<path d="M33.2479 16.7541C32.3781 17.1108 31.5458 17.2892 30.751 17.2892C28.5357 17.2892 27.4281 16.2316 27.4281 14.1164V9.08501H25.7666V7.06683H27.6158L28.1696 4.18506H30.2911V7.06683H33.0414V9.08501H30.2911V13.7127C30.2911 14.2259 30.3849 14.592 30.5727 14.811C30.7667 15.03 31.0952 15.1396 31.5583 15.1396C31.9526 15.1396 32.375 15.0613 32.8255 14.9049L33.2479 16.7541Z" fill="#282828"/>
<rect width="21.7896" height="21.7896" rx="1.97064" fill="#0B59DE"/>
<path fill-rule="evenodd" clip-rule="evenodd" d="M4.80021 5.32178L8.88229 11.2976L4.22943 18.3129H7.83838L12.6495 11.2566L8.52468 5.32178H4.80021Z" fill="white"/>
<path fill-rule="evenodd" clip-rule="evenodd" d="M13.6871 4.22949L11.1233 8.02323L13.0527 10.6927L17.4092 4.22949H13.6871Z" fill="white"/>
<path fill-rule="evenodd" clip-rule="evenodd" d="M13.0126 11.8066L16.7347 17.2359H15.9898H13.0103L11.1233 14.488" fill="white"/>
<path fill-rule="evenodd" clip-rule="evenodd" d="M143.352 5.58574C143.022 5.44708 142.666 5.30694 142.436 5.24619C141.032 4.87645 139.733 4.94488 138.574 5.42601C137.419 5.90541 136.44 6.77838 135.64 7.95489C134.205 10.069 133.909 12.9757 134.878 15.3427L133.484 15.9192V16.9454L135.297 16.1958C135.551 16.6345 135.857 17.0455 136.213 17.4185C137.136 18.3842 138.198 19.0458 139.367 19.3223C140.538 19.5996 141.782 19.4812 143.046 18.9417C144.622 18.2685 145.535 16.9567 145.598 15.2153C145.637 14.1743 145.292 13.1301 144.668 12.3218L147.119 11.3086V10.2823L145.971 10.7573L144.055 8.85988L143.101 9.25425L145.017 11.1517L143.947 11.5937C143.299 11.0893 142.493 10.7933 141.582 10.8335C139.983 10.9044 138.246 11.7628 138.055 13.5479C137.885 15.1249 138.845 16.7446 140.592 16.7446C141.259 16.7446 141.79 16.555 142.175 16.2262C142.555 15.8999 142.755 15.4683 142.817 15.0492C142.877 14.6479 142.813 14.2331 142.639 13.8973L141.75 14.2652C141.828 14.4083 141.905 14.6798 141.871 14.9119C141.838 15.1381 141.734 15.3517 141.549 15.5094C141.368 15.6645 141.072 15.7975 140.592 15.7975C139.6 15.7975 138.875 14.8671 139.005 13.6477C139.122 12.5544 140.224 11.8417 141.625 11.7797C143.331 11.7042 144.71 13.3411 144.643 15.181C144.593 16.5597 143.902 17.5447 142.668 18.072C141.573 18.5391 140.54 18.6263 139.589 18.4011C138.635 18.1752 137.729 17.6267 136.908 16.7676C134.877 14.6415 134.753 10.9577 136.434 8.4835C137.153 7.42281 137.997 6.69174 138.943 6.29956C139.884 5.90914 140.964 5.83847 142.19 6.16147C142.398 6.21603 142.818 6.38678 143.22 6.56106L144.709 7.24425C144.794 7.28281 144.883 7.20376 144.855 7.11643L144.134 4.90349C144.111 4.8345 144.165 4.76419 144.238 4.76597L145.632 4.79993C147.206 4.83619 148.653 6.11541 148.977 7.6286C148.994 7.7078 148.932 7.78028 148.849 7.78028H147.172V8.72737H150V8.25383C150 5.96897 147.96 3.9064 145.655 3.85312L142.764 3.78271L143.352 5.58574Z" fill="#282828"/>
<path fill-rule="evenodd" clip-rule="evenodd" d="M146.977 6.43424C146.977 6.79662 146.681 7.0904 146.316 7.0904C145.949 7.0904 145.653 6.79662 145.653 6.43424C145.653 6.07185 145.949 5.77808 146.316 5.77808C146.681 5.77808 146.977 6.07185 146.977 6.43424Z" fill="#282828"/>
</svg>
