<svg id="Capa_1" data-name="Capa 1" xmlns="http://www.w3.org/2000/svg" viewBox="0 0 1576.03 446.59"><defs><style>.cls-1{fill:#fff;}.cls-2{fill:#418fde;}</style></defs><title>logos-RGB</title><path class="cls-1" d="M904.06,183.45H877.29v72.81h-18V183.45H832.88V168.87h71.18Z"/><path class="cls-1" d="M945.78,207.58a47.37,47.37,0,0,0-6.25-.48q-9.84,0-12.9,6.66v42.5H909.28V191.32h16.39l.48,7.74q5.22-8.94,14.46-8.95a18.5,18.5,0,0,1,5.4.78Z"/><path class="cls-1" d="M990,256.26a19.41,19.41,0,0,1-1.74-5.83q-6.3,7-16.39,7-9.54,0-15.81-5.53A17.75,17.75,0,0,1,949.74,238q0-10.32,7.65-15.85t22.12-5.58h8v-3.72a10.7,10.7,0,0,0-2.31-7.2q-2.31-2.7-7.29-2.7a10.34,10.34,0,0,0-6.88,2.1,7.13,7.13,0,0,0-2.49,5.76H951.18a17.42,17.42,0,0,1,3.48-10.44,23,23,0,0,1,9.84-7.53,35.88,35.88,0,0,1,14.29-2.74q12,0,19.05,6t7,16.95v28.15q.06,9.24,2.58,14v1ZM975.6,244.19a15,15,0,0,0,7.09-1.71,11.23,11.23,0,0,0,4.8-4.59V226.73H981q-13,0-13.87,9l-.06,1a6.94,6.94,0,0,0,2.28,5.34A8.86,8.86,0,0,0,975.6,244.19Z"/><path class="cls-1" d="M1041.62,235.07l12.07-43.75h18.12l-21.9,64.94h-16.57l-21.91-64.94h18.13Z"/><path class="cls-1" d="M1108.54,257.46q-14.28,0-23.25-8.77t-9-23.34v-1.68a39.23,39.23,0,0,1,3.79-17.5,27.74,27.74,0,0,1,10.71-11.88,30.07,30.07,0,0,1,15.81-4.18q13.34,0,21,8.41t7.65,23.82v7.09H1093.9a16.11,16.11,0,0,0,5.07,10.2,15.33,15.33,0,0,0,10.71,3.84q10,0,15.67-7.26l8.52,9.54a26,26,0,0,1-10.56,8.61A34.51,34.51,0,0,1,1108.54,257.46Zm-2-53.36a10.81,10.81,0,0,0-8.37,3.5q-3.21,3.5-4.11,10h24.13v-1.38q-.12-5.79-3.12-9C1113.09,205.15,1110.24,204.1,1106.56,204.1Z"/><path class="cls-1" d="M1163.4,256.26H1146V164.07h17.4Z"/><path class="cls-1" d="M1175.16,223.3q0-14.94,7.12-24.06t19.17-9.13q10.68,0,16.63,7.33l.72-6.12h15.72v62.77a27.76,27.76,0,0,1-3.87,14.83,24.85,24.85,0,0,1-10.89,9.6,38.3,38.3,0,0,1-16.45,3.3,35.6,35.6,0,0,1-13.92-2.85,24.71,24.71,0,0,1-10.26-7.35l7.68-10.56a20.31,20.31,0,0,0,15.72,7.26q6.9,0,10.75-3.69t3.84-10.48v-3.48q-6,6.79-15.79,6.79a23,23,0,0,1-18.93-9.16q-7.23-9.15-7.24-24.27Zm17.35,1.24q0,8.86,3.54,13.9a11.26,11.26,0,0,0,9.72,5q7.93,0,11.35-6V210.07q-3.48-6-11.23-6a11.33,11.33,0,0,0-9.81,5.12Q1192.51,214.35,1192.51,224.54Z"/><path class="cls-1" d="M1285.48,256.26a19.41,19.41,0,0,1-1.74-5.83q-6.3,7-16.39,7-9.54,0-15.81-5.53a17.75,17.75,0,0,1-6.27-13.92q0-10.32,7.65-15.85t22.12-5.58h8v-3.72a10.7,10.7,0,0,0-2.31-7.2q-2.31-2.7-7.3-2.7a10.33,10.33,0,0,0-6.87,2.1,7.13,7.13,0,0,0-2.49,5.76h-17.34a17.42,17.42,0,0,1,3.48-10.44,23,23,0,0,1,9.84-7.53,35.86,35.86,0,0,1,14.28-2.74q12,0,19.06,6t7.05,16.95v28.15q.06,9.24,2.58,14v1Zm-14.35-12.07a15,15,0,0,0,7.09-1.71,11.23,11.23,0,0,0,4.8-4.59V226.73h-6.48q-13,0-13.87,9l-.06,1a6.94,6.94,0,0,0,2.28,5.34A8.86,8.86,0,0,0,1271.13,244.19Z"/><path class="cls-1" d="M1334.51,175.35v16h11.11V204h-11.11v32.41q0,3.6,1.38,5.16t5.29,1.56a27.65,27.65,0,0,0,5.1-.42v13.14a35.72,35.72,0,0,1-10.51,1.57q-18.24,0-18.6-18.43V204h-9.48V191.32h9.48v-16Z"/><path class="cls-1" d="M1385.17,257.46q-14.28,0-23.26-8.77t-9-23.34v-1.68a39.23,39.23,0,0,1,3.78-17.5,27.74,27.74,0,0,1,10.71-11.88,30.13,30.13,0,0,1,15.82-4.18q13.32,0,21,8.41t7.66,23.82v7.09h-41.36a16.12,16.12,0,0,0,5.08,10.2,15.33,15.33,0,0,0,10.71,3.84q10,0,15.66-7.26l8.53,9.54a26.06,26.06,0,0,1-10.57,8.61A34.5,34.5,0,0,1,1385.17,257.46Zm-2-53.36a10.81,10.81,0,0,0-8.37,3.5q-3.21,3.5-4.12,10h24.13v-1.38q-.12-5.79-3.12-9T1383.19,204.1Z"/><path class="cls-1" d="M1454.13,199l16.38-30.13h20.71l-25.45,43.33,26.11,44.06h-21l-16.8-30.61-16.81,30.61h-20.94l26.11-44.06L1417,168.87h20.7Z"/><path class="cls-1" d="M768.36,236.28q0,10.38-4.59,16.46a14.66,14.66,0,0,1-12.34,6.09q-9.27,0-14-6.88L737.2,258h-4.59V195h4.88v25.05q4.68-7.26,13.86-7.26a14.78,14.78,0,0,1,12.44,6q4.58,6,4.57,16.71Zm-4.92-.86q0-8.78-3.4-13.55a11.1,11.1,0,0,0-9.59-4.77,13.54,13.54,0,0,0-8,2.31,14.09,14.09,0,0,0-5,6.79v20q3.69,8.35,13,8.36a11,11,0,0,0,9.49-4.8Q763.44,245,763.44,235.42Z"/><path class="cls-1" d="M792.8,251l13-37.31H811L792.1,265.56l-1,2.29q-3.66,8.08-11.28,8.08a13.87,13.87,0,0,1-3.77-.57l0-4.06,2.54.24a9.06,9.06,0,0,0,5.84-1.78,13.54,13.54,0,0,0,3.8-6.13l2.17-6-16.73-44H779Z"/><path class="cls-2" d="M191.67,242.66l.23.68q.47,26.8-13.68,40.14t-40.37,13.34q-26.91,0-42.71-15.86T79.33,235.9V186.43q0-29.09,15.29-45.12t41.28-16q27.38,0,42,13.28t14.2,40.2l-.23.68H160.53q0-16-5.67-22.44t-19-6.41q-12.14,0-18.2,8.76t-6.07,26.85v49.7q0,18.21,6.52,27t19.7,8.76q12,0,17.29-6.36t5.27-22.61Z"/><path class="cls-2" d="M204.7,231.32q0-27.94,13.34-45.52t37.5-17.58q24,0,37.56,17.58t13.51,45.52V234q0,27.95-13.45,45.41t-37.39,17.46q-24.28,0-37.68-17.4T204.7,234ZM236.87,234q0,17.3,4.3,27.49t14.6,10.19q9.84,0,14.2-10.19T274.32,234v-2.63q0-17.06-4.35-27.43t-14.43-10.36q-10.08,0-14.37,10.42t-4.3,27.37Z"/><path class="cls-2" d="M352.27,170.51l1.38,17.29a42,42,0,0,1,12.88-14.42,29.66,29.66,0,0,1,17-5.16q15.79,0,24.79,12.31t9,38.65v75.24H385V219.18q0-14-3.38-19.75a11.1,11.1,0,0,0-10.25-5.78,18.85,18.85,0,0,0-9.68,2.51,21.87,21.87,0,0,0-7.27,7.1v91.16H322.16V170.51Z"/><path class="cls-2" d="M499.16,243.91H441.22V218.6h57.94Z"/><g id="g16"><g id="g14"><g id="g12"><g id="g4"><polygon id="polyline2" class="cls-2" points="638.2 223.81 552.33 100.61 474.79 100.61 559.77 224.67 462.91 370.3 538.04 370.3 638.2 223.81"/></g><g id="g10"><polygon id="polyline6" class="cls-2" points="737.29 77.93 659.8 77.93 606.43 156.69 646.6 212.11 737.29 77.93"/><polygon id="polyline8" class="cls-2" points="645.76 235.23 723.25 347.95 645.71 347.95 606.43 290.9 645.76 235.23"/></g></g></g></g></svg>