<svg id="Capa_1" data-name="Capa 1" xmlns="http://www.w3.org/2000/svg" viewBox="0 0 1012.84 681.49"><defs><style>.cls-1{fill:#0c2340;}.cls-2{fill:#fff;}.cls-3{fill:#418fde;}</style></defs><title>logos-RGB</title><rect class="cls-1" x="-54.78" y="-36.53" width="1138.73" height="788.35"/><path class="cls-2" d="M394.28,520.46H371.37v62.31H356V520.46H333.35V508h60.93Z"/><path class="cls-2" d="M430,541.11a41,41,0,0,0-5.34-.41q-8.43,0-11,5.7v36.37H398.75V527.19h14l.42,6.63q4.46-7.67,12.38-7.66a15.41,15.41,0,0,1,4.62.67Z"/><path class="cls-2" d="M467.79,582.77a16.57,16.57,0,0,1-1.49-5,17.94,17.94,0,0,1-14,6,19.74,19.74,0,0,1-13.54-4.73,15.19,15.19,0,0,1-5.37-11.91q0-8.83,6.55-13.57t18.93-4.77h6.84v-3.19a9.14,9.14,0,0,0-2-6.16c-1.32-1.54-3.4-2.32-6.24-2.32a8.88,8.88,0,0,0-5.89,1.8,6.12,6.12,0,0,0-2.13,4.93H434.61a14.89,14.89,0,0,1,3-8.93A19.66,19.66,0,0,1,446,528.5a30.69,30.69,0,0,1,12.23-2.34q10.27,0,16.31,5.16t6,14.52v24.09q.06,7.91,2.21,12v.87Zm-12.28-10.32a12.76,12.76,0,0,0,6.07-1.47,9.6,9.6,0,0,0,4.11-3.93V557.5h-5.55q-11.14,0-11.87,7.7l0,.88a5.94,5.94,0,0,0,1.95,4.57A7.57,7.57,0,0,0,455.51,572.45Z"/><path class="cls-2" d="M512,564.64l10.33-37.45h15.51l-18.75,55.58H504.93l-18.75-55.58H501.7Z"/><path class="cls-2" d="M569.3,583.8q-12.22,0-19.91-7.5t-7.68-20v-1.44a33.57,33.57,0,0,1,3.24-15,23.74,23.74,0,0,1,9.17-10.17,25.76,25.76,0,0,1,13.54-3.57q11.4,0,18,7.19t6.55,20.4v6.06H556.77a13.75,13.75,0,0,0,4.34,8.73,13.12,13.12,0,0,0,9.17,3.29q8.58,0,13.4-6.22l7.3,8.17a22.29,22.29,0,0,1-9,7.37A29.59,29.59,0,0,1,569.3,583.8Zm-1.7-45.67a9.26,9.26,0,0,0-7.16,3q-2.75,3-3.52,8.56h20.65V548.5q-.11-4.95-2.67-7.66T567.6,538.13Z"/><path class="cls-2" d="M616.25,582.77H601.36v-78.9h14.89Z"/><path class="cls-2" d="M626.32,554.57q0-12.8,6.09-20.6a19.72,19.72,0,0,1,16.41-7.81q9.15,0,14.23,6.27l.62-5.24h13.46v53.73a23.72,23.72,0,0,1-3.32,12.69,21.21,21.21,0,0,1-9.32,8.22,32.85,32.85,0,0,1-14.08,2.83,30.41,30.41,0,0,1-11.91-2.45,21.12,21.12,0,0,1-8.79-6.29l6.58-9a17.37,17.37,0,0,0,13.46,6.22q5.89,0,9.19-3.16t3.29-9v-3a17.15,17.15,0,0,1-13.51,5.81A19.67,19.67,0,0,1,632.51,576q-6.19-7.83-6.19-20.77Zm14.85,1.06q0,7.57,3,11.89a9.63,9.63,0,0,0,8.32,4.31q6.78,0,9.71-5.11V543.24q-3-5.12-9.61-5.11a9.69,9.69,0,0,0-8.4,4.39Q641.18,546.9,641.17,555.63Z"/><path class="cls-2" d="M720.74,582.77a16.57,16.57,0,0,1-1.49-5,18,18,0,0,1-14,6,19.74,19.74,0,0,1-13.54-4.73,15.19,15.19,0,0,1-5.37-11.91q0-8.83,6.55-13.57t18.93-4.77h6.83v-3.19a9.18,9.18,0,0,0-2-6.16c-1.32-1.54-3.4-2.32-6.25-2.32a8.83,8.83,0,0,0-5.88,1.8,6.12,6.12,0,0,0-2.13,4.93H687.56a14.94,14.94,0,0,1,3-8.93A19.75,19.75,0,0,1,699,528.5a30.66,30.66,0,0,1,12.23-2.34q10.26,0,16.31,5.16t6,14.52v24.09q.06,7.91,2.21,12v.87Zm-12.28-10.32a12.72,12.72,0,0,0,6.06-1.47,9.54,9.54,0,0,0,4.11-3.93V557.5h-5.54q-11.16,0-11.87,7.7l-.05.88a5.94,5.94,0,0,0,2,4.57A7.57,7.57,0,0,0,708.46,572.45Z"/><path class="cls-2" d="M762.71,513.52v13.67h9.5v10.89h-9.5v27.74c0,2.06.39,3.53,1.18,4.42s2.3,1.33,4.52,1.33a23.66,23.66,0,0,0,4.37-.36v11.25a30.59,30.59,0,0,1-9,1.34q-15.62,0-15.93-15.77V538.08h-8.11V527.19h8.11V513.52Z"/><path class="cls-2" d="M806.07,583.8q-12.23,0-19.91-7.5t-7.68-20v-1.44a33.57,33.57,0,0,1,3.24-15,23.74,23.74,0,0,1,9.17-10.17,25.7,25.7,0,0,1,13.53-3.57q11.42,0,18,7.19t6.55,20.4v6.06h-35.4a13.8,13.8,0,0,0,4.34,8.73,13.14,13.14,0,0,0,9.17,3.29q8.58,0,13.41-6.22l7.3,8.17a22.26,22.26,0,0,1-9,7.37A29.55,29.55,0,0,1,806.07,583.8Zm-1.7-45.67a9.26,9.26,0,0,0-7.16,3q-2.76,3-3.52,8.56h20.65V548.5q-.11-4.95-2.67-7.66T804.37,538.13Z"/><path class="cls-2" d="M865.09,533.76l14-25.78h17.72l-21.78,37.09,22.34,37.7H879.48l-14.39-26.2-14.38,26.2H832.78l22.35-37.7L833.35,508h17.72Z"/><path class="cls-2" d="M278.13,565.68q0,8.88-3.93,14.09A12.56,12.56,0,0,1,263.64,585q-7.93,0-12-5.89l-.18,5.19h-3.93v-53.9h4.18v21.44q4-6.21,11.86-6.21a12.66,12.66,0,0,1,10.65,5.14q3.91,5.14,3.91,14.3Zm-4.21-.74q0-7.5-2.91-11.59a9.48,9.48,0,0,0-8.21-4.09,11.56,11.56,0,0,0-6.84,2,12,12,0,0,0-4.25,5.81v17.12q3.16,7.17,11.16,7.16a9.43,9.43,0,0,0,8.12-4.1Q273.93,573.12,273.92,564.94Z"/><path class="cls-2" d="M299.05,578.24l11.09-31.93h4.52l-16.21,44.43-.84,2q-3.12,6.91-9.65,6.92a11.72,11.72,0,0,1-3.23-.5l0-3.47,2.17.21a7.75,7.75,0,0,0,5-1.53,11.49,11.49,0,0,0,3.25-5.24L297,584l-14.32-37.65h4.6Z"/><path class="cls-3" d="M237.89,301.38l.28.85q.57,33.21-17,49.75t-50,16.54q-33.36,0-52.94-19.66T98.65,293V231.69q0-36,18.95-55.92t51.17-19.88q33.91,0,52.09,16.47t17.6,49.82l-.29.85H199.28q0-19.87-7-27.82t-23.49-8q-15,0-22.57,10.86t-7.52,33.28V293q0,22.56,8.09,33.42t24.41,10.86q14.9,0,21.43-7.88t6.53-28Z"/><path class="cls-3" d="M254,287.33q0-34.63,16.53-56.42t46.49-21.79q29.81,0,46.56,21.79t16.74,56.42v3.26q0,34.64-16.67,56.28t-46.35,21.65q-30.09,0-46.69-21.58T254,290.59Zm39.88,3.26q0,21.44,5.33,34.07t18.09,12.63q12.21,0,17.6-12.63t5.4-34.07v-3.26q0-21.15-5.4-34t-17.88-12.84q-12.49,0-17.81,12.92t-5.33,33.92Z"/><path class="cls-3" d="M437,212l1.7,21.43a52.13,52.13,0,0,1,16-17.88,36.73,36.73,0,0,1,21.07-6.39q19.59,0,30.73,15.26t11.15,47.9v93.26h-40V272.28q0-17.31-4.19-24.48a13.74,13.74,0,0,0-12.7-7.17,23.23,23.23,0,0,0-12,3.12,27.21,27.21,0,0,0-9,8.8v113h-40V212Z"/><path class="cls-3" d="M619,302.93H547.19V271.56H619Z"/><g id="g16"><g id="g14"><g id="g12"><g id="g4"><polygon id="polyline2" class="cls-3" points="791.34 278.02 684.9 125.31 588.8 125.31 694.13 279.08 574.07 459.59 667.19 459.59 791.34 278.02"/></g><g id="g10"><polygon id="polyline6" class="cls-3" points="914.16 97.21 818.12 97.21 751.96 194.83 801.75 263.52 914.16 97.21"/><polygon id="polyline8" class="cls-3" points="800.71 292.18 896.76 431.88 800.65 431.88 751.96 361.18 800.71 292.18"/></g></g></g></g></svg>