<svg id="Capa_1" data-name="Capa 1" xmlns="http://www.w3.org/2000/svg" viewBox="0 0 1576.03 446.59"><defs><style>.cls-1{fill:#0c2340;}.cls-2{fill:#fff;}.cls-3{fill:#418fde;}</style></defs><title>logos-RGB</title><rect class="cls-1" x="-44.55" y="-43.38" width="1661.44" height="549.46"/><path class="cls-2" d="M914.45,134.58H887.83V207h-17.9V134.58H843.68v-14.5h70.77Z"/><path class="cls-2" d="M955.91,158.57a46.43,46.43,0,0,0-6.2-.48q-9.8,0-12.83,6.62V207H919.64V142.4h16.29l.47,7.7q5.19-8.9,14.38-8.9a18,18,0,0,1,5.37.78Z"/><path class="cls-2" d="M999.83,207a19.06,19.06,0,0,1-1.73-5.79,20.89,20.89,0,0,1-16.29,7q-9.49,0-15.72-5.49a17.64,17.64,0,0,1-6.24-13.84q0-10.26,7.61-15.75t22-5.55h7.93v-3.7a10.6,10.6,0,0,0-2.3-7.16q-2.3-2.68-7.24-2.69a10.3,10.3,0,0,0-6.84,2.09,7.09,7.09,0,0,0-2.47,5.73H961.28a17.36,17.36,0,0,1,3.46-10.38,22.91,22.91,0,0,1,9.79-7.49,35.67,35.67,0,0,1,14.2-2.72q11.94,0,18.94,6t7,16.86v28q.06,9.19,2.57,13.9v1Zm-14.26-12a14.8,14.8,0,0,0,7-1.7,11.09,11.09,0,0,0,4.77-4.56V177.6h-6.44q-12.95,0-13.78,9l-.06,1a6.93,6.93,0,0,0,2.26,5.31A8.82,8.82,0,0,0,985.57,195Z"/><path class="cls-2" d="M1051.2,185.89l12-43.49h18L1059.44,207H1043l-21.78-64.56h18Z"/><path class="cls-2" d="M1117.73,208.15q-14.2,0-23.12-8.71t-8.92-23.21v-1.67a38.94,38.94,0,0,1,3.76-17.39,27.51,27.51,0,0,1,10.65-11.82,29.91,29.91,0,0,1,15.72-4.15q13.25,0,20.85,8.36t7.61,23.69v7h-41.11a16.07,16.07,0,0,0,5,10.14,15.24,15.24,0,0,0,10.65,3.82q10,0,15.58-7.22l8.47,9.49a26,26,0,0,1-10.5,8.56A34.45,34.45,0,0,1,1117.73,208.15Zm-2-53a10.78,10.78,0,0,0-8.32,3.47q-3.2,3.48-4.09,9.95h24v-1.38q-.12-5.75-3.11-8.9T1115.76,155.11Z"/><path class="cls-2" d="M1172.26,207H1155V115.31h17.3Z"/><path class="cls-2" d="M1184,174.2q0-14.85,7.07-23.93t19.06-9.07q10.62,0,16.53,7.28l.72-6.08H1243v62.41a27.57,27.57,0,0,1-3.85,14.74,24.63,24.63,0,0,1-10.83,9.54,38,38,0,0,1-16.35,3.29,35.38,35.38,0,0,1-13.84-2.84,24.43,24.43,0,0,1-10.2-7.31l7.63-10.5a20.22,20.22,0,0,0,15.64,7.22q6.86,0,10.68-3.67t3.82-10.41v-3.46q-6,6.74-15.7,6.74a22.84,22.84,0,0,1-18.82-9.1Q1184,190,1184,174.92Zm17.24,1.23q0,8.81,3.52,13.81a11.19,11.19,0,0,0,9.67,5q7.88,0,11.28-5.94V161q-3.47-5.92-11.16-5.93a11.28,11.28,0,0,0-9.76,5.09Q1201.21,165.3,1201.2,175.43Z"/><path class="cls-2" d="M1293.63,207a18.78,18.78,0,0,1-1.73-5.79,20.89,20.89,0,0,1-16.29,7q-9.49,0-15.73-5.49a17.67,17.67,0,0,1-6.23-13.84q0-10.26,7.61-15.75t22-5.55h7.94v-3.7a10.65,10.65,0,0,0-2.3-7.16q-2.3-2.68-7.25-2.69a10.29,10.29,0,0,0-6.83,2.09,7.09,7.09,0,0,0-2.47,5.73h-17.25a17.29,17.29,0,0,1,3.46-10.38,22.91,22.91,0,0,1,9.79-7.49,35.64,35.64,0,0,1,14.2-2.72q11.92,0,18.94,6t7,16.86v28q.06,9.19,2.57,13.9v1Zm-14.26-12a14.8,14.8,0,0,0,7-1.7,11.2,11.2,0,0,0,4.77-4.56V177.6h-6.44q-13,0-13.79,9l-.06,1a6.93,6.93,0,0,0,2.27,5.31A8.82,8.82,0,0,0,1279.37,195Z"/><path class="cls-2" d="M1342.37,126.53V142.4h11v12.65h-11v32.22q0,3.57,1.38,5.13T1349,194a27.31,27.31,0,0,0,5.07-.42V206.6a35.62,35.62,0,0,1-10.44,1.55q-18.15,0-18.5-18.32V155.05h-9.43V142.4h9.43V126.53Z"/><path class="cls-2" d="M1392.73,208.15q-14.2,0-23.12-8.71t-8.92-23.21v-1.67a38.94,38.94,0,0,1,3.76-17.39,27.64,27.64,0,0,1,10.65-11.82,30,30,0,0,1,15.72-4.15q13.25,0,20.86,8.36t7.6,23.69v7h-41.11a16,16,0,0,0,5,10.14,15.21,15.21,0,0,0,10.65,3.82q10,0,15.57-7.22l8.47,9.49a25.82,25.82,0,0,1-10.5,8.56A34.45,34.45,0,0,1,1392.73,208.15Zm-2-53a10.79,10.79,0,0,0-8.32,3.47q-3.2,3.48-4.09,9.95h24v-1.38c-.08-3.83-1.12-6.8-3.1-8.9S1394.42,155.11,1390.76,155.11Z"/><path class="cls-2" d="M1461.29,150l16.29-30h20.58l-25.3,43.08,26,43.8H1478l-16.71-30.43L1444.58,207h-20.82l26-43.8-25.29-43.08H1445Z"/><path class="cls-2" d="M779.55,187.11q0,10.3-4.57,16.36a14.56,14.56,0,0,1-12.27,6.05q-9.21,0-13.93-6.84l-.21,6H744V146.1h4.85V171q4.64-7.22,13.77-7.22a14.71,14.71,0,0,1,12.37,6q4.54,6,4.55,16.61Zm-4.89-.86q0-8.72-3.39-13.47a11,11,0,0,0-9.53-4.75,13.38,13.38,0,0,0-8,2.31,13.9,13.9,0,0,0-4.93,6.74V197q3.66,8.31,13,8.32a10.94,10.94,0,0,0,9.43-4.77Q774.66,195.75,774.66,186.25Z"/><path class="cls-2" d="M803.84,201.7l12.88-37.09H822l-18.83,51.6-1,2.28q-3.63,8-11.21,8a13.68,13.68,0,0,1-3.75-.57l0-4,2.53.24a9.07,9.07,0,0,0,5.81-1.77c1.48-1.19,2.73-3.22,3.77-6.1l2.16-5.95-16.63-43.73h5.34Z"/><path class="cls-3" d="M189.65,241.73l.23.68q.45,26.64-13.61,39.9t-40.13,13.27q-26.74,0-42.46-15.77T78,235V185.83q0-28.92,15.2-44.85t41-15.94q27.21,0,41.78,13.2t14.12,40l-.23.69H158.69q0-15.94-5.64-22.32t-18.84-6.37q-12.08,0-18.1,8.71t-6,26.69V235q0,18.11,6.49,26.81t19.58,8.71q12,0,17.19-6.32t5.24-22.48Z"/><path class="cls-3" d="M202.6,230.46q0-27.78,13.26-45.25t37.28-17.48q23.91,0,37.34,17.48t13.44,45.25v2.62q0,27.78-13.38,45.14t-37.17,17.36q-24.13,0-37.45-17.31T202.6,233.08Zm32,2.62q0,17.19,4.27,27.32t14.51,10.13q9.79,0,14.12-10.13t4.32-27.32v-2.62q0-17-4.32-27.27t-14.35-10.3q-10,0-14.28,10.36t-4.27,27.21Z"/><path class="cls-3" d="M349.31,170l1.37,17.19a41.94,41.94,0,0,1,12.8-14.35,29.53,29.53,0,0,1,16.91-5.12q15.71,0,24.65,12.24T414,218.39v74.8h-32.1v-74.8q0-13.89-3.36-19.64A11,11,0,0,0,368.32,193a18.66,18.66,0,0,0-9.62,2.51,21.72,21.72,0,0,0-7.23,7.06v90.62h-32.1V170Z"/><path class="cls-3" d="M495.34,243H437.73V217.81h57.61Z"/><g id="g16"><g id="g14"><g id="g12"><g id="g4"><polygon id="polyline2" class="cls-3" points="633.56 222.99 548.19 100.51 471.11 100.51 555.59 223.84 459.29 368.62 533.98 368.62 633.56 222.99"/></g><g id="g10"><polygon id="polyline6" class="cls-3" points="732.07 77.97 655.04 77.97 601.97 156.26 641.91 211.36 732.07 77.97"/><polygon id="polyline8" class="cls-3" points="641.08 234.35 718.11 346.4 641.03 346.4 601.97 289.69 641.08 234.35"/></g></g></g></g><path class="cls-3" d="M757.49,251.12l12.89,36.41,12.83-36.41H796.8v50.2H786.42V287.6l1-23.68-13.55,37.4h-7.1L753.28,264l1,23.65v13.72H744v-50.2Z"/><path class="cls-3" d="M834.79,291H816.66l-3.45,10.34h-11l18.69-50.2h9.58l18.79,50.2h-11Zm-15.34-8.38H832l-6.31-18.79Z"/><path class="cls-3" d="M864.3,293h22v8.31H854v-50.2H864.3Z"/><path class="cls-3" d="M902.54,293h22v8.31H892.2v-50.2h10.34Z"/><path class="cls-3" d="M969.47,277.36a30.41,30.41,0,0,1-2.62,13,19.78,19.78,0,0,1-7.5,8.62A22.18,22.18,0,0,1,937,299a19.92,19.92,0,0,1-7.58-8.56,29.35,29.35,0,0,1-2.73-12.81v-2.49a30.18,30.18,0,0,1,2.67-13,19.93,19.93,0,0,1,7.55-8.65,22.11,22.11,0,0,1,22.31,0,19.93,19.93,0,0,1,7.55,8.65,30.1,30.1,0,0,1,2.68,13ZM959,275.09q0-7.9-2.82-12a10,10,0,0,0-16.1,0q-2.84,4.05-2.87,11.87v2.45q0,7.69,2.83,11.93a9.91,9.91,0,0,0,16.14.16q2.79-4.09,2.82-11.92Z"/><path class="cls-3" d="M995.57,283h-8.24v18.37H977v-50.2h18.65q8.89,0,13.73,4t4.82,11.2a15.44,15.44,0,0,1-2.22,8.57,15.17,15.17,0,0,1-6.74,5.47l10.86,20.51v.48H1005Zm-8.24-8.38h8.34a8.53,8.53,0,0,0,6-2,7.1,7.1,0,0,0,2.14-5.47,7.54,7.54,0,0,0-2-5.58q-2-2-6.19-2h-8.3Z"/><path class="cls-3" d="M1061.45,284.6q-.59,8.1-6,12.76T1041.25,302q-9.66,0-15.19-6.5t-5.53-17.84V274.6a30.07,30.07,0,0,1,2.55-12.75,19.14,19.14,0,0,1,7.29-8.47,20.47,20.47,0,0,1,11-2.95q8.68,0,14,4.66t6.13,13.07h-10.34c-.25-3.24-1.15-5.6-2.71-7.06s-3.91-2.18-7.08-2.18q-5.17,0-7.74,3.7c-1.72,2.47-2.59,6.31-2.64,11.5v3.79q0,8.14,2.47,11.9c1.64,2.5,4.23,3.76,7.77,3.76q4.8,0,7.15-2.19t2.71-6.78Z"/><path class="cls-3" d="M1096.59,291h-18.14L1075,301.32h-11l18.68-50.2h9.59l18.79,50.2h-11Zm-15.34-8.38h12.55l-6.31-18.79Z"/><path class="cls-3" d="M1166.68,301.32h-34.41V294.5l16.24-17.31a40.12,40.12,0,0,0,5-6.38,10.23,10.23,0,0,0,1.61-5.17,7.71,7.71,0,0,0-1.69-5.26,6.1,6.1,0,0,0-4.83-1.91,6.59,6.59,0,0,0-5.33,2.32,9.24,9.24,0,0,0-2,6.12h-10a16.42,16.42,0,0,1,2.19-8.37,15.49,15.49,0,0,1,6.19-6,18.79,18.79,0,0,1,9.07-2.16q7.76,0,12,3.73t4.29,10.51a16.85,16.85,0,0,1-1.93,7.59,42,42,0,0,1-6.62,9l-11.41,12h21.58Z"/><path class="cls-3" d="M1196.1,281.26a12.61,12.61,0,0,1-9.11,3.83,13.47,13.47,0,0,1-10.65-4.57q-4-4.57-4-12.33a19.3,19.3,0,0,1,2.15-9.05,15.85,15.85,0,0,1,6-6.41,16.67,16.67,0,0,1,8.69-2.3,16,16,0,0,1,8.83,2.49,16.35,16.35,0,0,1,6,7.13,25.87,25.87,0,0,1,2.17,10.66v3.69q0,12.54-6.24,19.72t-17.69,7.65l-2.45,0V293.5l2.21,0Q1195,292.88,1196.1,281.26Zm-6.66-3.79a7,7,0,0,0,4.16-1.25,8.09,8.09,0,0,0,2.63-3v-4.1q0-5.07-1.93-7.86a6,6,0,0,0-5.17-2.79,5.81,5.81,0,0,0-4.93,2.74,11.64,11.64,0,0,0-1.93,6.88,11.3,11.3,0,0,0,1.88,6.74A6.11,6.11,0,0,0,1189.44,277.47Z"/><path class="cls-3" d="M1214.23,296.43a5,5,0,0,1,1.6-3.86,6.21,6.21,0,0,1,8.07,0,5.4,5.4,0,0,1,0,7.67,5.74,5.74,0,0,1-4.07,1.46,5.68,5.68,0,0,1-4-1.46A5,5,0,0,1,1214.23,296.43Z"/><path class="cls-3" d="M1267.6,280.57q0,10.41-4.31,15.93T1250.67,302q-8.2,0-12.55-5.41t-4.44-15.51v-9.24q0-10.53,4.36-16t12.57-5.45q8.21,0,12.55,5.4t4.44,15.5Zm-10-10.16q0-6.26-1.71-9.1a5.77,5.77,0,0,0-5.32-2.84,5.65,5.65,0,0,0-5.19,2.71c-1.12,1.8-1.71,4.63-1.78,8.47v12.22c0,4.09.56,7.14,1.67,9.13a5.69,5.69,0,0,0,5.36,3,5.6,5.6,0,0,0,5.28-2.86c1.08-1.91,1.64-4.84,1.69-8.77Z"/><path class="cls-3" d="M1297.64,281.26a12.61,12.61,0,0,1-9.11,3.83,13.47,13.47,0,0,1-10.65-4.57q-4-4.57-4-12.33a19.3,19.3,0,0,1,2.15-9.05,15.85,15.85,0,0,1,6-6.41,16.67,16.67,0,0,1,8.69-2.3,16,16,0,0,1,8.83,2.49,16.35,16.35,0,0,1,6,7.13,25.87,25.87,0,0,1,2.17,10.66v3.69q0,12.54-6.24,19.72t-17.69,7.65l-2.45,0V293.5l2.21,0Q1296.56,292.88,1297.64,281.26Zm-6.66-3.79a7,7,0,0,0,4.16-1.25,8.09,8.09,0,0,0,2.63-3v-4.1q0-5.07-1.93-7.86a6,6,0,0,0-5.17-2.79,5.81,5.81,0,0,0-4.93,2.74,11.64,11.64,0,0,0-1.93,6.88,11.3,11.3,0,0,0,1.88,6.74A6.11,6.11,0,0,0,1291,277.47Z"/><path class="cls-3" d="M1315.77,296.43a5,5,0,0,1,1.6-3.86,6.21,6.21,0,0,1,8.07,0,5.4,5.4,0,0,1,0,7.67,5.74,5.74,0,0,1-4.07,1.46,5.68,5.68,0,0,1-4-1.46A5,5,0,0,1,1315.77,296.43Z"/><path class="cls-3" d="M1369.76,301.32h-34.41V294.5l16.24-17.31a40.12,40.12,0,0,0,5-6.38,10.23,10.23,0,0,0,1.61-5.17,7.71,7.71,0,0,0-1.69-5.26,6.1,6.1,0,0,0-4.83-1.91,6.59,6.59,0,0,0-5.33,2.32,9.24,9.24,0,0,0-2,6.12h-10a16.42,16.42,0,0,1,2.19-8.37,15.49,15.49,0,0,1,6.19-6,18.79,18.79,0,0,1,9.07-2.16q7.76,0,12,3.73t4.29,10.51a16.85,16.85,0,0,1-1.93,7.59,42,42,0,0,1-6.62,9l-11.41,12h21.58Z"/><path class="cls-3" d="M1409.66,280.57q0,10.41-4.31,15.93T1392.73,302q-8.2,0-12.55-5.41t-4.45-15.51v-9.24q0-10.53,4.36-16t12.57-5.45q8.21,0,12.55,5.4t4.45,15.5Zm-10-10.16q0-6.26-1.7-9.1a5.79,5.79,0,0,0-5.33-2.84,5.65,5.65,0,0,0-5.19,2.71c-1.12,1.8-1.71,4.63-1.78,8.47v12.22c0,4.09.56,7.14,1.68,9.13a5.68,5.68,0,0,0,5.36,3,5.59,5.59,0,0,0,5.27-2.86c1.08-1.91,1.65-4.84,1.69-8.77Z"/><path class="cls-3" d="M1450.79,301.32h-34.41V294.5l16.24-17.31a40.12,40.12,0,0,0,5-6.38,10.21,10.21,0,0,0,1.6-5.17,7.66,7.66,0,0,0-1.69-5.26,6.08,6.08,0,0,0-4.83-1.91,6.57,6.57,0,0,0-5.32,2.32,9.24,9.24,0,0,0-1.95,6.12h-10a16.42,16.42,0,0,1,2.19-8.37,15.43,15.43,0,0,1,6.19-6,18.76,18.76,0,0,1,9.07-2.16q7.76,0,12.05,3.73t4.29,10.51a16.85,16.85,0,0,1-1.93,7.59,42.71,42.71,0,0,1-6.62,9l-11.41,12h21.58Z"/><path class="cls-3" d="M1490.68,280.57q0,10.41-4.31,15.93T1473.75,302q-8.2,0-12.55-5.41t-4.45-15.51v-9.24q0-10.53,4.37-16t12.56-5.45q8.21,0,12.55,5.4t4.45,15.5Zm-10-10.16q0-6.26-1.71-9.1a5.78,5.78,0,0,0-5.33-2.84,5.67,5.67,0,0,0-5.19,2.71c-1.11,1.8-1.7,4.63-1.77,8.47v12.22c0,4.09.56,7.14,1.67,9.13a5.69,5.69,0,0,0,5.36,3,5.6,5.6,0,0,0,5.28-2.86c1.08-1.91,1.64-4.84,1.69-8.77Z"/></svg>