<svg id="Capa_1" data-name="Capa 1" xmlns="http://www.w3.org/2000/svg" viewBox="0 0 1012.84 761.88"><defs><style>.cls-1{fill:#0c2340;}.cls-2{fill:#fff;}.cls-3{fill:#418fde;}</style></defs><title>logos-RGB</title><rect class="cls-1" x="-33.88" y="-27.45" width="1090.95" height="836.13"/><path class="cls-2" d="M400.66,499.34H378.9v59.2H364.25v-59.2H342.78V487.48h57.88Z"/><path class="cls-2" d="M434.59,519a38.48,38.48,0,0,0-5.08-.39q-8,0-10.49,5.42v34.55H404.91V505.73h13.33l.39,6.3q4.25-7.27,11.76-7.27a14.88,14.88,0,0,1,4.39.63Z"/><path class="cls-2" d="M470.51,558.54a15.84,15.84,0,0,1-1.42-4.73,17,17,0,0,1-13.32,5.71A18.75,18.75,0,0,1,442.91,555a14.44,14.44,0,0,1-5.1-11.32q0-8.4,6.22-12.89t18-4.54h6.49v-3a8.7,8.7,0,0,0-1.88-5.86c-1.26-1.47-3.23-2.2-5.93-2.2a8.39,8.39,0,0,0-5.59,1.71,5.81,5.81,0,0,0-2,4.69H439a14.18,14.18,0,0,1,2.83-8.5,18.72,18.72,0,0,1,8-6.12,29.19,29.19,0,0,1,11.62-2.22q9.76,0,15.5,4.9t5.73,13.79v22.89q0,7.51,2.1,11.37v.83Zm-11.67-9.81a12.08,12.08,0,0,0,5.76-1.39,9.17,9.17,0,0,0,3.91-3.73v-9.08h-5.27q-10.61,0-11.28,7.32l0,.83a5.61,5.61,0,0,0,1.86,4.34A7.19,7.19,0,0,0,458.84,548.73Z"/><path class="cls-2" d="M512.53,541.31l9.81-35.58h14.74l-17.81,52.81H505.8L488,505.73h14.74Z"/><path class="cls-2" d="M567,559.52q-11.61,0-18.91-7.13t-7.3-19V532a32,32,0,0,1,3.08-14.23,22.54,22.54,0,0,1,8.71-9.66,24.46,24.46,0,0,1,12.86-3.39q10.83,0,17.06,6.83T588.67,531v5.76H555a13.07,13.07,0,0,0,4.13,8.29,12.42,12.42,0,0,0,8.71,3.13q8.14,0,12.74-5.91l6.93,7.76a21.21,21.21,0,0,1-8.59,7A28.29,28.29,0,0,1,567,559.52Zm-1.61-43.39a8.83,8.83,0,0,0-6.81,2.84,14.76,14.76,0,0,0-3.34,8.14h19.62V526c-.07-3.13-.91-5.56-2.54-7.28A9.12,9.12,0,0,0,565.34,516.13Z"/><path class="cls-2" d="M611.56,558.54H597.41v-75h14.15Z"/><path class="cls-2" d="M621.13,531.75q0-12.15,5.78-19.57a18.75,18.75,0,0,1,15.6-7.42q8.68,0,13.52,5.95l.58-5H669.4v51.06a22.53,22.53,0,0,1-3.15,12.05,20.2,20.2,0,0,1-8.86,7.81A31.13,31.13,0,0,1,644,579.34,29,29,0,0,1,632.7,577a20.15,20.15,0,0,1-8.35-6l6.25-8.59a16.52,16.52,0,0,0,12.78,5.9q5.63,0,8.74-3t3.12-8.51V554a16.3,16.3,0,0,1-12.83,5.52,18.69,18.69,0,0,1-15.4-7.44q-5.88-7.46-5.88-19.75Zm14.1,1q0,7.21,2.88,11.3a9.16,9.16,0,0,0,7.91,4.1q6.43,0,9.22-4.86V521c-1.88-3.23-4.93-4.85-9.12-4.85a9.19,9.19,0,0,0-8,4.17Q635.23,524.47,635.23,532.75Z"/><path class="cls-2" d="M710.84,558.54a15.28,15.28,0,0,1-1.42-4.73,17.06,17.06,0,0,1-13.32,5.71A18.74,18.74,0,0,1,683.24,555a14.42,14.42,0,0,1-5.11-11.32q0-8.4,6.23-12.89t18-4.54h6.49v-3A8.7,8.7,0,0,0,707,517.4c-1.26-1.47-3.23-2.2-5.93-2.2a8.39,8.39,0,0,0-5.59,1.71,5.81,5.81,0,0,0-2,4.69h-14.1a14.18,14.18,0,0,1,2.83-8.5,18.66,18.66,0,0,1,8-6.12,29.19,29.19,0,0,1,11.62-2.22q9.75,0,15.49,4.9T723,523.45v22.89q0,7.51,2.1,11.37v.83Zm-11.67-9.81a12.13,12.13,0,0,0,5.76-1.39,9.09,9.09,0,0,0,3.9-3.73v-9.08h-5.27q-10.59,0-11.27,7.32l0,.83a5.64,5.64,0,0,0,1.85,4.34A7.21,7.21,0,0,0,699.17,548.73Z"/><path class="cls-2" d="M750.71,492.75v13h9v10.35h-9v26.36a6.26,6.26,0,0,0,1.12,4.19c.75.85,2.18,1.27,4.3,1.27a22.39,22.39,0,0,0,4.15-.34v10.69a29,29,0,0,1-8.54,1.27q-14.85,0-15.13-15V516.08h-7.72V505.73h7.72v-13Z"/><path class="cls-2" d="M791.9,559.52q-11.61,0-18.91-7.13t-7.29-19V532a32,32,0,0,1,3.07-14.23,22.54,22.54,0,0,1,8.71-9.66,24.48,24.48,0,0,1,12.86-3.39q10.85,0,17.06,6.83T813.62,531v5.76H780a13.06,13.06,0,0,0,4.12,8.29,12.43,12.43,0,0,0,8.71,3.13q8.16,0,12.74-5.91L812.5,550a21.15,21.15,0,0,1-8.59,7A28.25,28.25,0,0,1,791.9,559.52Zm-1.61-43.39a8.82,8.82,0,0,0-6.8,2.84,14.69,14.69,0,0,0-3.35,8.14h19.62V526a10.48,10.48,0,0,0-2.54-7.28A9.09,9.09,0,0,0,790.29,516.13Z"/><path class="cls-2" d="M848,512l13.33-24.5h16.84l-20.7,35.24,21.23,35.82h-17L848,533.65l-13.66,24.89h-17l21.24-35.82-20.7-35.24h16.84Z"/><path class="cls-2" d="M290.32,542.3q0,8.44-3.74,13.39a11.92,11.92,0,0,1-10,4.95q-7.55,0-11.41-5.6L265,560h-3.74V508.76h4v20.37q3.8-5.89,11.27-5.9a12,12,0,0,1,10.12,4.89q3.72,4.88,3.72,13.58Zm-4-.7q0-7.12-2.76-11a9,9,0,0,0-7.8-3.89,11,11,0,0,0-6.51,1.88,11.53,11.53,0,0,0-4,5.52v16.27q3,6.81,10.6,6.8a9,9,0,0,0,7.72-3.9Q286.32,549.37,286.31,541.6Z"/><path class="cls-2" d="M310.19,554.24l10.53-30.34H325l-15.4,42.21-.8,1.87c-2,4.37-5,6.57-9.17,6.57a11.3,11.3,0,0,1-3.07-.47l0-3.3,2.07.2a7.43,7.43,0,0,0,4.75-1.45,11,11,0,0,0,3.08-5l1.77-4.86-13.6-35.78H299Z"/><path class="cls-3" d="M252.08,291.19l.27.81q.54,31.56-16.12,47.27T188.7,355Q157,355,138.39,336.3t-18.61-53.06V225q0-34.24,18-53.13T186.4,153q32.23,0,49.49,15.64T252.62,216l-.27.8H215.4q0-18.87-6.68-26.43t-22.32-7.55q-14.29,0-21.44,10.32t-7.15,31.62v58.53q0,21.43,7.69,31.76t23.2,10.31q14.16,0,20.36-7.48t6.2-26.64Z"/><path class="cls-3" d="M267.41,277.84q0-32.89,15.71-53.6t44.17-20.7q28.32,0,44.23,20.7t15.91,53.6V281q0,32.9-15.84,53.47t-44,20.56q-28.59,0-44.37-20.5T267.41,281Zm37.9,3.11q0,20.35,5.05,32.36t17.2,12q11.6,0,16.72-12T349.4,281v-3.11q0-20.08-5.12-32.29t-17-12.21q-11.87,0-16.93,12.27t-5.05,32.23Z"/><path class="cls-3" d="M441.2,206.24l1.62,20.36a49.47,49.47,0,0,1,15.17-17,34.9,34.9,0,0,1,20-6.07q18.6,0,29.19,14.5t10.59,45.51v88.6h-38v-88.6q0-16.45-4-23.26a13.06,13.06,0,0,0-12.07-6.81,22.16,22.16,0,0,0-11.39,3,25.86,25.86,0,0,0-8.57,8.36V352.15h-38V206.24Z"/><path class="cls-3" d="M614.18,292.67H546V262.86h68.23Z"/><g id="g16"><g id="g14"><g id="g12"><g id="g4"><polygon id="polyline2" class="cls-3" points="777.92 269 676.79 123.91 585.48 123.91 685.56 270.01 571.48 441.51 659.96 441.51 777.92 269"/></g><g id="g10"><polygon id="polyline6" class="cls-3" points="894.6 97.21 803.35 97.21 740.5 189.96 787.8 255.22 894.6 97.21"/><polygon id="polyline8" class="cls-3" points="786.82 282.45 878.07 415.19 786.76 415.19 740.5 348.01 786.82 282.45"/></g></g></g></g><path class="cls-3" d="M138.12,613.53l13.13,37.09,13.07-37.09h13.84v51.14H167.59v-14l1-24.13-13.8,38.11H147.6L133.83,626.6l1.06,24.09v14H124.35V613.53Z"/><path class="cls-3" d="M216.86,654.13H198.39l-3.51,10.54H183.67l19-51.14h9.76l19.14,51.14h-11.2Zm-15.63-8.53H214l-6.43-19.14Z"/><path class="cls-3" d="M246.93,656.2H269.3v8.47H236.39V613.53h10.54Z"/><path class="cls-3" d="M285.88,656.2h22.37v8.47H275.34V613.53h10.54Z"/><path class="cls-3" d="M354.05,640.26a30.86,30.86,0,0,1-2.67,13.24,20.14,20.14,0,0,1-7.64,8.78,22.56,22.56,0,0,1-22.74,0,20.24,20.24,0,0,1-7.73-8.72,29.88,29.88,0,0,1-2.77-13.05V638a30.63,30.63,0,0,1,2.72-13.29,20.26,20.26,0,0,1,7.69-8.82,22.55,22.55,0,0,1,22.72,0,20.28,20.28,0,0,1,7.7,8.82A30.7,30.7,0,0,1,354.05,638Zm-10.68-2.32q0-8-2.88-12.22a10.17,10.17,0,0,0-16.4-.05q-2.88,4.13-2.92,12.09v2.5q0,7.83,2.88,12.15a10.09,10.09,0,0,0,16.44.16q2.85-4.17,2.88-12.14Z"/><path class="cls-3" d="M380.63,646h-8.39v18.72H361.7V613.53h19q9.07,0,14,4T399.6,629a15.74,15.74,0,0,1-2.27,8.73,15.41,15.41,0,0,1-6.86,5.57l11.06,20.9v.49H390.22Zm-8.39-8.54h8.5a8.7,8.7,0,0,0,6.15-2,7.2,7.2,0,0,0,2.17-5.56,7.72,7.72,0,0,0-2.05-5.69q-2.06-2.07-6.31-2.07h-8.46Z"/><path class="cls-3" d="M447.75,647.63q-.6,8.26-6.09,13t-14.49,4.74q-9.84,0-15.47-6.62t-5.64-18.18v-3.12a30.72,30.72,0,0,1,2.6-13,19.48,19.48,0,0,1,7.43-8.62,20.82,20.82,0,0,1,11.22-3q8.85,0,14.26,4.74t6.25,13.31H437.29q-.39-4.95-2.76-7.18t-7.22-2.23q-5.26,0-7.88,3.77T416.74,637v3.86q0,8.29,2.51,12.12t7.92,3.83c3.26,0,5.68-.75,7.29-2.23s2.52-3.79,2.76-6.91Z"/><path class="cls-3" d="M483.54,654.13H465.07l-3.52,10.54h-11.2l19-51.14h9.76l19.14,51.14h-11.2Zm-15.63-8.53H480.7l-6.43-19.14Z"/><path class="cls-3" d="M554.94,664.67H519.89v-7l16.54-17.63a39.69,39.69,0,0,0,5-6.49,10.45,10.45,0,0,0,1.64-5.27,7.86,7.86,0,0,0-1.72-5.36,6.22,6.22,0,0,0-4.92-2,6.72,6.72,0,0,0-5.43,2.37,9.41,9.41,0,0,0-2,6.24H518.87a16.85,16.85,0,0,1,2.23-8.54,15.81,15.81,0,0,1,6.31-6.06,19.17,19.17,0,0,1,9.24-2.19c5.26,0,9.36,1.26,12.27,3.79s4.37,6.1,4.37,10.71a17.2,17.2,0,0,1-2,7.73,43.21,43.21,0,0,1-6.75,9.17L533,656.48h22Z"/><path class="cls-3" d="M584.9,644.23a12.79,12.79,0,0,1-9.27,3.9,13.67,13.67,0,0,1-10.85-4.66q-4.08-4.65-4.08-12.55a19.64,19.64,0,0,1,2.2-9.22,16.06,16.06,0,0,1,6.13-6.54,17.05,17.05,0,0,1,8.85-2.33,16.22,16.22,0,0,1,9,2.53,16.6,16.6,0,0,1,6.11,7.27,26.07,26.07,0,0,1,2.21,10.85v3.76q0,12.78-6.35,20.09t-18,7.8l-2.49,0V656.7l2.24,0Q583.81,656.06,584.9,644.23Zm-6.78-3.87a7.16,7.16,0,0,0,4.24-1.26A8.4,8.4,0,0,0,585,636v-4.18q0-5.16-2-8a6.12,6.12,0,0,0-5.27-2.85,5.92,5.92,0,0,0-5,2.79,11.84,11.84,0,0,0-2,7,11.6,11.6,0,0,0,1.91,6.87A6.24,6.24,0,0,0,578.12,640.36Z"/><path class="cls-3" d="M603.38,659.68a5.09,5.09,0,0,1,1.63-3.93,5.78,5.78,0,0,1,4.09-1.51,5.84,5.84,0,0,1,4.13,1.51,5.52,5.52,0,0,1,0,7.81,6.47,6.47,0,0,1-8.26,0A5.05,5.05,0,0,1,603.38,659.68Z"/><path class="cls-3" d="M657.75,643.52q0,10.62-4.39,16.23t-12.86,5.62q-8.36,0-12.78-5.51t-4.53-15.81v-9.41q0-10.71,4.44-16.26t12.8-5.55q8.36,0,12.78,5.5t4.54,15.78Zm-10.16-10.34c0-4.25-.57-7.33-1.73-9.27a5.89,5.89,0,0,0-5.43-2.9,5.78,5.78,0,0,0-5.29,2.76q-1.7,2.76-1.8,8.63v12.45c0,4.17.56,7.27,1.7,9.3a5.8,5.8,0,0,0,5.46,3,5.69,5.69,0,0,0,5.37-2.92c1.1-1.95,1.68-4.92,1.72-8.93Z"/><path class="cls-3" d="M688.34,644.23a12.83,12.83,0,0,1-9.28,3.9,13.7,13.7,0,0,1-10.85-4.66q-4.08-4.65-4.07-12.55a19.63,19.63,0,0,1,2.19-9.22,16.19,16.19,0,0,1,6.13-6.54,17.05,17.05,0,0,1,8.85-2.33,16.22,16.22,0,0,1,9,2.53,16.54,16.54,0,0,1,6.11,7.27,26.07,26.07,0,0,1,2.22,10.85v3.76q0,12.78-6.36,20.09t-18,7.8l-2.49,0V656.7l2.25,0Q687.24,656.06,688.34,644.23Zm-6.78-3.87a7.1,7.1,0,0,0,4.23-1.26,8.43,8.43,0,0,0,2.69-3.06v-4.18q0-5.16-2-8a6.1,6.1,0,0,0-5.27-2.85,5.92,5.92,0,0,0-5,2.79,11.91,11.91,0,0,0-2,7,11.53,11.53,0,0,0,1.92,6.87A6.22,6.22,0,0,0,681.56,640.36Z"/><path class="cls-3" d="M706.81,659.68a5.09,5.09,0,0,1,1.63-3.93,6.35,6.35,0,0,1,8.22,0,5.1,5.1,0,0,1,1.64,3.93,5,5,0,0,1-1.62,3.88,5.85,5.85,0,0,1-4.14,1.49,5.77,5.77,0,0,1-4.11-1.49A5,5,0,0,1,706.81,659.68Z"/><path class="cls-3" d="M761.81,664.67h-35v-7l16.54-17.63a40.85,40.85,0,0,0,5-6.49,10.43,10.43,0,0,0,1.63-5.27,7.81,7.81,0,0,0-1.72-5.36,6.19,6.19,0,0,0-4.91-2,6.7,6.7,0,0,0-5.43,2.37,9.41,9.41,0,0,0-2,6.24H725.74a16.75,16.75,0,0,1,2.23-8.54,15.81,15.81,0,0,1,6.31-6.06,19.16,19.16,0,0,1,9.23-2.19q7.9,0,12.28,3.79t4.37,10.71a17.22,17.22,0,0,1-2,7.73,43.11,43.11,0,0,1-6.74,9.17l-11.63,12.25h22Z"/><path class="cls-3" d="M802.45,643.52q0,10.62-4.39,16.23t-12.86,5.62q-8.36,0-12.78-5.51t-4.53-15.81v-9.41q0-10.71,4.44-16.26t12.8-5.55q8.36,0,12.79,5.5t4.53,15.78ZM792.3,633.18c0-4.25-.58-7.33-1.74-9.27a5.89,5.89,0,0,0-5.43-2.9,5.75,5.75,0,0,0-5.28,2.76q-1.71,2.76-1.81,8.63v12.45c0,4.17.56,7.27,1.7,9.3a5.82,5.82,0,0,0,5.46,3,5.71,5.71,0,0,0,5.38-2.92c1.1-1.95,1.67-4.92,1.72-8.93Z"/><path class="cls-3" d="M844.35,664.67H809.3v-7l16.54-17.63a40.85,40.85,0,0,0,5-6.49,10.43,10.43,0,0,0,1.63-5.27,7.81,7.81,0,0,0-1.72-5.36,6.22,6.22,0,0,0-4.92-2,6.69,6.69,0,0,0-5.42,2.37,9.36,9.36,0,0,0-2,6.24H808.28a16.75,16.75,0,0,1,2.23-8.54,15.79,15.79,0,0,1,6.3-6.06,19.23,19.23,0,0,1,9.24-2.19q7.91,0,12.27,3.79t4.38,10.71a17.22,17.22,0,0,1-2,7.73,43.11,43.11,0,0,1-6.74,9.17l-11.63,12.25h22Z"/><path class="cls-3" d="M885,643.52q0,10.62-4.39,16.23t-12.85,5.62q-8.36,0-12.79-5.51t-4.53-15.81v-9.41q0-10.71,4.45-16.26t12.8-5.55q8.36,0,12.78,5.5T885,634.11Zm-10.15-10.34c0-4.25-.58-7.33-1.74-9.27a5.86,5.86,0,0,0-5.42-2.9,5.78,5.78,0,0,0-5.29,2.76c-1.13,1.84-1.74,4.72-1.81,8.63v12.45q0,6.25,1.71,9.3a5.8,5.8,0,0,0,5.46,3,5.69,5.69,0,0,0,5.37-2.92c1.1-1.95,1.68-4.92,1.72-8.93Z"/></svg>