<svg xmlns="http://www.w3.org/2000/svg" viewBox="0 0 899.65 367.47"><defs><style>.cls-1{fill:#0c2340;}.cls-2{fill:#fff;}.cls-3{fill:#0b90de;}</style></defs><title>logos-RGB</title><g id="Capa_4" data-name="Capa 4"><path class="cls-1" d="M464.62,142.68A42.5,42.5,0,0,1,462,157.87a35,35,0,0,1-7.39,11.91,32.92,32.92,0,0,1-11.45,7.75,38.51,38.51,0,0,1-14.82,2.76H401V105.07h27.37a38.32,38.32,0,0,1,14.82,2.78,33.48,33.48,0,0,1,11.45,7.75A34.81,34.81,0,0,1,462,127.49,42.5,42.5,0,0,1,464.62,142.68Zm-13.64,0a36,36,0,0,0-1.58-11.11,23.92,23.92,0,0,0-4.51-8.32,19.53,19.53,0,0,0-7.12-5.23,23.51,23.51,0,0,0-9.44-1.82H414.4v53h13.93a23.51,23.51,0,0,0,9.44-1.82,19.53,19.53,0,0,0,7.12-5.23,23.88,23.88,0,0,0,4.51-8.33A35.94,35.94,0,0,0,451,142.68Z"/><path class="cls-1" d="M512.63,152.54c.48,1.19,1,2.4,1.41,3.61q.69-1.87,1.44-3.69c.49-1.21,1-2.38,1.59-3.49l21.21-41.66a6,6,0,0,1,.82-1.25,2.62,2.62,0,0,1,.94-.68,4.18,4.18,0,0,1,1.17-.26c.43,0,.94-.05,1.53-.05h10.07v75.22H541.06V131.7c0-.9,0-1.89.07-3s.13-2.17.23-3.28l-21.67,42.66a5.89,5.89,0,0,1-1.93,2.26,4.81,4.81,0,0,1-2.78.8h-1.83a4.83,4.83,0,0,1-2.78-.8,5.89,5.89,0,0,1-1.93-2.26l-22-42.82q.19,1.73.27,3.36c.05,1.09.08,2.11.08,3v48.59H475.08V105.07h10.06c.59,0,1.11,0,1.54.05a4.11,4.11,0,0,1,1.16.26,2.81,2.81,0,0,1,1,.68,5,5,0,0,1,.84,1.25l21.42,41.77C511.63,150.19,512.15,151.34,512.63,152.54Z"/><path class="cls-1" d="M616.56,162.55a2.43,2.43,0,0,1,1.88.88l5.26,6A29.06,29.06,0,0,1,613,178.1a35.31,35.31,0,0,1-15.29,3,34.62,34.62,0,0,1-14.35-2.86,31.67,31.67,0,0,1-10.88-8,35.37,35.37,0,0,1-6.92-12.17,47.85,47.85,0,0,1-2.4-15.45,43.32,43.32,0,0,1,2.68-15.53A35.58,35.58,0,0,1,573.33,115,33.94,33.94,0,0,1,585,107.07a38.28,38.28,0,0,1,14.94-2.83,33.82,33.82,0,0,1,14,2.68,32.37,32.37,0,0,1,10.23,7.1l-4.46,6.5a4.17,4.17,0,0,1-1,1.09,2.82,2.82,0,0,1-1.71.47,3.74,3.74,0,0,1-2.33-.94,31,31,0,0,0-3-2,24.38,24.38,0,0,0-4.63-2,22.65,22.65,0,0,0-7.12-.94,23,23,0,0,0-9.29,1.85,20.59,20.59,0,0,0-7.29,5.28,24.49,24.49,0,0,0-4.76,8.35,33.46,33.46,0,0,0-1.71,11.05A34.48,34.48,0,0,0,578.46,154a25.11,25.11,0,0,0,4.64,8.32,19.89,19.89,0,0,0,6.89,5.18,20.49,20.49,0,0,0,8.52,1.79,35.23,35.23,0,0,0,4.94-.31,20.27,20.27,0,0,0,4.06-1,17.73,17.73,0,0,0,3.52-1.74,22,22,0,0,0,3.3-2.63,4.79,4.79,0,0,1,1-.75A2.52,2.52,0,0,1,616.56,162.55Z"/><path class="cls-1" d="M624.34,143.51H650v10.72H624.34Z"/><path class="cls-1" d="M676.14,141.59l-22.85-36.52h13.29a4,4,0,0,1,2,.39,3.45,3.45,0,0,1,1.11,1.27L686,134.36c.16-.45.35-.9.54-1.33a14.31,14.31,0,0,1,.7-1.33L702.17,107a3.23,3.23,0,0,1,2.83-1.92h12.79L694.68,141l23.75,39.28H705.1a3.09,3.09,0,0,1-2.16-.73,6.74,6.74,0,0,1-1.36-1.66L685,149.08a10.14,10.14,0,0,1-.45,1.17c-.16.36-.33.7-.49,1L668.11,177.9a8.19,8.19,0,0,1-1.33,1.63,2.75,2.75,0,0,1-2,.76H652.3Z"/><path class="cls-1" d="M401.34,260.76V209.23h8.17v20.32a16.12,16.12,0,0,1,4.56-3.59,12.57,12.57,0,0,1,5.94-1.34,10.79,10.79,0,0,1,5.08,1.2,11.4,11.4,0,0,1,4,3.49,17,17,0,0,1,2.58,5.65,29.55,29.55,0,0,1,.91,7.73,25.29,25.29,0,0,1-1,7.39,18.25,18.25,0,0,1-2.92,5.89,13.74,13.74,0,0,1-4.59,3.91,13,13,0,0,1-6,1.4,11.47,11.47,0,0,1-2.84-.33,9.68,9.68,0,0,1-4.31-2.36,15.79,15.79,0,0,1-1.73-1.89l-.37,2.39a2.18,2.18,0,0,1-.68,1.29,2.05,2.05,0,0,1-1.3.38Zm15.87-29.48a8,8,0,0,0-4.35,1.13,12.74,12.74,0,0,0-3.35,3.17v16a7.77,7.77,0,0,0,3,2.51,8.86,8.86,0,0,0,3.55.71,7.45,7.45,0,0,0,3.34-.73,6.59,6.59,0,0,0,2.53-2.22,11.22,11.22,0,0,0,1.6-3.76,22.74,22.74,0,0,0,.56-5.36,24.93,24.93,0,0,0-.48-5.29,10.52,10.52,0,0,0-1.37-3.52,5.46,5.46,0,0,0-2.16-2A6.46,6.46,0,0,0,417.21,231.28Z"/><path class="cls-1" d="M449.86,270.54a3.42,3.42,0,0,1-.94,1.37,2.81,2.81,0,0,1-1.77.47h-6.08l6.34-14.26L433.7,225.18h7.14a2.11,2.11,0,0,1,1.51.49,3.14,3.14,0,0,1,.8,1.1l7.24,18.45a16.55,16.55,0,0,1,.62,1.88c.18.64.33,1.29.47,1.94.17-.67.36-1.32.57-1.94s.44-1.26.68-1.91l6.81-18.42a2.52,2.52,0,0,1,.88-1.14,2.23,2.23,0,0,1,1.37-.45h6.54Z"/><path class="cls-1" d="M520,210.61v7.67H505.61v42.48h-8.89V218.28H482.28v-7.67Z"/><path class="cls-1" d="M519.89,260.76V225.18h4.79a2.46,2.46,0,0,1,1.75.49,2.82,2.82,0,0,1,.66,1.66l.5,4.3a16.61,16.61,0,0,1,4.26-5.2,8.71,8.71,0,0,1,5.49-1.91,6.83,6.83,0,0,1,4.16,1.21l-1.06,6.42a1.29,1.29,0,0,1-.43.88,1.35,1.35,0,0,1-.89.26,5.33,5.33,0,0,1-1.35-.24,8.83,8.83,0,0,0-2.28-.24,6.73,6.73,0,0,0-4.37,1.47,11.39,11.39,0,0,0-3.07,4.32v22.16Z"/><path class="cls-1" d="M572.5,260.76h-3.67a3.84,3.84,0,0,1-1.82-.36,2.38,2.38,0,0,1-1-1.48l-.72-2.53a28.64,28.64,0,0,1-2.53,2.13,15.19,15.19,0,0,1-2.56,1.55,12.7,12.7,0,0,1-2.81.93,16.06,16.06,0,0,1-3.31.31,12.55,12.55,0,0,1-4-.6,8.49,8.49,0,0,1-3.13-1.83,8.33,8.33,0,0,1-2-3,11.31,11.31,0,0,1-.73-4.21,8.68,8.68,0,0,1,1-4,9.68,9.68,0,0,1,3.36-3.55,20.75,20.75,0,0,1,6.24-2.63,38.42,38.42,0,0,1,9.69-1v-2.1c0-2.4-.48-4.17-1.44-5.33a5.13,5.13,0,0,0-4.18-1.73,9.51,9.51,0,0,0-3.31.49,12.22,12.22,0,0,0-2.29,1.09c-.65.41-1.26.77-1.81,1.09a3.44,3.44,0,0,1-1.81.49,2.27,2.27,0,0,1-1.42-.45,3.42,3.42,0,0,1-1-1.11l-1.49-2.74a19.61,19.61,0,0,1,14.11-5.62,13.17,13.17,0,0,1,5.31,1,11.35,11.35,0,0,1,4,2.85,12.36,12.36,0,0,1,2.46,4.35,17.55,17.55,0,0,1,.84,5.55Zm-15.86-5.34a10.44,10.44,0,0,0,2.31-.24,8.51,8.51,0,0,0,2-.72,11.22,11.22,0,0,0,1.82-1.17,17.78,17.78,0,0,0,1.77-1.66v-6a31.14,31.14,0,0,0-6,.48,15,15,0,0,0-3.85,1.2,5.06,5.06,0,0,0-2.07,1.71,4,4,0,0,0-.61,2.13,3.84,3.84,0,0,0,1.28,3.25A5.29,5.29,0,0,0,556.64,255.42Z"/><path class="cls-1" d="M596.33,260.76h-7.4l-13.49-35.58h6.78a2.47,2.47,0,0,1,1.5.45,2.25,2.25,0,0,1,.84,1.14l6.55,19c.37,1.11.69,2.2.94,3.26s.48,2.13.68,3.19c.19-1.06.42-2.13.67-3.19a32.29,32.29,0,0,1,1-3.26l6.71-19a2.33,2.33,0,0,1,.82-1.14,2.3,2.3,0,0,1,1.43-.45h6.44Z"/><path class="cls-1" d="M627.53,224.62a15.76,15.76,0,0,1,5.9,1.08,12.89,12.89,0,0,1,4.64,3.14,14.42,14.42,0,0,1,3,5.06,19.89,19.89,0,0,1,1.09,6.85,14.1,14.1,0,0,1-.08,1.61,2.82,2.82,0,0,1-.3,1,1.27,1.27,0,0,1-.58.52,2.41,2.41,0,0,1-.92.16h-21c.25,3.65,1.18,6.33,2.81,8a8.54,8.54,0,0,0,6.48,2.57,10.56,10.56,0,0,0,3.42-.49,15.26,15.26,0,0,0,2.51-1.07q1.08-.6,1.89-1.08a3.07,3.07,0,0,1,1.57-.48,1.71,1.71,0,0,1,.86.2,1.93,1.93,0,0,1,.62.59l2.38,3.12a13.85,13.85,0,0,1-3,2.8,16.48,16.48,0,0,1-3.52,1.8,18.08,18.08,0,0,1-3.73.95,24.92,24.92,0,0,1-3.69.28,17.34,17.34,0,0,1-6.57-1.23,14.75,14.75,0,0,1-5.29-3.64,17.27,17.27,0,0,1-3.54-6,24.06,24.06,0,0,1-1.29-8.23,20.55,20.55,0,0,1,1.13-6.85,16.71,16.71,0,0,1,3.22-5.59A15.36,15.36,0,0,1,620.7,226,16.28,16.28,0,0,1,627.53,224.62Zm.16,6.14a7.33,7.33,0,0,0-5.58,2.12,10.6,10.6,0,0,0-2.58,6h15.33a11,11,0,0,0-.43-3.14,7.17,7.17,0,0,0-1.32-2.58,6.24,6.24,0,0,0-2.25-1.76A7.44,7.44,0,0,0,627.69,230.76Z"/><path class="cls-1" d="M657.53,209.23v51.53h-8.16V209.23Z"/><path class="cls-1" d="M678.49,224.55a17.25,17.25,0,0,1,4.09.47,13.94,13.94,0,0,1,3.51,1.37h9.75v3.19a1.79,1.79,0,0,1-.4,1.25,2.34,2.34,0,0,1-1.35.63l-3,.59a12.29,12.29,0,0,1,.51,1.9,12,12,0,0,1,.18,2.12,11,11,0,0,1-1,4.77,10.64,10.64,0,0,1-2.77,3.62,12.74,12.74,0,0,1-4.2,2.31,16.58,16.58,0,0,1-5.27.81,17.77,17.77,0,0,1-3.74-.38,2.79,2.79,0,0,0-1.58,2.27,1.68,1.68,0,0,0,.94,1.59,7.31,7.31,0,0,0,2.48.72,25.81,25.81,0,0,0,3.48.21c1.3,0,2.64,0,4,.17a30.59,30.59,0,0,1,4,.61,11.61,11.61,0,0,1,3.49,1.37A7.25,7.25,0,0,1,694,256.7a8.29,8.29,0,0,1,.94,4.16,10.15,10.15,0,0,1-1.11,4.59,12.39,12.39,0,0,1-3.2,4,16.61,16.61,0,0,1-5.14,2.8,21.25,21.25,0,0,1-6.94,1.06,25.5,25.5,0,0,1-6.71-.78,15.1,15.1,0,0,1-4.71-2.08,8.77,8.77,0,0,1-2.79-3,7.26,7.26,0,0,1-.93-3.54,6.26,6.26,0,0,1,1.45-4.2,10,10,0,0,1,4-2.7,5.78,5.78,0,0,1-2-1.94,5.84,5.84,0,0,1-.76-3.16,5.78,5.78,0,0,1,.26-1.65,7.17,7.17,0,0,1,.81-1.68A8.66,8.66,0,0,1,668.6,247a10.12,10.12,0,0,1,1.95-1.33,11,11,0,0,1-4-3.88,10.79,10.79,0,0,1-1.47-5.69,11,11,0,0,1,1-4.77,10.55,10.55,0,0,1,2.81-3.64,12.46,12.46,0,0,1,4.27-2.31A17.38,17.38,0,0,1,678.49,224.55Zm9,37.7a2.56,2.56,0,0,0-.59-1.73,3.93,3.93,0,0,0-1.62-1,11.23,11.23,0,0,0-2.4-.54,22.28,22.28,0,0,0-2.91-.18h-3.17a13.21,13.21,0,0,1-3.16-.38,7.58,7.58,0,0,0-2.23,1.89,4,4,0,0,0-.84,2.51,3.54,3.54,0,0,0,.45,1.75,3.84,3.84,0,0,0,1.42,1.41,8.24,8.24,0,0,0,2.53.92,18.57,18.57,0,0,0,3.8.33,17.92,17.92,0,0,0,3.93-.38,9.11,9.11,0,0,0,2.73-1,4.34,4.34,0,0,0,1.57-1.56A4,4,0,0,0,687.44,262.25Zm-9-20.15a7.31,7.31,0,0,0,2.64-.43,5.2,5.2,0,0,0,1.87-1.2,5,5,0,0,0,1.12-1.84,7.06,7.06,0,0,0,.38-2.35,5.74,5.74,0,0,0-1.5-4.18,7.34,7.34,0,0,0-9,0,5.7,5.7,0,0,0-1.51,4.18,7,7,0,0,0,.38,2.32,5.11,5.11,0,0,0,1.13,1.86,5,5,0,0,0,1.88,1.21A7.36,7.36,0,0,0,678.49,242.1Z"/><path class="cls-1" d="M727.53,260.76h-3.67a3.84,3.84,0,0,1-1.82-.36,2.38,2.38,0,0,1-1-1.48l-.72-2.53a28.64,28.64,0,0,1-2.53,2.13,15.19,15.19,0,0,1-2.56,1.55,12.7,12.7,0,0,1-2.81.93,16.06,16.06,0,0,1-3.31.31,12.55,12.55,0,0,1-4-.6,8.49,8.49,0,0,1-3.13-1.83,8.33,8.33,0,0,1-2-3,11.31,11.31,0,0,1-.73-4.21,8.68,8.68,0,0,1,1-4,9.68,9.68,0,0,1,3.36-3.55,20.75,20.75,0,0,1,6.24-2.63,38.42,38.42,0,0,1,9.69-1v-2.1c0-2.4-.48-4.17-1.44-5.33a5.13,5.13,0,0,0-4.18-1.73,9.55,9.55,0,0,0-3.31.49,12.53,12.53,0,0,0-2.29,1.09c-.65.41-1.26.77-1.81,1.09a3.44,3.44,0,0,1-1.81.49,2.27,2.27,0,0,1-1.42-.45,3.42,3.42,0,0,1-1-1.11l-1.49-2.74A19.61,19.61,0,0,1,715,224.52a13.13,13.13,0,0,1,5.31,1,11.35,11.35,0,0,1,4,2.85,12.36,12.36,0,0,1,2.46,4.35,17.55,17.55,0,0,1,.84,5.55Zm-15.86-5.34a10.44,10.44,0,0,0,2.31-.24,8.51,8.51,0,0,0,2-.72,11.22,11.22,0,0,0,1.82-1.17,17.78,17.78,0,0,0,1.77-1.66v-6a31.14,31.14,0,0,0-6,.48,15,15,0,0,0-3.85,1.2,5.06,5.06,0,0,0-2.07,1.71,4,4,0,0,0-.61,2.13,3.84,3.84,0,0,0,1.28,3.25A5.29,5.29,0,0,0,711.67,255.42Z"/><path class="cls-1" d="M746.7,261.31a8.72,8.72,0,0,1-6.78-2.61,10.4,10.4,0,0,1-2.38-7.23V231.59h-3.43a1.61,1.61,0,0,1-1.14-.45,1.76,1.76,0,0,1-.48-1.35v-3.4l5.45-.93,1.72-9.71a1.74,1.74,0,0,1,.61-1.08,1.9,1.9,0,0,1,1.21-.38h4.23v11.2h8.92v6.1h-8.92v19.29a3.9,3.9,0,0,0,.79,2.6,2.64,2.64,0,0,0,2.12.93,3.62,3.62,0,0,0,1.27-.19,5.75,5.75,0,0,0,.89-.4c.25-.13.48-.27.68-.4a1.14,1.14,0,0,1,.59-.19,1,1,0,0,1,.6.19,2.78,2.78,0,0,1,.49.58l2.45,4.16a12.21,12.21,0,0,1-4.1,2.36A14.63,14.63,0,0,1,746.7,261.31Z"/><path class="cls-1" d="M775.15,224.62a15.68,15.68,0,0,1,5.9,1.08,12.93,12.93,0,0,1,4.65,3.14,14.42,14.42,0,0,1,3,5.06,20.13,20.13,0,0,1,1.09,6.85,11.9,11.9,0,0,1-.09,1.61,2.64,2.64,0,0,1-.29,1,1.32,1.32,0,0,1-.58.52,2.43,2.43,0,0,1-.93.16H767q.36,5.47,2.81,8a8.54,8.54,0,0,0,6.48,2.57,10.56,10.56,0,0,0,3.42-.49,15.64,15.64,0,0,0,2.51-1.07l1.88-1.08a3.1,3.1,0,0,1,1.57-.48,1.68,1.68,0,0,1,.86.2,2.07,2.07,0,0,1,.63.59l2.38,3.12a14.08,14.08,0,0,1-3,2.8,17,17,0,0,1-3.52,1.8,18.17,18.17,0,0,1-3.74.95,24.68,24.68,0,0,1-3.68.28,17.39,17.39,0,0,1-6.58-1.23,14.84,14.84,0,0,1-5.29-3.64,17.41,17.41,0,0,1-3.53-6,24.06,24.06,0,0,1-1.29-8.23,20.55,20.55,0,0,1,1.12-6.85,16.73,16.73,0,0,1,3.23-5.59,15.16,15.16,0,0,1,5.12-3.76A16.23,16.23,0,0,1,775.15,224.62Zm.17,6.14a7.37,7.37,0,0,0-5.59,2.12,10.73,10.73,0,0,0-2.58,6h15.34a11,11,0,0,0-.43-3.14,7.51,7.51,0,0,0-1.32-2.58,6.42,6.42,0,0,0-2.25-1.76A7.44,7.44,0,0,0,775.32,230.76Z"/><path class="cls-1" d="M808.4,235l-15.24-24.35H802a2.65,2.65,0,0,1,1.34.26,2.43,2.43,0,0,1,.74.85L815,230.14c.11-.3.23-.6.36-.89s.29-.58.46-.88l10-16.47a2.14,2.14,0,0,1,1.88-1.29h8.53l-15.4,24,15.83,26.18H827.7a2.06,2.06,0,0,1-1.44-.49,4.43,4.43,0,0,1-.91-1.11L814.28,240a7.05,7.05,0,0,1-.3.78c-.11.25-.22.47-.33.68l-10.6,17.75a5.49,5.49,0,0,1-.9,1.1,1.85,1.85,0,0,1-1.32.5H792.5Z"/><polygon class="cls-2" points="275.65 53.01 124.57 53.01 49.04 183.84 124.57 314.68 275.65 314.68 351.19 183.84 275.65 53.01"/><path class="cls-3" d="M143.88,148.46a195.57,195.57,0,0,1,170.27,99.59l37.07-64.2L275.69,53H124.61L58,168.37A194.25,194.25,0,0,1,143.88,148.46Z"/><path class="cls-3" d="M307.25,260a183.5,183.5,0,0,0-257-74.08l74.33,128.74H275.69Z"/><path class="cls-2" d="M200.75,277.29a18.08,18.08,0,0,1-16.89-11.47l-37.93-95.49a53.27,53.27,0,0,1-1.28-35.94c8.52-26.31,31.07-44,56.1-44s47.59,17.68,56.1,44a53.15,53.15,0,0,1-1.28,35.94l-37.92,95.49A18.09,18.09,0,0,1,200.75,277.29Z"/><path class="cls-3" d="M200.75,95.72c23.45,0,43.43,16.79,51.05,40.31a48.16,48.16,0,0,1-1.17,32.34l-37.92,95.49a12.86,12.86,0,0,1-23.91,0l-37.93-95.49A48.22,48.22,0,0,1,149.71,136c7.61-23.52,27.59-40.31,51-40.31m0-10.63c-27.34,0-51.92,19.15-61.15,47.67a58.49,58.49,0,0,0,1.4,39.53l37.92,95.49a23.49,23.49,0,0,0,43.66,0l37.93-95.49a58.55,58.55,0,0,0,1.4-39.53c-9.23-28.52-33.81-47.67-61.16-47.67Z"/><path class="cls-3" d="M193.11,178.09A1.85,1.85,0,0,0,195,180h11.58a1.86,1.86,0,0,0,1.86-1.86V174.5a28.91,28.91,0,0,0,6.95-2.88l2.53,2.54a1.86,1.86,0,0,0,2.62,0l8.19-8.2a1.86,1.86,0,0,0,0-2.62l-2.53-2.53a29.15,29.15,0,0,0,2.88-6.95h3.58a1.85,1.85,0,0,0,1.85-1.85V140.43a1.85,1.85,0,0,0-1.85-1.86H229a29.32,29.32,0,0,0-2.88-6.95l2.52-2.52a1.85,1.85,0,0,0,0-2.62l-8.19-8.18a1.86,1.86,0,0,0-2.62,0l-2.51,2.51a29.32,29.32,0,0,0-6.95-2.88v-3.55a1.86,1.86,0,0,0-1.86-1.86H195a1.85,1.85,0,0,0-1.85,1.86v3.55a29.32,29.32,0,0,0-7,2.88l-2.52-2.51a1.86,1.86,0,0,0-2.62,0l-8.19,8.18a1.85,1.85,0,0,0-.54,1.31,1.81,1.81,0,0,0,.54,1.31l2.52,2.52a28.91,28.91,0,0,0-2.88,6.95H168.9a1.85,1.85,0,0,0-1.85,1.86V152a1.84,1.84,0,0,0,1.85,1.85h3.58a28.74,28.74,0,0,0,2.88,6.95l-2.53,2.53a1.85,1.85,0,0,0,0,2.62l8.18,8.2a1.89,1.89,0,0,0,1.31.54h0a1.85,1.85,0,0,0,1.31-.54l2.54-2.54a28.91,28.91,0,0,0,7,2.88Zm-6.23-10.36a1.83,1.83,0,0,0-2.31.24l-2.26,2.26-5.56-5.58L179,162.4a1.85,1.85,0,0,0,.25-2.31,25.4,25.4,0,0,1-3.51-8.47,1.86,1.86,0,0,0-1.81-1.46h-3.18v-7.88h3.18a1.86,1.86,0,0,0,1.81-1.46,25.4,25.4,0,0,1,3.51-8.47A1.86,1.86,0,0,0,179,130l-2.24-2.23,5.57-5.57,2.24,2.23a1.85,1.85,0,0,0,2.31.25,25.4,25.4,0,0,1,8.47-3.51,1.85,1.85,0,0,0,1.46-1.81v-3.16h7.88v3.16a1.85,1.85,0,0,0,1.46,1.81,25.4,25.4,0,0,1,8.47,3.51,1.86,1.86,0,0,0,2.32-.25l2.23-2.23,5.58,5.57L222.51,130a1.86,1.86,0,0,0-.25,2.32,25.4,25.4,0,0,1,3.51,8.47,1.85,1.85,0,0,0,1.81,1.46h3.18v7.88h-3.18a1.85,1.85,0,0,0-1.81,1.46,25.4,25.4,0,0,1-3.51,8.47,1.85,1.85,0,0,0,.25,2.31l2.25,2.25-5.57,5.58L216.94,168a1.85,1.85,0,0,0-2.32-.24,25.59,25.59,0,0,1-8.47,3.5,1.86,1.86,0,0,0-1.46,1.81v3.2h-7.88V173a1.86,1.86,0,0,0-1.46-1.81A25.38,25.38,0,0,1,186.88,167.73Z"/><path class="cls-3" d="M168.38,151.66l.49-10.48,5-.88,3.23-8.42-2.25-3.28s7.25-8.18,7.64-8.18,2.51,2.06,3,2.15,8.29-3.13,8.29-3.13l2.45-4.7,9.8-.49.88,5.48,8.13,3.63,4.5-2.65,6.86,6.57-2.74,4.7,4.11,8.22,4.12.79v9.89l-4.12,1.76-3.92,8.9,2.75,3.05L219,173.7l-2.95-4.31-9,4.31-1,4.7h-11l-.49-5.38L186,169.49l-3.53,2.84-8.62-7.74,3.82-3.72L174,152Z"/><circle class="cls-2" cx="200.55" cy="146.03" r="12.58"/></g></svg>