<svg id="Capa_1" data-name="Capa 1" xmlns="http://www.w3.org/2000/svg" viewBox="0 0 1053 367.47"><defs><style>.cls-1{fill:#0c2340;}.cls-2{fill:#fff;}.cls-3{fill:#0b90de;}</style></defs><title>logos-RGB</title><rect class="cls-1" x="-11.17" y="-12.07" width="1083" height="392"/><polygon class="cls-2" points="276.13 52.9 125.06 52.9 49.52 183.74 125.06 314.57 276.13 314.57 351.67 183.74 276.13 52.9"/><path class="cls-2" d="M461.44,180.29H448V147.41H414.4v32.88H401V105.07H414.4v32.35H448V105.07h13.43Z"/><path class="cls-2" d="M544.68,142.68A43.58,43.58,0,0,1,542.05,158a36.35,36.35,0,0,1-7.39,12.19,33.24,33.24,0,0,1-11.45,8,39.52,39.52,0,0,1-29.67,0,33.43,33.43,0,0,1-11.5-8A36.23,36.23,0,0,1,474.63,158a45.94,45.94,0,0,1,0-30.64,36.28,36.28,0,0,1,7.41-12.2,33.71,33.71,0,0,1,11.5-8,37.32,37.32,0,0,1,14.85-2.88,36.77,36.77,0,0,1,14.82,2.91,33.78,33.78,0,0,1,11.45,8,36.06,36.06,0,0,1,7.39,12.17A43.54,43.54,0,0,1,544.68,142.68Zm-13.68,0a36.67,36.67,0,0,0-1.57-11.11,23.78,23.78,0,0,0-4.48-8.35,19.25,19.25,0,0,0-7.12-5.25,25.47,25.47,0,0,0-18.91,0,19.39,19.39,0,0,0-7.16,5.25,23.88,23.88,0,0,0-4.54,8.35,39.82,39.82,0,0,0,0,22.21,23.61,23.61,0,0,0,4.54,8.33,19.54,19.54,0,0,0,7.16,5.22,25.47,25.47,0,0,0,18.91,0,19.39,19.39,0,0,0,7.12-5.22,23.51,23.51,0,0,0,4.48-8.33A36.6,36.6,0,0,0,531,142.68Z"/><path class="cls-2" d="M601.84,105.07v11.49H580.27v63.73H566.94V116.56H545.27V105.07Z"/><path class="cls-2" d="M655.52,105.07V116.2H623.75v20.86h25v10.77h-25V169.1h31.77v11.19H610.31V105.07Z"/><path class="cls-2" d="M680.41,168.74h28.7v11.55h-42V105.07h13.34Z"/><path class="cls-2" d="M751.25,153.81v26.48H737.91V105.07h23.35a39.07,39.07,0,0,1,12.44,1.77,23.55,23.55,0,0,1,8.68,4.94,19.39,19.39,0,0,1,5.06,7.59,29.69,29.69,0,0,1-.1,19.69,20.83,20.83,0,0,1-5.21,7.83,23.77,23.77,0,0,1-8.67,5.1,37.08,37.08,0,0,1-12.2,1.82Zm0-10.92h10a19,19,0,0,0,6.4-1,11.87,11.87,0,0,0,4.51-2.75,11.38,11.38,0,0,0,2.67-4.37,17.39,17.39,0,0,0,.9-5.75,15.71,15.71,0,0,0-.9-5.46,10.73,10.73,0,0,0-2.67-4.16,11.67,11.67,0,0,0-4.51-2.63,20.16,20.16,0,0,0-6.4-.91h-10Z"/><path class="cls-2" d="M854.76,180.29H844.45a4.39,4.39,0,0,1-2.85-.91,5.12,5.12,0,0,1-1.62-2.27l-5.35-15.34H804.94l-5.36,15.34A4.86,4.86,0,0,1,798,179.3a4.26,4.26,0,0,1-2.85,1H784.81L813,105.07H826.6Zm-46.4-28.41h22.85l-8.73-25c-.39-1.11-.83-2.42-1.31-3.92s-.95-3.15-1.41-4.92q-.69,2.66-1.37,4.94c-.44,1.53-.88,2.86-1.31,4Z"/><path class="cls-2" d="M885,151.05v29.24H871.66V151.05l-26.12-46h11.74A4.07,4.07,0,0,1,860,106a7.68,7.68,0,0,1,1.71,2.24l13.13,25.12q1.14,2.25,2,4.24t1.53,3.93c.43-1.32.92-2.64,1.47-4s1.19-2.73,2-4.19l13-25.12a6.86,6.86,0,0,1,1.64-2.13,4,4,0,0,1,2.77-1h11.8Z"/><path class="cls-2" d="M907.8,143.51h25.68v10.72H907.8Z"/><path class="cls-2" d="M959.6,141.58l-22.85-36.51H950a4,4,0,0,1,2,.39,3.45,3.45,0,0,1,1.11,1.27l16.31,27.62c.16-.45.35-.89.54-1.32a13.15,13.15,0,0,1,.7-1.33L985.63,107a3.23,3.23,0,0,1,2.83-1.92h12.79L978.14,141l23.75,39.28H988.56a3.14,3.14,0,0,1-2.16-.73,6.6,6.6,0,0,1-1.36-1.67l-16.61-28.81a10.14,10.14,0,0,1-.45,1.17c-.16.36-.33.7-.49,1l-15.92,26.63a8.25,8.25,0,0,1-1.33,1.64,2.75,2.75,0,0,1-2,.76H935.76Z"/><path class="cls-2" d="M401.34,260.76V209.23h8.16v20.32a16.13,16.13,0,0,1,4.57-3.59,12.57,12.57,0,0,1,5.94-1.34,10.79,10.79,0,0,1,5.08,1.2,11.47,11.47,0,0,1,4,3.48,17.1,17.1,0,0,1,2.58,5.66,29.55,29.55,0,0,1,.91,7.73,25.29,25.29,0,0,1-1,7.39,18.25,18.25,0,0,1-2.92,5.89,13.59,13.59,0,0,1-4.59,3.9,12.84,12.84,0,0,1-6,1.41,11.47,11.47,0,0,1-2.84-.33,9.68,9.68,0,0,1-4.31-2.36,16.59,16.59,0,0,1-1.73-1.89l-.37,2.39a2.21,2.21,0,0,1-.68,1.29,2.05,2.05,0,0,1-1.3.38Zm15.87-29.48a8,8,0,0,0-4.35,1.13,12.92,12.92,0,0,0-3.36,3.17v15.95a7.89,7.89,0,0,0,3,2.52,8.86,8.86,0,0,0,3.55.71,7.45,7.45,0,0,0,3.34-.73,6.59,6.59,0,0,0,2.53-2.22,11.22,11.22,0,0,0,1.6-3.76,22.8,22.8,0,0,0,.56-5.36,24.93,24.93,0,0,0-.48-5.29,10.43,10.43,0,0,0-1.37-3.52,5.46,5.46,0,0,0-2.16-2A6.46,6.46,0,0,0,417.21,231.28Z"/><path class="cls-2" d="M449.86,270.54a3.42,3.42,0,0,1-.94,1.37,2.81,2.81,0,0,1-1.77.47h-6.08l6.34-14.26L433.7,225.18h7.14a2.16,2.16,0,0,1,1.51.48,3.27,3.27,0,0,1,.8,1.11l7.24,18.45a15.92,15.92,0,0,1,.62,1.88c.18.64.33,1.29.47,1.94.17-.67.36-1.32.57-1.94s.44-1.27.68-1.91l6.81-18.42a2.52,2.52,0,0,1,.88-1.14,2.23,2.23,0,0,1,1.37-.45h6.54Z"/><path class="cls-2" d="M520,210.61v7.67H505.61v42.48h-8.89V218.28H482.28v-7.67Z"/><path class="cls-2" d="M519.89,260.76V225.18h4.79a2.49,2.49,0,0,1,1.75.48,2.89,2.89,0,0,1,.66,1.67l.5,4.3a16.61,16.61,0,0,1,4.26-5.2,8.65,8.65,0,0,1,5.49-1.91,6.83,6.83,0,0,1,4.16,1.21l-1.06,6.42a1.32,1.32,0,0,1-.43.88,1.35,1.35,0,0,1-.89.26,5.33,5.33,0,0,1-1.35-.24,8.83,8.83,0,0,0-2.28-.24,6.75,6.75,0,0,0-4.37,1.47,11.31,11.31,0,0,0-3.07,4.32v22.16Z"/><path class="cls-2" d="M572.5,260.76h-3.67a3.71,3.71,0,0,1-1.82-.37,2.32,2.32,0,0,1-1-1.47l-.72-2.53a28.64,28.64,0,0,1-2.53,2.13,15.88,15.88,0,0,1-2.56,1.55,13.24,13.24,0,0,1-2.81.93,16.06,16.06,0,0,1-3.31.31,12.27,12.27,0,0,1-4-.61,8.08,8.08,0,0,1-5.16-4.85,11.35,11.35,0,0,1-.73-4.21,8.68,8.68,0,0,1,1-4,9.68,9.68,0,0,1,3.36-3.55,20.75,20.75,0,0,1,6.24-2.63,38,38,0,0,1,9.69-1v-2.1q0-3.6-1.44-5.33a5.13,5.13,0,0,0-4.18-1.73,9.51,9.51,0,0,0-3.31.49,11.63,11.63,0,0,0-2.29,1.09c-.65.4-1.26.77-1.81,1.09a3.44,3.44,0,0,1-1.81.49,2.27,2.27,0,0,1-1.42-.45,3.42,3.42,0,0,1-1-1.11l-1.49-2.74a19.61,19.61,0,0,1,14.11-5.62,13.17,13.17,0,0,1,5.31,1,11.23,11.23,0,0,1,4,2.85,12.36,12.36,0,0,1,2.46,4.35,17.55,17.55,0,0,1,.84,5.55Zm-15.86-5.34a10.44,10.44,0,0,0,2.31-.24,8.51,8.51,0,0,0,2-.72,10.65,10.65,0,0,0,1.82-1.18,16.53,16.53,0,0,0,1.77-1.65v-6a32.07,32.07,0,0,0-6,.47,15.37,15.37,0,0,0-3.85,1.21,5.06,5.06,0,0,0-2.07,1.71,4,4,0,0,0-.61,2.13,3.84,3.84,0,0,0,1.28,3.25A5.29,5.29,0,0,0,556.64,255.42Z"/><path class="cls-2" d="M596.33,260.76h-7.41l-13.48-35.58h6.78a2.47,2.47,0,0,1,1.5.45,2.25,2.25,0,0,1,.84,1.14l6.55,19c.37,1.11.69,2.19.94,3.26s.48,2.12.68,3.19c.19-1.07.42-2.13.67-3.19a31.53,31.53,0,0,1,1-3.26l6.71-19a2.33,2.33,0,0,1,.82-1.14,2.29,2.29,0,0,1,1.42-.45h6.45Z"/><path class="cls-2" d="M627.53,224.62a15.76,15.76,0,0,1,5.9,1.08,12.77,12.77,0,0,1,4.64,3.14,14.42,14.42,0,0,1,3,5.06,19.89,19.89,0,0,1,1.09,6.85,14.1,14.1,0,0,1-.08,1.61,2.88,2.88,0,0,1-.3,1,1.27,1.27,0,0,1-.58.52,2.42,2.42,0,0,1-.92.15h-21c.25,3.66,1.18,6.34,2.81,8.05a8.53,8.53,0,0,0,6.48,2.56,10.85,10.85,0,0,0,3.42-.48,14.43,14.43,0,0,0,2.51-1.08c.72-.39,1.35-.75,1.89-1.07a3.09,3.09,0,0,1,1.57-.49,1.71,1.71,0,0,1,.86.21,1.93,1.93,0,0,1,.62.59l2.38,3.12a13.56,13.56,0,0,1-3,2.79,16.08,16.08,0,0,1-3.52,1.81,18.08,18.08,0,0,1-3.73.95,24.92,24.92,0,0,1-3.69.28,17.34,17.34,0,0,1-6.57-1.23,14.75,14.75,0,0,1-5.29-3.64,17.27,17.27,0,0,1-3.54-6,24.08,24.08,0,0,1-1.29-8.24,20.49,20.49,0,0,1,1.13-6.84,16.71,16.71,0,0,1,3.22-5.59A15.36,15.36,0,0,1,620.7,226,16.28,16.28,0,0,1,627.53,224.62Zm.16,6.14a7.33,7.33,0,0,0-5.58,2.12,10.6,10.6,0,0,0-2.58,6h15.33a11,11,0,0,0-.43-3.14,7.22,7.22,0,0,0-1.32-2.59,6.22,6.22,0,0,0-2.25-1.75A7.44,7.44,0,0,0,627.69,230.76Z"/><path class="cls-2" d="M657.53,209.23v51.53h-8.16V209.23Z"/><path class="cls-2" d="M678.49,224.55a17.25,17.25,0,0,1,4.09.47,13.58,13.58,0,0,1,3.51,1.37h9.75v3.19a1.81,1.81,0,0,1-.4,1.25,2.27,2.27,0,0,1-1.35.62l-3,.59a12.74,12.74,0,0,1,.51,1.91,12,12,0,0,1,.18,2.12,11.11,11.11,0,0,1-1,4.77,10.64,10.64,0,0,1-2.77,3.62,12.92,12.92,0,0,1-4.2,2.31,16.58,16.58,0,0,1-5.27.81,18.46,18.46,0,0,1-3.74-.38,2.78,2.78,0,0,0-1.58,2.27,1.68,1.68,0,0,0,.94,1.59,7.31,7.31,0,0,0,2.48.72,27.56,27.56,0,0,0,3.48.21c1.3,0,2.64,0,4,.17a29,29,0,0,1,4,.61,11.61,11.61,0,0,1,3.49,1.37A7.25,7.25,0,0,1,694,256.7a8.26,8.26,0,0,1,.94,4.16,10.21,10.21,0,0,1-1.11,4.59,12.39,12.39,0,0,1-3.2,4,16.82,16.82,0,0,1-5.14,2.8,21.25,21.25,0,0,1-6.94,1.06,25.5,25.5,0,0,1-6.71-.78,15.34,15.34,0,0,1-4.71-2.08,8.77,8.77,0,0,1-2.79-3,7.29,7.29,0,0,1-.93-3.54,6.24,6.24,0,0,1,1.45-4.2,10,10,0,0,1,4-2.7,5.78,5.78,0,0,1-2-1.94,5.84,5.84,0,0,1-.76-3.16,5.78,5.78,0,0,1,.26-1.65,7.17,7.17,0,0,1,.81-1.68A8.66,8.66,0,0,1,668.6,247a10.12,10.12,0,0,1,1.95-1.33,10.94,10.94,0,0,1-4-3.89,10.73,10.73,0,0,1-1.47-5.68,11,11,0,0,1,1-4.77,10.55,10.55,0,0,1,2.81-3.64,12.46,12.46,0,0,1,4.27-2.31A17.38,17.38,0,0,1,678.49,224.55Zm9,37.7a2.54,2.54,0,0,0-.59-1.73,3.93,3.93,0,0,0-1.62-1,11.83,11.83,0,0,0-2.4-.55,24.25,24.25,0,0,0-2.91-.17h-3.17a13.21,13.21,0,0,1-3.16-.38,7.58,7.58,0,0,0-2.23,1.89,4,4,0,0,0-.84,2.51,3.56,3.56,0,0,0,.45,1.75,3.91,3.91,0,0,0,1.42,1.41,8.25,8.25,0,0,0,2.53.91,18.57,18.57,0,0,0,3.8.33,18,18,0,0,0,3.93-.37,9.39,9.39,0,0,0,2.73-1,4.34,4.34,0,0,0,1.57-1.56A4.05,4.05,0,0,0,687.44,262.25Zm-9-20.15a7.31,7.31,0,0,0,2.64-.43,5.2,5.2,0,0,0,1.87-1.2,5,5,0,0,0,1.12-1.84,7.06,7.06,0,0,0,.38-2.35,5.74,5.74,0,0,0-1.5-4.18,7.34,7.34,0,0,0-9,0,5.7,5.7,0,0,0-1.51,4.18,7,7,0,0,0,.38,2.32,5,5,0,0,0,3,3.07A7.36,7.36,0,0,0,678.49,242.1Z"/><path class="cls-2" d="M727.53,260.76h-3.67a3.71,3.71,0,0,1-1.82-.37,2.32,2.32,0,0,1-1-1.47l-.72-2.53a28.64,28.64,0,0,1-2.53,2.13,15.88,15.88,0,0,1-2.56,1.55,13.24,13.24,0,0,1-2.81.93,16.12,16.12,0,0,1-3.31.31,12.27,12.27,0,0,1-4-.61,8.34,8.34,0,0,1-3.13-1.82,8.21,8.21,0,0,1-2-3,11.15,11.15,0,0,1-.73-4.21,8.68,8.68,0,0,1,1-4,9.73,9.73,0,0,1,3.35-3.55,20.93,20.93,0,0,1,6.25-2.63,37.94,37.94,0,0,1,9.68-1v-2.1c0-2.4-.47-4.18-1.43-5.33a5.15,5.15,0,0,0-4.18-1.73,9.51,9.51,0,0,0-3.31.49,12,12,0,0,0-2.3,1.09c-.65.4-1.25.77-1.8,1.09a3.44,3.44,0,0,1-1.81.49,2.3,2.3,0,0,1-1.43-.45,3.51,3.51,0,0,1-.95-1.11l-1.49-2.74A19.61,19.61,0,0,1,715,224.52a13.17,13.17,0,0,1,5.31,1,11.19,11.19,0,0,1,3.94,2.85,12.23,12.23,0,0,1,2.47,4.35,17.55,17.55,0,0,1,.84,5.55Zm-15.86-5.34a10.5,10.5,0,0,0,2.31-.24,8.68,8.68,0,0,0,2-.72,10.65,10.65,0,0,0,1.82-1.18,15.58,15.58,0,0,0,1.76-1.65v-6a32,32,0,0,0-6,.47,15.37,15.37,0,0,0-3.85,1.21,5.06,5.06,0,0,0-2.07,1.71,4,4,0,0,0-.61,2.13,3.86,3.86,0,0,0,1.27,3.25A5.34,5.34,0,0,0,711.67,255.42Z"/><path class="cls-2" d="M746.7,261.31a8.69,8.69,0,0,1-6.78-2.62,10.36,10.36,0,0,1-2.38-7.23V231.59h-3.43a1.59,1.59,0,0,1-1.14-.45,1.76,1.76,0,0,1-.48-1.35v-3.4l5.45-.94,1.72-9.71a1.72,1.72,0,0,1,.61-1.07,1.9,1.9,0,0,1,1.21-.38h4.23v11.2h8.92v6.1h-8.92v19.28a3.91,3.91,0,0,0,.79,2.61,2.63,2.63,0,0,0,2.11.93,3.64,3.64,0,0,0,1.28-.19,6.88,6.88,0,0,0,.89-.4c.25-.14.48-.27.68-.4a1.11,1.11,0,0,1,.59-.19,1,1,0,0,1,.6.19,3.12,3.12,0,0,1,.49.58l2.45,4.16a12.38,12.38,0,0,1-4.1,2.36A14.63,14.63,0,0,1,746.7,261.31Z"/><path class="cls-2" d="M775.15,224.62a15.72,15.72,0,0,1,5.9,1.08,12.69,12.69,0,0,1,4.64,3.14,14.28,14.28,0,0,1,3,5.06,19.89,19.89,0,0,1,1.1,6.85,11.9,11.9,0,0,1-.09,1.61,2.7,2.7,0,0,1-.29,1,1.32,1.32,0,0,1-.58.52,2.48,2.48,0,0,1-.93.15H767q.36,5.49,2.81,8.05a8.53,8.53,0,0,0,6.48,2.56,10.85,10.85,0,0,0,3.42-.48,15.13,15.13,0,0,0,2.51-1.08c.71-.39,1.34-.75,1.88-1.07a3.09,3.09,0,0,1,1.57-.49,1.69,1.69,0,0,1,.86.21,2.07,2.07,0,0,1,.63.59l2.38,3.12a14,14,0,0,1-3,2.79,16.54,16.54,0,0,1-3.52,1.81,18.17,18.17,0,0,1-3.74.95,24.68,24.68,0,0,1-3.68.28,17.39,17.39,0,0,1-6.58-1.23,14.75,14.75,0,0,1-5.29-3.64,17.25,17.25,0,0,1-3.53-6,24.08,24.08,0,0,1-1.29-8.24,20.49,20.49,0,0,1,1.12-6.84,16.71,16.71,0,0,1,3.22-5.59,15.3,15.3,0,0,1,5.13-3.76A16.23,16.23,0,0,1,775.15,224.62Zm.17,6.14a7.37,7.37,0,0,0-5.59,2.12,10.73,10.73,0,0,0-2.58,6h15.34a11.4,11.4,0,0,0-.43-3.14,7.55,7.55,0,0,0-1.32-2.59,6.39,6.39,0,0,0-2.25-1.75A7.44,7.44,0,0,0,775.32,230.76Z"/><path class="cls-2" d="M808.4,235l-15.24-24.35H802a2.65,2.65,0,0,1,1.34.26,2.43,2.43,0,0,1,.74.85L815,230.14c.11-.3.24-.6.37-.89a8.29,8.29,0,0,1,.46-.88l10-16.47a2.14,2.14,0,0,1,1.88-1.29h8.53l-15.4,24,15.83,26.18H827.7a2,2,0,0,1-1.44-.49,4.43,4.43,0,0,1-.91-1.11L814.28,240a7.05,7.05,0,0,1-.3.78c-.11.24-.22.47-.33.68L803,259.16a5.44,5.44,0,0,1-.89,1.1,1.85,1.85,0,0,1-1.32.5H792.5Z"/><polygon class="cls-2" points="276.14 52.89 125.06 52.89 49.52 183.73 125.06 314.57 276.14 314.57 351.68 183.73 276.14 52.89"/><path class="cls-3" d="M262.83,123.52H138.36a7.14,7.14,0,0,0-7.12,7.15v8.71H270v-8.71A7.16,7.16,0,0,0,262.83,123.52ZM131.24,214.33a7.11,7.11,0,0,0,7.12,7.12H262.83a7.14,7.14,0,0,0,7.15-7.12V165.71H131.24ZM276.16,52.89H125.06L49.51,183.75l75.55,130.83h151.1l75.52-130.83ZM149.82,278.31l-7.4-3.89-7.4,3.89,1.41-8.24-6-5.82,8.27-1.2,3.7-7.51,3.7,7.51,8.27,1.2-6,5.82Zm29.08,0-7.4-3.89-7.37,3.89,1.38-8.24-5.95-5.82,8.24-1.2,3.7-7.51,3.7,7.51,8.27,1.2-6,5.82Zm29.08,0-7.37-3.89-7.4,3.89,1.41-8.24-6-5.82,8.27-1.2,3.7-7.51,3.7,7.51,8.24,1.2-6,5.82Zm29.11,0-7.4-3.89-7.4,3.89,1.42-8.24-6-5.82,8.27-1.2,3.7-7.51,3.7,7.51,8.27,1.2-6,5.82Zm29.08,0-7.4-3.89-7.37,3.89,1.39-8.24-6-5.82,8.24-1.2,3.7-7.51,3.7,7.51,8.27,1.2-6,5.82ZM270,232.47H131.24a10.88,10.88,0,0,1-10.89-10.88V123.38a10.88,10.88,0,0,1,10.89-10.88H270a10.9,10.9,0,0,1,10.91,10.88v98.21A10.9,10.9,0,0,1,270,232.47Z"/></svg>