<svg id="Capa_1" data-name="Capa 1" xmlns="http://www.w3.org/2000/svg" viewBox="0 0 994 367.47"><defs><style>.cls-1{fill:#0c2340;}.cls-2{fill:#fff;}.cls-3{fill:#2b7a6d;}</style></defs><title>logos-RGB-trazado</title><rect class="cls-1" x="-27.17" y="-12.07" width="1051" height="415"/><path class="cls-2" d="M414.3,168.74H443v11.55H401V105.07H414.3Z"/><path class="cls-2" d="M517,142.68A43.58,43.58,0,0,1,514.39,158,36.51,36.51,0,0,1,507,170.19a33.24,33.24,0,0,1-11.45,8,39.52,39.52,0,0,1-29.67,0,33.43,33.43,0,0,1-11.5-8A36.23,36.23,0,0,1,447,158a45.94,45.94,0,0,1,0-30.64,36.28,36.28,0,0,1,7.41-12.2,33.71,33.71,0,0,1,11.5-8,37.32,37.32,0,0,1,14.85-2.88,36.77,36.77,0,0,1,14.82,2.91,33.89,33.89,0,0,1,11.45,8,36.36,36.36,0,0,1,7.39,12.18A43.54,43.54,0,0,1,517,142.68Zm-13.69,0a36.68,36.68,0,0,0-1.56-11.11,23.78,23.78,0,0,0-4.48-8.35,19.33,19.33,0,0,0-7.12-5.25,25.47,25.47,0,0,0-18.91,0,19.39,19.39,0,0,0-7.16,5.25,23.88,23.88,0,0,0-4.54,8.35,39.58,39.58,0,0,0,0,22.21,23.61,23.61,0,0,0,4.54,8.33,19.54,19.54,0,0,0,7.16,5.22,25.47,25.47,0,0,0,18.91,0,19.48,19.48,0,0,0,7.12-5.22,23.51,23.51,0,0,0,4.48-8.33A36.61,36.61,0,0,0,503.33,142.68Z"/><path class="cls-2" d="M560.44,170a29.82,29.82,0,0,0,14.23-3.23V153.08h-9a2.76,2.76,0,0,1-2-.75,2.57,2.57,0,0,1-.74-1.85v-7.91h23.85V173a38.59,38.59,0,0,1-5.68,3.62,35.7,35.7,0,0,1-6.3,2.52,46.22,46.22,0,0,1-7.16,1.48,64.18,64.18,0,0,1-8.23.5A35.76,35.76,0,0,1,545,178.26a34.26,34.26,0,0,1-11.41-8,36.61,36.61,0,0,1-7.51-12.17,43,43,0,0,1-2.7-15.45A44.42,44.42,0,0,1,526,127.12,35.4,35.4,0,0,1,533.45,115,33.26,33.26,0,0,1,545.17,107a40.72,40.72,0,0,1,15.47-2.8A38.63,38.63,0,0,1,575.83,107a34.81,34.81,0,0,1,10.89,7.1l-3.87,6.34a3.41,3.41,0,0,1-3,1.93,4.3,4.3,0,0,1-2.43-.84c-1.06-.65-2.14-1.31-3.25-2a21.8,21.8,0,0,0-3.67-1.72,29.17,29.17,0,0,0-4.51-1.19,31,31,0,0,0-5.78-.47A23.71,23.71,0,0,0,550.6,118a20.28,20.28,0,0,0-7.31,5.36,24.31,24.31,0,0,0-4.66,8.37A34.32,34.32,0,0,0,537,142.68a35.57,35.57,0,0,0,1.74,11.57,24.62,24.62,0,0,0,4.86,8.56,21,21,0,0,0,7.43,5.33A23.74,23.74,0,0,0,560.44,170Z"/><path class="cls-2" d="M632.12,170a32,32,0,0,0,7.86-.86,31.57,31.57,0,0,0,6.37-2.37V153.08h-9a2.72,2.72,0,0,1-2-.75,2.54,2.54,0,0,1-.75-1.85v-7.91h23.85V173a38.59,38.59,0,0,1-5.68,3.62,35.29,35.29,0,0,1-6.29,2.52,46.11,46.11,0,0,1-7.17,1.48,64,64,0,0,1-8.23.5,35.76,35.76,0,0,1-14.42-2.86,34.12,34.12,0,0,1-11.4-8,36.45,36.45,0,0,1-7.51-12.17A42.8,42.8,0,0,1,595,142.68a44.42,44.42,0,0,1,2.63-15.56A35.4,35.4,0,0,1,605.13,115,33.21,33.21,0,0,1,616.86,107a40.67,40.67,0,0,1,15.46-2.8,38.68,38.68,0,0,1,15.2,2.73,34.76,34.76,0,0,1,10.88,7.1l-3.87,6.34a3.41,3.41,0,0,1-3,1.93,4.3,4.3,0,0,1-2.43-.84c-1.06-.65-2.14-1.31-3.25-2a21.8,21.8,0,0,0-3.67-1.72,28.87,28.87,0,0,0-4.51-1.19,31,31,0,0,0-5.77-.47,23.65,23.65,0,0,0-9.59,1.87,20.32,20.32,0,0,0-7.32,5.36,24.47,24.47,0,0,0-4.66,8.37,34.33,34.33,0,0,0-1.63,10.93,35.58,35.58,0,0,0,1.73,11.57,24.62,24.62,0,0,0,4.86,8.56,20.91,20.91,0,0,0,7.44,5.33A23.65,23.65,0,0,0,632.12,170Z"/><path class="cls-2" d="M685.91,180.29H672.53V105.07h13.38Z"/><path class="cls-2" d="M710.5,105.15a3.13,3.13,0,0,1,1.06.31,3.47,3.47,0,0,1,.92.67,11,11,0,0,1,1,1.17l37.63,50.31c-.13-1.22-.22-2.4-.27-3.57s-.08-2.24-.08-3.25V105.07H762.5v75.22h-6.89a5,5,0,0,1-4.66-2.4L713.47,127.8c.1,1.11.18,2.21.23,3.3s.07,2.09.07,3v46.2H702V105.07h7A10.42,10.42,0,0,1,710.5,105.15Z"/><path class="cls-2" d="M809.89,170a29.82,29.82,0,0,0,14.23-3.23V153.08h-9a2.72,2.72,0,0,1-2-.75,2.54,2.54,0,0,1-.75-1.85v-7.91h23.85V173a38.59,38.59,0,0,1-5.68,3.62,35.7,35.7,0,0,1-6.3,2.52,46.22,46.22,0,0,1-7.16,1.48,64.07,64.07,0,0,1-8.23.5,35.76,35.76,0,0,1-14.42-2.86,34.26,34.26,0,0,1-11.41-8,36.61,36.61,0,0,1-7.51-12.17,43,43,0,0,1-2.7-15.45,44.42,44.42,0,0,1,2.63-15.56A35.4,35.4,0,0,1,782.9,115,33.26,33.26,0,0,1,794.62,107a40.72,40.72,0,0,1,15.47-2.8,38.72,38.72,0,0,1,15.2,2.73,34.88,34.88,0,0,1,10.88,7.1l-3.87,6.34a3.41,3.41,0,0,1-3,1.93,4.3,4.3,0,0,1-2.43-.84c-1.06-.65-2.14-1.31-3.25-2a21.8,21.8,0,0,0-3.67-1.72,29.17,29.17,0,0,0-4.51-1.19,31,31,0,0,0-5.78-.47,23.71,23.71,0,0,0-9.59,1.87,20.28,20.28,0,0,0-7.31,5.36,24.31,24.31,0,0,0-4.66,8.37,34.32,34.32,0,0,0-1.64,10.93,35.57,35.57,0,0,0,1.74,11.57,24.62,24.62,0,0,0,4.86,8.56,21,21,0,0,0,7.43,5.33A23.74,23.74,0,0,0,809.89,170Z"/><path class="cls-2" d="M846.38,143.51h25.68v10.71H846.38Z"/><path class="cls-2" d="M898.18,141.58l-22.85-36.51h13.28a3.9,3.9,0,0,1,2,.39,3.38,3.38,0,0,1,1.12,1.27l16.31,27.62q.24-.67.54-1.32a13.15,13.15,0,0,1,.7-1.33L924.21,107a3.21,3.21,0,0,1,2.82-1.92h12.79L916.72,141l23.75,39.28H927.13a3.13,3.13,0,0,1-2.15-.73,6.87,6.87,0,0,1-1.37-1.67L907,149.08q-.21.61-.45,1.17c-.17.36-.33.7-.5,1l-15.91,26.63a8,8,0,0,1-1.34,1.64,2.74,2.74,0,0,1-2,.76H874.34Z"/><path class="cls-2" d="M401.34,260.76V209.22h8.16v20.33a16.13,16.13,0,0,1,4.57-3.59,12.57,12.57,0,0,1,5.94-1.34,10.79,10.79,0,0,1,5.08,1.2,11.47,11.47,0,0,1,4,3.48,17.21,17.21,0,0,1,2.58,5.66,29.55,29.55,0,0,1,.91,7.73,25.29,25.29,0,0,1-1,7.39,18.25,18.25,0,0,1-2.92,5.89,13.59,13.59,0,0,1-4.59,3.9,12.84,12.84,0,0,1-6,1.41,11.47,11.47,0,0,1-2.84-.33,9.68,9.68,0,0,1-4.31-2.36,16.52,16.52,0,0,1-1.73-1.89l-.37,2.39a2.21,2.21,0,0,1-.68,1.29,2.05,2.05,0,0,1-1.3.38Zm15.87-29.48a8,8,0,0,0-4.35,1.13,12.92,12.92,0,0,0-3.36,3.17v15.95a7.89,7.89,0,0,0,3,2.52,8.86,8.86,0,0,0,3.55.71,7.45,7.45,0,0,0,3.34-.73,6.68,6.68,0,0,0,2.53-2.22,11.22,11.22,0,0,0,1.6-3.76,22.8,22.8,0,0,0,.56-5.36,24.93,24.93,0,0,0-.48-5.29,10.43,10.43,0,0,0-1.37-3.52,5.46,5.46,0,0,0-2.16-2A6.46,6.46,0,0,0,417.21,231.28Z"/><path class="cls-2" d="M449.86,270.54a3.41,3.41,0,0,1-.95,1.37,2.76,2.76,0,0,1-1.76.47h-6.08l6.34-14.26L433.7,225.18h7.13a2.17,2.17,0,0,1,1.52.48,3.27,3.27,0,0,1,.8,1.11l7.24,18.45a16.38,16.38,0,0,1,.62,1.87c.18.65.33,1.3.47,1.95q.25-1,.57-1.95c.21-.62.44-1.26.68-1.9l6.81-18.42a2.52,2.52,0,0,1,.88-1.14,2.23,2.23,0,0,1,1.37-.45h6.54Z"/><path class="cls-2" d="M520,210.61v7.67H505.61v42.48h-8.89V218.28H482.28v-7.67Z"/><path class="cls-2" d="M519.89,260.76V225.18h4.79a2.51,2.51,0,0,1,1.75.48,2.89,2.89,0,0,1,.66,1.67l.5,4.3a16.61,16.61,0,0,1,4.26-5.2,8.65,8.65,0,0,1,5.49-1.91,6.83,6.83,0,0,1,4.16,1.21l-1.06,6.42a1.32,1.32,0,0,1-.43.88,1.35,1.35,0,0,1-.89.26,5.33,5.33,0,0,1-1.35-.24,8.83,8.83,0,0,0-2.28-.24,6.73,6.73,0,0,0-4.37,1.47,11.31,11.31,0,0,0-3.07,4.32v22.16Z"/><path class="cls-2" d="M572.5,260.76h-3.67a3.71,3.71,0,0,1-1.82-.37,2.32,2.32,0,0,1-1-1.47l-.72-2.53a28.64,28.64,0,0,1-2.53,2.13,15.12,15.12,0,0,1-2.56,1.54,12.72,12.72,0,0,1-2.81.94,16.06,16.06,0,0,1-3.31.31,12.27,12.27,0,0,1-4-.61,8.08,8.08,0,0,1-5.16-4.85,11.35,11.35,0,0,1-.73-4.21,8.68,8.68,0,0,1,1-4,9.68,9.68,0,0,1,3.36-3.55,20.75,20.75,0,0,1,6.24-2.63,38,38,0,0,1,9.69-1v-2.1q0-3.6-1.44-5.33a5.13,5.13,0,0,0-4.18-1.73,9.51,9.51,0,0,0-3.31.49,11.63,11.63,0,0,0-2.29,1.09c-.66.4-1.26.77-1.81,1.09a3.44,3.44,0,0,1-1.81.49,2.27,2.27,0,0,1-1.42-.45,3.42,3.42,0,0,1-1-1.11l-1.49-2.74a19.61,19.61,0,0,1,14.11-5.62,13.17,13.17,0,0,1,5.31,1,11.33,11.33,0,0,1,4,2.84,12.49,12.49,0,0,1,2.46,4.36,17.47,17.47,0,0,1,.84,5.55Zm-15.86-5.34a10.44,10.44,0,0,0,2.31-.24,8.51,8.51,0,0,0,2-.72,10.65,10.65,0,0,0,1.82-1.18,16.53,16.53,0,0,0,1.77-1.65v-6a32.07,32.07,0,0,0-6,.47,15.37,15.37,0,0,0-3.85,1.21,5.06,5.06,0,0,0-2.07,1.71,4,4,0,0,0-.61,2.13,3.84,3.84,0,0,0,1.28,3.25A5.29,5.29,0,0,0,556.64,255.42Z"/><path class="cls-2" d="M596.33,260.76h-7.4l-13.49-35.58h6.78a2.47,2.47,0,0,1,1.5.45,2.25,2.25,0,0,1,.84,1.14l6.55,19c.37,1.11.69,2.19.94,3.26s.48,2.12.68,3.19c.19-1.07.42-2.13.67-3.19a31.53,31.53,0,0,1,1-3.26l6.71-19a2.33,2.33,0,0,1,.82-1.14,2.29,2.29,0,0,1,1.42-.45h6.45Z"/><path class="cls-2" d="M627.53,224.62a15.76,15.76,0,0,1,5.9,1.08,12.77,12.77,0,0,1,4.64,3.14,14.42,14.42,0,0,1,3,5.06,19.89,19.89,0,0,1,1.09,6.85,14.1,14.1,0,0,1-.08,1.61,2.88,2.88,0,0,1-.3,1,1.27,1.27,0,0,1-.58.52,2.42,2.42,0,0,1-.92.15h-21c.25,3.66,1.18,6.34,2.81,8.05a8.53,8.53,0,0,0,6.48,2.56,10.85,10.85,0,0,0,3.42-.48,14.43,14.43,0,0,0,2.51-1.08c.72-.39,1.35-.75,1.89-1.07a3.09,3.09,0,0,1,1.57-.49,1.71,1.71,0,0,1,.86.21,1.93,1.93,0,0,1,.62.59l2.38,3.12a13.56,13.56,0,0,1-3,2.79,16.08,16.08,0,0,1-3.52,1.81,18.24,18.24,0,0,1-3.73.95,24.92,24.92,0,0,1-3.69.28,17.34,17.34,0,0,1-6.57-1.23,14.75,14.75,0,0,1-5.29-3.64,17.27,17.27,0,0,1-3.54-6,24.08,24.08,0,0,1-1.29-8.24,20.49,20.49,0,0,1,1.13-6.84,16.71,16.71,0,0,1,3.22-5.59A15.23,15.23,0,0,1,620.7,226,16.28,16.28,0,0,1,627.53,224.62Zm.16,6.14a7.33,7.33,0,0,0-5.58,2.12,10.6,10.6,0,0,0-2.58,6h15.33a11,11,0,0,0-.43-3.14,7.14,7.14,0,0,0-1.32-2.59,6.22,6.22,0,0,0-2.25-1.75A7.29,7.29,0,0,0,627.69,230.76Z"/><path class="cls-2" d="M657.53,209.22v51.54h-8.16V209.22Z"/><path class="cls-2" d="M678.49,224.55a17.25,17.25,0,0,1,4.09.47,13.58,13.58,0,0,1,3.51,1.37h9.75v3.19a1.81,1.81,0,0,1-.4,1.25,2.28,2.28,0,0,1-1.36.62l-3,.59a11.66,11.66,0,0,1,.52,1.91,12,12,0,0,1,.18,2.12,11.11,11.11,0,0,1-1,4.77,10.74,10.74,0,0,1-2.77,3.62,12.72,12.72,0,0,1-4.2,2.3,16.31,16.31,0,0,1-5.27.82,18.46,18.46,0,0,1-3.74-.38,2.8,2.8,0,0,0-1.59,2.27,1.69,1.69,0,0,0,1,1.59,7.33,7.33,0,0,0,2.48.71,25.81,25.81,0,0,0,3.48.21c1.3,0,2.64.06,4,.18a29,29,0,0,1,4,.61,11.36,11.36,0,0,1,3.49,1.37A7.25,7.25,0,0,1,694,256.7a8.26,8.26,0,0,1,.94,4.16,10.21,10.21,0,0,1-1.11,4.59,12.39,12.39,0,0,1-3.21,4,16.65,16.65,0,0,1-5.13,2.8,21.25,21.25,0,0,1-6.94,1.06,25.5,25.5,0,0,1-6.71-.78,15.34,15.34,0,0,1-4.71-2.08,8.9,8.9,0,0,1-2.8-3,7.42,7.42,0,0,1-.92-3.54,6.24,6.24,0,0,1,1.45-4.2,10,10,0,0,1,4-2.7,5.78,5.78,0,0,1-2-1.94,5.87,5.87,0,0,1-.76-3.16,5.78,5.78,0,0,1,.26-1.65,7.17,7.17,0,0,1,.81-1.68A8.66,8.66,0,0,1,668.6,247a10.12,10.12,0,0,1,1.95-1.33,10.94,10.94,0,0,1-4-3.89,10.73,10.73,0,0,1-1.47-5.68,11,11,0,0,1,1-4.77,10.55,10.55,0,0,1,2.81-3.64,12.46,12.46,0,0,1,4.27-2.31A17.38,17.38,0,0,1,678.49,224.55Zm9,37.7a2.54,2.54,0,0,0-.59-1.73,3.93,3.93,0,0,0-1.62-1,11.34,11.34,0,0,0-2.4-.55,24.25,24.25,0,0,0-2.91-.17h-3.17a13.21,13.21,0,0,1-3.16-.38,7.71,7.71,0,0,0-2.23,1.88,4,4,0,0,0-.84,2.52,3.56,3.56,0,0,0,.45,1.75,3.82,3.82,0,0,0,1.42,1.4,8,8,0,0,0,2.53.92,18.57,18.57,0,0,0,3.8.33,18,18,0,0,0,3.93-.37,9.11,9.11,0,0,0,2.73-1,4.24,4.24,0,0,0,1.57-1.55A4.05,4.05,0,0,0,687.44,262.25Zm-9-20.15a7.31,7.31,0,0,0,2.64-.43,5.2,5.2,0,0,0,1.87-1.2,5,5,0,0,0,1.12-1.84,7.08,7.08,0,0,0,.38-2.36,5.73,5.73,0,0,0-1.5-4.17,7.34,7.34,0,0,0-9,0,5.7,5.7,0,0,0-1.51,4.17,7,7,0,0,0,.38,2.33,5.07,5.07,0,0,0,1.13,1.85,5,5,0,0,0,1.88,1.22A7.36,7.36,0,0,0,678.49,242.1Z"/><path class="cls-2" d="M727.53,260.76h-3.67a3.71,3.71,0,0,1-1.82-.37,2.32,2.32,0,0,1-1-1.47l-.72-2.53a28.64,28.64,0,0,1-2.53,2.13,15.12,15.12,0,0,1-2.56,1.54,12.72,12.72,0,0,1-2.81.94,16.06,16.06,0,0,1-3.31.31,12.27,12.27,0,0,1-4-.61,8.08,8.08,0,0,1-5.16-4.85,11.35,11.35,0,0,1-.73-4.21,8.68,8.68,0,0,1,1-4,9.68,9.68,0,0,1,3.36-3.55,20.75,20.75,0,0,1,6.24-2.63,38,38,0,0,1,9.69-1v-2.1q0-3.6-1.44-5.33a5.13,5.13,0,0,0-4.18-1.73,9.51,9.51,0,0,0-3.31.49,11.91,11.91,0,0,0-2.29,1.09c-.65.4-1.26.77-1.81,1.09a3.44,3.44,0,0,1-1.81.49,2.27,2.27,0,0,1-1.42-.45,3.42,3.42,0,0,1-1-1.11l-1.49-2.74A19.61,19.61,0,0,1,715,224.52a13.13,13.13,0,0,1,5.31,1,11.33,11.33,0,0,1,4,2.84,12.49,12.49,0,0,1,2.46,4.36,17.47,17.47,0,0,1,.84,5.55Zm-15.86-5.34a10.44,10.44,0,0,0,2.31-.24,8.51,8.51,0,0,0,2-.72,10.65,10.65,0,0,0,1.82-1.18,16.53,16.53,0,0,0,1.77-1.65v-6a32.07,32.07,0,0,0-6,.47,15.37,15.37,0,0,0-3.85,1.21,5.06,5.06,0,0,0-2.07,1.71,4,4,0,0,0-.61,2.13,3.84,3.84,0,0,0,1.28,3.25A5.29,5.29,0,0,0,711.67,255.42Z"/><path class="cls-2" d="M746.7,261.31a8.69,8.69,0,0,1-6.78-2.62,10.36,10.36,0,0,1-2.38-7.23V231.59h-3.43a1.61,1.61,0,0,1-1.14-.45,1.76,1.76,0,0,1-.48-1.35v-3.4l5.45-.94,1.72-9.71a1.72,1.72,0,0,1,.61-1.07,1.9,1.9,0,0,1,1.21-.38h4.23v11.2h8.92v6.1h-8.92v19.28a3.93,3.93,0,0,0,.79,2.61,2.64,2.64,0,0,0,2.12.93,3.62,3.62,0,0,0,1.27-.19,6.88,6.88,0,0,0,.89-.4c.25-.14.48-.27.68-.4a1.14,1.14,0,0,1,.59-.19,1,1,0,0,1,.6.19,2.78,2.78,0,0,1,.49.58l2.45,4.16a12.19,12.19,0,0,1-4.1,2.35A14.38,14.38,0,0,1,746.7,261.31Z"/><path class="cls-2" d="M775.15,224.62a15.68,15.68,0,0,1,5.9,1.08,12.81,12.81,0,0,1,4.65,3.14,14.42,14.42,0,0,1,3,5.06,20.13,20.13,0,0,1,1.09,6.85,11.9,11.9,0,0,1-.09,1.61,2.7,2.7,0,0,1-.29,1,1.32,1.32,0,0,1-.58.52,2.48,2.48,0,0,1-.93.15H767q.36,5.49,2.81,8.05a8.53,8.53,0,0,0,6.48,2.56,10.85,10.85,0,0,0,3.42-.48,14.78,14.78,0,0,0,2.51-1.08c.71-.39,1.34-.75,1.88-1.07a3.12,3.12,0,0,1,1.57-.49,1.69,1.69,0,0,1,.86.21,2.07,2.07,0,0,1,.63.59l2.38,3.12a14,14,0,0,1-3,2.79,16.54,16.54,0,0,1-3.52,1.81,18.17,18.17,0,0,1-3.74.95,24.68,24.68,0,0,1-3.68.28,17.39,17.39,0,0,1-6.58-1.23,14.84,14.84,0,0,1-5.29-3.64,17.41,17.41,0,0,1-3.53-6,24.08,24.08,0,0,1-1.29-8.24,20.49,20.49,0,0,1,1.12-6.84,16.73,16.73,0,0,1,3.23-5.59,15,15,0,0,1,5.12-3.76A16.23,16.23,0,0,1,775.15,224.62Zm.17,6.14a7.37,7.37,0,0,0-5.59,2.12,10.73,10.73,0,0,0-2.58,6h15.34a11,11,0,0,0-.43-3.14,7.46,7.46,0,0,0-1.32-2.59,6.39,6.39,0,0,0-2.25-1.75A7.29,7.29,0,0,0,775.32,230.76Z"/><path class="cls-2" d="M808.4,235l-15.24-24.35H802a2.65,2.65,0,0,1,1.34.26,2.43,2.43,0,0,1,.74.85L815,230.14c.1-.3.23-.6.36-.89a8.29,8.29,0,0,1,.46-.88l10-16.47a2.14,2.14,0,0,1,1.88-1.29h8.53l-15.4,24,15.83,26.18H827.7a2,2,0,0,1-1.44-.49,4.43,4.43,0,0,1-.91-1.11L814.28,240a7.05,7.05,0,0,1-.3.78c-.11.24-.22.47-.33.68L803,259.16a5.12,5.12,0,0,1-.89,1.09,1.82,1.82,0,0,1-1.32.51H792.5Z"/><polygon class="cls-2" points="276.13 52.9 125.06 52.9 49.52 183.74 125.06 314.57 276.13 314.57 351.67 183.74 276.13 52.9"/><path class="cls-3" d="M253.89,105.84H141.3a8.61,8.61,0,0,0-8.6,8.6V227a8.61,8.61,0,0,0,8.6,8.6h40.14c-.15-1.6-.22-3.22-.22-4.86a54.09,54.09,0,0,1,3.25-18.51H154.8v-10h34.53a54.23,54.23,0,0,1,12.49-14h-47v-10h67.25a54.38,54.38,0,0,1,40.44,5.61V114.44A8.61,8.61,0,0,0,253.89,105.84Zm-13.5,58.42H154.8v-10h85.59Zm0-24H154.8v-10h85.59Zm32.1,66.61a44.54,44.54,0,0,0-10-10.94,44.25,44.25,0,1,0,10,10.94Zm-11.58,27.34-21.39,19.15a5,5,0,0,1-3.34,1.27,1.51,1.51,0,0,1-.3,0,2.73,2.73,0,0,1-.5-.05l-.29,0a0,0,0,0,1,0,0,4,4,0,0,1-.49,0,5,5,0,0,1-3.33-1.27l-21.4-19.15a5,5,0,1,1,6.67-7.45l14.06,12.59V209.09a5,5,0,0,1,10,0V239l13.67-12.23a5,5,0,1,1,6.66,7.45Zm-7-128.37H141.3a8.61,8.61,0,0,0-8.6,8.6V227a8.61,8.61,0,0,0,8.6,8.6h40.14c-.15-1.6-.22-3.22-.22-4.86a54.09,54.09,0,0,1,3.25-18.51H154.8v-10h34.53a54.23,54.23,0,0,1,12.49-14h-47v-10h67.25a54.38,54.38,0,0,1,40.44,5.61V114.44A8.61,8.61,0,0,0,253.89,105.84Zm-13.5,58.42H154.8v-10h85.59Zm0-24H154.8v-10h85.59Zm32.1,66.61a44.54,44.54,0,0,0-10-10.94,44.25,44.25,0,1,0,10,10.94Zm-11.58,27.34-21.39,19.15a5,5,0,0,1-3.34,1.27,1.51,1.51,0,0,1-.3,0,2.73,2.73,0,0,1-.5-.05l-.29,0a0,0,0,0,1,0,0,4,4,0,0,1-.49,0,5,5,0,0,1-3.33-1.27l-21.4-19.15a5,5,0,1,1,6.67-7.45l14.06,12.59V209.09a5,5,0,0,1,10,0V239l13.67-12.23a5,5,0,1,1,6.66,7.45Zm-7-128.37H141.3a8.61,8.61,0,0,0-8.6,8.6V227a8.61,8.61,0,0,0,8.6,8.6h40.14c-.15-1.6-.22-3.22-.22-4.86a54.09,54.09,0,0,1,3.25-18.51H154.8v-10h34.53a54.23,54.23,0,0,1,12.49-14h-47v-10h67.25a54.38,54.38,0,0,1,40.44,5.61V114.44A8.61,8.61,0,0,0,253.89,105.84Zm-13.5,58.42H154.8v-10h85.59Zm0-24H154.8v-10h85.59Zm32.1,66.61a44.54,44.54,0,0,0-10-10.94,44.25,44.25,0,1,0,10,10.94Zm-11.58,27.34-21.39,19.15a5,5,0,0,1-3.34,1.27,1.51,1.51,0,0,1-.3,0,2.73,2.73,0,0,1-.5-.05l-.29,0a0,0,0,0,1,0,0,4,4,0,0,1-.49,0,5,5,0,0,1-3.33-1.27l-21.4-19.15a5,5,0,1,1,6.67-7.45l14.06,12.59V209.09a5,5,0,0,1,10,0V239l13.67-12.23a5,5,0,1,1,6.66,7.45Zm-7-128.37H141.3a8.61,8.61,0,0,0-8.6,8.6V227a8.61,8.61,0,0,0,8.6,8.6h40.14c-.15-1.6-.22-3.22-.22-4.86a54.09,54.09,0,0,1,3.25-18.51H154.8v-10h34.53a54.23,54.23,0,0,1,12.49-14h-47v-10h67.25a54.38,54.38,0,0,1,40.44,5.61V114.44A8.61,8.61,0,0,0,253.89,105.84Zm-13.5,58.42H154.8v-10h85.59Zm0-24H154.8v-10h85.59Zm32.1,66.61a44.54,44.54,0,0,0-10-10.94,44.25,44.25,0,1,0,10,10.94Zm-11.58,27.34-21.39,19.15a5,5,0,0,1-3.34,1.27,1.51,1.51,0,0,1-.3,0,2.73,2.73,0,0,1-.5-.05l-.29,0a0,0,0,0,1,0,0,4,4,0,0,1-.49,0,5,5,0,0,1-3.33-1.27l-21.4-19.15a5,5,0,1,1,6.67-7.45l14.06,12.59V209.09a5,5,0,0,1,10,0V239l13.67-12.23a5,5,0,1,1,6.66,7.45Zm-7-128.37H141.3a8.61,8.61,0,0,0-8.6,8.6V227a8.61,8.61,0,0,0,8.6,8.6h40.14c-.15-1.6-.22-3.22-.22-4.86a54.09,54.09,0,0,1,3.25-18.51H154.8v-10h34.53a54.23,54.23,0,0,1,12.49-14h-47v-10h67.25a54.38,54.38,0,0,1,40.44,5.61V114.44A8.61,8.61,0,0,0,253.89,105.84Zm-13.5,58.42H154.8v-10h85.59Zm0-24H154.8v-10h85.59Zm32.1,66.61a44.54,44.54,0,0,0-10-10.94,44.25,44.25,0,1,0,10,10.94Zm-11.58,27.34-21.39,19.15a5,5,0,0,1-3.34,1.27,1.51,1.51,0,0,1-.3,0,2.73,2.73,0,0,1-.5-.05l-.29,0a0,0,0,0,1,0,0,4,4,0,0,1-.49,0,5,5,0,0,1-3.33-1.27l-21.4-19.15a5,5,0,1,1,6.67-7.45l14.06,12.59V209.09a5,5,0,0,1,10,0V239l13.67-12.23a5,5,0,1,1,6.66,7.45Zm11.58-27.34a44.54,44.54,0,0,0-10-10.94,44.25,44.25,0,1,0,10,10.94Zm-11.58,27.34-21.39,19.15a5,5,0,0,1-3.34,1.27,1.51,1.51,0,0,1-.3,0,2.73,2.73,0,0,1-.5-.05l-.29,0a0,0,0,0,1,0,0,4,4,0,0,1-.49,0,5,5,0,0,1-3.33-1.27l-21.4-19.15a5,5,0,1,1,6.67-7.45l14.06,12.59V209.09a5,5,0,0,1,10,0V239l13.67-12.23a5,5,0,1,1,6.66,7.45Zm-7-128.37H141.3a8.61,8.61,0,0,0-8.6,8.6V227a8.61,8.61,0,0,0,8.6,8.6h40.14c-.15-1.6-.22-3.22-.22-4.86a54.09,54.09,0,0,1,3.25-18.51H154.8v-10h34.53a54.23,54.23,0,0,1,12.49-14h-47v-10h67.25a54.38,54.38,0,0,1,40.44,5.61V114.44A8.61,8.61,0,0,0,253.89,105.84Zm-13.5,58.42H154.8v-10h85.59Zm0-24H154.8v-10h85.59Zm13.5-34.42H141.3a8.61,8.61,0,0,0-8.6,8.6V227a8.61,8.61,0,0,0,8.6,8.6h40.14c-.15-1.6-.22-3.22-.22-4.86a54.09,54.09,0,0,1,3.25-18.51H154.8v-10h34.53a54.23,54.23,0,0,1,12.49-14h-47v-10h67.25a54.38,54.38,0,0,1,40.44,5.61V114.44A8.61,8.61,0,0,0,253.89,105.84Zm-13.5,58.42H154.8v-10h85.59Zm0-24H154.8v-10h85.59Zm32.1,66.61a44.54,44.54,0,0,0-10-10.94,44.25,44.25,0,1,0,10,10.94Zm-11.58,27.34-21.39,19.15a5,5,0,0,1-3.34,1.27,1.51,1.51,0,0,1-.3,0,2.73,2.73,0,0,1-.5-.05l-.29,0a0,0,0,0,1,0,0,4,4,0,0,1-.49,0,5,5,0,0,1-3.33-1.27l-21.4-19.15a5,5,0,1,1,6.67-7.45l14.06,12.59V209.09a5,5,0,0,1,10,0V239l13.67-12.23a5,5,0,1,1,6.66,7.45Zm11.58-27.34a44.54,44.54,0,0,0-10-10.94,44.25,44.25,0,1,0,10,10.94Zm-11.58,27.34-21.39,19.15a5,5,0,0,1-3.34,1.27,1.51,1.51,0,0,1-.3,0,2.73,2.73,0,0,1-.5-.05l-.29,0a0,0,0,0,1,0,0,4,4,0,0,1-.49,0,5,5,0,0,1-3.33-1.27l-21.4-19.15a5,5,0,1,1,6.67-7.45l14.06,12.59V209.09a5,5,0,0,1,10,0V239l13.67-12.23a5,5,0,1,1,6.66,7.45Zm-7-128.37H141.3a8.61,8.61,0,0,0-8.6,8.6V227a8.61,8.61,0,0,0,8.6,8.6h40.14c-.15-1.6-.22-3.22-.22-4.86a54.09,54.09,0,0,1,3.25-18.51H154.8v-10h34.53a54.23,54.23,0,0,1,12.49-14h-47v-10h67.25a54.38,54.38,0,0,1,40.44,5.61V114.44A8.61,8.61,0,0,0,253.89,105.84Zm-13.5,58.42H154.8v-10h85.59Zm0-24H154.8v-10h85.59Zm13.5-34.42H141.3a8.61,8.61,0,0,0-8.6,8.6V227a8.61,8.61,0,0,0,8.6,8.6h40.14c-.15-1.6-.22-3.22-.22-4.86a54.09,54.09,0,0,1,3.25-18.51H154.8v-10h34.53a54.23,54.23,0,0,1,12.49-14h-47v-10h67.25a54.38,54.38,0,0,1,40.44,5.61V114.44A8.61,8.61,0,0,0,253.89,105.84Zm-13.5,58.42H154.8v-10h85.59Zm0-24H154.8v-10h85.59Zm32.1,66.61a44.54,44.54,0,0,0-10-10.94,44.25,44.25,0,1,0,10,10.94Zm-11.58,27.34-21.39,19.15a5,5,0,0,1-3.34,1.27,1.51,1.51,0,0,1-.3,0,2.73,2.73,0,0,1-.5-.05l-.29,0a0,0,0,0,1,0,0,4,4,0,0,1-.49,0,5,5,0,0,1-3.33-1.27l-21.4-19.15a5,5,0,1,1,6.67-7.45l14.06,12.59V209.09a5,5,0,0,1,10,0V239l13.67-12.23a5,5,0,1,1,6.66,7.45Zm11.58-27.34a44.54,44.54,0,0,0-10-10.94,44.25,44.25,0,1,0,10,10.94Zm-11.58,27.34-21.39,19.15a5,5,0,0,1-3.34,1.27,1.51,1.51,0,0,1-.3,0,2.73,2.73,0,0,1-.5-.05l-.29,0a0,0,0,0,1,0,0,4,4,0,0,1-.49,0,5,5,0,0,1-3.33-1.27l-21.4-19.15a5,5,0,1,1,6.67-7.45l14.06,12.59V209.09a5,5,0,0,1,10,0V239l13.67-12.23a5,5,0,1,1,6.66,7.45Zm-7-128.37H141.3a8.61,8.61,0,0,0-8.6,8.6V227a8.61,8.61,0,0,0,8.6,8.6h40.14c-.15-1.6-.22-3.22-.22-4.86a54.09,54.09,0,0,1,3.25-18.51H154.8v-10h34.53a54.23,54.23,0,0,1,12.49-14h-47v-10h67.25a54.38,54.38,0,0,1,40.44,5.61V114.44A8.61,8.61,0,0,0,253.89,105.84Zm-13.5,58.42H154.8v-10h85.59Zm0-24H154.8v-10h85.59Zm13.5-34.42H141.3a8.61,8.61,0,0,0-8.6,8.6V227a8.61,8.61,0,0,0,8.6,8.6h40.14c-.15-1.6-.22-3.22-.22-4.86a54.09,54.09,0,0,1,3.25-18.51H154.8v-10h34.53a54.23,54.23,0,0,1,12.49-14h-47v-10h67.25a54.38,54.38,0,0,1,40.44,5.61V114.44A8.61,8.61,0,0,0,253.89,105.84Zm-13.5,58.42H154.8v-10h85.59Zm0-24H154.8v-10h85.59Zm32.1,66.61a44.54,44.54,0,0,0-10-10.94,44.25,44.25,0,1,0,10,10.94Zm-11.58,27.34-21.39,19.15a5,5,0,0,1-3.34,1.27,1.51,1.51,0,0,1-.3,0,2.73,2.73,0,0,1-.5-.05l-.29,0a0,0,0,0,1,0,0,4,4,0,0,1-.49,0,5,5,0,0,1-3.33-1.27l-21.4-19.15a5,5,0,1,1,6.67-7.45l14.06,12.59V209.09a5,5,0,0,1,10,0V239l13.67-12.23a5,5,0,1,1,6.66,7.45Zm11.58-27.34a44.54,44.54,0,0,0-10-10.94,44.25,44.25,0,1,0,10,10.94Zm-11.58,27.34-21.39,19.15a5,5,0,0,1-3.34,1.27,1.51,1.51,0,0,1-.3,0,2.73,2.73,0,0,1-.5-.05l-.29,0a0,0,0,0,1,0,0,4,4,0,0,1-.49,0,5,5,0,0,1-3.33-1.27l-21.4-19.15a5,5,0,1,1,6.67-7.45l14.06,12.59V209.09a5,5,0,0,1,10,0V239l13.67-12.23a5,5,0,1,1,6.66,7.45Zm-71.58-32a54.23,54.23,0,0,1,12.49-14h-47v-10h67.25a54.38,54.38,0,0,1,40.44,5.61V114.44a8.61,8.61,0,0,0-8.6-8.6H141.3a8.61,8.61,0,0,0-8.6,8.6V227a8.61,8.61,0,0,0,8.6,8.6h40.14c-.15-1.6-.22-3.22-.22-4.86a54.09,54.09,0,0,1,3.25-18.51H154.8v-10Zm-34.53-72h85.59v10H154.8Zm0,24h85.59v10H154.8ZM276.13,52.9H125.06L49.52,183.73l75.54,130.84H276.13l75.54-130.84Zm-40.75,232a54.19,54.19,0,0,1-52.1-39.29h-42A18.6,18.6,0,0,1,122.7,227V114.44a18.6,18.6,0,0,1,18.6-18.6h11.52V86h22v9.81h45V86h22v9.81h12.11a18.6,18.6,0,0,1,18.6,18.6v76.88a54.15,54.15,0,0,1-37.11,93.6Zm37.11-78.05a44.54,44.54,0,0,0-10-10.94,44.25,44.25,0,1,0,10,10.94Zm-11.58,27.34-21.39,19.15a5,5,0,0,1-3.34,1.27,1.51,1.51,0,0,1-.3,0,2.73,2.73,0,0,1-.5-.05l-.29,0a0,0,0,0,1,0,0,4,4,0,0,1-.49,0,5,5,0,0,1-3.33-1.27l-21.4-19.15a5,5,0,1,1,6.67-7.45l14.06,12.59V209.09a5,5,0,0,1,10,0V239l13.67-12.23a5,5,0,1,1,6.66,7.45Zm-71.58-32a54.23,54.23,0,0,1,12.49-14h-47v-10h67.25a54.38,54.38,0,0,1,40.44,5.61V114.44a8.61,8.61,0,0,0-8.6-8.6H141.3a8.61,8.61,0,0,0-8.6,8.6V227a8.61,8.61,0,0,0,8.6,8.6h40.14c-.15-1.6-.22-3.22-.22-4.86a54.09,54.09,0,0,1,3.25-18.51H154.8v-10Zm-34.53-72h85.59v10H154.8Zm0,24h85.59v10H154.8Zm99.09-48.42H141.3a8.61,8.61,0,0,0-8.6,8.6V227a8.61,8.61,0,0,0,8.6,8.6h40.14c-.15-1.6-.22-3.22-.22-4.86a54.09,54.09,0,0,1,3.25-18.51H154.8v-10h34.53a54.23,54.23,0,0,1,12.49-14h-47v-10h67.25a54.38,54.38,0,0,1,40.44,5.61V114.44A8.61,8.61,0,0,0,253.89,105.84Zm-13.5,58.42H154.8v-10h85.59Zm0-24H154.8v-10h85.59Zm32.1,66.61a44.54,44.54,0,0,0-10-10.94,44.25,44.25,0,1,0,10,10.94Zm-11.58,27.34-21.39,19.15a5,5,0,0,1-3.34,1.27,1.51,1.51,0,0,1-.3,0,2.73,2.73,0,0,1-.5-.05l-.29,0a0,0,0,0,1,0,0,4,4,0,0,1-.49,0,5,5,0,0,1-3.33-1.27l-21.4-19.15a5,5,0,1,1,6.67-7.45l14.06,12.59V209.09a5,5,0,0,1,10,0V239l13.67-12.23a5,5,0,1,1,6.66,7.45Zm11.58-27.34a44.54,44.54,0,0,0-10-10.94,44.25,44.25,0,1,0,10,10.94Zm-11.58,27.34-21.39,19.15a5,5,0,0,1-3.34,1.27,1.51,1.51,0,0,1-.3,0,2.73,2.73,0,0,1-.5-.05l-.29,0a0,0,0,0,1,0,0,4,4,0,0,1-.49,0,5,5,0,0,1-3.33-1.27l-21.4-19.15a5,5,0,1,1,6.67-7.45l14.06,12.59V209.09a5,5,0,0,1,10,0V239l13.67-12.23a5,5,0,1,1,6.66,7.45Zm-7-128.37H141.3a8.61,8.61,0,0,0-8.6,8.6V227a8.61,8.61,0,0,0,8.6,8.6h40.14c-.15-1.6-.22-3.22-.22-4.86a54.09,54.09,0,0,1,3.25-18.51H154.8v-10h34.53a54.23,54.23,0,0,1,12.49-14h-47v-10h67.25a54.38,54.38,0,0,1,40.44,5.61V114.44A8.61,8.61,0,0,0,253.89,105.84Zm-13.5,58.42H154.8v-10h85.59Zm0-24H154.8v-10h85.59Zm13.5-34.42H141.3a8.61,8.61,0,0,0-8.6,8.6V227a8.61,8.61,0,0,0,8.6,8.6h40.14c-.15-1.6-.22-3.22-.22-4.86a54.09,54.09,0,0,1,3.25-18.51H154.8v-10h34.53a54.23,54.23,0,0,1,12.49-14h-47v-10h67.25a54.38,54.38,0,0,1,40.44,5.61V114.44A8.61,8.61,0,0,0,253.89,105.84Zm-13.5,58.42H154.8v-10h85.59Zm0-24H154.8v-10h85.59Zm32.1,66.61a44.54,44.54,0,0,0-10-10.94,44.25,44.25,0,1,0,10,10.94Zm-11.58,27.34-21.39,19.15a5,5,0,0,1-3.34,1.27,1.51,1.51,0,0,1-.3,0,2.73,2.73,0,0,1-.5-.05l-.29,0a0,0,0,0,1,0,0,4,4,0,0,1-.49,0,5,5,0,0,1-3.33-1.27l-21.4-19.15a5,5,0,1,1,6.67-7.45l14.06,12.59V209.09a5,5,0,0,1,10,0V239l13.67-12.23a5,5,0,1,1,6.66,7.45Zm11.58-27.34a44.54,44.54,0,0,0-10-10.94,44.25,44.25,0,1,0,10,10.94Zm-11.58,27.34-21.39,19.15a5,5,0,0,1-3.34,1.27,1.51,1.51,0,0,1-.3,0,2.73,2.73,0,0,1-.5-.05l-.29,0a0,0,0,0,1,0,0,4,4,0,0,1-.49,0,5,5,0,0,1-3.33-1.27l-21.4-19.15a5,5,0,1,1,6.67-7.45l14.06,12.59V209.09a5,5,0,0,1,10,0V239l13.67-12.23a5,5,0,1,1,6.66,7.45Zm-7-128.37H141.3a8.61,8.61,0,0,0-8.6,8.6V227a8.61,8.61,0,0,0,8.6,8.6h40.14c-.15-1.6-.22-3.22-.22-4.86a54.09,54.09,0,0,1,3.25-18.51H154.8v-10h34.53a54.23,54.23,0,0,1,12.49-14h-47v-10h67.25a54.38,54.38,0,0,1,40.44,5.61V114.44A8.61,8.61,0,0,0,253.89,105.84Zm-13.5,58.42H154.8v-10h85.59Zm0-24H154.8v-10h85.59Zm13.5-34.42H141.3a8.61,8.61,0,0,0-8.6,8.6V227a8.61,8.61,0,0,0,8.6,8.6h40.14c-.15-1.6-.22-3.22-.22-4.86a54.09,54.09,0,0,1,3.25-18.51H154.8v-10h34.53a54.23,54.23,0,0,1,12.49-14h-47v-10h67.25a54.38,54.38,0,0,1,40.44,5.61V114.44A8.61,8.61,0,0,0,253.89,105.84Zm-13.5,58.42H154.8v-10h85.59Zm0-24H154.8v-10h85.59Zm32.1,66.61a44.54,44.54,0,0,0-10-10.94,44.25,44.25,0,1,0,10,10.94Zm-11.58,27.34-21.39,19.15a5,5,0,0,1-3.34,1.27,1.51,1.51,0,0,1-.3,0,2.73,2.73,0,0,1-.5-.05l-.29,0a0,0,0,0,1,0,0,4,4,0,0,1-.49,0,5,5,0,0,1-3.33-1.27l-21.4-19.15a5,5,0,1,1,6.67-7.45l14.06,12.59V209.09a5,5,0,0,1,10,0V239l13.67-12.23a5,5,0,1,1,6.66,7.45Zm11.58-27.34a44.54,44.54,0,0,0-10-10.94,44.25,44.25,0,1,0,10,10.94Zm-11.58,27.34-21.39,19.15a5,5,0,0,1-3.34,1.27,1.51,1.51,0,0,1-.3,0,2.73,2.73,0,0,1-.5-.05l-.29,0a0,0,0,0,1,0,0,4,4,0,0,1-.49,0,5,5,0,0,1-3.33-1.27l-21.4-19.15a5,5,0,1,1,6.67-7.45l14.06,12.59V209.09a5,5,0,0,1,10,0V239l13.67-12.23a5,5,0,1,1,6.66,7.45Zm-7-128.37H141.3a8.61,8.61,0,0,0-8.6,8.6V227a8.61,8.61,0,0,0,8.6,8.6h40.14c-.15-1.6-.22-3.22-.22-4.86a54.09,54.09,0,0,1,3.25-18.51H154.8v-10h34.53a54.23,54.23,0,0,1,12.49-14h-47v-10h67.25a54.38,54.38,0,0,1,40.44,5.61V114.44A8.61,8.61,0,0,0,253.89,105.84Zm-13.5,58.42H154.8v-10h85.59Zm0-24H154.8v-10h85.59Zm13.5-34.42H141.3a8.61,8.61,0,0,0-8.6,8.6V227a8.61,8.61,0,0,0,8.6,8.6h40.14c-.15-1.6-.22-3.22-.22-4.86a54.09,54.09,0,0,1,3.25-18.51H154.8v-10h34.53a54.23,54.23,0,0,1,12.49-14h-47v-10h67.25a54.38,54.38,0,0,1,40.44,5.61V114.44A8.61,8.61,0,0,0,253.89,105.84Zm-13.5,58.42H154.8v-10h85.59Zm0-24H154.8v-10h85.59Zm32.1,66.61a44.54,44.54,0,0,0-10-10.94,44.25,44.25,0,1,0,10,10.94Zm-11.58,27.34-21.39,19.15a5,5,0,0,1-3.34,1.27,1.51,1.51,0,0,1-.3,0,2.73,2.73,0,0,1-.5-.05l-.29,0a0,0,0,0,1,0,0,4,4,0,0,1-.49,0,5,5,0,0,1-3.33-1.27l-21.4-19.15a5,5,0,1,1,6.67-7.45l14.06,12.59V209.09a5,5,0,0,1,10,0V239l13.67-12.23a5,5,0,1,1,6.66,7.45Zm-7-128.37H141.3a8.61,8.61,0,0,0-8.6,8.6V227a8.61,8.61,0,0,0,8.6,8.6h40.14c-.15-1.6-.22-3.22-.22-4.86a54.09,54.09,0,0,1,3.25-18.51H154.8v-10h34.53a54.23,54.23,0,0,1,12.49-14h-47v-10h67.25a54.38,54.38,0,0,1,40.44,5.61V114.44A8.61,8.61,0,0,0,253.89,105.84Zm-13.5,58.42H154.8v-10h85.59Zm0-24H154.8v-10h85.59Zm32.1,66.61a44.54,44.54,0,0,0-10-10.94,44.25,44.25,0,1,0,10,10.94Zm-11.58,27.34-21.39,19.15a5,5,0,0,1-3.34,1.27,1.51,1.51,0,0,1-.3,0,2.73,2.73,0,0,1-.5-.05l-.29,0a0,0,0,0,1,0,0,4,4,0,0,1-.49,0,5,5,0,0,1-3.33-1.27l-21.4-19.15a5,5,0,1,1,6.67-7.45l14.06,12.59V209.09a5,5,0,0,1,10,0V239l13.67-12.23a5,5,0,1,1,6.66,7.45Zm-7-128.37H141.3a8.61,8.61,0,0,0-8.6,8.6V227a8.61,8.61,0,0,0,8.6,8.6h40.14c-.15-1.6-.22-3.22-.22-4.86a54.09,54.09,0,0,1,3.25-18.51H154.8v-10h34.53a54.23,54.23,0,0,1,12.49-14h-47v-10h67.25a54.38,54.38,0,0,1,40.44,5.61V114.44A8.61,8.61,0,0,0,253.89,105.84Zm-13.5,58.42H154.8v-10h85.59Zm0-24H154.8v-10h85.59Zm32.1,66.61a44.54,44.54,0,0,0-10-10.94,44.25,44.25,0,1,0,10,10.94Zm-11.58,27.34-21.39,19.15a5,5,0,0,1-3.34,1.27,1.51,1.51,0,0,1-.3,0,2.73,2.73,0,0,1-.5-.05l-.29,0a0,0,0,0,1,0,0,4,4,0,0,1-.49,0,5,5,0,0,1-3.33-1.27l-21.4-19.15a5,5,0,1,1,6.67-7.45l14.06,12.59V209.09a5,5,0,0,1,10,0V239l13.67-12.23a5,5,0,1,1,6.66,7.45Zm-7-128.37H141.3a8.61,8.61,0,0,0-8.6,8.6V227a8.61,8.61,0,0,0,8.6,8.6h40.14c-.15-1.6-.22-3.22-.22-4.86a54.09,54.09,0,0,1,3.25-18.51H154.8v-10h34.53a54.23,54.23,0,0,1,12.49-14h-47v-10h67.25a54.38,54.38,0,0,1,40.44,5.61V114.44A8.61,8.61,0,0,0,253.89,105.84Zm-13.5,58.42H154.8v-10h85.59Zm0-24H154.8v-10h85.59Zm32.1,66.61a44.54,44.54,0,0,0-10-10.94,44.25,44.25,0,1,0,10,10.94Zm-11.58,27.34-21.39,19.15a5,5,0,0,1-3.34,1.27,1.51,1.51,0,0,1-.3,0,2.73,2.73,0,0,1-.5-.05l-.29,0a0,0,0,0,1,0,0,4,4,0,0,1-.49,0,5,5,0,0,1-3.33-1.27l-21.4-19.15a5,5,0,1,1,6.67-7.45l14.06,12.59V209.09a5,5,0,0,1,10,0V239l13.67-12.23a5,5,0,1,1,6.66,7.45Zm-7-128.37H141.3a8.61,8.61,0,0,0-8.6,8.6V227a8.61,8.61,0,0,0,8.6,8.6h40.14c-.15-1.6-.22-3.22-.22-4.86a54.09,54.09,0,0,1,3.25-18.51H154.8v-10h34.53a54.23,54.23,0,0,1,12.49-14h-47v-10h67.25a54.38,54.38,0,0,1,40.44,5.61V114.44A8.61,8.61,0,0,0,253.89,105.84Zm-13.5,58.42H154.8v-10h85.59Zm0-24H154.8v-10h85.59Zm32.1,66.61a44.54,44.54,0,0,0-10-10.94,44.25,44.25,0,1,0,10,10.94Zm-11.58,27.34-21.39,19.15a5,5,0,0,1-3.34,1.27,1.51,1.51,0,0,1-.3,0,2.73,2.73,0,0,1-.5-.05l-.29,0a0,0,0,0,1,0,0,4,4,0,0,1-.49,0,5,5,0,0,1-3.33-1.27l-21.4-19.15a5,5,0,1,1,6.67-7.45l14.06,12.59V209.09a5,5,0,0,1,10,0V239l13.67-12.23a5,5,0,1,1,6.66,7.45Zm-7-128.37H141.3a8.61,8.61,0,0,0-8.6,8.6V227a8.61,8.61,0,0,0,8.6,8.6h40.14c-.15-1.6-.22-3.22-.22-4.86a54.09,54.09,0,0,1,3.25-18.51H154.8v-10h34.53a54.23,54.23,0,0,1,12.49-14h-47v-10h67.25a54.38,54.38,0,0,1,40.44,5.61V114.44A8.61,8.61,0,0,0,253.89,105.84Zm-13.5,58.42H154.8v-10h85.59Zm0-24H154.8v-10h85.59Zm32.1,66.61a44.54,44.54,0,0,0-10-10.94,44.25,44.25,0,1,0,10,10.94Zm-11.58,27.34-21.39,19.15a5,5,0,0,1-3.34,1.27,1.51,1.51,0,0,1-.3,0,2.73,2.73,0,0,1-.5-.05l-.29,0a0,0,0,0,1,0,0,4,4,0,0,1-.49,0,5,5,0,0,1-3.33-1.27l-21.4-19.15a5,5,0,1,1,6.67-7.45l14.06,12.59V209.09a5,5,0,0,1,10,0V239l13.67-12.23a5,5,0,1,1,6.66,7.45Z"/></svg>