<svg id="Capa_1" data-name="Capa 1" xmlns="http://www.w3.org/2000/svg" viewBox="0 0 954 367.47"><defs><style>.cls-1{fill:#0c2340;}.cls-2{fill:#fff;}.cls-3{fill:#2b7a6d;}.cls-4{fill:none;stroke:#fff;stroke-linecap:round;stroke-miterlimit:10;stroke-width:5.44px;}</style></defs><title>logos-RGB</title><rect class="cls-1" x="-27.17" y="-33.07" width="1012" height="438"/><polygon class="cls-2" points="276.13 52.9 125.06 52.9 49.52 183.74 125.06 314.57 276.13 314.57 351.67 183.74 276.13 52.9"/><path class="cls-2" d="M438.52,152.53c.48,1.2,1,2.41,1.41,3.62q.69-1.87,1.44-3.69c.49-1.22,1-2.38,1.58-3.49l21.22-41.67a5.91,5.91,0,0,1,.82-1.24,2.43,2.43,0,0,1,.94-.68,3.86,3.86,0,0,1,1.17-.26c.43,0,.94-.05,1.53-.05H478.7v75.22H467V131.7c0-.9,0-1.89.07-3s.13-2.17.22-3.28l-21.66,42.65a5.85,5.85,0,0,1-1.93,2.27,4.83,4.83,0,0,1-2.78.8H439a4.81,4.81,0,0,1-2.78-.8,5.85,5.85,0,0,1-1.93-2.27l-22-42.81q.19,1.73.27,3.36c.05,1.09.07,2.11.07,3v48.59H401V105.07H411c.59,0,1.11,0,1.54.05a3.86,3.86,0,0,1,1.16.26,2.69,2.69,0,0,1,1,.68,5.55,5.55,0,0,1,.84,1.24L437,149.08Q437.8,150.75,438.52,152.53Z"/><path class="cls-2" d="M556.18,180.29H545.87a4.39,4.39,0,0,1-2.85-.91,5.1,5.1,0,0,1-1.61-2.27l-5.36-15.34H506.36L501,177.11a4.86,4.86,0,0,1-1.56,2.19,4.26,4.26,0,0,1-2.85,1H486.23l28.16-75.22H528Zm-46.4-28.41h22.85l-8.72-25c-.4-1.11-.84-2.42-1.32-3.92s-1-3.15-1.41-4.92c-.46,1.77-.92,3.42-1.36,4.94s-.89,2.86-1.32,4Z"/><path class="cls-2" d="M577.34,153.81v26.48H564V105.07h23.35a39.07,39.07,0,0,1,12.44,1.77,23.63,23.63,0,0,1,8.68,4.94,19.37,19.37,0,0,1,5,7.59,29.53,29.53,0,0,1-.1,19.69,20.69,20.69,0,0,1-5.2,7.83,23.82,23.82,0,0,1-8.68,5.1,37,37,0,0,1-12.19,1.82Zm0-10.92h10a19,19,0,0,0,6.39-1,11.8,11.8,0,0,0,4.51-2.75,11.4,11.4,0,0,0,2.68-4.37,17.39,17.39,0,0,0,.89-5.75,15.72,15.72,0,0,0-.89-5.46,10.75,10.75,0,0,0-2.68-4.16,11.6,11.6,0,0,0-4.51-2.63,20.14,20.14,0,0,0-6.39-.91h-10Z"/><path class="cls-2" d="M639.31,153.81v26.48H626V105.07h23.35a39.11,39.11,0,0,1,12.44,1.77,23.58,23.58,0,0,1,8.67,4.94,19.39,19.39,0,0,1,5.06,7.59,29.53,29.53,0,0,1-.1,19.69,20.81,20.81,0,0,1-5.2,7.83,23.9,23.9,0,0,1-8.68,5.1,37.06,37.06,0,0,1-12.19,1.82Zm0-10.92h10a19,19,0,0,0,6.39-1,11.8,11.8,0,0,0,4.51-2.75,11.52,11.52,0,0,0,2.68-4.37,17.65,17.65,0,0,0,.89-5.75,16,16,0,0,0-.89-5.46,10.86,10.86,0,0,0-2.68-4.16,11.6,11.6,0,0,0-4.51-2.63,20.14,20.14,0,0,0-6.39-.91h-10Z"/><path class="cls-2" d="M732.71,105.07V116.2H700.93v20.86h25v10.77h-25V169.1h31.78v11.19H687.5V105.07Z"/><path class="cls-2" d="M807.26,180.29H797a4.42,4.42,0,0,1-2.85-.91,5.18,5.18,0,0,1-1.61-2.27l-5.35-15.34h-29.7l-5.35,15.34a4.93,4.93,0,0,1-1.56,2.19,4.26,4.26,0,0,1-2.85,1H737.32l28.15-75.22h13.64Zm-46.4-28.41h22.86l-8.73-25c-.39-1.11-.83-2.42-1.31-3.92s-.95-3.15-1.41-4.92c-.47,1.77-.92,3.42-1.37,4.94s-.88,2.86-1.31,4Z"/><path class="cls-2" d="M809.05,143.51h25.68v10.72H809.05Z"/><path class="cls-2" d="M860.85,141.58,838,105.07h13.29a3.88,3.88,0,0,1,2,.39,3.38,3.38,0,0,1,1.12,1.27l16.31,27.62q.24-.67.54-1.32a13.15,13.15,0,0,1,.7-1.33L886.88,107a3.22,3.22,0,0,1,2.82-1.92h12.79L879.39,141l23.75,39.28H889.8a3.13,3.13,0,0,1-2.15-.73,6.87,6.87,0,0,1-1.37-1.67l-16.6-28.81a12.37,12.37,0,0,1-.45,1.17c-.17.36-.33.7-.5,1l-15.91,26.63a8,8,0,0,1-1.34,1.64,2.74,2.74,0,0,1-2,.76H837Z"/><path class="cls-2" d="M401.34,260.76V209.23h8.16v20.32a16.13,16.13,0,0,1,4.57-3.59,12.57,12.57,0,0,1,5.94-1.34,10.79,10.79,0,0,1,5.08,1.2,11.47,11.47,0,0,1,4,3.48,17.1,17.1,0,0,1,2.58,5.66,29.55,29.55,0,0,1,.91,7.73,25.29,25.29,0,0,1-1,7.39,18.25,18.25,0,0,1-2.92,5.89,13.59,13.59,0,0,1-4.59,3.9,12.84,12.84,0,0,1-6,1.41,11.47,11.47,0,0,1-2.84-.33,9.68,9.68,0,0,1-4.31-2.36,16.59,16.59,0,0,1-1.73-1.89l-.37,2.39a2.21,2.21,0,0,1-.68,1.29,2.05,2.05,0,0,1-1.3.38Zm15.87-29.48a8,8,0,0,0-4.35,1.13,12.92,12.92,0,0,0-3.36,3.17v15.95a7.89,7.89,0,0,0,3,2.52,8.86,8.86,0,0,0,3.55.71,7.45,7.45,0,0,0,3.34-.73,6.59,6.59,0,0,0,2.53-2.22,11.22,11.22,0,0,0,1.6-3.76,22.8,22.8,0,0,0,.56-5.36,24.93,24.93,0,0,0-.48-5.29,10.43,10.43,0,0,0-1.37-3.52,5.46,5.46,0,0,0-2.16-2A6.46,6.46,0,0,0,417.21,231.28Z"/><path class="cls-2" d="M449.86,270.54a3.42,3.42,0,0,1-.94,1.37,2.81,2.81,0,0,1-1.77.47h-6.08l6.34-14.26L433.7,225.18h7.14a2.16,2.16,0,0,1,1.51.48,3.27,3.27,0,0,1,.8,1.11l7.24,18.45a15.92,15.92,0,0,1,.62,1.88c.18.64.33,1.29.47,1.94.17-.67.36-1.32.57-1.94s.44-1.27.68-1.91l6.81-18.42a2.52,2.52,0,0,1,.88-1.14,2.23,2.23,0,0,1,1.37-.45h6.54Z"/><path class="cls-2" d="M520,210.61v7.67H505.61v42.48h-8.89V218.28H482.28v-7.67Z"/><path class="cls-2" d="M519.89,260.76V225.18h4.79a2.49,2.49,0,0,1,1.75.48,2.89,2.89,0,0,1,.66,1.67l.5,4.3a16.61,16.61,0,0,1,4.26-5.2,8.65,8.65,0,0,1,5.49-1.91,6.83,6.83,0,0,1,4.16,1.21l-1.06,6.42a1.32,1.32,0,0,1-.43.88,1.35,1.35,0,0,1-.89.26,5.33,5.33,0,0,1-1.35-.24,8.83,8.83,0,0,0-2.28-.24,6.75,6.75,0,0,0-4.37,1.47,11.31,11.31,0,0,0-3.07,4.32v22.16Z"/><path class="cls-2" d="M572.5,260.76h-3.67a3.71,3.71,0,0,1-1.82-.37,2.32,2.32,0,0,1-1-1.47l-.72-2.53a28.64,28.64,0,0,1-2.53,2.13,15.88,15.88,0,0,1-2.56,1.55,13.24,13.24,0,0,1-2.81.93,16.06,16.06,0,0,1-3.31.31,12.27,12.27,0,0,1-4-.61,8.08,8.08,0,0,1-5.16-4.85,11.35,11.35,0,0,1-.73-4.21,8.68,8.68,0,0,1,1-4,9.68,9.68,0,0,1,3.36-3.55,20.75,20.75,0,0,1,6.24-2.63,38,38,0,0,1,9.69-1v-2.1q0-3.6-1.44-5.33a5.13,5.13,0,0,0-4.18-1.73,9.51,9.51,0,0,0-3.31.49,11.63,11.63,0,0,0-2.29,1.09c-.65.4-1.26.77-1.81,1.09a3.44,3.44,0,0,1-1.81.49,2.27,2.27,0,0,1-1.42-.45,3.42,3.42,0,0,1-1-1.11l-1.49-2.74a19.61,19.61,0,0,1,14.11-5.62,13.17,13.17,0,0,1,5.31,1,11.23,11.23,0,0,1,4,2.85,12.36,12.36,0,0,1,2.46,4.35,17.55,17.55,0,0,1,.84,5.55Zm-15.86-5.34a10.44,10.44,0,0,0,2.31-.24,8.51,8.51,0,0,0,2-.72,10.65,10.65,0,0,0,1.82-1.18,16.53,16.53,0,0,0,1.77-1.65v-6a32.07,32.07,0,0,0-6,.47,15.37,15.37,0,0,0-3.85,1.21,5.06,5.06,0,0,0-2.07,1.71,4,4,0,0,0-.61,2.13,3.84,3.84,0,0,0,1.28,3.25A5.29,5.29,0,0,0,556.64,255.42Z"/><path class="cls-2" d="M596.33,260.76h-7.41l-13.48-35.58h6.78a2.47,2.47,0,0,1,1.5.45,2.25,2.25,0,0,1,.84,1.14l6.55,19c.37,1.11.69,2.19.94,3.26s.48,2.12.68,3.19c.19-1.07.42-2.13.67-3.19a31.53,31.53,0,0,1,1-3.26l6.71-19a2.33,2.33,0,0,1,.82-1.14,2.29,2.29,0,0,1,1.42-.45h6.45Z"/><path class="cls-2" d="M627.53,224.62a15.76,15.76,0,0,1,5.9,1.08,12.77,12.77,0,0,1,4.64,3.14,14.42,14.42,0,0,1,3,5.06,19.89,19.89,0,0,1,1.09,6.85,14.1,14.1,0,0,1-.08,1.61,2.88,2.88,0,0,1-.3,1,1.27,1.27,0,0,1-.58.52,2.42,2.42,0,0,1-.92.15h-21c.25,3.66,1.18,6.34,2.81,8.05a8.53,8.53,0,0,0,6.48,2.56,10.85,10.85,0,0,0,3.42-.48,14.43,14.43,0,0,0,2.51-1.08c.72-.39,1.35-.75,1.89-1.07a3.09,3.09,0,0,1,1.57-.49,1.71,1.71,0,0,1,.86.21,1.93,1.93,0,0,1,.62.59l2.38,3.12a13.56,13.56,0,0,1-3,2.79,16.08,16.08,0,0,1-3.52,1.81,18.08,18.08,0,0,1-3.73.95,24.92,24.92,0,0,1-3.69.28,17.34,17.34,0,0,1-6.57-1.23,14.75,14.75,0,0,1-5.29-3.64,17.27,17.27,0,0,1-3.54-6,24.08,24.08,0,0,1-1.29-8.24,20.49,20.49,0,0,1,1.13-6.84,16.71,16.71,0,0,1,3.22-5.59A15.36,15.36,0,0,1,620.7,226,16.28,16.28,0,0,1,627.53,224.62Zm.16,6.14a7.33,7.33,0,0,0-5.58,2.12,10.6,10.6,0,0,0-2.58,6h15.33a11,11,0,0,0-.43-3.14,7.22,7.22,0,0,0-1.32-2.59,6.22,6.22,0,0,0-2.25-1.75A7.44,7.44,0,0,0,627.69,230.76Z"/><path class="cls-2" d="M657.53,209.23v51.53h-8.16V209.23Z"/><path class="cls-2" d="M678.49,224.55a17.25,17.25,0,0,1,4.09.47,13.58,13.58,0,0,1,3.51,1.37h9.75v3.19a1.81,1.81,0,0,1-.4,1.25,2.27,2.27,0,0,1-1.35.62l-3,.59a12.74,12.74,0,0,1,.51,1.91,12,12,0,0,1,.18,2.12,11.11,11.11,0,0,1-1,4.77,10.64,10.64,0,0,1-2.77,3.62,12.92,12.92,0,0,1-4.2,2.31,16.58,16.58,0,0,1-5.27.81,18.46,18.46,0,0,1-3.74-.38,2.78,2.78,0,0,0-1.58,2.27,1.68,1.68,0,0,0,.94,1.59,7.31,7.31,0,0,0,2.48.72,27.56,27.56,0,0,0,3.48.21c1.3,0,2.64,0,4,.17a29,29,0,0,1,4,.61,11.61,11.61,0,0,1,3.49,1.37A7.25,7.25,0,0,1,694,256.7a8.26,8.26,0,0,1,.94,4.16,10.21,10.21,0,0,1-1.11,4.59,12.39,12.39,0,0,1-3.2,4,16.82,16.82,0,0,1-5.14,2.8,21.25,21.25,0,0,1-6.94,1.06,25.5,25.5,0,0,1-6.71-.78,15.34,15.34,0,0,1-4.71-2.08,8.77,8.77,0,0,1-2.79-3,7.29,7.29,0,0,1-.93-3.54,6.24,6.24,0,0,1,1.45-4.2,10,10,0,0,1,4-2.7,5.78,5.78,0,0,1-2-1.94,5.84,5.84,0,0,1-.76-3.16,5.78,5.78,0,0,1,.26-1.65,7.17,7.17,0,0,1,.81-1.68A8.66,8.66,0,0,1,668.6,247a10.12,10.12,0,0,1,1.95-1.33,10.94,10.94,0,0,1-4-3.89,10.73,10.73,0,0,1-1.47-5.68,11,11,0,0,1,1-4.77,10.55,10.55,0,0,1,2.81-3.64,12.46,12.46,0,0,1,4.27-2.31A17.38,17.38,0,0,1,678.49,224.55Zm9,37.7a2.54,2.54,0,0,0-.59-1.73,3.93,3.93,0,0,0-1.62-1,11.83,11.83,0,0,0-2.4-.55,24.25,24.25,0,0,0-2.91-.17h-3.17a13.21,13.21,0,0,1-3.16-.38,7.58,7.58,0,0,0-2.23,1.89,4,4,0,0,0-.84,2.51,3.56,3.56,0,0,0,.45,1.75,3.91,3.91,0,0,0,1.42,1.41,8.25,8.25,0,0,0,2.53.91,18.57,18.57,0,0,0,3.8.33,18,18,0,0,0,3.93-.37,9.39,9.39,0,0,0,2.73-1,4.34,4.34,0,0,0,1.57-1.56A4.05,4.05,0,0,0,687.44,262.25Zm-9-20.15a7.31,7.31,0,0,0,2.64-.43,5.2,5.2,0,0,0,1.87-1.2,5,5,0,0,0,1.12-1.84,7.06,7.06,0,0,0,.38-2.35,5.74,5.74,0,0,0-1.5-4.18,7.34,7.34,0,0,0-9,0,5.7,5.7,0,0,0-1.51,4.18,7,7,0,0,0,.38,2.32,5,5,0,0,0,3,3.07A7.36,7.36,0,0,0,678.49,242.1Z"/><path class="cls-2" d="M727.53,260.76h-3.67a3.71,3.71,0,0,1-1.82-.37,2.32,2.32,0,0,1-1-1.47l-.72-2.53a28.64,28.64,0,0,1-2.53,2.13,15.88,15.88,0,0,1-2.56,1.55,13.24,13.24,0,0,1-2.81.93,16.12,16.12,0,0,1-3.31.31,12.27,12.27,0,0,1-4-.61,8.34,8.34,0,0,1-3.13-1.82,8.21,8.21,0,0,1-2-3,11.15,11.15,0,0,1-.73-4.21,8.68,8.68,0,0,1,1-4,9.73,9.73,0,0,1,3.35-3.55,20.93,20.93,0,0,1,6.25-2.63,37.94,37.94,0,0,1,9.68-1v-2.1c0-2.4-.47-4.18-1.43-5.33a5.15,5.15,0,0,0-4.18-1.73,9.51,9.51,0,0,0-3.31.49,12,12,0,0,0-2.3,1.09c-.65.4-1.25.77-1.8,1.09a3.44,3.44,0,0,1-1.81.49,2.3,2.3,0,0,1-1.43-.45,3.51,3.51,0,0,1-.95-1.11l-1.49-2.74A19.61,19.61,0,0,1,715,224.52a13.17,13.17,0,0,1,5.31,1,11.19,11.19,0,0,1,3.94,2.85,12.23,12.23,0,0,1,2.47,4.35,17.55,17.55,0,0,1,.84,5.55Zm-15.86-5.34a10.5,10.5,0,0,0,2.31-.24,8.68,8.68,0,0,0,2-.72,10.65,10.65,0,0,0,1.82-1.18,15.58,15.58,0,0,0,1.76-1.65v-6a32,32,0,0,0-6,.47,15.37,15.37,0,0,0-3.85,1.21,5.06,5.06,0,0,0-2.07,1.71,4,4,0,0,0-.61,2.13,3.86,3.86,0,0,0,1.27,3.25A5.34,5.34,0,0,0,711.67,255.42Z"/><path class="cls-2" d="M746.7,261.31a8.69,8.69,0,0,1-6.78-2.62,10.36,10.36,0,0,1-2.38-7.23V231.59h-3.43a1.59,1.59,0,0,1-1.14-.45,1.76,1.76,0,0,1-.48-1.35v-3.4l5.45-.94,1.72-9.71a1.72,1.72,0,0,1,.61-1.07,1.9,1.9,0,0,1,1.21-.38h4.23v11.2h8.92v6.1h-8.92v19.28a3.91,3.91,0,0,0,.79,2.61,2.63,2.63,0,0,0,2.11.93,3.64,3.64,0,0,0,1.28-.19,6.88,6.88,0,0,0,.89-.4c.25-.14.48-.27.68-.4a1.11,1.11,0,0,1,.59-.19,1,1,0,0,1,.6.19,3.12,3.12,0,0,1,.49.58l2.45,4.16a12.38,12.38,0,0,1-4.1,2.36A14.63,14.63,0,0,1,746.7,261.31Z"/><path class="cls-2" d="M775.15,224.62a15.72,15.72,0,0,1,5.9,1.08,12.69,12.69,0,0,1,4.64,3.14,14.28,14.28,0,0,1,3,5.06,19.89,19.89,0,0,1,1.1,6.85,11.9,11.9,0,0,1-.09,1.61,2.7,2.7,0,0,1-.29,1,1.32,1.32,0,0,1-.58.52,2.48,2.48,0,0,1-.93.15H767q.36,5.49,2.81,8.05a8.53,8.53,0,0,0,6.48,2.56,10.85,10.85,0,0,0,3.42-.48,15.13,15.13,0,0,0,2.51-1.08c.71-.39,1.34-.75,1.88-1.07a3.09,3.09,0,0,1,1.57-.49,1.69,1.69,0,0,1,.86.21,2.07,2.07,0,0,1,.63.59l2.38,3.12a14,14,0,0,1-3,2.79,16.54,16.54,0,0,1-3.52,1.81,18.17,18.17,0,0,1-3.74.95,24.68,24.68,0,0,1-3.68.28,17.39,17.39,0,0,1-6.58-1.23,14.75,14.75,0,0,1-5.29-3.64,17.25,17.25,0,0,1-3.53-6,24.08,24.08,0,0,1-1.29-8.24,20.49,20.49,0,0,1,1.12-6.84,16.71,16.71,0,0,1,3.22-5.59,15.3,15.3,0,0,1,5.13-3.76A16.23,16.23,0,0,1,775.15,224.62Zm.17,6.14a7.37,7.37,0,0,0-5.59,2.12,10.73,10.73,0,0,0-2.58,6h15.34a11.4,11.4,0,0,0-.43-3.14,7.55,7.55,0,0,0-1.32-2.59,6.39,6.39,0,0,0-2.25-1.75A7.44,7.44,0,0,0,775.32,230.76Z"/><path class="cls-2" d="M808.4,235l-15.24-24.35H802a2.65,2.65,0,0,1,1.34.26,2.43,2.43,0,0,1,.74.85L815,230.14c.11-.3.24-.6.37-.89a8.29,8.29,0,0,1,.46-.88l10-16.47a2.14,2.14,0,0,1,1.88-1.29h8.53l-15.4,24,15.83,26.18H827.7a2,2,0,0,1-1.44-.49,4.43,4.43,0,0,1-.91-1.11L814.28,240a7.05,7.05,0,0,1-.3.78c-.11.24-.22.47-.33.68L803,259.16a5.44,5.44,0,0,1-.89,1.1,1.85,1.85,0,0,1-1.32.5H792.5Z"/><polygon class="cls-3" points="276.14 52.9 125.05 52.9 49.51 183.75 125.05 314.56 276.14 314.56 351.68 183.75 276.14 52.9"/><polygon class="cls-2" points="127.72 137.65 116.04 117.43 127.72 97.21 151.07 97.21 162.74 117.43 151.07 137.65 127.72 137.65"/><path class="cls-2" d="M148.1,102.35l8.7,15.08-8.7,15.08H130.69L122,117.43l8.71-15.08H148.1M154,92.06H124.75L110.1,117.43l14.65,25.37H154l14.64-25.37L154,92.06Z"/><polygon class="cls-2" points="127.72 202.94 116.04 182.72 127.72 162.49 151.07 162.49 162.74 182.72 151.07 202.94 127.72 202.94"/><path class="cls-2" d="M148.1,167.64l8.7,15.08-8.7,15.07H130.69L122,182.72l8.71-15.08H148.1M154,157.35H124.75L110.1,182.72l14.65,25.36H154l14.64-25.36L154,157.35Z"/><polygon class="cls-2" points="127.72 273.66 116.04 253.44 127.72 233.22 151.07 233.22 162.74 253.44 151.07 273.66 127.72 273.66"/><path class="cls-2" d="M148.1,238.37l8.7,15.07-8.7,15.08H130.69L122,253.44l8.71-15.07H148.1m5.94-10.3H124.75L110.1,253.44l14.65,25.37H154l14.64-25.37L154,228.07Z"/><polygon class="cls-2" points="250.13 137.65 238.45 117.43 250.13 97.21 273.48 97.21 285.15 117.43 273.48 137.65 250.13 137.65"/><path class="cls-2" d="M270.51,102.35l8.7,15.08-8.7,15.08H253.1l-8.7-15.08,8.7-15.08h17.41m5.94-10.29H247.16l-14.65,25.37,14.65,25.37h29.29l14.64-25.37L276.45,92.06Z"/><polygon class="cls-2" points="250.13 202.94 238.45 182.72 250.13 162.49 273.48 162.49 285.15 182.72 273.48 202.94 250.13 202.94"/><path class="cls-2" d="M270.51,167.64l8.7,15.08-8.7,15.07H253.1l-8.7-15.07,8.7-15.08h17.41m5.94-10.29H247.16l-14.65,25.37,14.65,25.36h29.29l14.64-25.36-14.64-25.37Z"/><polygon class="cls-2" points="250.13 273.66 238.45 253.44 250.13 233.22 273.48 233.22 285.15 253.44 273.48 273.66 250.13 273.66"/><path class="cls-2" d="M270.51,238.37l8.7,15.07-8.7,15.08H253.1l-8.7-15.08,8.7-15.07h17.41m5.94-10.3H247.16l-14.65,25.37,14.65,25.37h29.29l14.64-25.37-14.64-25.37Z"/><path class="cls-4" d="M168.68,117.43h25.9a2.72,2.72,0,0,1,2.72,2.67l2.6,130.68a2.72,2.72,0,0,0,2.72,2.66h29.89"/><path class="cls-4" d="M232.51,117.43H220.72a2.72,2.72,0,0,0-2.72,2.72v34.48a2.72,2.72,0,0,1-2.72,2.72H182.81a2.72,2.72,0,0,0-2.72,2.72V180a2.71,2.71,0,0,1-2.72,2.72h-8.69"/><path class="cls-4" d="M168.68,253.44h8.69a2.72,2.72,0,0,0,2.72-2.72V217.23a2.72,2.72,0,0,1,2.72-2.73h31.57a2.72,2.72,0,0,0,2.72-2.72V185.44a2.72,2.72,0,0,1,2.72-2.73h12.69"/></svg>