<svg id="Capa_1" data-name="Capa 1" xmlns="http://www.w3.org/2000/svg" viewBox="0 0 887 367.47"><defs><style>.cls-1{fill:#fff;}.cls-2{fill:#0c2340;}.cls-3{fill:#209471;}</style></defs><title>logos-RGB</title><polygon class="cls-1" points="276.13 52.9 125.06 52.9 49.52 183.74 125.06 314.57 276.13 314.57 351.67 183.74 276.13 52.9"/><path class="cls-2" d="M439.38,118.75a3.78,3.78,0,0,1-1.26,1.61,3.09,3.09,0,0,1-1.71.47,4.18,4.18,0,0,1-2.23-.81c-.83-.53-1.8-1.13-2.93-1.79a23,23,0,0,0-3.94-1.8,16,16,0,0,0-5.33-.8,14.91,14.91,0,0,0-4.83.7,10.15,10.15,0,0,0-3.47,2,7.88,7.88,0,0,0-2.11,3,10.31,10.31,0,0,0-.69,3.83,6.88,6.88,0,0,0,1.41,4.42,11.76,11.76,0,0,0,3.75,3,33.12,33.12,0,0,0,5.3,2.24c2,.66,4,1.36,6.07,2.11a55.82,55.82,0,0,1,6.08,2.6,21.23,21.23,0,0,1,5.3,3.74,17.07,17.07,0,0,1,3.74,5.54,20.13,20.13,0,0,1,1.42,8,27,27,0,0,1-1.67,9.55,22.07,22.07,0,0,1-4.85,7.75,22.89,22.89,0,0,1-7.81,5.2,27.44,27.44,0,0,1-10.56,1.9,32.33,32.33,0,0,1-6.74-.7,34,34,0,0,1-6.37-2,31.68,31.68,0,0,1-5.7-3.12,28.27,28.27,0,0,1-4.74-4l3.87-6.71a5,5,0,0,1,1.31-1.23,3.08,3.08,0,0,1,1.71-.49,4.59,4.59,0,0,1,2.68,1.06c1,.72,2.09,1.51,3.4,2.37a25.08,25.08,0,0,0,4.61,2.37,17,17,0,0,0,6.37,1.07q5.7,0,8.82-2.84t3.12-8.14a7.83,7.83,0,0,0-1.41-4.84,11.52,11.52,0,0,0-3.74-3.15,27.22,27.22,0,0,0-5.31-2.15c-2-.59-4-1.24-6-1.93a48.52,48.52,0,0,1-6-2.5,19.57,19.57,0,0,1-5.31-3.79,17.4,17.4,0,0,1-3.74-5.86,23.29,23.29,0,0,1-1.41-8.66,21.39,21.39,0,0,1,1.56-8,20.64,20.64,0,0,1,4.56-6.92,22.32,22.32,0,0,1,7.36-4.83,25.58,25.58,0,0,1,10-1.82,32,32,0,0,1,11.7,2.08,26.37,26.37,0,0,1,9.12,5.82Z"/><path class="cls-2" d="M504.67,105.07v11.49H483.11v63.73H469.77V116.56H448.11V105.07Z"/><path class="cls-2" d="M568.87,180.29H558.56a4.39,4.39,0,0,1-2.85-.91,5.1,5.1,0,0,1-1.61-2.27l-5.36-15.34H519.05l-5.36,15.34a4.86,4.86,0,0,1-1.56,2.19,4.23,4.23,0,0,1-2.85,1H498.92l28.16-75.22h13.63Zm-46.4-28.41h22.85l-8.72-25c-.4-1.11-.84-2.42-1.32-3.92s-.95-3.15-1.41-4.92c-.46,1.77-.92,3.42-1.36,4.94s-.89,2.86-1.32,4Z"/><path class="cls-2" d="M619.48,105.07v11.49H597.92v63.73H584.59V116.56H562.92V105.07Z"/><path class="cls-2" d="M666.38,118.75a3.87,3.87,0,0,1-1.27,1.61,3.09,3.09,0,0,1-1.71.47,4.21,4.21,0,0,1-2.23-.81c-.82-.53-1.8-1.13-2.92-1.79a23.41,23.41,0,0,0-3.94-1.8,16.07,16.07,0,0,0-5.33-.8,15,15,0,0,0-4.84.7,10.25,10.25,0,0,0-3.47,2,7.75,7.75,0,0,0-2.1,3,10.12,10.12,0,0,0-.7,3.83,6.83,6.83,0,0,0,1.42,4.42,11.83,11.83,0,0,0,3.74,3,33.12,33.12,0,0,0,5.3,2.24c2,.66,4,1.36,6.08,2.11a55.67,55.67,0,0,1,6.07,2.6,21.23,21.23,0,0,1,5.3,3.74,16.94,16.94,0,0,1,3.75,5.54,20.13,20.13,0,0,1,1.41,8,27,27,0,0,1-1.66,9.55,22.24,22.24,0,0,1-4.86,7.75,22.8,22.8,0,0,1-7.81,5.2,27.44,27.44,0,0,1-10.56,1.9,32.4,32.4,0,0,1-6.74-.7,34.22,34.22,0,0,1-6.37-2,32,32,0,0,1-5.7-3.12,27.8,27.8,0,0,1-4.73-4l3.86-6.71a5,5,0,0,1,1.32-1.23,3.08,3.08,0,0,1,1.71-.49,4.57,4.57,0,0,1,2.67,1.06c1,.72,2.09,1.51,3.4,2.37a25.08,25.08,0,0,0,4.61,2.37,17.08,17.08,0,0,0,6.37,1.07q5.7,0,8.82-2.84t3.13-8.14a7.77,7.77,0,0,0-1.42-4.84,11.42,11.42,0,0,0-3.74-3.15,27.12,27.12,0,0,0-5.3-2.15c-2-.59-4-1.24-6.05-1.93a48.52,48.52,0,0,1-6-2.5,19.52,19.52,0,0,1-5.3-3.79,17.42,17.42,0,0,1-3.75-5.86,23.29,23.29,0,0,1-1.41-8.66,21.39,21.39,0,0,1,1.56-8,20.64,20.64,0,0,1,4.56-6.92,22.36,22.36,0,0,1,7.37-4.83,25.49,25.49,0,0,1,10-1.82,32,32,0,0,1,11.7,2.08,26.18,26.18,0,0,1,9.12,5.82Z"/><path class="cls-2" d="M678.87,143.51h25.68v10.72H678.87Z"/><path class="cls-2" d="M730.67,141.58l-22.85-36.51h13.29a4,4,0,0,1,2,.39,3.45,3.45,0,0,1,1.11,1.27l16.31,27.62c.17-.45.35-.89.55-1.32a11.28,11.28,0,0,1,.69-1.33L756.7,107a3.23,3.23,0,0,1,2.83-1.92h12.79L749.21,141,773,180.29H759.63a3.14,3.14,0,0,1-2.16-.73,6.6,6.6,0,0,1-1.36-1.67L739.5,149.08a10.14,10.14,0,0,1-.45,1.17c-.16.36-.33.7-.49,1l-15.92,26.63a8.25,8.25,0,0,1-1.33,1.64,2.75,2.75,0,0,1-2,.76H706.83Z"/><path class="cls-2" d="M401.34,260.76V209.23h8.16v20.32a16.13,16.13,0,0,1,4.57-3.59,12.57,12.57,0,0,1,5.94-1.34,10.79,10.79,0,0,1,5.08,1.2,11.47,11.47,0,0,1,4,3.48,17.1,17.1,0,0,1,2.58,5.66,29.55,29.55,0,0,1,.91,7.73,25.29,25.29,0,0,1-1,7.39,18.25,18.25,0,0,1-2.92,5.89,13.59,13.59,0,0,1-4.59,3.9,12.84,12.84,0,0,1-6,1.41,11.47,11.47,0,0,1-2.84-.33,9.68,9.68,0,0,1-4.31-2.36,16.59,16.59,0,0,1-1.73-1.89l-.37,2.39a2.21,2.21,0,0,1-.68,1.29,2.05,2.05,0,0,1-1.3.38Zm15.87-29.48a8,8,0,0,0-4.35,1.13,12.92,12.92,0,0,0-3.36,3.17v15.95a7.89,7.89,0,0,0,3,2.52,8.86,8.86,0,0,0,3.55.71,7.45,7.45,0,0,0,3.34-.73,6.59,6.59,0,0,0,2.53-2.22,11.22,11.22,0,0,0,1.6-3.76,22.8,22.8,0,0,0,.56-5.36,24.93,24.93,0,0,0-.48-5.29,10.43,10.43,0,0,0-1.37-3.52,5.46,5.46,0,0,0-2.16-2A6.46,6.46,0,0,0,417.21,231.28Z"/><path class="cls-2" d="M449.86,270.54a3.42,3.42,0,0,1-.94,1.37,2.81,2.81,0,0,1-1.77.47h-6.08l6.34-14.26L433.7,225.18h7.14a2.16,2.16,0,0,1,1.51.48,3.27,3.27,0,0,1,.8,1.11l7.24,18.45a15.92,15.92,0,0,1,.62,1.88c.18.64.33,1.29.47,1.94.17-.67.36-1.32.57-1.94s.44-1.27.68-1.91l6.81-18.42a2.52,2.52,0,0,1,.88-1.14,2.23,2.23,0,0,1,1.37-.45h6.54Z"/><path class="cls-2" d="M520,210.61v7.67H505.61v42.48h-8.89V218.28H482.28v-7.67Z"/><path class="cls-2" d="M519.89,260.76V225.18h4.79a2.49,2.49,0,0,1,1.75.48,2.89,2.89,0,0,1,.66,1.67l.5,4.3a16.61,16.61,0,0,1,4.26-5.2,8.65,8.65,0,0,1,5.49-1.91,6.83,6.83,0,0,1,4.16,1.21l-1.06,6.42a1.32,1.32,0,0,1-.43.88,1.35,1.35,0,0,1-.89.26,5.33,5.33,0,0,1-1.35-.24,8.83,8.83,0,0,0-2.28-.24,6.75,6.75,0,0,0-4.37,1.47,11.31,11.31,0,0,0-3.07,4.32v22.16Z"/><path class="cls-2" d="M572.5,260.76h-3.67a3.71,3.71,0,0,1-1.82-.37,2.32,2.32,0,0,1-1-1.47l-.72-2.53a28.64,28.64,0,0,1-2.53,2.13,15.88,15.88,0,0,1-2.56,1.55,13.24,13.24,0,0,1-2.81.93,16.06,16.06,0,0,1-3.31.31,12.27,12.27,0,0,1-4-.61,8.08,8.08,0,0,1-5.16-4.85,11.35,11.35,0,0,1-.73-4.21,8.68,8.68,0,0,1,1-4,9.68,9.68,0,0,1,3.36-3.55,20.75,20.75,0,0,1,6.24-2.63,38,38,0,0,1,9.69-1v-2.1q0-3.6-1.44-5.33a5.13,5.13,0,0,0-4.18-1.73,9.51,9.51,0,0,0-3.31.49,11.63,11.63,0,0,0-2.29,1.09c-.65.4-1.26.77-1.81,1.09a3.44,3.44,0,0,1-1.81.49,2.27,2.27,0,0,1-1.42-.45,3.42,3.42,0,0,1-1-1.11l-1.49-2.74a19.61,19.61,0,0,1,14.11-5.62,13.17,13.17,0,0,1,5.31,1,11.23,11.23,0,0,1,4,2.85,12.36,12.36,0,0,1,2.46,4.35,17.55,17.55,0,0,1,.84,5.55Zm-15.86-5.34a10.44,10.44,0,0,0,2.31-.24,8.51,8.51,0,0,0,2-.72,10.65,10.65,0,0,0,1.82-1.18,16.53,16.53,0,0,0,1.77-1.65v-6a32.07,32.07,0,0,0-6,.47,15.37,15.37,0,0,0-3.85,1.21,5.06,5.06,0,0,0-2.07,1.71,4,4,0,0,0-.61,2.13,3.84,3.84,0,0,0,1.28,3.25A5.29,5.29,0,0,0,556.64,255.42Z"/><path class="cls-2" d="M596.33,260.76h-7.41l-13.48-35.58h6.78a2.47,2.47,0,0,1,1.5.45,2.25,2.25,0,0,1,.84,1.14l6.55,19c.37,1.11.69,2.19.94,3.26s.48,2.12.68,3.19c.19-1.07.42-2.13.67-3.19a31.53,31.53,0,0,1,1-3.26l6.71-19a2.33,2.33,0,0,1,.82-1.14,2.29,2.29,0,0,1,1.42-.45h6.45Z"/><path class="cls-2" d="M627.53,224.62a15.76,15.76,0,0,1,5.9,1.08,12.77,12.77,0,0,1,4.64,3.14,14.42,14.42,0,0,1,3,5.06,19.89,19.89,0,0,1,1.09,6.85,14.1,14.1,0,0,1-.08,1.61,2.88,2.88,0,0,1-.3,1,1.27,1.27,0,0,1-.58.52,2.42,2.42,0,0,1-.92.15h-21c.25,3.66,1.18,6.34,2.81,8.05a8.53,8.53,0,0,0,6.48,2.56,10.85,10.85,0,0,0,3.42-.48,14.43,14.43,0,0,0,2.51-1.08c.72-.39,1.35-.75,1.89-1.07a3.09,3.09,0,0,1,1.57-.49,1.71,1.71,0,0,1,.86.21,1.93,1.93,0,0,1,.62.59l2.38,3.12a13.56,13.56,0,0,1-3,2.79,16.08,16.08,0,0,1-3.52,1.81,18.08,18.08,0,0,1-3.73.95,24.92,24.92,0,0,1-3.69.28,17.34,17.34,0,0,1-6.57-1.23,14.75,14.75,0,0,1-5.29-3.64,17.27,17.27,0,0,1-3.54-6,24.08,24.08,0,0,1-1.29-8.24,20.49,20.49,0,0,1,1.13-6.84,16.71,16.71,0,0,1,3.22-5.59A15.36,15.36,0,0,1,620.7,226,16.28,16.28,0,0,1,627.53,224.62Zm.16,6.14a7.33,7.33,0,0,0-5.58,2.12,10.6,10.6,0,0,0-2.58,6h15.33a11,11,0,0,0-.43-3.14,7.22,7.22,0,0,0-1.32-2.59,6.22,6.22,0,0,0-2.25-1.75A7.44,7.44,0,0,0,627.69,230.76Z"/><path class="cls-2" d="M657.53,209.23v51.53h-8.16V209.23Z"/><path class="cls-2" d="M678.49,224.55a17.25,17.25,0,0,1,4.09.47,13.58,13.58,0,0,1,3.51,1.37h9.75v3.19a1.81,1.81,0,0,1-.4,1.25,2.27,2.27,0,0,1-1.35.62l-3,.59a12.74,12.74,0,0,1,.51,1.91,12,12,0,0,1,.18,2.12,11.11,11.11,0,0,1-1,4.77,10.64,10.64,0,0,1-2.77,3.62,12.92,12.92,0,0,1-4.2,2.31,16.58,16.58,0,0,1-5.27.81,18.46,18.46,0,0,1-3.74-.38,2.78,2.78,0,0,0-1.58,2.27,1.68,1.68,0,0,0,.94,1.59,7.31,7.31,0,0,0,2.48.72,27.56,27.56,0,0,0,3.48.21c1.3,0,2.64,0,4,.17a29,29,0,0,1,4,.61,11.61,11.61,0,0,1,3.49,1.37A7.25,7.25,0,0,1,694,256.7a8.26,8.26,0,0,1,.94,4.16,10.21,10.21,0,0,1-1.11,4.59,12.39,12.39,0,0,1-3.2,4,16.82,16.82,0,0,1-5.14,2.8,21.25,21.25,0,0,1-6.94,1.06,25.5,25.5,0,0,1-6.71-.78,15.34,15.34,0,0,1-4.71-2.08,8.77,8.77,0,0,1-2.79-3,7.29,7.29,0,0,1-.93-3.54,6.24,6.24,0,0,1,1.45-4.2,10,10,0,0,1,4-2.7,5.78,5.78,0,0,1-2-1.94,5.84,5.84,0,0,1-.76-3.16,5.78,5.78,0,0,1,.26-1.65,7.17,7.17,0,0,1,.81-1.68A8.66,8.66,0,0,1,668.6,247a10.12,10.12,0,0,1,1.95-1.33,10.94,10.94,0,0,1-4-3.89,10.73,10.73,0,0,1-1.47-5.68,11,11,0,0,1,1-4.77,10.55,10.55,0,0,1,2.81-3.64,12.46,12.46,0,0,1,4.27-2.31A17.38,17.38,0,0,1,678.49,224.55Zm9,37.7a2.54,2.54,0,0,0-.59-1.73,3.93,3.93,0,0,0-1.62-1,11.83,11.83,0,0,0-2.4-.55,24.25,24.25,0,0,0-2.91-.17h-3.17a13.21,13.21,0,0,1-3.16-.38,7.58,7.58,0,0,0-2.23,1.89,4,4,0,0,0-.84,2.51,3.56,3.56,0,0,0,.45,1.75,3.91,3.91,0,0,0,1.42,1.41,8.25,8.25,0,0,0,2.53.91,18.57,18.57,0,0,0,3.8.33,18,18,0,0,0,3.93-.37,9.39,9.39,0,0,0,2.73-1,4.34,4.34,0,0,0,1.57-1.56A4.05,4.05,0,0,0,687.44,262.25Zm-9-20.15a7.31,7.31,0,0,0,2.64-.43,5.2,5.2,0,0,0,1.87-1.2,5,5,0,0,0,1.12-1.84,7.06,7.06,0,0,0,.38-2.35,5.74,5.74,0,0,0-1.5-4.18,7.34,7.34,0,0,0-9,0,5.7,5.7,0,0,0-1.51,4.18,7,7,0,0,0,.38,2.32,5,5,0,0,0,3,3.07A7.36,7.36,0,0,0,678.49,242.1Z"/><path class="cls-2" d="M727.53,260.76h-3.67a3.71,3.71,0,0,1-1.82-.37,2.32,2.32,0,0,1-1-1.47l-.72-2.53a28.64,28.64,0,0,1-2.53,2.13,15.88,15.88,0,0,1-2.56,1.55,13.24,13.24,0,0,1-2.81.93,16.12,16.12,0,0,1-3.31.31,12.27,12.27,0,0,1-4-.61,8.34,8.34,0,0,1-3.13-1.82,8.21,8.21,0,0,1-2-3,11.15,11.15,0,0,1-.73-4.21,8.68,8.68,0,0,1,1-4,9.73,9.73,0,0,1,3.35-3.55,20.93,20.93,0,0,1,6.25-2.63,37.94,37.94,0,0,1,9.68-1v-2.1c0-2.4-.47-4.18-1.43-5.33a5.15,5.15,0,0,0-4.18-1.73,9.51,9.51,0,0,0-3.31.49,12,12,0,0,0-2.3,1.09c-.65.4-1.25.77-1.8,1.09a3.44,3.44,0,0,1-1.81.49,2.3,2.3,0,0,1-1.43-.45,3.51,3.51,0,0,1-.95-1.11l-1.49-2.74A19.61,19.61,0,0,1,715,224.52a13.17,13.17,0,0,1,5.31,1,11.19,11.19,0,0,1,3.94,2.85,12.23,12.23,0,0,1,2.47,4.35,17.55,17.55,0,0,1,.84,5.55Zm-15.86-5.34a10.5,10.5,0,0,0,2.31-.24,8.68,8.68,0,0,0,2-.72,10.65,10.65,0,0,0,1.82-1.18,15.58,15.58,0,0,0,1.76-1.65v-6a32,32,0,0,0-6,.47,15.37,15.37,0,0,0-3.85,1.21,5.06,5.06,0,0,0-2.07,1.71,4,4,0,0,0-.61,2.13,3.86,3.86,0,0,0,1.27,3.25A5.34,5.34,0,0,0,711.67,255.42Z"/><path class="cls-2" d="M746.7,261.31a8.69,8.69,0,0,1-6.78-2.62,10.36,10.36,0,0,1-2.38-7.23V231.59h-3.43a1.59,1.59,0,0,1-1.14-.45,1.76,1.76,0,0,1-.48-1.35v-3.4l5.45-.94,1.72-9.71a1.72,1.72,0,0,1,.61-1.07,1.9,1.9,0,0,1,1.21-.38h4.23v11.2h8.92v6.1h-8.92v19.28a3.91,3.91,0,0,0,.79,2.61,2.63,2.63,0,0,0,2.11.93,3.64,3.64,0,0,0,1.28-.19,6.88,6.88,0,0,0,.89-.4c.25-.14.48-.27.68-.4a1.11,1.11,0,0,1,.59-.19,1,1,0,0,1,.6.19,3.12,3.12,0,0,1,.49.58l2.45,4.16a12.38,12.38,0,0,1-4.1,2.36A14.63,14.63,0,0,1,746.7,261.31Z"/><path class="cls-2" d="M775.15,224.62a15.72,15.72,0,0,1,5.9,1.08,12.69,12.69,0,0,1,4.64,3.14,14.28,14.28,0,0,1,3,5.06,19.89,19.89,0,0,1,1.1,6.85,11.9,11.9,0,0,1-.09,1.61,2.7,2.7,0,0,1-.29,1,1.32,1.32,0,0,1-.58.52,2.48,2.48,0,0,1-.93.15H767q.36,5.49,2.81,8.05a8.53,8.53,0,0,0,6.48,2.56,10.85,10.85,0,0,0,3.42-.48,15.13,15.13,0,0,0,2.51-1.08c.71-.39,1.34-.75,1.88-1.07a3.09,3.09,0,0,1,1.57-.49,1.69,1.69,0,0,1,.86.21,2.07,2.07,0,0,1,.63.59l2.38,3.12a14,14,0,0,1-3,2.79,16.54,16.54,0,0,1-3.52,1.81,18.17,18.17,0,0,1-3.74.95,24.68,24.68,0,0,1-3.68.28,17.39,17.39,0,0,1-6.58-1.23,14.75,14.75,0,0,1-5.29-3.64,17.25,17.25,0,0,1-3.53-6,24.08,24.08,0,0,1-1.29-8.24,20.49,20.49,0,0,1,1.12-6.84,16.71,16.71,0,0,1,3.22-5.59,15.3,15.3,0,0,1,5.13-3.76A16.23,16.23,0,0,1,775.15,224.62Zm.17,6.14a7.37,7.37,0,0,0-5.59,2.12,10.73,10.73,0,0,0-2.58,6h15.34a11.4,11.4,0,0,0-.43-3.14,7.55,7.55,0,0,0-1.32-2.59,6.39,6.39,0,0,0-2.25-1.75A7.44,7.44,0,0,0,775.32,230.76Z"/><path class="cls-2" d="M808.4,235l-15.24-24.35H802a2.65,2.65,0,0,1,1.34.26,2.43,2.43,0,0,1,.74.85L815,230.14c.11-.3.24-.6.37-.89a8.29,8.29,0,0,1,.46-.88l10-16.47a2.14,2.14,0,0,1,1.88-1.29h8.53l-15.4,24,15.83,26.18H827.7a2,2,0,0,1-1.44-.49,4.43,4.43,0,0,1-.91-1.11L814.28,240a7.05,7.05,0,0,1-.3.78c-.11.24-.22.47-.33.68L803,259.16a5.44,5.44,0,0,1-.89,1.1,1.85,1.85,0,0,1-1.32.5H792.5Z"/><polygon class="cls-1" points="276.14 52.9 125.06 52.9 49.53 183.74 125.06 314.57 276.14 314.57 351.68 183.74 276.14 52.9"/><path class="cls-3" d="M276.14,52.9H125.06L49.51,183.74l75.55,130.82H276.14l75.54-130.82ZM118.85,170.2a6.33,6.33,0,0,1-.7-2.94,6.46,6.46,0,0,1,3.53-5.74l112-56.94L228.83,95l34.49,1.85-18.85,28.92-4.89-9.63L127.53,173A6.47,6.47,0,0,1,118.85,170.2ZM164.17,276H124.29V217.47a9.93,9.93,0,0,1,10-9.92h20a9.91,9.91,0,0,1,9.93,9.92Zm54.41,0H178.7V199.3a10,10,0,0,1,10-9.93h20a9.94,9.94,0,0,1,9.93,9.93Zm54.4,0H233.1V173.79a10,10,0,0,1,10-10h20a9.94,9.94,0,0,1,9.93,10Z"/></svg>