<svg id="Capa_1" data-name="Capa 1" xmlns="http://www.w3.org/2000/svg" viewBox="0 0 111.08 96.19"><defs><style>.cls-1{fill:#fff;}.cls-2{fill:#00e37d;}</style></defs><title>logos-RGB</title><polygon class="cls-1" points="83.31 0 27.77 0 0 48.09 27.77 96.19 83.31 96.19 111.08 48.09 83.31 0"/><path class="cls-2" d="M83.31,0H27.77L0,48.1,27.77,96.19H83.31l6-10.37H42.5A12.32,12.32,0,0,1,31.83,67.34L58.3,21.49a12.32,12.32,0,0,1,21.33,0L103,62l8-13.93ZM31.62,44.9,19.08,46a2.76,2.76,0,1,1-.48-5.49l12.54-1.1a2.77,2.77,0,0,1,3,2.51,1.93,1.93,0,0,1,0,.24A2.75,2.75,0,0,1,31.62,44.9Zm5.79-9.11a2.75,2.75,0,0,1-3.77,1L22.76,30.45a2.76,2.76,0,0,1,2.77-4.77L36.42,32A2.75,2.75,0,0,1,37.41,35.79Zm3.69-6a2.75,2.75,0,0,1-3.66-1.33L32.11,17.08a2.75,2.75,0,0,1,1.33-3.66,2.72,2.72,0,0,1,1.17-.26,2.77,2.77,0,0,1,2.5,1.59l5.33,11.41A2.76,2.76,0,0,1,41.1,29.82ZM69,23.32a4.26,4.26,0,0,0-3.76,2.17L38.74,71.34a4.33,4.33,0,0,0,3.76,6.49H93.91L98.43,70,72.72,25.49A4.25,4.25,0,0,0,69,23.32Zm3.8,45.89a3.81,3.81,0,0,1-7.61,0V68.7a3.81,3.81,0,1,1,7.61,0Zm0-11.92a3.81,3.81,0,0,1-7.61,0V39.93a3.81,3.81,0,1,1,7.61,0Z"/></svg>