<svg id="Capa_1" data-name="Capa 1" xmlns="http://www.w3.org/2000/svg" viewBox="0 0 111.07 96.19"><defs><style>.cls-1{fill:#fff;}.cls-2{fill:#0b74de;}</style></defs><title>logos-RGB</title><polygon class="cls-1" points="83.31 0 27.77 0 0 48.1 27.77 96.19 83.31 96.19 111.08 48.1 83.31 0"/><path class="cls-2" d="M111.07,48.1,83.31,96.19H27.77L0,48.1,27.77,0h7.41L20.73,42.28a7.39,7.39,0,1,0,3.14,1.16L38.72,0h8.07V44.38a7.41,7.41,0,1,0,3.36,0V0H63.51V44.38a7.41,7.41,0,1,0,3.36,0V0H80.23V44.38a7.41,7.41,0,1,0,3.36,0V.49Z"/></svg>