<svg id="Capa_1" data-name="Capa 1" xmlns="http://www.w3.org/2000/svg" viewBox="0 0 110.27 96.19"><defs><style>.cls-1{fill:#fff;}.cls-2{fill:#0bacde;}</style></defs><title>logos-RGB</title><polygon class="cls-1" points="82.5 0 26.96 0 -0.81 48.09 26.96 96.19 82.5 96.19 110.27 48.09 82.5 0"/><polygon class="cls-2" points="110.27 48.1 82.5 96.19 26.96 96.19 0 49.5 8.94 49.5 15.69 61.19 30.68 61.19 37.43 49.5 47.54 49.5 58.87 67.63 52.19 79.21 59.69 92.19 74.68 92.19 82.18 79.21 74.68 66.22 61.52 66.22 51.07 49.5 71.94 49.5 78.69 61.19 93.68 61.19 101.18 48.21 93.68 35.22 78.69 35.22 72.18 46.5 51.65 46.5 61.27 30.7 74.68 30.7 82.18 17.72 74.68 4.73 59.69 4.73 52.19 17.72 58.75 29.07 48.14 46.5 37.19 46.5 30.68 35.22 15.69 35.22 9.18 46.5 0.11 46.5 26.96 0 82.5 0 110.27 48.1"/></svg>