<svg xmlns="http://www.w3.org/2000/svg" viewBox="0 0 111.09 96.2"><defs><style>.cls-1{fill:#fff;}.cls-2{fill:#0b90de;}</style></defs><title>logos-RGB</title><g id="Capa_1" data-name="Capa 1"><polygon class="cls-1" points="83.31 0 27.77 0 0 48.1 27.77 96.2 83.31 96.2 111.08 48.1 83.31 0"/><path class="cls-2" d="M34.87,35.09A71.93,71.93,0,0,1,97.47,71.7l13.62-23.6L83.32,0H27.78L3.3,42.41A71.45,71.45,0,0,1,34.87,35.09Z"/><path class="cls-2" d="M94.93,76.1A67.47,67.47,0,0,0,.46,48.87L27.78,96.2H83.32Z"/><path class="cls-1" d="M55.78,82.45a6.63,6.63,0,0,1-6.21-4.21l-14-35.11a19.61,19.61,0,0,1-.47-13.21c3.13-9.67,11.42-16.17,20.63-16.17s17.49,6.5,20.62,16.17a19.55,19.55,0,0,1-.47,13.21L62,78.24A6.65,6.65,0,0,1,55.78,82.45Z"/><path class="cls-2" d="M55.78,15.7c8.62,0,16,6.17,18.76,14.82a17.72,17.72,0,0,1-.43,11.89L60.17,77.52a4.73,4.73,0,0,1-8.79,0L37.44,42.41A17.72,17.72,0,0,1,37,30.52c2.8-8.65,10.15-14.82,18.77-14.82m0-3.91c-10.06,0-19.09,7.05-22.49,17.53a21.49,21.49,0,0,0,.52,14.53L47.75,79a8.63,8.63,0,0,0,16,0L77.74,43.85a21.49,21.49,0,0,0,.52-14.53C74.87,18.84,65.83,11.79,55.78,11.79Z"/><path class="cls-2" d="M53,46a.68.68,0,0,0,.68.69H57.9a.69.69,0,0,0,.69-.69V44.66a10.34,10.34,0,0,0,2.55-1.06l.93.94a.69.69,0,0,0,1,0l3-3a.7.7,0,0,0,0-1l-.93-.93a10.71,10.71,0,0,0,1-2.55h1.32a.68.68,0,0,0,.68-.69V32.14a.67.67,0,0,0-.68-.68H66.17a10.61,10.61,0,0,0-1-2.56L66,28a.66.66,0,0,0,.2-.48A.67.67,0,0,0,66,27l-3-3a.69.69,0,0,0-1,0l-.93.93a10.34,10.34,0,0,0-2.55-1.06V22.56a.68.68,0,0,0-.69-.68H53.65a.67.67,0,0,0-.68.68v1.31a10.41,10.41,0,0,0-2.56,1.06L49.49,24a.7.7,0,0,0-1,0l-3,3a.67.67,0,0,0-.2.48.66.66,0,0,0,.2.48l.93.93a10.25,10.25,0,0,0-1.06,2.56H44.07a.68.68,0,0,0-.69.68v4.25a.7.7,0,0,0,.2.49.72.72,0,0,0,.48.2h1.32a10.34,10.34,0,0,0,1.06,2.55l-.93.93a.68.68,0,0,0,0,1l3,3a.7.7,0,0,0,.48.2h0a.72.72,0,0,0,.48-.2l.93-.94A10.41,10.41,0,0,0,53,44.66Zm-2.29-3.81a.69.69,0,0,0-.85.09l-.83.83L47,41l.83-.82a.7.7,0,0,0,.09-.86,9.24,9.24,0,0,1-1.29-3.11.69.69,0,0,0-.67-.54H44.74V32.82h1.16a.69.69,0,0,0,.67-.54,9.24,9.24,0,0,1,1.29-3.11.68.68,0,0,0-.09-.85L47,27.49l2-2,.83.82a.68.68,0,0,0,.85.09,9.24,9.24,0,0,1,3.11-1.29.69.69,0,0,0,.54-.67V23.24h2.89V24.4a.69.69,0,0,0,.54.67,9.24,9.24,0,0,1,3.11,1.29.7.7,0,0,0,.86-.09l.82-.82,2,2-.83.83a.69.69,0,0,0-.09.85A9.24,9.24,0,0,1,65,32.28a.69.69,0,0,0,.67.54h1.17v2.89H65.64a.69.69,0,0,0-.67.54,9.24,9.24,0,0,1-1.29,3.11.71.71,0,0,0,.09.86l.83.82-2,2.05-.82-.83a.71.71,0,0,0-.86-.09,9.24,9.24,0,0,1-3.11,1.29.69.69,0,0,0-.54.67V45.3H54.33V44.13a.69.69,0,0,0-.54-.67A9.24,9.24,0,0,1,50.68,42.17Z"/><path class="cls-2" d="M43.87,36.27l.18-3.85,1.84-.33L47.08,29l-.83-1.2s2.66-3,2.81-3,.92.76,1.09.79,3.05-1.15,3.05-1.15l.9-1.73,3.6-.18.32,2,3,1.33,1.66-1,2.52,2.41-1,1.73,1.51,3,1.52.28V36l-1.52.65L64.25,39.9l1,1.12-2.77,3.35L61.4,42.79l-3.3,1.58-.36,1.73h-4l-.18-2-3.17-1.3-1.29,1L45.89,41l1.4-1.37-1.36-3.27Z"/><circle class="cls-1" cx="55.7" cy="34.2" r="4.62"/></g></svg>