<svg id="Capa_1" data-name="Capa 1" xmlns="http://www.w3.org/2000/svg" viewBox="0 0 111.07 96.19"><defs><style>.cls-1{fill:#fff;}.cls-2{fill:#0b59de;}</style></defs><title>logos-RGB</title><polygon class="cls-1" points="83.3 0 27.76 0 0 48.1 27.76 96.19 83.3 96.19 111.07 48.1 83.3 0"/><path class="cls-2" d="M111.07,48.1,83.3,0H27.76L0,48.1,15,74.15V61.87a3.14,3.14,0,0,1,3.11-3.17H92.92A3.14,3.14,0,0,1,96,61.87V74.15Zm-81.45.55-3.77-2-3.77,2,.72-4.2-3.05-3L24,40.86,25.85,37l1.88,3.82,4.22.61-3.05,3Zm14.84,0-3.77-2-3.77,2,.72-4.2-3-3,4.21-.61L40.69,37l1.89,3.82,4.21.61-3,3Zm14.85,0-3.78-2-3.77,2,.72-4.2-3-3,4.22-.61L55.53,37l1.89,3.82,4.22.61-3.06,3Zm14.84,0-3.77-2-3.78,2,.72-4.2-3-3,4.22-.61L70.38,37l1.88,3.82,4.22.61-3,3Zm14.84,0-3.77-2-3.77,2,.72-4.2-3.06-3,4.22-.61L85.22,37l1.88,3.82,4.22.61-3,3ZM86.68,65H80.45a3.14,3.14,0,0,0-3.11,3.17v6.32a3.14,3.14,0,0,0,3.11,3.17h6.23a3.14,3.14,0,0,0,3.12-3.17V68.2A3.14,3.14,0,0,0,86.68,65Zm0,19H80.45a3.13,3.13,0,0,0-3.11,3.16v6.33a3.15,3.15,0,0,0,1.47,2.68H83.3l6.1-10.56A3.11,3.11,0,0,0,86.68,84ZM68,84H61.76a3.13,3.13,0,0,0-3.11,3.16v6.33a3.15,3.15,0,0,0,1.47,2.68h9.52a3.15,3.15,0,0,0,1.47-2.68V87.18A3.13,3.13,0,0,0,68,84Zm0-19H61.76a3.14,3.14,0,0,0-3.11,3.17v6.32a3.14,3.14,0,0,0,3.11,3.17H68a3.14,3.14,0,0,0,3.12-3.17V68.2A3.14,3.14,0,0,0,68,65ZM49.3,84H43.07A3.13,3.13,0,0,0,40,87.18v6.33a3.15,3.15,0,0,0,1.47,2.68H51a3.15,3.15,0,0,0,1.47-2.68V87.18A3.13,3.13,0,0,0,49.3,84Zm0-19H43.07A3.14,3.14,0,0,0,40,68.2v6.32a3.14,3.14,0,0,0,3.11,3.17H49.3a3.14,3.14,0,0,0,3.12-3.17V68.2A3.14,3.14,0,0,0,49.3,65ZM30.61,84H24.38a3.07,3.07,0,0,0-2.71,1.62l6.09,10.55h4.49a3.13,3.13,0,0,0,1.48-2.68V87.18A3.14,3.14,0,0,0,30.61,84Zm0-19H24.38a3.14,3.14,0,0,0-3.11,3.17v6.32a3.14,3.14,0,0,0,3.11,3.17h6.23a3.15,3.15,0,0,0,3.12-3.17V68.2A3.15,3.15,0,0,0,30.61,65Z"/></svg>