<svg id="Capa_1" data-name="Capa 1" xmlns="http://www.w3.org/2000/svg" viewBox="0 0 111.65 96.2"><defs><style>.cls-1{fill:#fff;}.cls-2{fill:#0bc8de;}</style></defs><title>logos-RGB</title><polygon class="cls-1" points="83.31 0.01 27.77 0.01 0 48.1 27.77 96.2 83.31 96.2 111.08 48.1 83.31 0.01"/><polygon class="cls-1" points="83.36 0.01 27.82 0.01 0.05 48.1 27.82 96.2 83.36 96.2 111.13 48.1 83.36 0.01"/><path class="cls-2" d="M67.65,59a11,11,0,0,1-5.71-1.59l-1.51,2.43L57.18,65a19.79,19.79,0,0,0,10.47,3,20,20,0,1,0-20-21l5.46-.07,3.57,0A11,11,0,1,1,67.65,59ZM25,59l-2.71-3.4-1.64-2-4.9-6.11,7.83-.13h.11a44,44,0,0,1,65-37.92L83.3,0H27.76L0,48.1,10.86,66.92l7.36-4.15ZM44.46,85.4l-3.85,6.26L37.9,84.18,37,81.77l-1.26-3.46-.24-.66-.25.14-6.5,3.66-7.19,4,6.18,10.7H83.3l5.57-9.65A44,44,0,0,1,44.46,85.4ZM67.65,12a36,36,0,0,0-36,35.18l3.35,0,5.67-.09A27,27,0,1,1,53.46,71l-2.65,4.24-2.12,3.4A36,36,0,1,0,67.65,12ZM32.76,74.8,34,74.1l3.57-2,3.06,8.36.88,2.42.76-1.23,3.27-5.23,2-3.23,2.79-4.47.69-1.1L54.1,62.7l3.07-4.9,1.85-3,2.63-4.21L57,50.69h0l-3.79.05-5.34.06-6.2.08h-.84L35.06,51l-3.29,0-6.71.07-1.3,0h-.14l.16.19,1.47,1.85L30.8,60.1l-3.56,2-1.07.61-6.06,3.42-7.33,4.13,6.89,11.93,7.22-4.07Z"/></svg>