<svg id="Capa_1" data-name="Capa 1" xmlns="http://www.w3.org/2000/svg" viewBox="0 0 111.07 96.19"><defs><style>.cls-1{fill:#fff;}.cls-2{fill:#0b90de;}</style></defs><title>logos-RGB</title><polygon class="cls-1" points="83.31 0 27.77 0 0 48.1 27.77 96.19 83.31 96.19 111.07 48.1 83.31 0"/><path class="cls-2" d="M78.41,26H32.66A2.62,2.62,0,0,0,30,28.59v3.2H81v-3.2A2.63,2.63,0,0,0,78.41,26ZM30,59.34A2.62,2.62,0,0,0,32.66,62H78.41A2.62,2.62,0,0,0,81,59.34V41.47H30ZM83.31,0H27.77L0,48.1,27.77,96.19H83.31L111.07,48.1ZM36.87,82.86l-2.72-1.43-2.72,1.43.52-3-2.2-2.14,3-.44,1.36-2.76,1.36,2.76,3,.44-2.2,2.14Zm10.69,0-2.72-1.43-2.71,1.43.51-3-2.19-2.14,3-.44,1.36-2.76,1.36,2.76,3,.44L47,79.83Zm10.69,0-2.71-1.43-2.72,1.43.52-3-2.2-2.14,3-.44,1.36-2.76,1.36,2.76,3,.44-2.2,2.14Zm10.7,0-2.72-1.43-2.72,1.43.52-3-2.2-2.14,3-.44,1.36-2.76,1.36,2.76,3,.44-2.2,2.14Zm10.69,0-2.72-1.43-2.71,1.43.51-3-2.19-2.14,3-.44,1.36-2.76,1.36,2.76,3,.44-2.2,2.14ZM81,66H30a4,4,0,0,1-4-4V25.91a4,4,0,0,1,4-4H81a4,4,0,0,1,4,4V62A4,4,0,0,1,81,66Z"/></svg>