<svg id="Capa_1" data-name="Capa 1" xmlns="http://www.w3.org/2000/svg" viewBox="0 0 111.08 96.19"><defs><style>.cls-1{fill:#fff;}.cls-2{fill:#00e37d;}</style></defs><title>logos-RGB</title><polygon class="cls-1" points="83.31 0 27.77 0 0 48.1 27.77 96.19 83.31 96.19 111.08 48.1 83.31 0"/><path class="cls-2" d="M83.31,0H27.77L0,48.1,27.77,96.19H83.31L111.08,48.1ZM70.9,28.84,83.51,16.22a1.73,1.73,0,0,1,2.42,0l.45.45a1.71,1.71,0,0,1,0,2.42L73.76,31.7a1.71,1.71,0,0,1-2.42,0l-.44-.44A1.71,1.71,0,0,1,70.9,28.84Zm-18-21.91a1.71,1.71,0,0,1,1.71-1.71h.63A1.72,1.72,0,0,1,57,6.93V24.78a1.71,1.71,0,0,1-1.71,1.7h-.63a1.7,1.7,0,0,1-1.71-1.7ZM12.4,48v-.64a1.71,1.71,0,0,1,1.71-1.7H32a1.7,1.7,0,0,1,1.71,1.7V48A1.71,1.71,0,0,1,32,49.69H14.11A1.72,1.72,0,0,1,12.4,48Zm26.67,18.5L26.45,79.1a1.73,1.73,0,0,1-2.42,0l-.44-.45a1.71,1.71,0,0,1,0-2.42L36.2,63.62a1.71,1.71,0,0,1,2.42,0l.45.44A1.73,1.73,0,0,1,39.07,66.48Zm0-35.22-.45.44a1.71,1.71,0,0,1-2.42,0L23.59,19.09a1.71,1.71,0,0,1,0-2.42l.44-.45a1.73,1.73,0,0,1,2.42,0L39.07,28.84A1.73,1.73,0,0,1,39.07,31.26ZM60.48,82H59.16c0,1-1.83,1.89-4.09,1.89S51,83,51,82h-.69a1.2,1.2,0,0,1,0-2.4h10.2a1.2,1.2,0,1,1,0,2.4Zm0-3.84H50.28a1.2,1.2,0,0,1,0-2.4h10.2a1.2,1.2,0,1,1,0,2.4Zm0-3.85H50.28a1.2,1.2,0,0,1,0-2.4h10.2a1.2,1.2,0,1,1,0,2.4Zm2.16-7.25a3.92,3.92,0,0,1-3.77,2.72H52.32a3.93,3.93,0,0,1-3.77-2.72L46,58.61a14.2,14.2,0,1,1,19.3-.15ZM84.82,78.65l-.44.45a1.73,1.73,0,0,1-2.42,0L69.34,66.48a1.71,1.71,0,0,1,0-2.42l.45-.44a1.71,1.71,0,0,1,2.42,0L84.82,76.23A1.71,1.71,0,0,1,84.82,78.65ZM97,51.42H79.12a1.71,1.71,0,0,1-1.7-1.71v-.63a1.7,1.7,0,0,1,1.7-1.71H97a1.71,1.71,0,0,1,1.71,1.71v.63A1.72,1.72,0,0,1,97,51.42Z"/></svg>