<svg id="Capa_1" data-name="Capa 1" xmlns="http://www.w3.org/2000/svg" viewBox="0 0 111.08 96.19"><defs><style>.cls-1{fill:#fff;}.cls-2{fill:#0bacde;}</style></defs><title>logos-RGB</title><polygon class="cls-1" points="83.31 0 27.77 0 0 48.1 27.77 96.19 83.31 96.19 111.08 48.1 83.31 0"/><path class="cls-2" d="M34.71,51.12l-2.12-4.93H29.07l4.23,6.34h2.11l4.23-6.34Zm0-21.57-2.11-4.93H29.1L33.33,31h2.12l4.22-6.34Zm0,0-2.11-4.93H29.1L33.33,31h2.12l4.22-6.34Zm0,21.57-2.12-4.93H29.07l4.23,6.34h2.11l4.23-6.34Zm0,0-2.12-4.93H29.07l4.23,6.34h2.11l4.23-6.34Zm0-21.57-2.11-4.93H29.1L33.33,31h2.12l4.22-6.34Zm0,0-2.11-4.93H29.1L33.33,31h2.12l4.22-6.34Zm0,21.57-2.12-4.93H29.07l4.23,6.34h2.11l4.23-6.34ZM83.31,0H27.77L0,48.1,27.77,96.19H83.31L111.08,48.1ZM38.81,77.38H29.9l-4.46-7.71L29.9,62h8.91l4.45,7.72Zm0-21.57H29.93L25.48,48.1l4.45-7.72h8.91L43.3,48.1Zm0-21.57H30l-4.46-7.71L30,18.81h8.91l4.45,7.72Zm43,38A2.68,2.68,0,0,1,80,73H53.12a2.68,2.68,0,0,1-2.69-2.69,2.7,2.7,0,0,1,2.69-2.69H80a2.69,2.69,0,0,1,2.69,2.69A2.64,2.64,0,0,1,81.85,72.21Zm0-22A2.68,2.68,0,0,1,80,51H53.12a2.68,2.68,0,0,1-2.69-2.69,2.7,2.7,0,0,1,2.69-2.69H80a2.69,2.69,0,0,1,2.69,2.69A2.64,2.64,0,0,1,81.85,50.21Zm0-22A2.68,2.68,0,0,1,80,29H53.12a2.68,2.68,0,0,1-2.69-2.69,2.7,2.7,0,0,1,2.69-2.69H80a2.69,2.69,0,0,1,2.69,2.69A2.64,2.64,0,0,1,81.85,28.21ZM32.63,24.62H29.1L33.33,31h2.12l4.22-6.34-4.93,4.93Zm0,21.57H29.07l4.23,6.34h2.11l4.23-6.34-4.93,4.93Zm0,21.57H29l4.23,6.34h2.12l4.22-6.34-4.93,4.93Zm2.15-16.64-2.12-4.93H29.07l4.23,6.34h2.11l4.23-6.34Zm0-21.57-2.11-4.93H29.1L33.33,31h2.12l4.22-6.34Zm0,0-2.11-4.93H29.1L33.33,31h2.12l4.22-6.34Zm0,21.57-2.12-4.93H29.07l4.23,6.34h2.11l4.23-6.34Zm0-21.57-2.11-4.93H29.1L33.33,31h2.12l4.22-6.34Zm0,0-2.11-4.93H29.1L33.33,31h2.12l4.22-6.34Z"/></svg>