<svg xmlns="http://www.w3.org/2000/svg" viewBox="0 0 111.08 96.2"><defs><style>.cls-1{fill:#fff;}.cls-2{fill:#2b7a6d;}</style></defs><title>Recurso 2</title><g id="Capa_2" data-name="Capa 2"><g id="Capa_1-2" data-name="Capa 1"><polygon class="cls-1" points="83.31 0 27.77 0 0 48.1 27.77 96.2 83.31 96.2 111.08 48.1 83.31 0"/><path class="cls-2" d="M75.13,19.46H33.74a3.17,3.17,0,0,0-3.16,3.16V64a3.17,3.17,0,0,0,3.16,3.16H48.5a17.73,17.73,0,0,1-.08-1.79,19.88,19.88,0,0,1,1.19-6.8H38.7V54.91H51.4A20.15,20.15,0,0,1,56,49.76H38.7V46.09H63.43a19.94,19.94,0,0,1,14.86,2.06V22.62A3.16,3.16,0,0,0,75.13,19.46Zm-5,21.48H38.7V37.26H70.17Zm0-8.82H38.7V28.44H70.17ZM82,56.6a16.38,16.38,0,0,0-3.68-4,16.07,16.07,0,0,0-10-3.42,16.26,16.26,0,0,0-14.74,9.43,16.11,16.11,0,0,0-1.5,6.8,17.73,17.73,0,0,0,.1,1.79A16.07,16.07,0,0,0,53,70.85,16.23,16.23,0,1,0,82,56.6ZM77.71,66.65l-7.86,7a1.85,1.85,0,0,1-1.23.46H68a1.84,1.84,0,0,1-1.22-.46l-7.87-7a1.83,1.83,0,0,1,2.45-2.73l5.17,4.62V57.42a1.84,1.84,0,0,1,3.68,0v11l5-4.49a1.85,1.85,0,0,1,2.6.14A1.83,1.83,0,0,1,77.71,66.65ZM75.13,19.46H33.74a3.17,3.17,0,0,0-3.16,3.16V64a3.17,3.17,0,0,0,3.16,3.16H48.5a17.73,17.73,0,0,1-.08-1.79,19.88,19.88,0,0,1,1.19-6.8H38.7V54.91H51.4A20.15,20.15,0,0,1,56,49.76H38.7V46.09H63.43a19.94,19.94,0,0,1,14.86,2.06V22.62A3.16,3.16,0,0,0,75.13,19.46Zm-5,21.48H38.7V37.26H70.17Zm0-8.82H38.7V28.44H70.17ZM82,56.6a16.38,16.38,0,0,0-3.68-4,16.07,16.07,0,0,0-10-3.42,16.26,16.26,0,0,0-14.74,9.43,16.11,16.11,0,0,0-1.5,6.8,17.73,17.73,0,0,0,.1,1.79A16.07,16.07,0,0,0,53,70.85,16.23,16.23,0,1,0,82,56.6ZM77.71,66.65l-7.86,7a1.85,1.85,0,0,1-1.23.46H68a1.84,1.84,0,0,1-1.22-.46l-7.87-7a1.83,1.83,0,0,1,2.45-2.73l5.17,4.62V57.42a1.84,1.84,0,0,1,3.68,0v11l5-4.49a1.85,1.85,0,0,1,2.6.14A1.83,1.83,0,0,1,77.71,66.65ZM75.13,19.46H33.74a3.17,3.17,0,0,0-3.16,3.16V64a3.17,3.17,0,0,0,3.16,3.16H48.5a17.73,17.73,0,0,1-.08-1.79,19.88,19.88,0,0,1,1.19-6.8H38.7V54.91H51.4A20.15,20.15,0,0,1,56,49.76H38.7V46.09H63.43a19.94,19.94,0,0,1,14.86,2.06V22.62A3.16,3.16,0,0,0,75.13,19.46Zm-5,21.48H38.7V37.26H70.17Zm0-8.82H38.7V28.44H70.17ZM82,56.6a16.38,16.38,0,0,0-3.68-4,16.07,16.07,0,0,0-10-3.42,16.26,16.26,0,0,0-14.74,9.43,16.11,16.11,0,0,0-1.5,6.8,17.73,17.73,0,0,0,.1,1.79A16.07,16.07,0,0,0,53,70.85,16.23,16.23,0,1,0,82,56.6ZM77.71,66.65l-7.86,7a1.85,1.85,0,0,1-1.23.46H68a1.84,1.84,0,0,1-1.22-.46l-7.87-7a1.83,1.83,0,0,1,2.45-2.73l5.17,4.62V57.42a1.84,1.84,0,0,1,3.68,0v11l5-4.49a1.85,1.85,0,0,1,2.6.14A1.83,1.83,0,0,1,77.71,66.65ZM75.13,19.46H33.74a3.17,3.17,0,0,0-3.16,3.16V64a3.17,3.17,0,0,0,3.16,3.16H48.5a17.73,17.73,0,0,1-.08-1.79,19.88,19.88,0,0,1,1.19-6.8H38.7V54.91H51.4A20.15,20.15,0,0,1,56,49.76H38.7V46.09H63.43a19.94,19.94,0,0,1,14.86,2.06V22.62A3.16,3.16,0,0,0,75.13,19.46Zm-5,21.48H38.7V37.26H70.17Zm0-8.82H38.7V28.44H70.17ZM82,56.6a16.38,16.38,0,0,0-3.68-4,16.07,16.07,0,0,0-10-3.42,16.26,16.26,0,0,0-14.74,9.43,16.11,16.11,0,0,0-1.5,6.8,17.73,17.73,0,0,0,.1,1.79A16.07,16.07,0,0,0,53,70.85,16.23,16.23,0,1,0,82,56.6ZM77.71,66.65l-7.86,7a1.85,1.85,0,0,1-1.23.46H68a1.84,1.84,0,0,1-1.22-.46l-7.87-7a1.83,1.83,0,0,1,2.45-2.73l5.17,4.62V57.42a1.84,1.84,0,0,1,3.68,0v11l5-4.49a1.85,1.85,0,0,1,2.6.14A1.83,1.83,0,0,1,77.71,66.65ZM75.13,19.46H33.74a3.17,3.17,0,0,0-3.16,3.16V64a3.17,3.17,0,0,0,3.16,3.16H48.5a17.73,17.73,0,0,1-.08-1.79,19.88,19.88,0,0,1,1.19-6.8H38.7V54.91H51.4A20.15,20.15,0,0,1,56,49.76H38.7V46.09H63.43a19.94,19.94,0,0,1,14.86,2.06V22.62A3.16,3.16,0,0,0,75.13,19.46Zm-5,21.48H38.7V37.26H70.17Zm0-8.82H38.7V28.44H70.17ZM82,56.6a16.38,16.38,0,0,0-3.68-4,16.07,16.07,0,0,0-10-3.42,16.26,16.26,0,0,0-14.74,9.43,16.11,16.11,0,0,0-1.5,6.8,17.73,17.73,0,0,0,.1,1.79A16.07,16.07,0,0,0,53,70.85,16.23,16.23,0,1,0,82,56.6ZM77.71,66.65l-7.86,7a1.85,1.85,0,0,1-1.23.46H68a1.84,1.84,0,0,1-1.22-.46l-7.87-7a1.83,1.83,0,0,1,2.45-2.73l5.17,4.62V57.42a1.84,1.84,0,0,1,3.68,0v11l5-4.49a1.85,1.85,0,0,1,2.6.14A1.83,1.83,0,0,1,77.71,66.65ZM82,56.6a16.38,16.38,0,0,0-3.68-4,16.07,16.07,0,0,0-10-3.42,16.26,16.26,0,0,0-14.74,9.43,16.11,16.11,0,0,0-1.5,6.8,17.73,17.73,0,0,0,.1,1.79A16.07,16.07,0,0,0,53,70.85,16.23,16.23,0,1,0,82,56.6ZM77.71,66.65l-7.86,7a1.85,1.85,0,0,1-1.23.46H68a1.84,1.84,0,0,1-1.22-.46l-7.87-7a1.83,1.83,0,0,1,2.45-2.73l5.17,4.62V57.42a1.84,1.84,0,0,1,3.68,0v11l5-4.49a1.85,1.85,0,0,1,2.6.14A1.83,1.83,0,0,1,77.71,66.65ZM75.13,19.46H33.74a3.17,3.17,0,0,0-3.16,3.16V64a3.17,3.17,0,0,0,3.16,3.16H48.5a17.73,17.73,0,0,1-.08-1.79,19.88,19.88,0,0,1,1.19-6.8H38.7V54.91H51.4A20.15,20.15,0,0,1,56,49.76H38.7V46.09H63.43a19.94,19.94,0,0,1,14.86,2.06V22.62A3.16,3.16,0,0,0,75.13,19.46Zm-5,21.48H38.7V37.26H70.17Zm0-8.82H38.7V28.44H70.17Zm5-12.66H33.74a3.17,3.17,0,0,0-3.16,3.16V64a3.17,3.17,0,0,0,3.16,3.16H48.5a17.73,17.73,0,0,1-.08-1.79,19.88,19.88,0,0,1,1.19-6.8H38.7V54.91H51.4A20.15,20.15,0,0,1,56,49.76H38.7V46.09H63.43a19.94,19.94,0,0,1,14.86,2.06V22.62A3.16,3.16,0,0,0,75.13,19.46Zm-5,21.48H38.7V37.26H70.17Zm0-8.82H38.7V28.44H70.17ZM82,56.6a16.38,16.38,0,0,0-3.68-4,16.07,16.07,0,0,0-10-3.42,16.26,16.26,0,0,0-14.74,9.43,16.11,16.11,0,0,0-1.5,6.8,17.73,17.73,0,0,0,.1,1.79A16.07,16.07,0,0,0,53,70.85,16.23,16.23,0,1,0,82,56.6ZM77.71,66.65l-7.86,7a1.85,1.85,0,0,1-1.23.46H68a1.84,1.84,0,0,1-1.22-.46l-7.87-7a1.83,1.83,0,0,1,2.45-2.73l5.17,4.62V57.42a1.84,1.84,0,0,1,3.68,0v11l5-4.49a1.85,1.85,0,0,1,2.6.14A1.83,1.83,0,0,1,77.71,66.65ZM82,56.6a16.38,16.38,0,0,0-3.68-4,16.07,16.07,0,0,0-10-3.42,16.26,16.26,0,0,0-14.74,9.43,16.11,16.11,0,0,0-1.5,6.8,17.73,17.73,0,0,0,.1,1.79A16.07,16.07,0,0,0,53,70.85,16.23,16.23,0,1,0,82,56.6ZM77.71,66.65l-7.86,7a1.85,1.85,0,0,1-1.23.46H68a1.84,1.84,0,0,1-1.22-.46l-7.87-7a1.83,1.83,0,0,1,2.45-2.73l5.17,4.62V57.42a1.84,1.84,0,0,1,3.68,0v11l5-4.49a1.85,1.85,0,0,1,2.6.14A1.83,1.83,0,0,1,77.71,66.65ZM75.13,19.46H33.74a3.17,3.17,0,0,0-3.16,3.16V64a3.17,3.17,0,0,0,3.16,3.16H48.5a17.73,17.73,0,0,1-.08-1.79,19.88,19.88,0,0,1,1.19-6.8H38.7V54.91H51.4A20.15,20.15,0,0,1,56,49.76H38.7V46.09H63.43a19.94,19.94,0,0,1,14.86,2.06V22.62A3.16,3.16,0,0,0,75.13,19.46Zm-5,21.48H38.7V37.26H70.17Zm0-8.82H38.7V28.44H70.17Zm5-12.66H33.74a3.17,3.17,0,0,0-3.16,3.16V64a3.17,3.17,0,0,0,3.16,3.16H48.5a17.73,17.73,0,0,1-.08-1.79,19.88,19.88,0,0,1,1.19-6.8H38.7V54.91H51.4A20.15,20.15,0,0,1,56,49.76H38.7V46.09H63.43a19.94,19.94,0,0,1,14.86,2.06V22.62A3.16,3.16,0,0,0,75.13,19.46Zm-5,21.48H38.7V37.26H70.17Zm0-8.82H38.7V28.44H70.17ZM82,56.6a16.38,16.38,0,0,0-3.68-4,16.07,16.07,0,0,0-10-3.42,16.26,16.26,0,0,0-14.74,9.43,16.11,16.11,0,0,0-1.5,6.8,17.73,17.73,0,0,0,.1,1.79A16.07,16.07,0,0,0,53,70.85,16.23,16.23,0,1,0,82,56.6ZM77.71,66.65l-7.86,7a1.85,1.85,0,0,1-1.23.46H68a1.84,1.84,0,0,1-1.22-.46l-7.87-7a1.83,1.83,0,0,1,2.45-2.73l5.17,4.62V57.42a1.84,1.84,0,0,1,3.68,0v11l5-4.49a1.85,1.85,0,0,1,2.6.14A1.83,1.83,0,0,1,77.71,66.65ZM82,56.6a16.38,16.38,0,0,0-3.68-4,16.07,16.07,0,0,0-10-3.42,16.26,16.26,0,0,0-14.74,9.43,16.11,16.11,0,0,0-1.5,6.8,17.73,17.73,0,0,0,.1,1.79A16.07,16.07,0,0,0,53,70.85,16.23,16.23,0,1,0,82,56.6ZM77.71,66.65l-7.86,7a1.85,1.85,0,0,1-1.23.46H68a1.84,1.84,0,0,1-1.22-.46l-7.87-7a1.83,1.83,0,0,1,2.45-2.73l5.17,4.62V57.42a1.84,1.84,0,0,1,3.68,0v11l5-4.49a1.85,1.85,0,0,1,2.6.14A1.83,1.83,0,0,1,77.71,66.65ZM75.13,19.46H33.74a3.17,3.17,0,0,0-3.16,3.16V64a3.17,3.17,0,0,0,3.16,3.16H48.5a17.73,17.73,0,0,1-.08-1.79,19.88,19.88,0,0,1,1.19-6.8H38.7V54.91H51.4A20.15,20.15,0,0,1,56,49.76H38.7V46.09H63.43a19.94,19.94,0,0,1,14.86,2.06V22.62A3.16,3.16,0,0,0,75.13,19.46Zm-5,21.48H38.7V37.26H70.17Zm0-8.82H38.7V28.44H70.17Zm5-12.66H33.74a3.17,3.17,0,0,0-3.16,3.16V64a3.17,3.17,0,0,0,3.16,3.16H48.5a17.73,17.73,0,0,1-.08-1.79,19.88,19.88,0,0,1,1.19-6.8H38.7V54.91H51.4A20.15,20.15,0,0,1,56,49.76H38.7V46.09H63.43a19.94,19.94,0,0,1,14.86,2.06V22.62A3.16,3.16,0,0,0,75.13,19.46Zm-5,21.48H38.7V37.26H70.17Zm0-8.82H38.7V28.44H70.17ZM82,56.6a16.38,16.38,0,0,0-3.68-4,16.07,16.07,0,0,0-10-3.42,16.26,16.26,0,0,0-14.74,9.43,16.11,16.11,0,0,0-1.5,6.8,17.73,17.73,0,0,0,.1,1.79A16.07,16.07,0,0,0,53,70.85,16.23,16.23,0,1,0,82,56.6ZM77.71,66.65l-7.86,7a1.85,1.85,0,0,1-1.23.46H68a1.84,1.84,0,0,1-1.22-.46l-7.87-7a1.83,1.83,0,0,1,2.45-2.73l5.17,4.62V57.42a1.84,1.84,0,0,1,3.68,0v11l5-4.49a1.85,1.85,0,0,1,2.6.14A1.83,1.83,0,0,1,77.71,66.65ZM82,56.6a16.38,16.38,0,0,0-3.68-4,16.07,16.07,0,0,0-10-3.42,16.26,16.26,0,0,0-14.74,9.43,16.11,16.11,0,0,0-1.5,6.8,17.73,17.73,0,0,0,.1,1.79A16.07,16.07,0,0,0,53,70.85,16.23,16.23,0,1,0,82,56.6ZM77.71,66.65l-7.86,7a1.85,1.85,0,0,1-1.23.46H68a1.84,1.84,0,0,1-1.22-.46l-7.87-7a1.83,1.83,0,0,1,2.45-2.73l5.17,4.62V57.42a1.84,1.84,0,0,1,3.68,0v11l5-4.49a1.85,1.85,0,0,1,2.6.14A1.83,1.83,0,0,1,77.71,66.65ZM51.4,54.91A20.15,20.15,0,0,1,56,49.76H38.7V46.09H63.43a19.94,19.94,0,0,1,14.86,2.06V22.62a3.16,3.16,0,0,0-3.16-3.16H33.74a3.17,3.17,0,0,0-3.16,3.16V64a3.17,3.17,0,0,0,3.16,3.16H48.5a17.73,17.73,0,0,1-.08-1.79,19.88,19.88,0,0,1,1.19-6.8H38.7V54.91ZM38.7,28.44H70.17v3.68H38.7Zm0,8.82H70.17v3.68H38.7ZM83.31,0H27.77L0,48.1,27.77,96.2H83.31l27.77-48.1Zm-15,85.3A19.94,19.94,0,0,1,49.17,70.85H33.74A6.84,6.84,0,0,1,26.9,64V22.62a6.84,6.84,0,0,1,6.84-6.83H38V12.18h8.07v3.61H62.61V12.18h8.07v3.61h4.45A6.83,6.83,0,0,1,82,22.62V50.89A19.91,19.91,0,0,1,68.33,85.3ZM82,56.6a16.38,16.38,0,0,0-3.68-4,16.07,16.07,0,0,0-10-3.42,16.26,16.26,0,0,0-14.74,9.43,16.11,16.11,0,0,0-1.5,6.8,17.73,17.73,0,0,0,.1,1.79A16.07,16.07,0,0,0,53,70.85,16.23,16.23,0,1,0,82,56.6ZM77.71,66.65l-7.86,7a1.85,1.85,0,0,1-1.23.46H68a1.84,1.84,0,0,1-1.22-.46l-7.87-7a1.83,1.83,0,0,1,2.45-2.73l5.17,4.62V57.42a1.84,1.84,0,0,1,3.68,0v11l5-4.49a1.85,1.85,0,0,1,2.6.14A1.83,1.83,0,0,1,77.71,66.65ZM51.4,54.91A20.15,20.15,0,0,1,56,49.76H38.7V46.09H63.43a19.94,19.94,0,0,1,14.86,2.06V22.62a3.16,3.16,0,0,0-3.16-3.16H33.74a3.17,3.17,0,0,0-3.16,3.16V64a3.17,3.17,0,0,0,3.16,3.16H48.5a17.73,17.73,0,0,1-.08-1.79,19.88,19.88,0,0,1,1.19-6.8H38.7V54.91ZM38.7,28.44H70.17v3.68H38.7Zm0,8.82H70.17v3.68H38.7Zm36.43-17.8H33.74a3.17,3.17,0,0,0-3.16,3.16V64a3.17,3.17,0,0,0,3.16,3.16H48.5a17.73,17.73,0,0,1-.08-1.79,19.88,19.88,0,0,1,1.19-6.8H38.7V54.91H51.4A20.15,20.15,0,0,1,56,49.76H38.7V46.09H63.43a19.94,19.94,0,0,1,14.86,2.06V22.62A3.16,3.16,0,0,0,75.13,19.46Zm-5,21.48H38.7V37.26H70.17Zm0-8.82H38.7V28.44H70.17ZM82,56.6a16.38,16.38,0,0,0-3.68-4,16.07,16.07,0,0,0-10-3.42,16.26,16.26,0,0,0-14.74,9.43,16.11,16.11,0,0,0-1.5,6.8,17.73,17.73,0,0,0,.1,1.79A16.07,16.07,0,0,0,53,70.85,16.23,16.23,0,1,0,82,56.6ZM77.71,66.65l-7.86,7a1.85,1.85,0,0,1-1.23.46H68a1.84,1.84,0,0,1-1.22-.46l-7.87-7a1.83,1.83,0,0,1,2.45-2.73l5.17,4.62V57.42a1.84,1.84,0,0,1,3.68,0v11l5-4.49a1.85,1.85,0,0,1,2.6.14A1.83,1.83,0,0,1,77.71,66.65ZM82,56.6a16.38,16.38,0,0,0-3.68-4,16.07,16.07,0,0,0-10-3.42,16.26,16.26,0,0,0-14.74,9.43,16.11,16.11,0,0,0-1.5,6.8,17.73,17.73,0,0,0,.1,1.79A16.07,16.07,0,0,0,53,70.85,16.23,16.23,0,1,0,82,56.6ZM77.71,66.65l-7.86,7a1.85,1.85,0,0,1-1.23.46H68a1.84,1.84,0,0,1-1.22-.46l-7.87-7a1.83,1.83,0,0,1,2.45-2.73l5.17,4.62V57.42a1.84,1.84,0,0,1,3.68,0v11l5-4.49a1.85,1.85,0,0,1,2.6.14A1.83,1.83,0,0,1,77.71,66.65ZM75.13,19.46H33.74a3.17,3.17,0,0,0-3.16,3.16V64a3.17,3.17,0,0,0,3.16,3.16H48.5a17.73,17.73,0,0,1-.08-1.79,19.88,19.88,0,0,1,1.19-6.8H38.7V54.91H51.4A20.15,20.15,0,0,1,56,49.76H38.7V46.09H63.43a19.94,19.94,0,0,1,14.86,2.06V22.62A3.16,3.16,0,0,0,75.13,19.46Zm-5,21.48H38.7V37.26H70.17Zm0-8.82H38.7V28.44H70.17Zm5-12.66H33.74a3.17,3.17,0,0,0-3.16,3.16V64a3.17,3.17,0,0,0,3.16,3.16H48.5a17.73,17.73,0,0,1-.08-1.79,19.88,19.88,0,0,1,1.19-6.8H38.7V54.91H51.4A20.15,20.15,0,0,1,56,49.76H38.7V46.09H63.43a19.94,19.94,0,0,1,14.86,2.06V22.62A3.16,3.16,0,0,0,75.13,19.46Zm-5,21.48H38.7V37.26H70.17Zm0-8.82H38.7V28.44H70.17ZM82,56.6a16.38,16.38,0,0,0-3.68-4,16.07,16.07,0,0,0-10-3.42,16.26,16.26,0,0,0-14.74,9.43,16.11,16.11,0,0,0-1.5,6.8,17.73,17.73,0,0,0,.1,1.79A16.07,16.07,0,0,0,53,70.85,16.23,16.23,0,1,0,82,56.6ZM77.71,66.65l-7.86,7a1.85,1.85,0,0,1-1.23.46H68a1.84,1.84,0,0,1-1.22-.46l-7.87-7a1.83,1.83,0,0,1,2.45-2.73l5.17,4.62V57.42a1.84,1.84,0,0,1,3.68,0v11l5-4.49a1.85,1.85,0,0,1,2.6.14A1.83,1.83,0,0,1,77.71,66.65ZM82,56.6a16.38,16.38,0,0,0-3.68-4,16.07,16.07,0,0,0-10-3.42,16.26,16.26,0,0,0-14.74,9.43,16.11,16.11,0,0,0-1.5,6.8,17.73,17.73,0,0,0,.1,1.79A16.07,16.07,0,0,0,53,70.85,16.23,16.23,0,1,0,82,56.6ZM77.71,66.65l-7.86,7a1.85,1.85,0,0,1-1.23.46H68a1.84,1.84,0,0,1-1.22-.46l-7.87-7a1.83,1.83,0,0,1,2.45-2.73l5.17,4.62V57.42a1.84,1.84,0,0,1,3.68,0v11l5-4.49a1.85,1.85,0,0,1,2.6.14A1.83,1.83,0,0,1,77.71,66.65ZM75.13,19.46H33.74a3.17,3.17,0,0,0-3.16,3.16V64a3.17,3.17,0,0,0,3.16,3.16H48.5a17.73,17.73,0,0,1-.08-1.79,19.88,19.88,0,0,1,1.19-6.8H38.7V54.91H51.4A20.15,20.15,0,0,1,56,49.76H38.7V46.09H63.43a19.94,19.94,0,0,1,14.86,2.06V22.62A3.16,3.16,0,0,0,75.13,19.46Zm-5,21.48H38.7V37.26H70.17Zm0-8.82H38.7V28.44H70.17Zm5-12.66H33.74a3.17,3.17,0,0,0-3.16,3.16V64a3.17,3.17,0,0,0,3.16,3.16H48.5a17.73,17.73,0,0,1-.08-1.79,19.88,19.88,0,0,1,1.19-6.8H38.7V54.91H51.4A20.15,20.15,0,0,1,56,49.76H38.7V46.09H63.43a19.94,19.94,0,0,1,14.86,2.06V22.62A3.16,3.16,0,0,0,75.13,19.46Zm-5,21.48H38.7V37.26H70.17Zm0-8.82H38.7V28.44H70.17ZM82,56.6a16.38,16.38,0,0,0-3.68-4,16.07,16.07,0,0,0-10-3.42,16.26,16.26,0,0,0-14.74,9.43,16.11,16.11,0,0,0-1.5,6.8,17.73,17.73,0,0,0,.1,1.79A16.07,16.07,0,0,0,53,70.85,16.23,16.23,0,1,0,82,56.6ZM77.71,66.65l-7.86,7a1.85,1.85,0,0,1-1.23.46H68a1.84,1.84,0,0,1-1.22-.46l-7.87-7a1.83,1.83,0,0,1,2.45-2.73l5.17,4.62V57.42a1.84,1.84,0,0,1,3.68,0v11l5-4.49a1.85,1.85,0,0,1,2.6.14A1.83,1.83,0,0,1,77.71,66.65ZM82,56.6a16.38,16.38,0,0,0-3.68-4,16.07,16.07,0,0,0-10-3.42,16.26,16.26,0,0,0-14.74,9.43,16.11,16.11,0,0,0-1.5,6.8,17.73,17.73,0,0,0,.1,1.79A16.07,16.07,0,0,0,53,70.85,16.23,16.23,0,1,0,82,56.6ZM77.71,66.65l-7.86,7a1.85,1.85,0,0,1-1.23.46H68a1.84,1.84,0,0,1-1.22-.46l-7.87-7a1.83,1.83,0,0,1,2.45-2.73l5.17,4.62V57.42a1.84,1.84,0,0,1,3.68,0v11l5-4.49a1.85,1.85,0,0,1,2.6.14A1.83,1.83,0,0,1,77.71,66.65ZM75.13,19.46H33.74a3.17,3.17,0,0,0-3.16,3.16V64a3.17,3.17,0,0,0,3.16,3.16H48.5a17.73,17.73,0,0,1-.08-1.79,19.88,19.88,0,0,1,1.19-6.8H38.7V54.91H51.4A20.15,20.15,0,0,1,56,49.76H38.7V46.09H63.43a19.94,19.94,0,0,1,14.86,2.06V22.62A3.16,3.16,0,0,0,75.13,19.46Zm-5,21.48H38.7V37.26H70.17Zm0-8.82H38.7V28.44H70.17Zm5-12.66H33.74a3.17,3.17,0,0,0-3.16,3.16V64a3.17,3.17,0,0,0,3.16,3.16H48.5a17.73,17.73,0,0,1-.08-1.79,19.88,19.88,0,0,1,1.19-6.8H38.7V54.91H51.4A20.15,20.15,0,0,1,56,49.76H38.7V46.09H63.43a19.94,19.94,0,0,1,14.86,2.06V22.62A3.16,3.16,0,0,0,75.13,19.46Zm-5,21.48H38.7V37.26H70.17Zm0-8.82H38.7V28.44H70.17ZM82,56.6a16.38,16.38,0,0,0-3.68-4,16.07,16.07,0,0,0-10-3.42,16.26,16.26,0,0,0-14.74,9.43,16.11,16.11,0,0,0-1.5,6.8,17.73,17.73,0,0,0,.1,1.79A16.07,16.07,0,0,0,53,70.85,16.23,16.23,0,1,0,82,56.6ZM77.71,66.65l-7.86,7a1.85,1.85,0,0,1-1.23.46H68a1.84,1.84,0,0,1-1.22-.46l-7.87-7a1.83,1.83,0,0,1,2.45-2.73l5.17,4.62V57.42a1.84,1.84,0,0,1,3.68,0v11l5-4.49a1.85,1.85,0,0,1,2.6.14A1.83,1.83,0,0,1,77.71,66.65ZM75.13,19.46H33.74a3.17,3.17,0,0,0-3.16,3.16V64a3.17,3.17,0,0,0,3.16,3.16H48.5a17.73,17.73,0,0,1-.08-1.79,19.88,19.88,0,0,1,1.19-6.8H38.7V54.91H51.4A20.15,20.15,0,0,1,56,49.76H38.7V46.09H63.43a19.94,19.94,0,0,1,14.86,2.06V22.62A3.16,3.16,0,0,0,75.13,19.46Zm-5,21.48H38.7V37.26H70.17Zm0-8.82H38.7V28.44H70.17ZM82,56.6a16.38,16.38,0,0,0-3.68-4,16.07,16.07,0,0,0-10-3.42,16.26,16.26,0,0,0-14.74,9.43,16.11,16.11,0,0,0-1.5,6.8,17.73,17.73,0,0,0,.1,1.79A16.07,16.07,0,0,0,53,70.85,16.23,16.23,0,1,0,82,56.6ZM77.71,66.65l-7.86,7a1.85,1.85,0,0,1-1.23.46H68a1.84,1.84,0,0,1-1.22-.46l-7.87-7a1.83,1.83,0,0,1,2.45-2.73l5.17,4.62V57.42a1.84,1.84,0,0,1,3.68,0v11l5-4.49a1.85,1.85,0,0,1,2.6.14A1.83,1.83,0,0,1,77.71,66.65ZM75.13,19.46H33.74a3.17,3.17,0,0,0-3.16,3.16V64a3.17,3.17,0,0,0,3.16,3.16H48.5a17.73,17.73,0,0,1-.08-1.79,19.88,19.88,0,0,1,1.19-6.8H38.7V54.91H51.4A20.15,20.15,0,0,1,56,49.76H38.7V46.09H63.43a19.94,19.94,0,0,1,14.86,2.06V22.62A3.16,3.16,0,0,0,75.13,19.46Zm-5,21.48H38.7V37.26H70.17Zm0-8.82H38.7V28.44H70.17ZM82,56.6a16.38,16.38,0,0,0-3.68-4,16.07,16.07,0,0,0-10-3.42,16.26,16.26,0,0,0-14.74,9.43,16.11,16.11,0,0,0-1.5,6.8,17.73,17.73,0,0,0,.1,1.79A16.07,16.07,0,0,0,53,70.85,16.23,16.23,0,1,0,82,56.6ZM77.71,66.65l-7.86,7a1.85,1.85,0,0,1-1.23.46H68a1.84,1.84,0,0,1-1.22-.46l-7.87-7a1.83,1.83,0,0,1,2.45-2.73l5.17,4.62V57.42a1.84,1.84,0,0,1,3.68,0v11l5-4.49a1.85,1.85,0,0,1,2.6.14A1.83,1.83,0,0,1,77.71,66.65ZM75.13,19.46H33.74a3.17,3.17,0,0,0-3.16,3.16V64a3.17,3.17,0,0,0,3.16,3.16H48.5a17.73,17.73,0,0,1-.08-1.79,19.88,19.88,0,0,1,1.19-6.8H38.7V54.91H51.4A20.15,20.15,0,0,1,56,49.76H38.7V46.09H63.43a19.94,19.94,0,0,1,14.86,2.06V22.62A3.16,3.16,0,0,0,75.13,19.46Zm-5,21.48H38.7V37.26H70.17Zm0-8.82H38.7V28.44H70.17ZM82,56.6a16.38,16.38,0,0,0-3.68-4,16.07,16.07,0,0,0-10-3.42,16.26,16.26,0,0,0-14.74,9.43,16.11,16.11,0,0,0-1.5,6.8,17.73,17.73,0,0,0,.1,1.79A16.07,16.07,0,0,0,53,70.85,16.23,16.23,0,1,0,82,56.6ZM77.71,66.65l-7.86,7a1.85,1.85,0,0,1-1.23.46H68a1.84,1.84,0,0,1-1.22-.46l-7.87-7a1.83,1.83,0,0,1,2.45-2.73l5.17,4.62V57.42a1.84,1.84,0,0,1,3.68,0v11l5-4.49a1.85,1.85,0,0,1,2.6.14A1.83,1.83,0,0,1,77.71,66.65ZM75.13,19.46H33.74a3.17,3.17,0,0,0-3.16,3.16V64a3.17,3.17,0,0,0,3.16,3.16H48.5a17.73,17.73,0,0,1-.08-1.79,19.88,19.88,0,0,1,1.19-6.8H38.7V54.91H51.4A20.15,20.15,0,0,1,56,49.76H38.7V46.09H63.43a19.94,19.94,0,0,1,14.86,2.06V22.62A3.16,3.16,0,0,0,75.13,19.46Zm-5,21.48H38.7V37.26H70.17Zm0-8.82H38.7V28.44H70.17ZM82,56.6a16.38,16.38,0,0,0-3.68-4,16.07,16.07,0,0,0-10-3.42,16.26,16.26,0,0,0-14.74,9.43,16.11,16.11,0,0,0-1.5,6.8,17.73,17.73,0,0,0,.1,1.79A16.07,16.07,0,0,0,53,70.85,16.23,16.23,0,1,0,82,56.6ZM77.71,66.65l-7.86,7a1.85,1.85,0,0,1-1.23.46H68a1.84,1.84,0,0,1-1.22-.46l-7.87-7a1.83,1.83,0,0,1,2.45-2.73l5.17,4.62V57.42a1.84,1.84,0,0,1,3.68,0v11l5-4.49a1.85,1.85,0,0,1,2.6.14A1.83,1.83,0,0,1,77.71,66.65ZM75.13,19.46H33.74a3.17,3.17,0,0,0-3.16,3.16V64a3.17,3.17,0,0,0,3.16,3.16H48.5a17.73,17.73,0,0,1-.08-1.79,19.88,19.88,0,0,1,1.19-6.8H38.7V54.91H51.4A20.15,20.15,0,0,1,56,49.76H38.7V46.09H63.43a19.94,19.94,0,0,1,14.86,2.06V22.62A3.16,3.16,0,0,0,75.13,19.46Zm-5,21.48H38.7V37.26H70.17Zm0-8.82H38.7V28.44H70.17ZM82,56.6a16.38,16.38,0,0,0-3.68-4,16.07,16.07,0,0,0-10-3.42,16.26,16.26,0,0,0-14.74,9.43,16.11,16.11,0,0,0-1.5,6.8,17.73,17.73,0,0,0,.1,1.79A16.07,16.07,0,0,0,53,70.85,16.23,16.23,0,1,0,82,56.6ZM77.71,66.65l-7.86,7a1.85,1.85,0,0,1-1.23.46H68a1.84,1.84,0,0,1-1.22-.46l-7.87-7a1.83,1.83,0,0,1,2.45-2.73l5.17,4.62V57.42a1.84,1.84,0,0,1,3.68,0v11l5-4.49a1.85,1.85,0,0,1,2.6.14A1.83,1.83,0,0,1,77.71,66.65Z"/></g></g></svg>