<svg id="Capa_1" data-name="Capa 1" xmlns="http://www.w3.org/2000/svg" viewBox="0 0 111.08 96.19"><defs><style>.cls-1{fill:#2b7a6d;}.cls-2{fill:#fff;}.cls-3{fill:none;stroke:#fff;stroke-linecap:round;stroke-miterlimit:10;stroke-width:2px;}</style></defs><title>logos-RGB</title><polygon class="cls-1" points="83.31 0 27.77 0 0 48.1 27.77 96.19 83.31 96.19 111.08 48.1 83.31 0"/><polygon class="cls-2" points="28.75 31.15 24.46 23.72 28.75 16.29 37.33 16.29 41.62 23.72 37.33 31.15 28.75 31.15"/><path class="cls-2" d="M36.24,18.18l3.2,5.54-3.2,5.54h-6.4l-3.2-5.54,3.2-5.54h6.4m2.18-3.79H27.66l-5.39,9.33,5.39,9.33H38.42l5.39-9.33-5.39-9.33Z"/><polygon class="cls-2" points="28.75 55.15 24.46 47.72 28.75 40.29 37.33 40.29 41.62 47.72 37.33 55.15 28.75 55.15"/><path class="cls-2" d="M36.24,42.18l3.2,5.54-3.2,5.54h-6.4l-3.2-5.54,3.2-5.54h6.4m2.18-3.79H27.66l-5.39,9.33,5.39,9.33H38.42l5.39-9.33-5.39-9.33Z"/><polygon class="cls-2" points="28.75 81.15 24.46 73.72 28.75 66.29 37.33 66.29 41.62 73.72 37.33 81.15 28.75 81.15"/><path class="cls-2" d="M36.24,68.18l3.2,5.54-3.2,5.54h-6.4l-3.2-5.54,3.2-5.54h6.4m2.18-3.78H27.66l-5.39,9.32,5.39,9.33H38.42l5.39-9.33L38.42,64.4Z"/><polygon class="cls-2" points="73.75 31.15 69.46 23.72 73.75 16.29 82.33 16.29 86.62 23.72 82.33 31.15 73.75 31.15"/><path class="cls-2" d="M81.24,18.18l3.2,5.54-3.2,5.54h-6.4l-3.2-5.54,3.2-5.54h6.4m2.18-3.79H72.66l-5.39,9.33,5.39,9.33H83.42l5.39-9.33-5.39-9.33Z"/><polygon class="cls-2" points="73.75 55.15 69.46 47.72 73.75 40.29 82.33 40.29 86.62 47.72 82.33 55.15 73.75 55.15"/><path class="cls-2" d="M81.24,42.18l3.2,5.54-3.2,5.54h-6.4l-3.2-5.54,3.2-5.54h6.4m2.18-3.79H72.66l-5.39,9.33,5.39,9.33H83.42l5.39-9.33-5.39-9.33Z"/><polygon class="cls-2" points="73.75 81.15 69.46 73.72 73.75 66.29 82.33 66.29 86.62 73.72 82.33 81.15 73.75 81.15"/><path class="cls-2" d="M81.24,68.18l3.2,5.54-3.2,5.54h-6.4l-3.2-5.54,3.2-5.54h6.4m2.18-3.78H72.66l-5.39,9.32,5.39,9.33H83.42l5.39-9.33L83.42,64.4Z"/><path class="cls-3" d="M43.81,23.72h9.52a1,1,0,0,1,1,1l1,48a1,1,0,0,0,1,1h11"/><path class="cls-3" d="M67.27,23.72H62.94a1,1,0,0,0-1,1V37.39a1,1,0,0,1-1,1H49a1,1,0,0,0-1,1v7.33a1,1,0,0,1-1,1H43.81"/><path class="cls-3" d="M43.81,73.72H47a1,1,0,0,0,1-1V60.41a1,1,0,0,1,1-1H60.61a1,1,0,0,0,1-1V48.72a1,1,0,0,1,1-1h4.66"/></svg>