<svg id="Capa_1" data-name="Capa 1" xmlns="http://www.w3.org/2000/svg" viewBox="0 0 111.07 96.19"><defs><style>.cls-1{fill:#0dfad2;}.cls-2{fill:#0ac879;}.cls-3{fill:#fff;}</style></defs><title>logos-RGB</title><polygon class="cls-1" points="83.31 0 27.77 0 0 48.1 27.77 96.19 83.31 96.19 111.08 48.1 83.31 0"/><polygon class="cls-2" points="83.3 0 27.76 0 0 48.1 27.76 96.19 83.3 96.19 111.07 48.1 83.3 0"/><path class="cls-3" d="M88.07,70a1.54,1.54,0,0,0,.49-1.29C88,63.4,86.36,52.85,82,49.79c-5.83-4.12-61.38-23.95-61.72-23.85-1.92.53.63,8.38,6.94,10.73,0,0,35.1,11.46,35.11,12.63s-32-9.52-32-9.52-.21,7.3,9,10.21,21.24,5.82,21,6.92c-.08.29-17.47-4.23-17.47-4.23s1.1,4.15,4.81,5.46,11.69,3.67,11.6,4.34-10.35-2.39-10.35-2.39,1.27,4.65,7.9,5.61c7.67,1.1,18-.65,20,.22,1.35.59,5.21,3.78,7.51,5.74a1.56,1.56,0,0,0,2.07,0Z"/></svg>