<svg id="Capa_1" data-name="Capa 1" xmlns="http://www.w3.org/2000/svg" viewBox="0 0 111.08 96.19"><defs><style>.cls-1{fill:#fff;}.cls-2{fill:#209471;}</style></defs><title>logos-RGB</title><polygon class="cls-1" points="83.31 0 27.77 0 0.01 48.1 27.77 96.19 83.31 96.19 111.08 48.1 83.31 0"/><path class="cls-2" d="M83.31,0H27.77L0,48.1,27.77,96.19H83.31L111.08,48.1ZM25.49,43.12A2.32,2.32,0,0,1,25.23,42a2.38,2.38,0,0,1,1.3-2.11L67.72,19l-1.8-3.54,12.68.68L71.67,26.77l-1.8-3.54L28.68,44.16A2.37,2.37,0,0,1,25.49,43.12ZM42.15,82H27.49V60.5a3.65,3.65,0,0,1,3.66-3.65H38.5a3.64,3.64,0,0,1,3.65,3.65Zm20,0H47.49V53.82a3.66,3.66,0,0,1,3.66-3.65H58.5a3.65,3.65,0,0,1,3.65,3.65Zm20,0H67.49V44.44a3.66,3.66,0,0,1,3.66-3.66H78.5a3.65,3.65,0,0,1,3.65,3.66Z"/></svg>