<svg id="Capa_1" data-name="Capa 1" xmlns="http://www.w3.org/2000/svg" viewBox="0 0 999 294.5"><defs><style>.cls-1{fill:#418fde;}.cls-2{fill:#fff;}</style></defs><title>logos-RGB</title><path class="cls-1" d="M948.5,52H898.09l-34.73,51.24,26.13,36.06ZM828.16,66.74H777.71L833,147.45,770,242.2h48.88L884,146.9Zm35.2,123.8,25.56,37.12h50.45L889,154.33Z"/><path class="cls-2" d="M76.9,181.48H92.65V109.73h25.54V96.79H51.36v12.94H76.9Zm151-84.69-33,83.87L174.25,150.2a14.71,14.71,0,0,0-2.34-2.84,15.91,15.91,0,0,0-2.82-2.08,29.43,29.43,0,0,0,7.94-3.69,24.49,24.49,0,0,0,5.86-5.45,23.35,23.35,0,0,0,3.63-6.9,25.62,25.62,0,0,0,1.26-8.09,25.34,25.34,0,0,0-1.88-9.87,19.55,19.55,0,0,0-5.83-7.7,28.17,28.17,0,0,0-10.13-5,53.76,53.76,0,0,0-14.79-1.78H129.32v84.69h15.76V148.39h6.73a7.68,7.68,0,0,1,3.54.64,6.28,6.28,0,0,1,2.2,2.17l17.8,27.12a6.25,6.25,0,0,0,5.86,3.16h25.65a5.13,5.13,0,0,0,3.34-1.11,5.73,5.73,0,0,0,1.82-2.46l6.32-17.28h35.08l6.33,17.28a6.56,6.56,0,0,0,1.93,2.55,5.28,5.28,0,0,0,3.34,1h12.19L243.94,96.79ZM162.67,136a24.4,24.4,0,0,1-7.76,1.11h-9.84V109h10.08q8.72,0,13,3.45t4.25,9.9a16.19,16.19,0,0,1-1.06,5.92,12.45,12.45,0,0,1-3.19,4.66A15.11,15.11,0,0,1,162.67,136Zm59.77,13.53,10.25-28q.76-2,1.58-4.54t1.58-5.6c.55,2,1.1,3.85,1.64,5.56s1.08,3.21,1.59,4.46l10.3,28.17ZM351.82,96.79h-12.7a5.18,5.18,0,0,0-3.37,1.11,5.58,5.58,0,0,0-1.85,2.46L314.05,152a52,52,0,0,0-1.82,5.53c-.55,2-1.05,4.11-1.52,6.3q-.82-3.28-1.73-6.3t-1.9-5.53l-20-51.66a6.1,6.1,0,0,0-1.93-2.58,5.33,5.33,0,0,0-3.34-1H269.18l34.21,84.69h14.23Zm62.2,72.1h-37.6v-24h29.64V132.81H376.42V109.32H414V96.79H360.61v84.69H414Zm63.55-.41H443.72V96.79H428v84.69h49.61ZM555.64,139H527.53v8.91a2.8,2.8,0,0,0,.85,2.07,3.2,3.2,0,0,0,2.37.85h10.66v15.35a41.73,41.73,0,0,1-7.2,2.69,35.5,35.5,0,0,1-20.27-1.08,25.12,25.12,0,0,1-9.11-6A27.21,27.21,0,0,1,499,152.1a37.63,37.63,0,0,1-2.08-13,36.91,36.91,0,0,1,1.93-12.3,27.27,27.27,0,0,1,5.5-9.43,23.91,23.91,0,0,1,8.64-6,29.19,29.19,0,0,1,11.34-2.11,39.36,39.36,0,0,1,6.82.52,37.26,37.26,0,0,1,5.33,1.35,25.4,25.4,0,0,1,4.3,1.94l3.87,2.22a4.86,4.86,0,0,0,3.69.85,4.28,4.28,0,0,0,2.75-2.07l4.51-7.15a42.63,42.63,0,0,0-5.79-4.51,35.71,35.71,0,0,0-7-3.48,48.8,48.8,0,0,0-8.32-2.26,53.29,53.29,0,0,0-9.64-.82A50.1,50.1,0,0,0,506.56,99a38.52,38.52,0,0,0-22.66,22.61,47.83,47.83,0,0,0-3.11,17.51,45.93,45.93,0,0,0,3.22,17.4,39.13,39.13,0,0,0,9.17,13.7,41.93,41.93,0,0,0,14.35,9,52.24,52.24,0,0,0,18.77,3.22,53.69,53.69,0,0,0,15.61-2.2,44.79,44.79,0,0,0,13.73-6.94Zm27.94,21.61h35.09L625,177.91a6.49,6.49,0,0,0,1.94,2.55,5.27,5.27,0,0,0,3.33,1h12.19L609.18,96.79h-16l-33.32,84.69h12.3a5.12,5.12,0,0,0,3.33-1.11,5.65,5.65,0,0,0,1.82-2.46Zm14.35-39.18q.77-2,1.58-4.54t1.59-5.6c.54,2,1.09,3.85,1.63,5.56s1.08,3.21,1.59,4.46l10.3,28.17H587.68Zm62.91,60h15.75V109.73h25.54V96.79H635.3v12.94h25.54Zm105.83-72.16V96.79H713.26v84.69h53.41V168.89h-37.6v-24h29.64V132.81H729.07V109.32ZM98.73,218.39c0,.33,0,.67,0,1s0,.73.08,1.12L80.49,196.65a4.38,4.38,0,0,0-.34-.37,1.26,1.26,0,0,0-.31-.22,1.2,1.2,0,0,0-.35-.11,3.28,3.28,0,0,0-.49,0H76.79v31.73h3.76V205c0-.31,0-.64,0-1s0-.72-.06-1.09l18.35,23.92a2.27,2.27,0,0,0,.67.6,1.86,1.86,0,0,0,.86.17h2.14V195.92H98.73Zm26.14-10.9a8.53,8.53,0,0,0-3-2,10.09,10.09,0,0,0-3.73-.67,11,11,0,0,0-4.38.85,9.63,9.63,0,0,0-3.3,2.35,10.26,10.26,0,0,0-2.07,3.53,13.07,13.07,0,0,0-.72,4.38,15.33,15.33,0,0,0,.79,5.14,10.57,10.57,0,0,0,2.23,3.75,9.47,9.47,0,0,0,3.39,2.31,11.44,11.44,0,0,0,4.28.78,14.77,14.77,0,0,0,2.46-.21,13.88,13.88,0,0,0,2.4-.63,11,11,0,0,0,2.18-1.07,7.45,7.45,0,0,0,1.75-1.54l-1.11-1.44a.85.85,0,0,0-.75-.38,1.81,1.81,0,0,0-.9.34,12.51,12.51,0,0,1-1.29.74,11.81,11.81,0,0,1-1.85.75,8.45,8.45,0,0,1-2.56.34,7.58,7.58,0,0,1-2.88-.52,5.93,5.93,0,0,1-2.21-1.57,7.48,7.48,0,0,1-1.45-2.63,13.2,13.2,0,0,1-.59-3.69h15a.86.86,0,0,0,.76-.31,2.65,2.65,0,0,0,.19-1.24,12,12,0,0,0-.7-4.26A9.11,9.11,0,0,0,124.87,207.49ZM111.73,214a7.68,7.68,0,0,1,2-4.57,6,6,0,0,1,4.48-1.65,6.13,6.13,0,0,1,2.41.45,5.12,5.12,0,0,1,1.81,1.29,5.71,5.71,0,0,1,1.13,2A8,8,0,0,1,124,214Zm31.08,9.72a.69.69,0,0,0-.41.17c-.15.1-.34.23-.57.36a4.75,4.75,0,0,1-.78.36,3.14,3.14,0,0,1-1.08.17,2.4,2.4,0,0,1-1.77-.69,2.85,2.85,0,0,1-.68-2.1V208.52H144v-2.86h-6.48v-7.73h-2a.9.9,0,0,0-.62.22.92.92,0,0,0-.29.54l-.91,6.93-3.68.46v1.57a.84.84,0,0,0,.25.66.88.88,0,0,0,.6.21h2.7v13.73a5.88,5.88,0,0,0,1.43,4.27,5.39,5.39,0,0,0,4.08,1.49,8.4,8.4,0,0,0,3-.55,7.12,7.12,0,0,0,2.45-1.5l-1.15-1.88A.68.68,0,0,0,142.81,223.71Zm32.51-18.26a1.13,1.13,0,0,0-.42.58l-4.39,14.44c-.13.53-.25,1.05-.36,1.54s-.21,1-.28,1.47c-.12-.49-.24-1-.38-1.48s-.28-1-.44-1.53L164.42,206a1,1,0,0,0-.4-.55,1.14,1.14,0,0,0-.73-.23h-1.72a1.05,1.05,0,0,0-.68.23,1.08,1.08,0,0,0-.38.55l-4.74,14.52c-.17.52-.32,1-.46,1.53s-.27,1-.41,1.48c-.15-.94-.34-1.95-.6-3L150,206a1.18,1.18,0,0,0-.43-.57,1.3,1.3,0,0,0-.79-.24h-3.1L153,227.65h3a.87.87,0,0,0,.89-.75l5.05-15.19c.11-.36.21-.71.28-1.06s.15-.68.23-1c.07.35.14.69.22,1a9.39,9.39,0,0,0,.28,1l5,15.21c.15.5.41.75.8.75h3.12L179,205.22h-3A1.14,1.14,0,0,0,175.32,205.45ZM199.8,208a9.46,9.46,0,0,0-3.36-2.32,11.39,11.39,0,0,0-4.43-.82,11.51,11.51,0,0,0-4.46.82,9.45,9.45,0,0,0-3.38,2.32,10.21,10.21,0,0,0-2.13,3.64,15.81,15.81,0,0,0,0,9.56,10.08,10.08,0,0,0,2.13,3.63,9.3,9.3,0,0,0,3.38,2.31A11.7,11.7,0,0,0,192,228a11.58,11.58,0,0,0,4.43-.81,9.44,9.44,0,0,0,3.36-2.31,10.24,10.24,0,0,0,2.14-3.63,15.81,15.81,0,0,0,0-9.56A10.14,10.14,0,0,0,199.8,208ZM197,222.66a5.74,5.74,0,0,1-5,2.22,5.83,5.83,0,0,1-5-2.22,10.23,10.23,0,0,1-1.65-6.21,14.5,14.5,0,0,1,.41-3.58A7.66,7.66,0,0,1,187,210.2a5.62,5.62,0,0,1,2.08-1.66A7.07,7.07,0,0,1,192,208a5.75,5.75,0,0,1,5,2.23,10.46,10.46,0,0,1,1.64,6.25A10.32,10.32,0,0,1,197,222.66Zm20.83-17.83a5.7,5.7,0,0,0-3.78,1.29,10,10,0,0,0-2.62,3.6l-.26-3.41a1.5,1.5,0,0,0-.33-.84,1.28,1.28,0,0,0-.89-.25h-2.26v22.43h4V213.48a13,13,0,0,1,.93-2,6.7,6.7,0,0,1,1.18-1.5,4.48,4.48,0,0,1,1.48-.92,5.37,5.37,0,0,1,1.9-.31,6.19,6.19,0,0,1,1.35.13,4.62,4.62,0,0,0,.9.14.64.64,0,0,0,.67-.56l.29-2.94a3.62,3.62,0,0,0-1.17-.49A6,6,0,0,0,217.8,204.83Zm15.74,11a4.65,4.65,0,0,0-.72-.61A5,5,0,0,0,234.1,214l8.26-8.79h-3.57a1.67,1.67,0,0,0-.92.22,2.66,2.66,0,0,0-.65.58l-7.09,7.6a1.74,1.74,0,0,1-.63.49,1.82,1.82,0,0,1-.74.13h-1V195h-4v32.61h4V216.94h1.13a2.47,2.47,0,0,1,1,.15,1.72,1.72,0,0,1,.65.61l7.37,9.19a1.49,1.49,0,0,0,.63.6,2.16,2.16,0,0,0,.88.17h3.52l-8.77-11.08A5,5,0,0,0,233.54,215.8Zm35,11.85h4.3V195.92h-4.3ZM296.5,207.2a6.4,6.4,0,0,0-2.35-1.73,8.18,8.18,0,0,0-3.24-.6,8.72,8.72,0,0,0-4.17,1A10,10,0,0,0,285,207a12.8,12.8,0,0,0-1.55,1.49l-.31-2.44a1,1,0,0,0-1.05-.82h-2.36v22.42h4V211.13a10.8,10.8,0,0,1,2.8-2.28,6.64,6.64,0,0,1,3.27-.84,4.34,4.34,0,0,1,3.53,1.4,6.09,6.09,0,0,1,1.16,4v14.28h4V213.37a11.9,11.9,0,0,0-.48-3.48A7.69,7.69,0,0,0,296.5,207.2Zm24.71,0a6.4,6.4,0,0,0-2.35-1.73,8.21,8.21,0,0,0-3.24-.6,9.29,9.29,0,0,0-2.23.25,9.53,9.53,0,0,0-1.95.73A10.85,10.85,0,0,0,309.7,207a14.45,14.45,0,0,0-1.55,1.49l-.31-2.44a1,1,0,0,0-1-.82h-2.37v22.42h4V211.13a10.8,10.8,0,0,1,2.8-2.28,6.64,6.64,0,0,1,3.27-.84,4.35,4.35,0,0,1,3.53,1.4,6.09,6.09,0,0,1,1.16,4v14.28h4V213.37a11.9,11.9,0,0,0-.48-3.48A7.86,7.86,0,0,0,321.21,207.2Zm25.18.81a9.41,9.41,0,0,0-3.37-2.32,11.31,11.31,0,0,0-4.42-.82,11.51,11.51,0,0,0-4.46.82,9.45,9.45,0,0,0-3.38,2.32,10.21,10.21,0,0,0-2.13,3.64,15.61,15.61,0,0,0,0,9.56,10.08,10.08,0,0,0,2.13,3.63,9.3,9.3,0,0,0,3.38,2.31,11.7,11.7,0,0,0,4.46.81,11.49,11.49,0,0,0,4.42-.81,9.39,9.39,0,0,0,3.37-2.31,10.24,10.24,0,0,0,2.14-3.63,15.81,15.81,0,0,0,0-9.56A10.29,10.29,0,0,0,346.39,208Zm-2.83,14.65a6.71,6.71,0,0,1-10,0,10.17,10.17,0,0,1-1.65-6.21,14,14,0,0,1,.41-3.58,7.32,7.32,0,0,1,1.24-2.67,5.51,5.51,0,0,1,2.07-1.66,7.07,7.07,0,0,1,2.94-.57,5.76,5.76,0,0,1,5,2.23,10.46,10.46,0,0,1,1.64,6.25A10.32,10.32,0,0,1,343.56,222.66ZM369,205.45a1.3,1.3,0,0,0-.45.59l-5.75,14.44c-.19.54-.35,1.07-.49,1.59s-.26,1-.37,1.55c-.12-.51-.25-1-.38-1.55s-.29-1-.47-1.59L355.44,206a1.22,1.22,0,0,0-.42-.58,1.24,1.24,0,0,0-.79-.24H351l9.14,22.43h3.54l9.15-22.43h-3.08A1.2,1.2,0,0,0,369,205.45ZM390,207.17a7,7,0,0,0-2.46-1.73,8.54,8.54,0,0,0-3.34-.61,12.34,12.34,0,0,0-4.76.88,12.65,12.65,0,0,0-4,2.68l.71,1.26a2,2,0,0,0,.48.52,1.15,1.15,0,0,0,.69.21,1.81,1.81,0,0,0,1-.36c.34-.25.76-.52,1.24-.82a9,9,0,0,1,1.7-.82,6.94,6.94,0,0,1,2.45-.37,4.08,4.08,0,0,1,3.3,1.34,6,6,0,0,1,1.13,4v1.74a33.11,33.11,0,0,0-6.47.7,15.73,15.73,0,0,0-4.27,1.56,6.48,6.48,0,0,0-2.37,2.18,4.93,4.93,0,0,0-.73,2.56,6.28,6.28,0,0,0,.5,2.64,5,5,0,0,0,1.35,1.85,5.42,5.42,0,0,0,2,1.1,8.22,8.22,0,0,0,2.46.37,10.49,10.49,0,0,0,2.33-.24,9.21,9.21,0,0,0,2-.66,10.45,10.45,0,0,0,1.78-1.06c.56-.42,1.13-.91,1.72-1.45l.45,2.13a1.2,1.2,0,0,0,.48.73,1.68,1.68,0,0,0,.89.19H392V213.31a11.17,11.17,0,0,0-.51-3.46A7.38,7.38,0,0,0,390,207.17Zm-3.2,16.3a10.42,10.42,0,0,1-1.46.95,7.38,7.38,0,0,1-1.63.6,7.56,7.56,0,0,1-1.9.22,5.19,5.19,0,0,1-1.45-.19,3.38,3.38,0,0,1-1.18-.6,3,3,0,0,1-.79-1,3.77,3.77,0,0,1-.28-1.53,2.81,2.81,0,0,1,.54-1.68,4.21,4.21,0,0,1,1.75-1.31,12.65,12.65,0,0,1,3.12-.89,31.42,31.42,0,0,1,4.64-.43v4.64A13.32,13.32,0,0,1,386.79,223.47ZM418.65,196a2.75,2.75,0,0,0-3.93,0,3,3,0,0,0-.6.91,2.74,2.74,0,0,0-.22,1.1,2.56,2.56,0,0,0,.22,1.07,3.12,3.12,0,0,0,.6.88,2.73,2.73,0,0,0,.87.59,2.62,2.62,0,0,0,1.08.23,2.65,2.65,0,0,0,1.08-.23,2.87,2.87,0,0,0,.9-.59,3.19,3.19,0,0,0,.62-.88,2.57,2.57,0,0,0,.23-1.07,2.74,2.74,0,0,0-.23-1.1A2.88,2.88,0,0,0,418.65,196ZM403,205.66v-7.73h-2a.89.89,0,0,0-.61.22.92.92,0,0,0-.29.54l-.91,6.9-3.68.49v1.57a.81.81,0,0,0,.25.65.84.84,0,0,0,.6.22h2.7v13.72a5.89,5.89,0,0,0,1.43,4.28A5.39,5.39,0,0,0,404.6,228a8.39,8.39,0,0,0,3-.54A7.4,7.4,0,0,0,410,226l-1.16-1.88a.67.67,0,0,0-.55-.38.76.76,0,0,0-.41.17,5.83,5.83,0,0,1-.57.36,5.72,5.72,0,0,1-.78.37,3.42,3.42,0,0,1-1.08.16,2.36,2.36,0,0,1-1.76-.69A2.8,2.8,0,0,1,403,222V208.52h11.56v19.13h3.94v-22ZM442.24,208a9.5,9.5,0,0,0-3.37-2.32,11.34,11.34,0,0,0-4.42-.82,11.47,11.47,0,0,0-4.46.82,9.28,9.28,0,0,0-3.38,2.32,10.38,10.38,0,0,0-2.14,3.64,15.81,15.81,0,0,0,0,9.56,10.24,10.24,0,0,0,2.14,3.63,9.22,9.22,0,0,0,3.38,2.31,12.57,12.57,0,0,0,8.88,0,9.39,9.39,0,0,0,3.37-2.31,10.08,10.08,0,0,0,2.13-3.63,15.81,15.81,0,0,0,0-9.56A10.12,10.12,0,0,0,442.24,208Zm-2.83,14.65a5.75,5.75,0,0,1-5,2.22,5.82,5.82,0,0,1-5-2.22,10.23,10.23,0,0,1-1.65-6.21,14.5,14.5,0,0,1,.41-3.58,7.49,7.49,0,0,1,1.24-2.67,5.62,5.62,0,0,1,2.08-1.66,7,7,0,0,1,2.94-.57,5.76,5.76,0,0,1,5,2.23,10.46,10.46,0,0,1,1.63,6.25A10.32,10.32,0,0,1,439.41,222.66Zm27.46-15.46a6.4,6.4,0,0,0-2.35-1.73,8.14,8.14,0,0,0-3.24-.6,9.2,9.2,0,0,0-2.22.25,9.11,9.11,0,0,0-1.95.73,10,10,0,0,0-1.74,1.14,12.8,12.8,0,0,0-1.55,1.49l-.31-2.44a1,1,0,0,0-1-.82H450.1v22.42h4V211.13a10.8,10.8,0,0,1,2.8-2.28,6.64,6.64,0,0,1,3.27-.84,4.34,4.34,0,0,1,3.53,1.4,6.09,6.09,0,0,1,1.16,4v14.28h4V213.37a11.89,11.89,0,0,0-.49-3.48A7.53,7.53,0,0,0,466.87,207.2Zm48.54-8.6a10.19,10.19,0,0,0-3.68-2,17.45,17.45,0,0,0-5.24-.7h-9.36v31.72h4.27V215.78h5.09a16.1,16.1,0,0,0,5.09-.74,10.56,10.56,0,0,0,3.69-2.07,8.73,8.73,0,0,0,2.27-3.17,10.23,10.23,0,0,0,.78-4.05,11.14,11.14,0,0,0-.72-4.05A8.09,8.09,0,0,0,515.41,198.6Zm-1.86,9.83a5.66,5.66,0,0,1-1.45,2.1,6.86,6.86,0,0,1-2.37,1.36,10,10,0,0,1-3.24.49h-5.1V199.31h5.09c2.54,0,4.44.57,5.68,1.71a6,6,0,0,1,1.88,4.73A7,7,0,0,1,513.55,208.43Zm22.52-1.26a6.93,6.93,0,0,0-2.46-1.73,8.54,8.54,0,0,0-3.34-.61,12.38,12.38,0,0,0-4.76.88,12.76,12.76,0,0,0-4,2.68l.72,1.26a2,2,0,0,0,.48.52,1.13,1.13,0,0,0,.69.21,1.81,1.81,0,0,0,1-.36c.34-.25.76-.52,1.24-.82a8.69,8.69,0,0,1,1.7-.82,6.91,6.91,0,0,1,2.45-.37,4.07,4.07,0,0,1,3.29,1.34,6,6,0,0,1,1.13,4v1.74a33,33,0,0,0-6.46.7,15.94,15.94,0,0,0-4.28,1.56,6.48,6.48,0,0,0-2.37,2.18,5,5,0,0,0-.73,2.56,6.44,6.44,0,0,0,.5,2.64,5.25,5.25,0,0,0,1.35,1.85,5.46,5.46,0,0,0,2,1.1,8.11,8.11,0,0,0,2.45.37,10.59,10.59,0,0,0,2.34-.24,9.21,9.21,0,0,0,2-.66,10,10,0,0,0,1.77-1.06c.56-.42,1.13-.91,1.73-1.45l.44,2.13a1.26,1.26,0,0,0,.49.73,1.64,1.64,0,0,0,.88.19h1.75V213.31a11.17,11.17,0,0,0-.51-3.46A7.38,7.38,0,0,0,536.07,207.17Zm-3.2,16.3a10.42,10.42,0,0,1-1.46.95,7.38,7.38,0,0,1-1.63.6,7.51,7.51,0,0,1-1.9.22,5.59,5.59,0,0,1-1.45-.19,3.38,3.38,0,0,1-1.18-.6,2.86,2.86,0,0,1-.78-1,3.76,3.76,0,0,1-.29-1.53,2.81,2.81,0,0,1,.54-1.68,4.34,4.34,0,0,1,1.75-1.31,12.91,12.91,0,0,1,3.12-.89,31.56,31.56,0,0,1,4.64-.43v4.64A12.35,12.35,0,0,1,532.87,223.47Zm21.35-18.64a5.72,5.72,0,0,0-3.78,1.29,10,10,0,0,0-2.61,3.6l-.27-3.41a1.5,1.5,0,0,0-.34-.84,1.25,1.25,0,0,0-.88-.25h-2.26v22.43h4V213.48a14,14,0,0,1,.94-2,7,7,0,0,1,1.18-1.5,4.38,4.38,0,0,1,1.48-.92,5.37,5.37,0,0,1,1.9-.31,6.19,6.19,0,0,1,1.35.13,4.59,4.59,0,0,0,.91.14.64.64,0,0,0,.66-.56l.29-2.94a3.9,3.9,0,0,0-1.16-.49A6.12,6.12,0,0,0,554.22,204.83Zm16.59,18.88a.69.69,0,0,0-.42.17c-.15.1-.34.23-.56.36a5.32,5.32,0,0,1-.79.36,3.12,3.12,0,0,1-1.07.17,2.4,2.4,0,0,1-1.77-.69,2.86,2.86,0,0,1-.69-2.1V208.52H572v-2.86h-6.49v-7.73h-2a.89.89,0,0,0-.61.22,1,1,0,0,0-.3.54l-.91,6.93-3.67.46v1.57a.83.83,0,0,0,.24.66.91.91,0,0,0,.6.21h2.7v13.73a5.92,5.92,0,0,0,1.43,4.27,5.42,5.42,0,0,0,4.09,1.49h0a8.35,8.35,0,0,0,3-.55,7.26,7.26,0,0,0,2.46-1.5l-1.15-1.88A.7.7,0,0,0,570.81,223.71Zm22-16.51a6.36,6.36,0,0,0-2.34-1.73,8.23,8.23,0,0,0-3.25-.6,9.2,9.2,0,0,0-2.22.25,9.11,9.11,0,0,0-1.95.73,10,10,0,0,0-1.74,1.14,12.8,12.8,0,0,0-1.55,1.49l-.31-2.44a1,1,0,0,0-1-.82h-2.37v22.42h4V211.13a10.8,10.8,0,0,1,2.8-2.28,6.64,6.64,0,0,1,3.27-.84,4.34,4.34,0,0,1,3.53,1.4,6,6,0,0,1,1.16,4v14.28h4V213.37a11.57,11.57,0,0,0-.49-3.48A7.53,7.53,0,0,0,592.85,207.2Zm23.82.29a8.53,8.53,0,0,0-3-2,10.06,10.06,0,0,0-3.73-.67,11,11,0,0,0-4.38.85,9.63,9.63,0,0,0-3.3,2.35,10.26,10.26,0,0,0-2.07,3.53,13.07,13.07,0,0,0-.72,4.38,15.33,15.33,0,0,0,.79,5.14,10.71,10.71,0,0,0,2.23,3.75,9.56,9.56,0,0,0,3.39,2.31,11.49,11.49,0,0,0,4.29.78,14.65,14.65,0,0,0,2.45-.21,13.65,13.65,0,0,0,2.4-.63,11.12,11.12,0,0,0,2.19-1.07,7.87,7.87,0,0,0,1.75-1.54l-1.11-1.44a.88.88,0,0,0-.75-.38,1.78,1.78,0,0,0-.9.34,12.78,12.78,0,0,1-1.3.74,11.81,11.81,0,0,1-1.85.75,8.45,8.45,0,0,1-2.56.34,7.58,7.58,0,0,1-2.88-.52,5.93,5.93,0,0,1-2.21-1.57,7.48,7.48,0,0,1-1.45-2.63,12.86,12.86,0,0,1-.58-3.69h15a.86.86,0,0,0,.76-.31,2.65,2.65,0,0,0,.19-1.24,12,12,0,0,0-.7-4.26A9.11,9.11,0,0,0,616.67,207.49ZM603.53,214a7.68,7.68,0,0,1,2.05-4.57,6.83,6.83,0,0,1,6.89-1.2,5,5,0,0,1,1.81,1.29,5.71,5.71,0,0,1,1.13,2,7.68,7.68,0,0,1,.39,2.51Zm30.77-9.16a5.7,5.7,0,0,0-3.78,1.29,10,10,0,0,0-2.61,3.6l-.27-3.41a1.5,1.5,0,0,0-.34-.84,1.25,1.25,0,0,0-.88-.25h-2.26v22.43h4V213.48a14,14,0,0,1,.94-2,6.7,6.7,0,0,1,1.18-1.5,4.48,4.48,0,0,1,1.48-.92,5.37,5.37,0,0,1,1.9-.31,6.19,6.19,0,0,1,1.35.13,4.59,4.59,0,0,0,.91.14.63.63,0,0,0,.66-.56l.29-2.94a3.66,3.66,0,0,0-1.16-.49A6.12,6.12,0,0,0,634.3,204.83Zm18.36,12a7.68,7.68,0,0,0-1.87-1.1q-1-.45-2.13-.81l-2.13-.69a10.41,10.41,0,0,1-1.87-.74,4.22,4.22,0,0,1-1.31-1,2.09,2.09,0,0,1-.5-1.44,2.73,2.73,0,0,1,.3-1.27,2.9,2.9,0,0,1,.86-1,4.26,4.26,0,0,1,1.36-.7,5.93,5.93,0,0,1,1.8-.25,6.93,6.93,0,0,1,2,.25,9.84,9.84,0,0,1,1.45.55c.41.2.75.38,1,.54a1.58,1.58,0,0,0,.75.25.87.87,0,0,0,.82-.49l.89-1.44a9.48,9.48,0,0,0-3-1.92,10.86,10.86,0,0,0-4-.7,9.88,9.88,0,0,0-3.39.54,7.51,7.51,0,0,0-2.5,1.43,5.91,5.91,0,0,0-1.55,2.08,5.83,5.83,0,0,0-.53,2.46,5.52,5.52,0,0,0,.49,2.45,5.12,5.12,0,0,0,1.32,1.69,7.49,7.49,0,0,0,1.87,1.14c.7.3,1.42.57,2.15.81s1.44.46,2.15.67a10.87,10.87,0,0,1,1.87.75,4.38,4.38,0,0,1,1.32,1.05,2.37,2.37,0,0,1,.49,1.54,3.6,3.6,0,0,1-.28,1.42,3.2,3.2,0,0,1-.85,1.17,4.17,4.17,0,0,1-1.44.81,6.09,6.09,0,0,1-2,.29,7,7,0,0,1-2.26-.31,7.7,7.7,0,0,1-1.54-.68c-.42-.25-.78-.48-1.07-.69a1.56,1.56,0,0,0-.85-.31,1.13,1.13,0,0,0-.61.16,1.37,1.37,0,0,0-.42.44l-.93,1.51a10.84,10.84,0,0,0,3.23,2A11.32,11.32,0,0,0,646,228a10.82,10.82,0,0,0,3.63-.55,8,8,0,0,0,2.66-1.52,6.28,6.28,0,0,0,1.64-2.28,7.44,7.44,0,0,0,.55-2.86,5,5,0,0,0-.5-2.32A5.21,5.21,0,0,0,652.66,216.84Zm23.44-9.64a6.29,6.29,0,0,0-2.35-1.73,8.21,8.21,0,0,0-3.24-.6,8.71,8.71,0,0,0-4,.9,12.06,12.06,0,0,0-3.18,2.44V195h-4v32.61h4V211.13a10.64,10.64,0,0,1,2.8-2.28,6.64,6.64,0,0,1,3.27-.84,4.31,4.31,0,0,1,3.52,1.4,6,6,0,0,1,1.17,4v14.28h4V213.37a11.9,11.9,0,0,0-.48-3.48A7.77,7.77,0,0,0,676.1,207.2Zm12.09-11a2.85,2.85,0,0,0-.91-.61,2.77,2.77,0,0,0-1.1-.22,2.56,2.56,0,0,0-1.07.22,2.68,2.68,0,0,0-.88.61,3,3,0,0,0-.6.91,2.91,2.91,0,0,0-.22,1.09,2.69,2.69,0,0,0,.22,1.07,3,3,0,0,0,.6.89,2.84,2.84,0,0,0,.88.61,2.73,2.73,0,0,0,1.07.22,3,3,0,0,0,1.1-.22,2.85,2.85,0,0,0,.91-.61,3.09,3.09,0,0,0,.62-.89,2.54,2.54,0,0,0,.23-1.07,2.73,2.73,0,0,0-.23-1.09A3.06,3.06,0,0,0,688.19,196.18Zm-3.94,31.47h3.94V205.22h-3.94Zm27.9-19.89a7.14,7.14,0,0,0-2.68-2.19,8.07,8.07,0,0,0-3.52-.74,8.41,8.41,0,0,0-4.25,1.06,11.66,11.66,0,0,0-3.28,2.81l-.35-2.66a1,1,0,0,0-1-.82h-2.37v30h4v-9.92a7.75,7.75,0,0,0,6.13,2.64,9.11,9.11,0,0,0,4.06-.9,8.89,8.89,0,0,0,3-2.46,11,11,0,0,0,1.92-3.69,15.63,15.63,0,0,0,.67-4.62,18.31,18.31,0,0,0-.61-4.93A10.37,10.37,0,0,0,712.15,207.76Zm-3.45,14.91a5.66,5.66,0,0,1-4.83,2.24,6.75,6.75,0,0,1-2.88-.6,6.53,6.53,0,0,1-2.37-2.06V211.4a9.73,9.73,0,0,1,2.66-2.5,6.39,6.39,0,0,1,3.38-.89,6,6,0,0,1,2.41.47,4.38,4.38,0,0,1,1.8,1.47,7.31,7.31,0,0,1,1.11,2.58,15.83,15.83,0,0,1,.39,3.77A10.45,10.45,0,0,1,708.7,222.67Zm-460.54-.33a2.7,2.7,0,1,0,2.61,2.7A2.66,2.66,0,0,0,248.16,222.34Zm228.76,0a2.7,2.7,0,1,0,2.61,2.7A2.65,2.65,0,0,0,476.92,222.34Zm242.67,0a2.7,2.7,0,1,0,2.61,2.7A2.66,2.66,0,0,0,719.59,222.34Z"/></svg>