<svg id="Capa_1" data-name="Capa 1" xmlns="http://www.w3.org/2000/svg" viewBox="0 0 136.76 40.03"><defs><style>.cls-1{fill:#418fde;}.cls-2{fill:#0c2340;}</style></defs><title>logos-RGB</title><g id="g16"><g id="g14"><g id="g12"><g id="g4"><polygon id="polyline2" class="cls-1" points="120.95 19.99 113.31 9.02 106.4 9.02 113.97 20.06 105.34 33.03 112.03 33.03 120.95 19.99"/></g><g id="g10"><polygon id="polyline6" class="cls-1" points="129.77 7 122.88 7 118.12 14.01 121.7 18.95 129.77 7"/><polygon id="polyline8" class="cls-1" points="121.63 21 128.52 31.04 121.62 31.04 118.12 25.96 121.63 21"/></g></g></g></g><g id="g38"><path id="path18" class="cls-2" d="M16.15,17H12.66v9.82H10.5V17H7V15.23h9.14Z"/><path id="path20" class="cls-2" d="M26.72,26.82H24.77a.86.86,0,0,1-.8-.43l-2.43-3.71a.86.86,0,0,0-.3-.3,1,1,0,0,0-.49-.09h-.92v4.53H17.67V15.23h3.54a7.06,7.06,0,0,1,2,.25,3.84,3.84,0,0,1,1.39.68,2.71,2.71,0,0,1,.8,1.05,3.51,3.51,0,0,1,.25,1.36,3.33,3.33,0,0,1-.17,1.1,3.09,3.09,0,0,1-.5.95,3.16,3.16,0,0,1-.8.74,4.14,4.14,0,0,1-1.08.51,2.07,2.07,0,0,1,.38.28,1.76,1.76,0,0,1,.32.39Zm-5.54-6.07a3.38,3.38,0,0,0,1.06-.16,2,2,0,0,0,.74-.42,1.71,1.71,0,0,0,.44-.63,2.16,2.16,0,0,0,.14-.81A1.65,1.65,0,0,0,23,17.37a2.79,2.79,0,0,0-1.77-.47H19.83v3.85Z"/><path id="path22" class="cls-2" d="M37.91,26.82H36.24a.73.73,0,0,1-.45-.14.85.85,0,0,1-.27-.35L34.66,24h-4.8L29,26.33a.74.74,0,0,1-.25.34.69.69,0,0,1-.46.15H26.6l4.56-11.59h2.2ZM34.1,22.44l-1.41-3.85a6.06,6.06,0,0,1-.21-.61c-.08-.24-.15-.49-.23-.76-.07.27-.14.53-.21.76s-.15.45-.22.63l-1.4,3.83Z"/><path id="path24" class="cls-2" d="M48.12,15.23,43.44,26.82H41.49L36.81,15.23h1.73a.74.74,0,0,1,.46.14.85.85,0,0,1,.27.35L42,22.79c.09.23.18.48.26.76s.16.56.24.86c.06-.3.13-.59.2-.86s.16-.53.25-.76l2.72-7.07a.79.79,0,0,1,.25-.34.73.73,0,0,1,.46-.15Z"/><path id="path26" class="cls-2" d="M51.49,17v3.21h4v1.66h-4V25.1h5.14v1.72H49.32V15.23h7.31V17Z"/><path id="path28" class="cls-2" d="M65.33,25v1.78H58.54V15.23H60.7V25Z"/><path id="path30" class="cls-2" d="M76,21V25.7a6.06,6.06,0,0,1-1.88.95A7.31,7.31,0,0,1,72,27a7.22,7.22,0,0,1-2.57-.44,5.69,5.69,0,0,1-2-1.23,5.37,5.37,0,0,1-1.26-1.87A6.38,6.38,0,0,1,65.77,21a6.44,6.44,0,0,1,.43-2.4,5.41,5.41,0,0,1,1.2-1.88,5.25,5.25,0,0,1,1.9-1.21,6.79,6.79,0,0,1,2.5-.44,6.89,6.89,0,0,1,1.32.12,6.22,6.22,0,0,1,1.13.3,4.78,4.78,0,0,1,1,.48,5.5,5.5,0,0,1,.8.62l-.62,1a.59.59,0,0,1-.38.28.66.66,0,0,1-.5-.12l-.53-.3a4,4,0,0,0-.59-.27,6,6,0,0,0-.73-.18,5.18,5.18,0,0,0-.93-.07,3.91,3.91,0,0,0-1.56.29,3.26,3.26,0,0,0-1.18.82,3.91,3.91,0,0,0-.75,1.29A5,5,0,0,0,68,21a5.13,5.13,0,0,0,.29,1.77,3.8,3.8,0,0,0,.8,1.32,3.47,3.47,0,0,0,1.25.83,4.41,4.41,0,0,0,1.62.28,4.49,4.49,0,0,0,1.15-.13,5.9,5.9,0,0,0,1-.37v-2.1H72.61a.45.45,0,0,1-.33-.12.39.39,0,0,1-.11-.28V21Z"/><path id="path32" class="cls-2" d="M87.89,26.82H86.23a.74.74,0,0,1-.46-.14.85.85,0,0,1-.27-.35L84.64,24h-4.8L79,26.33a.74.74,0,0,1-.7.49H76.58l4.56-11.59h2.2Zm-3.8-4.38-1.42-3.85a6.06,6.06,0,0,1-.21-.61c-.08-.24-.15-.49-.23-.76-.07.27-.14.53-.21.76s-.15.45-.22.63l-1.4,3.83Z"/><path id="path34" class="cls-2" d="M96.06,17h-3.5v9.82H90.41V17h-3.5V15.23h9.15Z"/><path id="path36" class="cls-2" d="M99.75,17v3.21h4v1.66h-4V25.1h5.14v1.72H97.58V15.23h7.31V17Z"/></g></svg>