<svg id="Capa_1" data-name="Capa 1" xmlns="http://www.w3.org/2000/svg" viewBox="0 0 418.82 523"><defs><style>.cls-1{fill:none;stroke:gray;stroke-miterlimit:10;stroke-width:1.12px;stroke-dasharray:2.23 2.23;}.cls-2{fill:#0c2340;}.cls-3{fill:#fff;}.cls-4{fill:#00e37d;}</style></defs><title>logos-RGB</title><line class="cls-1" x1="9" y1="523" x2="409.76" y2="523"/><path class="cls-2" d="M99.58,418.45H92.32a3.07,3.07,0,0,1-2-.64,3.67,3.67,0,0,1-1.13-1.59l-3.77-10.81H64.49l-3.77,10.81a3.43,3.43,0,0,1-1.1,1.54,3,3,0,0,1-2,.69h-7.3l19.83-53h9.6Zm-32.68-20H83l-6.15-17.62c-.28-.78-.58-1.7-.92-2.77s-.67-2.21-1-3.46q-.48,1.88-1,3.48c-.31,1.08-.62,2-.92,2.82Z"/><path class="cls-2" d="M114.17,410.32h20.22v8.13H104.78v-53h9.39Z"/><path class="cls-2" d="M172.72,365.48v7.84H150.34V388H168v7.58H150.34v15h22.38v7.87H140.88v-53Z"/><path class="cls-2" d="M190.56,397.75v20.7h-9.39v-53h15.4a30.47,30.47,0,0,1,8.84,1.12,16.35,16.35,0,0,1,6,3.13,11.93,11.93,0,0,1,3.46,4.82,17.64,17.64,0,0,1,.35,11.22,14.48,14.48,0,0,1-5.66,7.73,17.87,17.87,0,0,1-4.73,2.35,9.59,9.59,0,0,1,3.08,3l12.63,19.56h-8.44a4,4,0,0,1-2.08-.51,4.34,4.34,0,0,1-1.45-1.47l-10.61-17a3.86,3.86,0,0,0-1.31-1.35,4.39,4.39,0,0,0-2.12-.41Zm0-7.07h5.87a14,14,0,0,0,4.62-.69,8.89,8.89,0,0,0,3.25-1.93,7.7,7.7,0,0,0,1.9-2.91,10.49,10.49,0,0,0,.63-3.7,7.71,7.71,0,0,0-2.53-6.19q-2.53-2.16-7.73-2.16h-6Z"/><path class="cls-2" d="M260.21,365.48v8.09H245v44.88h-9.39V373.57H220.37v-8.09Z"/><path class="cls-2" d="M293.23,375.11a2.63,2.63,0,0,1-.89,1.14,2.11,2.11,0,0,1-1.2.33,2.94,2.94,0,0,1-1.57-.57c-.58-.38-1.27-.8-2.06-1.26a16,16,0,0,0-2.78-1.27,11.13,11.13,0,0,0-3.75-.56,10.51,10.51,0,0,0-3.4.49,7.26,7.26,0,0,0-2.45,1.37,5.47,5.47,0,0,0-1.48,2.11,7.15,7.15,0,0,0-.49,2.69,4.86,4.86,0,0,0,1,3.12,8.42,8.42,0,0,0,2.64,2.12,23.77,23.77,0,0,0,3.74,1.58c1.39.46,2.82,1,4.27,1.48a42.34,42.34,0,0,1,4.28,1.83,15,15,0,0,1,3.74,2.64,11.91,11.91,0,0,1,2.63,3.9,14.21,14.21,0,0,1,1,5.61,19.06,19.06,0,0,1-1.17,6.72,15.59,15.59,0,0,1-3.42,5.46,16.16,16.16,0,0,1-5.5,3.66,19.47,19.47,0,0,1-7.44,1.34,22.94,22.94,0,0,1-4.75-.5,24.08,24.08,0,0,1-4.48-1.41,23,23,0,0,1-4-2.2,20,20,0,0,1-3.33-2.85l2.72-4.73a3.47,3.47,0,0,1,.93-.86,2.19,2.19,0,0,1,1.2-.35,3.27,3.27,0,0,1,1.89.75c.67.5,1.47,1.06,2.39,1.67a18.13,18.13,0,0,0,3.24,1.67,12.06,12.06,0,0,0,4.49.75,8.9,8.9,0,0,0,6.21-2,7.33,7.33,0,0,0,2.2-5.73,5.54,5.54,0,0,0-1-3.41,7.91,7.91,0,0,0-2.64-2.21,19.35,19.35,0,0,0-3.73-1.53q-2.1-.62-4.26-1.35a36.41,36.41,0,0,1-4.26-1.76,13.73,13.73,0,0,1-3.74-2.67,12.3,12.3,0,0,1-2.63-4.12,16.29,16.29,0,0,1-1-6.1,15.19,15.19,0,0,1,1.1-5.65,14.59,14.59,0,0,1,3.21-4.87,16,16,0,0,1,5.19-3.41,18.19,18.19,0,0,1,7-1.28,22.43,22.43,0,0,1,8.23,1.47,18.46,18.46,0,0,1,6.43,4.1Z"/><path class="cls-2" d="M302,392.55h18.09v7.55H302Z"/><path class="cls-2" d="M338.52,391.2l-16.1-25.72h9.36a2.78,2.78,0,0,1,1.41.27,2.63,2.63,0,0,1,.79.9l11.48,19.45c.12-.31.25-.63.39-.93a8.33,8.33,0,0,1,.49-.93l10.5-17.41a2.28,2.28,0,0,1,2-1.35h9l-16.27,25.31,16.72,27.66H358.9a2.22,2.22,0,0,1-1.52-.51,4.92,4.92,0,0,1-1-1.17l-11.69-20.3a6.81,6.81,0,0,1-.32.83c-.11.25-.23.49-.34.71l-11.21,18.76a6,6,0,0,1-.94,1.15,2,2,0,0,1-1.4.53h-8.8Z"/><path class="cls-2" d="M64.52,470V435.41H70v13.65a10.83,10.83,0,0,1,3.06-2.41,8.46,8.46,0,0,1,4-.9,7.24,7.24,0,0,1,3.41.81,7.48,7.48,0,0,1,2.66,2.34,11.5,11.5,0,0,1,1.74,3.8,20.34,20.34,0,0,1,.61,5.2,17.09,17.09,0,0,1-.69,5,12.45,12.45,0,0,1-2,4,9.08,9.08,0,0,1-3.08,2.62,8.65,8.65,0,0,1-4.06.95,8.14,8.14,0,0,1-1.91-.22,6.68,6.68,0,0,1-1.57-.62,6.56,6.56,0,0,1-1.33-1,11.91,11.91,0,0,1-1.16-1.27l-.25,1.61a1.5,1.5,0,0,1-.45.86,1.4,1.4,0,0,1-.88.26Zm10.66-19.81a5.36,5.36,0,0,0-2.92.76A8.31,8.31,0,0,0,70,453.12v10.72a5.27,5.27,0,0,0,2,1.69,5.9,5.9,0,0,0,2.39.48,5.15,5.15,0,0,0,2.24-.49,4.55,4.55,0,0,0,1.7-1.49,7.75,7.75,0,0,0,1.08-2.53,15.27,15.27,0,0,0,.37-3.6,16.46,16.46,0,0,0-.32-3.56,6.88,6.88,0,0,0-.92-2.36,3.73,3.73,0,0,0-1.45-1.33A4.4,4.4,0,0,0,75.18,450.23Z"/><path class="cls-2" d="M97.13,476.61a2.25,2.25,0,0,1-.64.92,1.86,1.86,0,0,1-1.19.32H91.22l4.26-9.58-9.22-22.14h4.8a1.47,1.47,0,0,1,1,.32,2.17,2.17,0,0,1,.54.75l4.86,12.4a9.8,9.8,0,0,1,.42,1.26c.12.43.23.87.31,1.3.12-.45.25-.88.39-1.3s.3-.85.46-1.29l4.57-12.37a1.72,1.72,0,0,1,.59-.77,1.53,1.53,0,0,1,.92-.3h4.4Z"/><path class="cls-2" d="M144.26,436.34v5.15H134.6V470h-6V441.49h-9.7v-5.15Z"/><path class="cls-2" d="M144.19,470V446.13h3.22a1.72,1.72,0,0,1,1.18.32,1.92,1.92,0,0,1,.44,1.12l.34,2.89a11.08,11.08,0,0,1,2.86-3.49,5.84,5.84,0,0,1,3.69-1.29,4.64,4.64,0,0,1,2.8.82l-.71,4.31a1,1,0,0,1-.29.6,1,1,0,0,1-.6.17,3.47,3.47,0,0,1-.91-.16,5.8,5.8,0,0,0-1.54-.17,4.52,4.52,0,0,0-2.93,1,7.68,7.68,0,0,0-2.06,2.91V470Z"/><path class="cls-2" d="M179.55,470h-2.46a2.51,2.51,0,0,1-1.23-.25,1.58,1.58,0,0,1-.66-1l-.49-1.7a19.17,19.17,0,0,1-1.7,1.44,10.17,10.17,0,0,1-1.72,1,8.4,8.4,0,0,1-1.89.63,10.87,10.87,0,0,1-2.22.21,8.21,8.21,0,0,1-2.67-.41,5.45,5.45,0,0,1-3.46-3.26,7.45,7.45,0,0,1-.49-2.83,5.86,5.86,0,0,1,.68-2.68,6.54,6.54,0,0,1,2.25-2.38,14,14,0,0,1,4.2-1.77,26,26,0,0,1,6.51-.7V455a5.51,5.51,0,0,0-1-3.58,3.45,3.45,0,0,0-2.81-1.16,6.68,6.68,0,0,0-2.22.32,8.51,8.51,0,0,0-1.54.74c-.44.27-.84.52-1.21.73a2.35,2.35,0,0,1-1.22.33,1.57,1.57,0,0,1-1-.3,2.31,2.31,0,0,1-.64-.75l-1-1.84a13.18,13.18,0,0,1,9.48-3.78,8.81,8.81,0,0,1,3.57.69,7.73,7.73,0,0,1,2.65,1.91,8.26,8.26,0,0,1,1.66,2.93,12,12,0,0,1,.56,3.73Zm-10.66-3.59a6.83,6.83,0,0,0,1.55-.16,6,6,0,0,0,1.35-.48A7.68,7.68,0,0,0,173,465a12.15,12.15,0,0,0,1.19-1.12v-4a21.3,21.3,0,0,0-4,.32,10.17,10.17,0,0,0-2.59.81,3.42,3.42,0,0,0-1.39,1.15,2.67,2.67,0,0,0-.41,1.43,2.58,2.58,0,0,0,.86,2.18A3.54,3.54,0,0,0,168.89,466.45Z"/><path class="cls-2" d="M195.57,470h-5l-9.06-23.91h4.55a1.66,1.66,0,0,1,1,.3,1.5,1.5,0,0,1,.57.77l4.4,12.77q.38,1.13.63,2.19c.17.72.32,1.43.46,2.15.13-.72.28-1.43.45-2.15a20.72,20.72,0,0,1,.66-2.19l4.5-12.77a1.59,1.59,0,0,1,.56-.77,1.54,1.54,0,0,1,1-.3h4.34Z"/><path class="cls-2" d="M216.53,445.75a10.47,10.47,0,0,1,4,.73,8.67,8.67,0,0,1,3.12,2.11,9.67,9.67,0,0,1,2,3.4,13.38,13.38,0,0,1,.73,4.6,8.14,8.14,0,0,1,0,1.08,1.77,1.77,0,0,1-.2.68.87.87,0,0,1-.39.35,1.56,1.56,0,0,1-.62.11H211.05a8.48,8.48,0,0,0,1.88,5.4,5.75,5.75,0,0,0,4.36,1.73,7.16,7.16,0,0,0,2.3-.33,11.76,11.76,0,0,0,1.69-.72l1.26-.72a2,2,0,0,1,1.06-.33,1.15,1.15,0,0,1,.57.14,1.26,1.26,0,0,1,.43.4l1.59,2.09a9.06,9.06,0,0,1-2,1.88,11.21,11.21,0,0,1-2.36,1.21,12.5,12.5,0,0,1-2.51.64,16.51,16.51,0,0,1-2.48.19,11.67,11.67,0,0,1-4.42-.83,9.8,9.8,0,0,1-3.55-2.45,11.56,11.56,0,0,1-2.38-4,16.19,16.19,0,0,1-.87-5.54,13.87,13.87,0,0,1,.76-4.6,11,11,0,0,1,2.16-3.75,10.09,10.09,0,0,1,3.45-2.53A10.72,10.72,0,0,1,216.53,445.75Zm.11,4.13a4.93,4.93,0,0,0-3.75,1.42,7.18,7.18,0,0,0-1.73,4h10.3a7.27,7.27,0,0,0-.29-2.11,4.8,4.8,0,0,0-.88-1.73,4.3,4.3,0,0,0-1.51-1.18A4.93,4.93,0,0,0,216.64,449.88Z"/><path class="cls-2" d="M236.7,435.41V470h-5.49V435.41Z"/><path class="cls-2" d="M250.78,445.71a11.61,11.61,0,0,1,2.76.31,9.35,9.35,0,0,1,2.35.92h6.55v2.15a1.3,1.3,0,0,1-.26.84,1.55,1.55,0,0,1-.91.41l-2,.4a8.59,8.59,0,0,1,.35,1.28,8.16,8.16,0,0,1,.12,1.42,7.44,7.44,0,0,1-.68,3.21,7.21,7.21,0,0,1-1.86,2.44,8.67,8.67,0,0,1-2.83,1.54,10.9,10.9,0,0,1-3.54.55,12.28,12.28,0,0,1-2.51-.25,1.87,1.87,0,0,0-1.06,1.52,1.13,1.13,0,0,0,.63,1.07,4.81,4.81,0,0,0,1.66.48,16.59,16.59,0,0,0,2.35.14c.87,0,1.77,0,2.69.12a19.68,19.68,0,0,1,2.68.41,7.54,7.54,0,0,1,2.35.92,4.89,4.89,0,0,1,1.66,1.72,5.54,5.54,0,0,1,.64,2.79,6.8,6.8,0,0,1-.75,3.09,8.11,8.11,0,0,1-2.15,2.67,11.09,11.09,0,0,1-3.46,1.88,14,14,0,0,1-4.66.71,17.15,17.15,0,0,1-4.51-.52,10.45,10.45,0,0,1-3.17-1.4,5.85,5.85,0,0,1-1.87-2,4.82,4.82,0,0,1-.62-2.37,4.18,4.18,0,0,1,1-2.82,6.71,6.71,0,0,1,2.71-1.82,3.85,3.85,0,0,1-1.35-1.31,3.94,3.94,0,0,1-.51-2.12,4,4,0,0,1,.17-1.1,4.36,4.36,0,0,1,.55-1.13,5.34,5.34,0,0,1,.92-1.07,6.4,6.4,0,0,1,1.31-.89,7.49,7.49,0,0,1-2.72-2.61,7.23,7.23,0,0,1-1-3.83,7.43,7.43,0,0,1,.68-3.2,7.08,7.08,0,0,1,1.89-2.45,8.56,8.56,0,0,1,2.86-1.55A11.93,11.93,0,0,1,250.78,445.71Zm6,25.33a1.67,1.67,0,0,0-.4-1.16,2.69,2.69,0,0,0-1.09-.71,8,8,0,0,0-1.61-.36,15,15,0,0,0-1.95-.12h-2.13a8.81,8.81,0,0,1-2.13-.26A4.93,4.93,0,0,0,246,469.7a2.68,2.68,0,0,0-.57,1.69,2.44,2.44,0,0,0,.3,1.18,2.59,2.59,0,0,0,1,.94,5.5,5.5,0,0,0,1.7.62,12.44,12.44,0,0,0,2.56.22,12,12,0,0,0,2.64-.25,6.25,6.25,0,0,0,1.83-.69,2.81,2.81,0,0,0,1.06-1.05A2.69,2.69,0,0,0,256.8,471Zm-6-13.54a5.07,5.07,0,0,0,1.78-.29,3.43,3.43,0,0,0,1.25-.81,3.23,3.23,0,0,0,.76-1.23,4.72,4.72,0,0,0,.25-1.58,3.81,3.81,0,0,0-1-2.81,4.93,4.93,0,0,0-6.06,0,3.85,3.85,0,0,0-1,2.81,4.44,4.44,0,0,0,.26,1.56,3.47,3.47,0,0,0,.75,1.24,3.36,3.36,0,0,0,1.27.82A5,5,0,0,0,250.78,457.5Z"/><path class="cls-2" d="M283.74,470h-2.46a2.44,2.44,0,0,1-1.22-.25,1.55,1.55,0,0,1-.67-1l-.49-1.7a19.17,19.17,0,0,1-1.7,1.44,10.17,10.17,0,0,1-1.72,1,8.4,8.4,0,0,1-1.89.63,10.74,10.74,0,0,1-2.22.21,8.11,8.11,0,0,1-2.66-.41,5.44,5.44,0,0,1-3.47-3.26,7.65,7.65,0,0,1-.49-2.83,5.86,5.86,0,0,1,.68-2.68,6.54,6.54,0,0,1,2.25-2.38,14.14,14.14,0,0,1,4.2-1.77,26,26,0,0,1,6.51-.7V455a5.51,5.51,0,0,0-1-3.58,3.45,3.45,0,0,0-2.81-1.16,6.77,6.77,0,0,0-2.22.32,8.84,8.84,0,0,0-1.54.74c-.44.27-.84.52-1.21.73a2.35,2.35,0,0,1-1.22.33,1.57,1.57,0,0,1-1-.3,2.43,2.43,0,0,1-.64-.75l-1-1.84a13.18,13.18,0,0,1,9.48-3.78,8.81,8.81,0,0,1,3.57.69,7.64,7.64,0,0,1,2.65,1.91,8.26,8.26,0,0,1,1.66,2.93,12,12,0,0,1,.56,3.73Zm-10.66-3.59a7,7,0,0,0,1.56-.16,6.1,6.1,0,0,0,1.34-.48,7.68,7.68,0,0,0,1.22-.79,12.15,12.15,0,0,0,1.19-1.12v-4a21.3,21.3,0,0,0-4,.32,10.17,10.17,0,0,0-2.59.81,3.32,3.32,0,0,0-1.38,1.15,3,3,0,0,0,.44,3.61A3.54,3.54,0,0,0,273.08,466.45Z"/><path class="cls-2" d="M296.63,470.41a5.84,5.84,0,0,1-4.56-1.76,7,7,0,0,1-1.6-4.86V450.44h-2.31a1,1,0,0,1-.76-.31,1.16,1.16,0,0,1-.33-.9v-2.29l3.67-.63,1.15-6.52a1.24,1.24,0,0,1,.41-.73,1.29,1.29,0,0,1,.82-.25H296v7.53h6v4.1h-6v13a2.62,2.62,0,0,0,.53,1.74,1.77,1.77,0,0,0,1.42.63,2.66,2.66,0,0,0,.86-.12,5.84,5.84,0,0,0,.6-.27c.17-.1.32-.18.45-.27a.73.73,0,0,1,.4-.13.57.57,0,0,1,.4.13,1.88,1.88,0,0,1,.34.38l1.64,2.8a8.29,8.29,0,0,1-2.75,1.59A10,10,0,0,1,296.63,470.41Z"/><path class="cls-2" d="M315.75,445.75a10.41,10.41,0,0,1,4,.73,8.5,8.5,0,0,1,3.12,2.11,9.54,9.54,0,0,1,2.05,3.4,13.38,13.38,0,0,1,.73,4.6,7.9,7.9,0,0,1-.06,1.08,1.78,1.78,0,0,1-.19.68.87.87,0,0,1-.39.35,1.62,1.62,0,0,1-.63.11H310.26c.17,2.45.79,4.25,1.89,5.4a5.75,5.75,0,0,0,4.35,1.73,7.12,7.12,0,0,0,2.3-.33,10.86,10.86,0,0,0,1.69-.72l1.27-.72a2,2,0,0,1,1.05-.33,1.18,1.18,0,0,1,.58.14,1.33,1.33,0,0,1,.42.4l1.6,2.09a9.5,9.5,0,0,1-2,1.88,11.53,11.53,0,0,1-2.37,1.21,12.33,12.33,0,0,1-2.51.64,16.38,16.38,0,0,1-2.47.19,11.67,11.67,0,0,1-4.42-.83,9.84,9.84,0,0,1-3.56-2.45,11.39,11.39,0,0,1-2.37-4,16.19,16.19,0,0,1-.87-5.54,13.87,13.87,0,0,1,.75-4.6,11.22,11.22,0,0,1,2.17-3.75,10.15,10.15,0,0,1,3.44-2.53A10.79,10.79,0,0,1,315.75,445.75Zm.11,4.13a4.91,4.91,0,0,0-3.75,1.42,7.19,7.19,0,0,0-1.74,4h10.31a7.63,7.63,0,0,0-.29-2.11,4.82,4.82,0,0,0-.89-1.73,4.21,4.21,0,0,0-1.51-1.18A4.91,4.91,0,0,0,315.86,449.88Z"/><path class="cls-2" d="M338.09,452.7l-10.24-16.36h6a1.86,1.86,0,0,1,.9.17,1.68,1.68,0,0,1,.5.57l7.3,12.38c.08-.2.16-.4.25-.59a5.71,5.71,0,0,1,.31-.6l6.68-11.07a1.46,1.46,0,0,1,1.27-.86h5.73l-10.35,16.1L357,470h-6a1.37,1.37,0,0,1-1-.33,2.71,2.71,0,0,1-.61-.74l-7.44-12.92a5.36,5.36,0,0,1-.2.53c-.08.16-.15.31-.23.45L334.49,469a3.43,3.43,0,0,1-.6.73,1.2,1.2,0,0,1-.88.34h-5.6Z"/><polygon class="cls-3" points="284.95 52.2 133.88 52.2 58.34 183.04 133.88 313.87 284.95 313.87 360.49 183.04 284.95 52.2"/><polygon class="cls-3" points="284.95 52.2 133.88 52.2 58.34 183.04 133.88 313.87 284.95 313.87 360.49 183.04 284.95 52.2"/><path class="cls-4" d="M285,52.21H133.87L58.33,183.05l75.54,130.82H285l16.3-28.21H173.94c-25.81,0-41.92-27.94-29-50.27l72-124.72a33.52,33.52,0,0,1,58,0L338.62,221l21.87-37.9ZM144.34,174.35l-34.11,3a7.49,7.49,0,1,1-1.3-14.93l34.11-3a7.51,7.51,0,0,1,8.13,6.83,4.64,4.64,0,0,1,0,.65A7.5,7.5,0,0,1,144.34,174.35Zm15.75-24.78a7.45,7.45,0,0,1-6.47,3.72,7.38,7.38,0,0,1-3.78-1L120.24,135a7.5,7.5,0,0,1,7.54-13l29.62,17.24A7.5,7.5,0,0,1,160.09,149.57Zm10-16.24a7.38,7.38,0,0,1-3.18.7,7.46,7.46,0,0,1-6.77-4.32l-14.5-31a7.5,7.5,0,0,1,13.6-6.34l14.5,31A7.5,7.5,0,0,1,170.13,133.33Zm75.81-17.68a11.57,11.57,0,0,0-10.22,5.9l-72,124.72a11.77,11.77,0,0,0,10.23,17.66H313.79l12.29-21.28-69.93-121.1A11.58,11.58,0,0,0,245.94,115.65Zm10.34,124.83a10.35,10.35,0,0,1-20.7,0v-1.39a10.35,10.35,0,1,1,20.7,0Zm0-32.43a10.35,10.35,0,0,1-20.7,0V160.83a10.35,10.35,0,1,1,20.7,0Z"/></svg>