<svg id="Capa_1" data-name="Capa 1" xmlns="http://www.w3.org/2000/svg" viewBox="0 0 492.82 523"><defs><style>.cls-1{fill:none;stroke:gray;stroke-miterlimit:10;stroke-width:1.12px;stroke-dasharray:2.23 2.23;}.cls-2{fill:#0c2340;}.cls-3{fill:#fff;}.cls-4{fill:#0b74de;}</style></defs><title>logos-RGB</title><line class="cls-1" x1="46" y1="523" x2="446.76" y2="523"/><path class="cls-2" d="M88.82,406a1.75,1.75,0,0,1,1.33.62l3.7,4.22a20.44,20.44,0,0,1-7.56,6.11A24.92,24.92,0,0,1,75.52,419a24.31,24.31,0,0,1-10.11-2,22.3,22.3,0,0,1-7.66-5.6,24.81,24.81,0,0,1-4.87-8.58A33.53,33.53,0,0,1,51.19,392,30.71,30.71,0,0,1,53.07,381a25.22,25.22,0,0,1,5.31-8.55,23.82,23.82,0,0,1,8.19-5.59,26.94,26.94,0,0,1,10.52-2,23.81,23.81,0,0,1,9.83,1.89,22.92,22.92,0,0,1,7.21,5L91,376.36a3.09,3.09,0,0,1-.72.77,1.94,1.94,0,0,1-1.2.33,2.64,2.64,0,0,1-1.64-.66,20,20,0,0,0-2.13-1.43A17.3,17.3,0,0,0,82,373.94a16,16,0,0,0-5-.66,16.32,16.32,0,0,0-6.54,1.3,14.55,14.55,0,0,0-5.14,3.72A17.23,17.23,0,0,0,62,384.18a23.68,23.68,0,0,0-1.2,7.79,24.31,24.31,0,0,0,1.2,7.94,17.5,17.5,0,0,0,3.27,5.87,14,14,0,0,0,4.85,3.64,14.41,14.41,0,0,0,6,1.26,26.24,26.24,0,0,0,3.48-.21,14.25,14.25,0,0,0,2.86-.7,12.73,12.73,0,0,0,2.48-1.23,15.79,15.79,0,0,0,2.32-1.85,3.56,3.56,0,0,1,.73-.53A1.86,1.86,0,0,1,88.82,406Z"/><path class="cls-2" d="M143.53,418.45h-9.46V395.3H110.4v23.15h-9.47v-53h9.47v22.78h23.67V365.48h9.46Z"/><path class="cls-2" d="M198.09,418.45h-7.26a3.08,3.08,0,0,1-2-.64,3.67,3.67,0,0,1-1.13-1.59l-3.77-10.81H163l-3.77,10.81a3.6,3.6,0,0,1-1.1,1.54,3,3,0,0,1-2,.69h-7.3l19.83-53h9.6Zm-32.67-20h16.09l-6.14-17.62c-.28-.78-.59-1.7-.93-2.77s-.67-2.21-1-3.46q-.49,1.88-1,3.48t-.93,2.82Z"/><path class="cls-2" d="M209.27,365.53a2.61,2.61,0,0,1,.75.22,2.49,2.49,0,0,1,.64.48,8.29,8.29,0,0,1,.7.82l26.5,35.43c-.1-.86-.16-1.69-.19-2.51s-.06-1.58-.06-2.29v-32.2h8.28v53H241a4.21,4.21,0,0,1-1.85-.36,4.43,4.43,0,0,1-1.43-1.32l-26.39-35.28c.07.78.12,1.55.16,2.32s0,1.48,0,2.11v32.53h-8.28v-53h4.93A10,10,0,0,1,209.27,365.53Z"/><path class="cls-2" d="M262.05,365.53a2.44,2.44,0,0,1,.75.22,2.53,2.53,0,0,1,.65.48,8.29,8.29,0,0,1,.7.82l26.49,35.43c-.09-.86-.15-1.69-.19-2.51s-.05-1.58-.05-2.29v-32.2h8.27v53h-4.85a3.51,3.51,0,0,1-3.28-1.68l-26.39-35.28c.07.78.12,1.55.15,2.32s.06,1.48.06,2.11v32.53h-8.28v-53H261A10,10,0,0,1,262.05,365.53Z"/><path class="cls-2" d="M340.71,365.48v7.84H318.33V388H336v7.58H318.33v15h22.38v7.87H308.87v-53Z"/><path class="cls-2" d="M358.23,410.32h20.22v8.13H348.84v-53h9.39Z"/><path class="cls-2" d="M377.12,392.55H395.2v7.55H377.12Z"/><path class="cls-2" d="M413.6,391.2l-16.09-25.72h9.36a2.78,2.78,0,0,1,1.41.27,2.63,2.63,0,0,1,.79.9l11.48,19.45c.12-.31.25-.63.39-.93a8.22,8.22,0,0,1,.48-.93l10.51-17.41a2.27,2.27,0,0,1,2-1.35h9l-16.27,25.31,16.72,27.66H434a2.22,2.22,0,0,1-1.52-.51,4.92,4.92,0,0,1-1-1.17l-11.69-20.3a6.81,6.81,0,0,1-.32.83c-.11.25-.23.49-.35.71L408,416.77a6,6,0,0,1-.94,1.15,2,2,0,0,1-1.4.53h-8.8Z"/><path class="cls-2" d="M101.52,470V435.41H107v13.65a10.83,10.83,0,0,1,3.06-2.41,8.46,8.46,0,0,1,4-.9,7.24,7.24,0,0,1,3.41.81,7.48,7.48,0,0,1,2.66,2.34,11.5,11.5,0,0,1,1.74,3.8,20.34,20.34,0,0,1,.61,5.2,17.09,17.09,0,0,1-.69,5,12.45,12.45,0,0,1-2,4,9.08,9.08,0,0,1-3.08,2.62,8.65,8.65,0,0,1-4.06.95,8.14,8.14,0,0,1-1.91-.22,6.68,6.68,0,0,1-1.57-.62,6.56,6.56,0,0,1-1.33-1,11.91,11.91,0,0,1-1.16-1.27l-.25,1.61a1.5,1.5,0,0,1-.45.86,1.4,1.4,0,0,1-.88.26Zm10.66-19.81a5.36,5.36,0,0,0-2.92.76,8.31,8.31,0,0,0-2.25,2.13v10.72a5.27,5.27,0,0,0,2,1.69,5.9,5.9,0,0,0,2.39.48,5.15,5.15,0,0,0,2.24-.49,4.55,4.55,0,0,0,1.7-1.49,7.75,7.75,0,0,0,1.08-2.53,15.27,15.27,0,0,0,.37-3.6,16.46,16.46,0,0,0-.32-3.56,6.88,6.88,0,0,0-.92-2.36,3.73,3.73,0,0,0-1.45-1.33A4.4,4.4,0,0,0,112.18,450.23Z"/><path class="cls-2" d="M134.13,476.61a2.25,2.25,0,0,1-.64.92,1.86,1.86,0,0,1-1.19.32h-4.08l4.26-9.58-9.22-22.14h4.8a1.47,1.47,0,0,1,1,.32,2.17,2.17,0,0,1,.54.75l4.86,12.4a9.8,9.8,0,0,1,.42,1.26c.12.43.23.87.31,1.3.12-.45.25-.88.39-1.3s.3-.85.46-1.29l4.57-12.37a1.72,1.72,0,0,1,.59-.77,1.53,1.53,0,0,1,.92-.3h4.4Z"/><path class="cls-2" d="M181.26,436.34v5.15H171.6V470h-6V441.49h-9.7v-5.15Z"/><path class="cls-2" d="M181.19,470V446.13h3.22a1.72,1.72,0,0,1,1.18.32,1.92,1.92,0,0,1,.44,1.12l.34,2.89a11.08,11.08,0,0,1,2.86-3.49,5.84,5.84,0,0,1,3.69-1.29,4.64,4.64,0,0,1,2.8.82l-.71,4.31a1,1,0,0,1-.29.6,1,1,0,0,1-.6.17,3.47,3.47,0,0,1-.91-.16,5.8,5.8,0,0,0-1.54-.17,4.52,4.52,0,0,0-2.93,1,7.68,7.68,0,0,0-2.06,2.91V470Z"/><path class="cls-2" d="M216.55,470h-2.46a2.51,2.51,0,0,1-1.23-.25,1.58,1.58,0,0,1-.66-1l-.49-1.7a19.17,19.17,0,0,1-1.7,1.44,10.17,10.17,0,0,1-1.72,1,8.4,8.4,0,0,1-1.89.63,10.87,10.87,0,0,1-2.22.21,8.21,8.21,0,0,1-2.67-.41,5.45,5.45,0,0,1-3.46-3.26,7.45,7.45,0,0,1-.49-2.83,5.86,5.86,0,0,1,.68-2.68,6.54,6.54,0,0,1,2.25-2.38,14,14,0,0,1,4.2-1.77,26,26,0,0,1,6.51-.7V455a5.51,5.51,0,0,0-1-3.58,3.45,3.45,0,0,0-2.81-1.16,6.68,6.68,0,0,0-2.22.32,8.51,8.51,0,0,0-1.54.74c-.44.27-.84.52-1.21.73a2.35,2.35,0,0,1-1.22.33,1.57,1.57,0,0,1-1-.3,2.31,2.31,0,0,1-.64-.75l-1-1.84a13.18,13.18,0,0,1,9.48-3.78,8.81,8.81,0,0,1,3.57.69,7.73,7.73,0,0,1,2.65,1.91,8.26,8.26,0,0,1,1.66,2.93,12,12,0,0,1,.56,3.73Zm-10.66-3.59a6.83,6.83,0,0,0,1.55-.16,6,6,0,0,0,1.35-.48A7.68,7.68,0,0,0,210,465a12.15,12.15,0,0,0,1.19-1.12v-4a21.3,21.3,0,0,0-4,.32,10.17,10.17,0,0,0-2.59.81,3.42,3.42,0,0,0-1.39,1.15,2.67,2.67,0,0,0-.41,1.43,2.58,2.58,0,0,0,.86,2.18A3.54,3.54,0,0,0,205.89,466.45Z"/><path class="cls-2" d="M232.57,470h-5l-9.06-23.91h4.55a1.66,1.66,0,0,1,1,.3,1.5,1.5,0,0,1,.57.77l4.4,12.77q.38,1.13.63,2.19c.17.72.32,1.43.46,2.15.13-.72.28-1.43.45-2.15a20.72,20.72,0,0,1,.66-2.19l4.5-12.77a1.59,1.59,0,0,1,.56-.77,1.54,1.54,0,0,1,1-.3h4.34Z"/><path class="cls-2" d="M253.53,445.75a10.47,10.47,0,0,1,4,.73,8.67,8.67,0,0,1,3.12,2.11,9.67,9.67,0,0,1,2,3.4,13.38,13.38,0,0,1,.73,4.6,8.14,8.14,0,0,1-.05,1.08,1.77,1.77,0,0,1-.2.68.87.87,0,0,1-.39.35,1.56,1.56,0,0,1-.62.11H248.05a8.48,8.48,0,0,0,1.88,5.4,5.75,5.75,0,0,0,4.36,1.73,7.16,7.16,0,0,0,2.3-.33,11.76,11.76,0,0,0,1.69-.72l1.26-.72a2,2,0,0,1,1.06-.33,1.15,1.15,0,0,1,.57.14,1.26,1.26,0,0,1,.43.4l1.59,2.09a9.06,9.06,0,0,1-2,1.88,11.21,11.21,0,0,1-2.36,1.21,12.5,12.5,0,0,1-2.51.64,16.51,16.51,0,0,1-2.48.19,11.67,11.67,0,0,1-4.42-.83,9.8,9.8,0,0,1-3.55-2.45,11.56,11.56,0,0,1-2.38-4,16.19,16.19,0,0,1-.87-5.54,13.87,13.87,0,0,1,.76-4.6,11,11,0,0,1,2.16-3.75,10.09,10.09,0,0,1,3.45-2.53A10.72,10.72,0,0,1,253.53,445.75Zm.11,4.13a4.93,4.93,0,0,0-3.75,1.42,7.18,7.18,0,0,0-1.73,4h10.3a7.27,7.27,0,0,0-.29-2.11,4.8,4.8,0,0,0-.88-1.73,4.3,4.3,0,0,0-1.51-1.18A4.93,4.93,0,0,0,253.64,449.88Z"/><path class="cls-2" d="M273.7,435.41V470h-5.49V435.41Z"/><path class="cls-2" d="M287.78,445.71a11.61,11.61,0,0,1,2.76.31,9.35,9.35,0,0,1,2.35.92h6.55v2.15a1.3,1.3,0,0,1-.26.84,1.55,1.55,0,0,1-.91.41l-2,.4a8.59,8.59,0,0,1,.35,1.28,8.16,8.16,0,0,1,.12,1.42,7.44,7.44,0,0,1-.68,3.21,7.21,7.21,0,0,1-1.86,2.44,8.67,8.67,0,0,1-2.83,1.54,10.9,10.9,0,0,1-3.54.55,12.28,12.28,0,0,1-2.51-.25,1.87,1.87,0,0,0-1.06,1.52,1.13,1.13,0,0,0,.63,1.07,4.81,4.81,0,0,0,1.66.48,16.59,16.59,0,0,0,2.35.14c.87,0,1.77,0,2.69.12a19.68,19.68,0,0,1,2.68.41,7.54,7.54,0,0,1,2.35.92,4.89,4.89,0,0,1,1.66,1.72,5.54,5.54,0,0,1,.64,2.79,6.8,6.8,0,0,1-.75,3.09,8.11,8.11,0,0,1-2.15,2.67,11.09,11.09,0,0,1-3.46,1.88,14,14,0,0,1-4.66.71,17.15,17.15,0,0,1-4.51-.52,10.45,10.45,0,0,1-3.17-1.4,5.85,5.85,0,0,1-1.87-2,4.82,4.82,0,0,1-.62-2.37,4.18,4.18,0,0,1,1-2.82,6.71,6.71,0,0,1,2.71-1.82,3.85,3.85,0,0,1-1.35-1.31,3.94,3.94,0,0,1-.51-2.12,4,4,0,0,1,.17-1.1,4.36,4.36,0,0,1,.55-1.13,5.34,5.34,0,0,1,.92-1.07,6.4,6.4,0,0,1,1.31-.89,7.49,7.49,0,0,1-2.72-2.61,7.23,7.23,0,0,1-1-3.83,7.43,7.43,0,0,1,.68-3.2,7.08,7.08,0,0,1,1.89-2.45,8.56,8.56,0,0,1,2.86-1.55A11.93,11.93,0,0,1,287.78,445.71Zm6,25.33a1.67,1.67,0,0,0-.4-1.16,2.69,2.69,0,0,0-1.09-.71,8,8,0,0,0-1.61-.36,15,15,0,0,0-1.95-.12h-2.13a8.81,8.81,0,0,1-2.13-.26A4.93,4.93,0,0,0,283,469.7a2.68,2.68,0,0,0-.57,1.69,2.44,2.44,0,0,0,.3,1.18,2.59,2.59,0,0,0,.95.94,5.5,5.5,0,0,0,1.7.62,12.44,12.44,0,0,0,2.56.22,12,12,0,0,0,2.64-.25,6.25,6.25,0,0,0,1.83-.69,2.81,2.81,0,0,0,1.06-1.05A2.69,2.69,0,0,0,293.8,471Zm-6-13.54a5.07,5.07,0,0,0,1.78-.29,3.43,3.43,0,0,0,1.25-.81,3.23,3.23,0,0,0,.76-1.23,4.72,4.72,0,0,0,.25-1.58,3.81,3.81,0,0,0-1-2.81,4.93,4.93,0,0,0-6.06,0,3.85,3.85,0,0,0-1,2.81,4.44,4.44,0,0,0,.26,1.56,3.47,3.47,0,0,0,.75,1.24,3.36,3.36,0,0,0,1.27.82A5,5,0,0,0,287.78,457.5Z"/><path class="cls-2" d="M320.74,470h-2.46a2.44,2.44,0,0,1-1.22-.25,1.55,1.55,0,0,1-.67-1l-.49-1.7a19.17,19.17,0,0,1-1.7,1.44,10.17,10.17,0,0,1-1.72,1,8.4,8.4,0,0,1-1.89.63,10.74,10.74,0,0,1-2.22.21,8.11,8.11,0,0,1-2.66-.41,5.44,5.44,0,0,1-3.47-3.26,7.65,7.65,0,0,1-.49-2.83,5.86,5.86,0,0,1,.68-2.68,6.54,6.54,0,0,1,2.25-2.38,14.14,14.14,0,0,1,4.2-1.77,26,26,0,0,1,6.51-.7V455a5.51,5.51,0,0,0-1-3.58,3.45,3.45,0,0,0-2.81-1.16,6.77,6.77,0,0,0-2.22.32,8.84,8.84,0,0,0-1.54.74c-.44.27-.84.52-1.21.73a2.35,2.35,0,0,1-1.22.33,1.57,1.57,0,0,1-1-.3,2.43,2.43,0,0,1-.64-.75l-1-1.84a13.18,13.18,0,0,1,9.48-3.78,8.81,8.81,0,0,1,3.57.69,7.64,7.64,0,0,1,2.65,1.91,8.26,8.26,0,0,1,1.66,2.93,12,12,0,0,1,.56,3.73Zm-10.66-3.59a7,7,0,0,0,1.56-.16,6.1,6.1,0,0,0,1.34-.48,7.68,7.68,0,0,0,1.22-.79,12.15,12.15,0,0,0,1.19-1.12v-4a21.3,21.3,0,0,0-4,.32,10.17,10.17,0,0,0-2.59.81,3.32,3.32,0,0,0-1.38,1.15,3,3,0,0,0,.44,3.61A3.54,3.54,0,0,0,310.08,466.45Z"/><path class="cls-2" d="M333.63,470.41a5.84,5.84,0,0,1-4.56-1.76,7,7,0,0,1-1.6-4.86V450.44h-2.31a1,1,0,0,1-.76-.31,1.16,1.16,0,0,1-.33-.9v-2.29l3.67-.63,1.15-6.52a1.24,1.24,0,0,1,.41-.73,1.29,1.29,0,0,1,.82-.25H333v7.53h6v4.1h-6v13a2.62,2.62,0,0,0,.53,1.74,1.77,1.77,0,0,0,1.42.63,2.66,2.66,0,0,0,.86-.12,5.84,5.84,0,0,0,.6-.27c.17-.1.32-.18.45-.27a.73.73,0,0,1,.4-.13.57.57,0,0,1,.4.13,1.88,1.88,0,0,1,.34.38l1.64,2.8a8.29,8.29,0,0,1-2.75,1.59A10,10,0,0,1,333.63,470.41Z"/><path class="cls-2" d="M352.75,445.75a10.41,10.41,0,0,1,4,.73,8.5,8.5,0,0,1,3.12,2.11,9.54,9.54,0,0,1,2.05,3.4,13.38,13.38,0,0,1,.73,4.6,7.9,7.9,0,0,1-.06,1.08,1.78,1.78,0,0,1-.19.68.87.87,0,0,1-.39.35,1.62,1.62,0,0,1-.63.11H347.26c.17,2.45.79,4.25,1.89,5.4a5.75,5.75,0,0,0,4.35,1.73,7.12,7.12,0,0,0,2.3-.33,10.86,10.86,0,0,0,1.69-.72l1.27-.72a2,2,0,0,1,1.05-.33,1.18,1.18,0,0,1,.58.14,1.33,1.33,0,0,1,.42.4l1.6,2.09a9.5,9.5,0,0,1-2,1.88,11.53,11.53,0,0,1-2.37,1.21,12.33,12.33,0,0,1-2.51.64,16.38,16.38,0,0,1-2.47.19,11.67,11.67,0,0,1-4.42-.83,9.84,9.84,0,0,1-3.56-2.45,11.39,11.39,0,0,1-2.37-4,16.19,16.19,0,0,1-.87-5.54,13.87,13.87,0,0,1,.75-4.6,11.22,11.22,0,0,1,2.17-3.75,10.15,10.15,0,0,1,3.44-2.53A10.79,10.79,0,0,1,352.75,445.75Zm.11,4.13a4.91,4.91,0,0,0-3.75,1.42,7.19,7.19,0,0,0-1.74,4h10.31a7.63,7.63,0,0,0-.29-2.11,4.82,4.82,0,0,0-.89-1.73,4.21,4.21,0,0,0-1.51-1.18A4.91,4.91,0,0,0,352.86,449.88Z"/><path class="cls-2" d="M375.09,452.7l-10.24-16.36h6a1.86,1.86,0,0,1,.9.17,1.68,1.68,0,0,1,.5.57l7.3,12.38c.08-.2.16-.4.25-.59a5.71,5.71,0,0,1,.31-.6l6.68-11.07a1.46,1.46,0,0,1,1.27-.86h5.73l-10.35,16.1L394,470h-6a1.37,1.37,0,0,1-1-.33,2.71,2.71,0,0,1-.61-.74l-7.44-12.92a5.36,5.36,0,0,1-.2.53c-.08.16-.15.31-.23.45L371.49,469a3.43,3.43,0,0,1-.6.73,1.2,1.2,0,0,1-.88.34h-5.6Z"/><polygon class="cls-3" points="321.95 52.21 170.88 52.21 95.34 183.05 170.88 313.88 321.95 313.88 397.49 183.05 321.95 52.21"/><polygon class="cls-3" points="321.95 52.2 170.87 52.2 95.33 183.04 170.87 313.88 321.95 313.88 397.49 183.04 321.95 52.2"/><path class="cls-4" d="M397.48,183.05,322,313.87H170.88L95.33,183.05,170.88,52.2H191l-39.31,115a20.09,20.09,0,1,0,8.55,3.15L200.66,52.2h22V172.93a20.15,20.15,0,1,0,9.14,0V52.2H268.1V172.93a20.16,20.16,0,1,0,9.14,0V52.2h36.34V172.93a20.16,20.16,0,1,0,9.15,0V53.53Z"/></svg>