<svg id="Capa_1" data-name="Capa 1" xmlns="http://www.w3.org/2000/svg" viewBox="0 0 650.76 523"><defs><style>.cls-1{fill:none;stroke:gray;stroke-miterlimit:10;stroke-width:1.12px;stroke-dasharray:2.23 2.23;}.cls-2{fill:#0c2340;}.cls-3{fill:#fff;}.cls-4{fill:#0bacde;}</style></defs><title>logos-RGB</title><line class="cls-1" x1="122.59" y1="523" x2="523.35" y2="523"/><path class="cls-2" d="M95.63,392a30,30,0,0,1-1.85,10.69,24.67,24.67,0,0,1-5.2,8.39,23.15,23.15,0,0,1-8.07,5.46,27.23,27.23,0,0,1-10.44,1.94H50.8v-53H70.07a26.86,26.86,0,0,1,10.44,2,23.56,23.56,0,0,1,8.07,5.46,24.49,24.49,0,0,1,5.2,8.37A30,30,0,0,1,95.63,392ZM86,392a25.31,25.31,0,0,0-1.12-7.83,16.68,16.68,0,0,0-3.18-5.86,13.71,13.71,0,0,0-5-3.68,16.57,16.57,0,0,0-6.65-1.28H60.26v37.29h9.81a16.57,16.57,0,0,0,6.65-1.28,13.71,13.71,0,0,0,5-3.68,16.68,16.68,0,0,0,3.18-5.86A25.29,25.29,0,0,0,86,392Z"/><path class="cls-2" d="M113.57,418.45h-9.42v-53h9.42Z"/><path class="cls-2" d="M152,375.11a2.78,2.78,0,0,1-.89,1.14,2.17,2.17,0,0,1-1.21.33,3,3,0,0,1-1.57-.57c-.58-.38-1.27-.8-2.06-1.26a15.92,15.92,0,0,0-2.77-1.27,11.15,11.15,0,0,0-3.76-.56,10.51,10.51,0,0,0-3.4.49,7.12,7.12,0,0,0-2.44,1.37,5.5,5.5,0,0,0-1.49,2.11,7.35,7.35,0,0,0-.49,2.69,4.8,4.8,0,0,0,1,3.12,8.26,8.26,0,0,0,2.63,2.12,24.17,24.17,0,0,0,3.74,1.58c1.4.46,2.82,1,4.28,1.48a42.18,42.18,0,0,1,4.27,1.83,15,15,0,0,1,3.74,2.64,11.91,11.91,0,0,1,2.63,3.9,14,14,0,0,1,1,5.61,19.06,19.06,0,0,1-1.17,6.72A15.59,15.59,0,0,1,150.6,414a16.06,16.06,0,0,1-5.5,3.66,19.43,19.43,0,0,1-7.44,1.34,22.77,22.77,0,0,1-4.74-.5,24.18,24.18,0,0,1-4.49-1.41,23,23,0,0,1-4-2.2,20,20,0,0,1-3.33-2.85l2.72-4.73a3.63,3.63,0,0,1,.93-.86,2.19,2.19,0,0,1,1.2-.35,3.27,3.27,0,0,1,1.89.75c.67.5,1.47,1.06,2.39,1.67a17.9,17.9,0,0,0,3.25,1.67,12,12,0,0,0,4.48.75,8.94,8.94,0,0,0,6.22-2,7.36,7.36,0,0,0,2.2-5.73,5.54,5.54,0,0,0-1-3.41,8,8,0,0,0-2.63-2.21A19.45,19.45,0,0,0,139,396.1q-2.1-.62-4.26-1.35a37.14,37.14,0,0,1-4.26-1.76,13.69,13.69,0,0,1-3.73-2.67,12.17,12.17,0,0,1-2.64-4.12,16.5,16.5,0,0,1-1-6.1,15,15,0,0,1,1.11-5.65,14.44,14.44,0,0,1,3.21-4.87,15.84,15.84,0,0,1,5.18-3.41,18.19,18.19,0,0,1,7-1.28,22.52,22.52,0,0,1,8.24,1.47,18.51,18.51,0,0,1,6.42,4.1Z"/><path class="cls-2" d="M198,365.48v8.09H182.77v44.88h-9.39V373.57H158.12v-8.09Z"/><path class="cls-2" d="M213.63,397.75v20.7h-9.39v-53h15.4a30.47,30.47,0,0,1,8.84,1.12,16.35,16.35,0,0,1,6,3.13,11.93,11.93,0,0,1,3.46,4.82,17.64,17.64,0,0,1,.35,11.22,14.48,14.48,0,0,1-5.66,7.73,17.87,17.87,0,0,1-4.73,2.35,9.59,9.59,0,0,1,3.08,3l12.63,19.56h-8.44a4,4,0,0,1-2.08-.51,4.34,4.34,0,0,1-1.45-1.47l-10.61-17a3.86,3.86,0,0,0-1.31-1.35,4.39,4.39,0,0,0-2.12-.41Zm0-7.07h5.87a14,14,0,0,0,4.62-.69,8.89,8.89,0,0,0,3.25-1.93,7.7,7.7,0,0,0,1.9-2.91,10.49,10.49,0,0,0,.63-3.7,7.71,7.71,0,0,0-2.53-6.19q-2.53-2.16-7.73-2.16h-6Z"/><path class="cls-2" d="M260.24,418.45h-9.43v-53h9.43Z"/><path class="cls-2" d="M271.58,418.45v-53H289a31.48,31.48,0,0,1,8.46,1,15.83,15.83,0,0,1,5.76,2.82,10.93,10.93,0,0,1,3.3,4.43,15.57,15.57,0,0,1,1.05,5.86,12,12,0,0,1-.53,3.57,10.34,10.34,0,0,1-1.62,3.19,12.15,12.15,0,0,1-2.79,2.69,16.91,16.91,0,0,1-4,2.06Q309,393.54,309,402.88a15.77,15.77,0,0,1-1.22,6.23,13.8,13.8,0,0,1-3.56,4.93,16.76,16.76,0,0,1-5.76,3.24,24.17,24.17,0,0,1-7.82,1.17Zm9.39-30h7.51q4.78,0,7.26-1.83t2.48-5.82q0-4.14-2.23-5.9c-1.49-1.18-3.82-1.76-7-1.76h-8Zm0,6.82v15.53h9.54a12.62,12.62,0,0,0,4.38-.66,7.64,7.64,0,0,0,2.83-1.76,6.44,6.44,0,0,0,1.53-2.56,10,10,0,0,0,.47-3.12,8.56,8.56,0,0,0-.52-3.09,5.86,5.86,0,0,0-1.64-2.35,7.66,7.66,0,0,0-2.86-1.48,15.3,15.3,0,0,0-4.23-.51Z"/><path class="cls-2" d="M337.39,410.5a12,12,0,0,0,4.87-.95,10.33,10.33,0,0,0,3.63-2.67,11.77,11.77,0,0,0,2.27-4.18,17.82,17.82,0,0,0,.79-5.5V365.48h9.39V397.2a25.44,25.44,0,0,1-1.45,8.74,20,20,0,0,1-4.17,6.92,19,19,0,0,1-6.6,4.55,24.19,24.19,0,0,1-17.46,0,18.84,18.84,0,0,1-6.58-4.55,19.91,19.91,0,0,1-4.15-6.92,25.44,25.44,0,0,1-1.45-8.74V365.48h9.39v31.69a17.75,17.75,0,0,0,.79,5.49,12.08,12.08,0,0,0,2.25,4.2,10,10,0,0,0,3.61,2.69A12,12,0,0,0,337.39,410.5Z"/><path class="cls-2" d="M403.48,365.48v8.09H388.29v44.88H378.9V373.57H363.64v-8.09Z"/><path class="cls-2" d="M420,418.45H410.6v-53H420Z"/><path class="cls-2" d="M479.8,392A30.7,30.7,0,0,1,478,402.75a25.69,25.69,0,0,1-5.21,8.59,23.38,23.38,0,0,1-8.06,5.66,27.79,27.79,0,0,1-20.9,0,23.63,23.63,0,0,1-8.1-5.66,25.53,25.53,0,0,1-5.21-8.59,32.2,32.2,0,0,1,0-21.57,25.53,25.53,0,0,1,5.21-8.59,23.63,23.63,0,0,1,8.1-5.66,27.72,27.72,0,0,1,20.9,0,23.92,23.92,0,0,1,8.06,5.66,25.65,25.65,0,0,1,5.21,8.58A30.71,30.71,0,0,1,479.8,392Zm-9.64,0a25.94,25.94,0,0,0-1.1-7.83,16.92,16.92,0,0,0-3.16-5.88,13.65,13.65,0,0,0-5-3.7,18,18,0,0,0-13.32,0,13.76,13.76,0,0,0-5,3.7,17,17,0,0,0-3.2,5.88,28.14,28.14,0,0,0,0,15.65,16.71,16.71,0,0,0,3.2,5.86,13.82,13.82,0,0,0,5,3.68,18,18,0,0,0,13.32,0,13.71,13.71,0,0,0,5-3.68,16.65,16.65,0,0,0,3.16-5.86A25.92,25.92,0,0,0,470.16,392Z"/><path class="cls-2" d="M493.17,365.53a2.44,2.44,0,0,1,.75.22,2.49,2.49,0,0,1,.64.48,7.13,7.13,0,0,1,.7.82l26.5,35.43c-.09-.86-.16-1.69-.19-2.51s-.06-1.58-.06-2.29v-32.2h8.28v53h-4.85a4.18,4.18,0,0,1-1.85-.36,4.35,4.35,0,0,1-1.44-1.32l-26.39-35.28c.07.78.12,1.55.16,2.32s.05,1.48.05,2.11v32.53H487.2v-53h4.92A10,10,0,0,1,493.17,365.53Z"/><path class="cls-2" d="M538.38,392.55h18.08v7.55H538.38Z"/><path class="cls-2" d="M574.86,391.2l-16.09-25.72h9.35a2.82,2.82,0,0,1,1.42.27,2.52,2.52,0,0,1,.78.9l11.49,19.45c.11-.31.24-.63.38-.93a8.33,8.33,0,0,1,.49-.93l10.51-17.41a2.26,2.26,0,0,1,2-1.35h9l-16.27,25.31,16.72,27.66h-9.39a2.2,2.2,0,0,1-1.52-.51,4.92,4.92,0,0,1-1-1.17l-11.7-20.3a6.78,6.78,0,0,1-.31.83c-.12.25-.23.49-.35.71L569.2,416.77a5.64,5.64,0,0,1-.94,1.15,2,2,0,0,1-1.39.53h-8.8Z"/><path class="cls-2" d="M180.49,470V435.41H186v13.65a10.83,10.83,0,0,1,3.06-2.41,8.46,8.46,0,0,1,4-.9,7.24,7.24,0,0,1,3.41.81,7.48,7.48,0,0,1,2.66,2.34,11.5,11.5,0,0,1,1.74,3.8,20.34,20.34,0,0,1,.61,5.2,17.09,17.09,0,0,1-.69,5,12.45,12.45,0,0,1-2,4,9.08,9.08,0,0,1-3.08,2.62,8.65,8.65,0,0,1-4.06.95,8.14,8.14,0,0,1-1.91-.22,6.93,6.93,0,0,1-1.58-.62,6.79,6.79,0,0,1-1.32-1,11.91,11.91,0,0,1-1.16-1.27l-.25,1.61a1.5,1.5,0,0,1-.45.86,1.4,1.4,0,0,1-.88.26Zm10.66-19.81a5.36,5.36,0,0,0-2.92.76,8.31,8.31,0,0,0-2.25,2.13v10.72a5.27,5.27,0,0,0,2,1.69,5.9,5.9,0,0,0,2.39.48,5.15,5.15,0,0,0,2.24-.49,4.55,4.55,0,0,0,1.7-1.49,8,8,0,0,0,1.08-2.53,15.27,15.27,0,0,0,.37-3.6,16.46,16.46,0,0,0-.32-3.56,6.88,6.88,0,0,0-.92-2.36,3.69,3.69,0,0,0-1.46-1.33A4.32,4.32,0,0,0,191.15,450.23Z"/><path class="cls-2" d="M213.1,476.61a2.25,2.25,0,0,1-.64.92,1.86,1.86,0,0,1-1.19.32h-4.08l4.26-9.58-9.22-22.14H207a1.47,1.47,0,0,1,1,.32,2.17,2.17,0,0,1,.54.75l4.86,12.4a11.63,11.63,0,0,1,.42,1.26c.12.43.23.87.31,1.3.12-.45.25-.88.39-1.3s.3-.85.46-1.29l4.57-12.37a1.72,1.72,0,0,1,.59-.77,1.53,1.53,0,0,1,.92-.3h4.4Z"/><path class="cls-2" d="M260.23,436.34v5.15h-9.66V470h-6V441.49h-9.71v-5.15Z"/><path class="cls-2" d="M260.16,470V446.13h3.22a1.72,1.72,0,0,1,1.18.32,1.92,1.92,0,0,1,.44,1.12l.34,2.89A11.08,11.08,0,0,1,268.2,447a5.84,5.84,0,0,1,3.69-1.29,4.64,4.64,0,0,1,2.8.82l-.71,4.31a.79.79,0,0,1-.89.77,3.47,3.47,0,0,1-.91-.16,5.8,5.8,0,0,0-1.54-.17,4.52,4.52,0,0,0-2.93,1,7.68,7.68,0,0,0-2.06,2.91V470Z"/><path class="cls-2" d="M295.52,470h-2.46a2.51,2.51,0,0,1-1.23-.25,1.58,1.58,0,0,1-.66-1l-.49-1.7a20.72,20.72,0,0,1-1.7,1.44,10.58,10.58,0,0,1-1.72,1,8.4,8.4,0,0,1-1.89.63,10.87,10.87,0,0,1-2.22.21,8.21,8.21,0,0,1-2.67-.41,5.78,5.78,0,0,1-2.1-1.22,5.62,5.62,0,0,1-1.36-2,7.45,7.45,0,0,1-.49-2.83,5.86,5.86,0,0,1,.68-2.68,6.54,6.54,0,0,1,2.25-2.38,14,14,0,0,1,4.2-1.77,26,26,0,0,1,6.51-.7V455a5.51,5.51,0,0,0-1-3.58,3.45,3.45,0,0,0-2.81-1.16,6.68,6.68,0,0,0-2.22.32,8.51,8.51,0,0,0-1.54.74c-.44.27-.84.52-1.21.73a2.35,2.35,0,0,1-1.22.33,1.55,1.55,0,0,1-1-.3,2.31,2.31,0,0,1-.64-.75l-1-1.84a13.18,13.18,0,0,1,9.48-3.78,8.81,8.81,0,0,1,3.57.69,7.73,7.73,0,0,1,2.65,1.91,8.09,8.09,0,0,1,1.65,2.93,11.67,11.67,0,0,1,.57,3.73Zm-10.66-3.59a6.83,6.83,0,0,0,1.55-.16,6,6,0,0,0,1.35-.48A7.68,7.68,0,0,0,289,465a12.15,12.15,0,0,0,1.19-1.12v-4a21.3,21.3,0,0,0-4,.32,10,10,0,0,0-2.59.81,3.42,3.42,0,0,0-1.39,1.15,2.67,2.67,0,0,0-.41,1.43,2.58,2.58,0,0,0,.86,2.18A3.54,3.54,0,0,0,284.86,466.45Z"/><path class="cls-2" d="M311.54,470h-5l-9.06-23.91h4.55a1.66,1.66,0,0,1,1,.3,1.5,1.5,0,0,1,.57.77L308,460q.38,1.13.63,2.19c.17.72.32,1.43.46,2.15.13-.72.28-1.43.45-2.15a20.72,20.72,0,0,1,.66-2.19l4.5-12.77a1.59,1.59,0,0,1,.56-.77,1.54,1.54,0,0,1,.95-.3h4.34Z"/><path class="cls-2" d="M332.5,445.75a10.47,10.47,0,0,1,4,.73,8.67,8.67,0,0,1,3.12,2.11,9.67,9.67,0,0,1,2,3.4,13.38,13.38,0,0,1,.73,4.6,8.14,8.14,0,0,1-.05,1.08,2,2,0,0,1-.2.68.87.87,0,0,1-.39.35,1.56,1.56,0,0,1-.62.11H327a8.48,8.48,0,0,0,1.88,5.4,5.75,5.75,0,0,0,4.36,1.73,7.16,7.16,0,0,0,2.3-.33,11.15,11.15,0,0,0,1.68-.72l1.27-.72a2,2,0,0,1,1.06-.33,1.15,1.15,0,0,1,.57.14,1.26,1.26,0,0,1,.43.4l1.59,2.09a9.06,9.06,0,0,1-2,1.88,11.21,11.21,0,0,1-2.36,1.21,12.5,12.5,0,0,1-2.51.64,16.51,16.51,0,0,1-2.48.19,11.67,11.67,0,0,1-4.42-.83,9.8,9.8,0,0,1-3.55-2.45,11.56,11.56,0,0,1-2.38-4,16.19,16.19,0,0,1-.87-5.54,13.62,13.62,0,0,1,.76-4.6,11,11,0,0,1,2.16-3.75,10.09,10.09,0,0,1,3.45-2.53A10.72,10.72,0,0,1,332.5,445.75Zm.11,4.13a4.91,4.91,0,0,0-3.75,1.42,7.18,7.18,0,0,0-1.73,4h10.3a7.27,7.27,0,0,0-.29-2.11,4.8,4.8,0,0,0-.88-1.73,4.3,4.3,0,0,0-1.51-1.18A4.93,4.93,0,0,0,332.61,449.88Z"/><path class="cls-2" d="M352.67,435.41V470h-5.49V435.41Z"/><path class="cls-2" d="M366.75,445.71a11.61,11.61,0,0,1,2.76.31,9.35,9.35,0,0,1,2.35.92h6.55v2.15a1.3,1.3,0,0,1-.26.84,1.55,1.55,0,0,1-.91.41l-2.05.4a8.59,8.59,0,0,1,.35,1.28,8.16,8.16,0,0,1,.12,1.42,7.44,7.44,0,0,1-.68,3.21,7.21,7.21,0,0,1-1.86,2.44,8.67,8.67,0,0,1-2.83,1.54,10.9,10.9,0,0,1-3.54.55,12.28,12.28,0,0,1-2.51-.25,1.87,1.87,0,0,0-1.06,1.52,1.13,1.13,0,0,0,.63,1.07,4.81,4.81,0,0,0,1.66.48,16.59,16.59,0,0,0,2.35.14c.87,0,1.77,0,2.68.12a19.58,19.58,0,0,1,2.69.41,7.54,7.54,0,0,1,2.35.92,4.89,4.89,0,0,1,1.66,1.72,5.54,5.54,0,0,1,.63,2.79,6.79,6.79,0,0,1-.74,3.09,8.24,8.24,0,0,1-2.15,2.67,11.2,11.2,0,0,1-3.46,1.88,14,14,0,0,1-4.66.71,17.15,17.15,0,0,1-4.51-.52,10.34,10.34,0,0,1-3.17-1.4,5.85,5.85,0,0,1-1.87-2,4.82,4.82,0,0,1-.62-2.37,4.18,4.18,0,0,1,1-2.82,6.71,6.71,0,0,1,2.71-1.82,3.85,3.85,0,0,1-1.35-1.31,3.94,3.94,0,0,1-.51-2.12,4,4,0,0,1,.17-1.1,4.36,4.36,0,0,1,.55-1.13,5.34,5.34,0,0,1,.92-1.07,6.4,6.4,0,0,1,1.31-.89,7.49,7.49,0,0,1-2.72-2.61,7.23,7.23,0,0,1-1-3.83,7.43,7.43,0,0,1,.68-3.2,7.08,7.08,0,0,1,1.89-2.45,8.56,8.56,0,0,1,2.86-1.55A11.88,11.88,0,0,1,366.75,445.71Zm6,25.33a1.67,1.67,0,0,0-.4-1.16,2.69,2.69,0,0,0-1.09-.71,8,8,0,0,0-1.61-.36,15,15,0,0,0-1.95-.12h-2.14a8.79,8.79,0,0,1-2.12-.26,5.1,5.1,0,0,0-1.5,1.27,2.73,2.73,0,0,0-.56,1.69,2.44,2.44,0,0,0,.3,1.18,2.59,2.59,0,0,0,.95.94,5.5,5.5,0,0,0,1.7.62,12.44,12.44,0,0,0,2.56.22,12,12,0,0,0,2.64-.25,6.25,6.25,0,0,0,1.83-.69,2.88,2.88,0,0,0,1.06-1.05A2.69,2.69,0,0,0,372.77,471Zm-6-13.54a5.07,5.07,0,0,0,1.78-.29,3.43,3.43,0,0,0,1.25-.81,3.23,3.23,0,0,0,.76-1.23,4.72,4.72,0,0,0,.25-1.58,3.81,3.81,0,0,0-1-2.81,4.93,4.93,0,0,0-6.06,0,3.85,3.85,0,0,0-1,2.81,4.68,4.68,0,0,0,.25,1.56,3.49,3.49,0,0,0,.76,1.24,3.36,3.36,0,0,0,1.27.82A5,5,0,0,0,366.75,457.5Z"/><path class="cls-2" d="M399.71,470h-2.46a2.44,2.44,0,0,1-1.22-.25,1.55,1.55,0,0,1-.67-1l-.49-1.7a19.17,19.17,0,0,1-1.7,1.44,10.17,10.17,0,0,1-1.72,1,8.4,8.4,0,0,1-1.89.63,10.74,10.74,0,0,1-2.22.21,8.11,8.11,0,0,1-2.66-.41,5.44,5.44,0,0,1-3.47-3.26,7.45,7.45,0,0,1-.49-2.83,5.86,5.86,0,0,1,.68-2.68,6.54,6.54,0,0,1,2.25-2.38,14,14,0,0,1,4.2-1.77,26,26,0,0,1,6.51-.7V455a5.51,5.51,0,0,0-1-3.58,3.45,3.45,0,0,0-2.81-1.16,6.73,6.73,0,0,0-2.22.32,8.84,8.84,0,0,0-1.54.74c-.44.27-.84.52-1.21.73a2.35,2.35,0,0,1-1.22.33,1.57,1.57,0,0,1-1-.3,2.31,2.31,0,0,1-.64-.75l-1-1.84a13.18,13.18,0,0,1,9.48-3.78,8.81,8.81,0,0,1,3.57.69,7.64,7.64,0,0,1,2.65,1.91,8.26,8.26,0,0,1,1.66,2.93,12,12,0,0,1,.56,3.73Zm-10.66-3.59a7,7,0,0,0,1.56-.16,6.1,6.1,0,0,0,1.34-.48,7.68,7.68,0,0,0,1.22-.79,12.15,12.15,0,0,0,1.19-1.12v-4a21.3,21.3,0,0,0-4,.32,10.17,10.17,0,0,0-2.59.81,3.42,3.42,0,0,0-1.39,1.15,2.67,2.67,0,0,0-.41,1.43,2.58,2.58,0,0,0,.86,2.18A3.54,3.54,0,0,0,389.05,466.45Z"/><path class="cls-2" d="M412.59,470.41a5.81,5.81,0,0,1-4.55-1.76,7,7,0,0,1-1.6-4.86V450.44h-2.31a1,1,0,0,1-.76-.31,1.16,1.16,0,0,1-.33-.9v-2.29l3.67-.63,1.15-6.52a1.24,1.24,0,0,1,.41-.73,1.28,1.28,0,0,1,.81-.25h2.85v7.53h6v4.1h-6v13a2.62,2.62,0,0,0,.53,1.74,1.77,1.77,0,0,0,1.42.63,2.66,2.66,0,0,0,.86-.12,5.84,5.84,0,0,0,.6-.27c.17-.1.32-.18.45-.27a.73.73,0,0,1,.4-.13.57.57,0,0,1,.4.13,1.88,1.88,0,0,1,.34.38l1.64,2.8a8.29,8.29,0,0,1-2.75,1.59A10.08,10.08,0,0,1,412.59,470.41Z"/><path class="cls-2" d="M431.72,445.75a10.41,10.41,0,0,1,4,.73,8.5,8.5,0,0,1,3.12,2.11,9.54,9.54,0,0,1,2.05,3.4,13.38,13.38,0,0,1,.73,4.6,7.9,7.9,0,0,1-.06,1.08,1.61,1.61,0,0,1-.2.68.8.8,0,0,1-.38.35,1.62,1.62,0,0,1-.63.11H426.23c.17,2.45.79,4.25,1.89,5.4a5.75,5.75,0,0,0,4.35,1.73,7.12,7.12,0,0,0,2.3-.33,10.86,10.86,0,0,0,1.69-.72l1.27-.72a2,2,0,0,1,1-.33,1.18,1.18,0,0,1,.58.14,1.33,1.33,0,0,1,.42.4l1.6,2.09a9.5,9.5,0,0,1-2,1.88,11.53,11.53,0,0,1-2.37,1.21,12.33,12.33,0,0,1-2.51.64,16.38,16.38,0,0,1-2.47.19,11.67,11.67,0,0,1-4.42-.83,9.84,9.84,0,0,1-3.56-2.45,11.56,11.56,0,0,1-2.38-4,16.44,16.44,0,0,1-.86-5.54,13.87,13.87,0,0,1,.75-4.6,11.22,11.22,0,0,1,2.17-3.75,10.15,10.15,0,0,1,3.44-2.53A10.79,10.79,0,0,1,431.72,445.75Zm.11,4.13a4.91,4.91,0,0,0-3.75,1.42,7.12,7.12,0,0,0-1.74,4h10.31a7.63,7.63,0,0,0-.29-2.11,4.82,4.82,0,0,0-.89-1.73,4.21,4.21,0,0,0-1.51-1.18A4.91,4.91,0,0,0,431.83,449.88Z"/><path class="cls-2" d="M454.06,452.7l-10.24-16.36h6a1.79,1.79,0,0,1,.89.17,1.49,1.49,0,0,1,.5.57l7.31,12.38c.08-.2.16-.4.25-.59a5.71,5.71,0,0,1,.31-.6l6.68-11.07a1.46,1.46,0,0,1,1.27-.86h5.73l-10.35,16.1L473,470h-6a1.37,1.37,0,0,1-1-.33,2.71,2.71,0,0,1-.61-.74L458,456.05a5.36,5.36,0,0,1-.2.53c-.08.16-.15.31-.23.45L450.46,469a3.43,3.43,0,0,1-.6.73,1.2,1.2,0,0,1-.88.34h-5.6Z"/><polygon class="cls-3" points="400.18 51.32 249.1 51.32 173.56 182.16 249.1 312.99 400.18 312.99 475.71 182.16 400.18 51.32"/><polygon class="cls-4" points="477.2 183.05 401.1 314.83 248.91 314.83 175.04 186.89 199.53 186.89 218.03 218.92 259.11 218.92 277.6 186.89 305.31 186.89 336.35 236.57 318.05 268.3 338.6 303.87 379.68 303.87 400.23 268.3 379.68 232.71 343.61 232.71 314.98 186.89 372.17 186.89 390.66 218.92 431.74 218.92 452.29 183.35 431.74 147.76 390.66 147.76 372.82 178.67 316.57 178.67 342.93 135.37 379.68 135.37 400.23 99.81 379.68 64.21 338.6 64.21 318.05 99.81 336.02 130.91 306.95 178.67 276.94 178.67 259.11 147.76 218.03 147.76 200.19 178.67 175.34 178.67 248.91 51.25 401.1 51.25 477.2 183.05"/></svg>