<svg xmlns="http://www.w3.org/2000/svg" viewBox="0 0 400.76 523"><defs><style>.cls-1{fill:#0c2340;}.cls-2{fill:#fff;}.cls-3{fill:#0b90de;}</style></defs><title>logos-RGB</title><g id="Capa_1" data-name="Capa 1"><path class="cls-1" d="M135.76,392a30,30,0,0,1-1.85,10.69,24.67,24.67,0,0,1-5.2,8.39,23.06,23.06,0,0,1-8.07,5.46,27.21,27.21,0,0,1-10.43,1.94H90.93v-53h19.28a26.84,26.84,0,0,1,10.43,2,23.47,23.47,0,0,1,8.07,5.46,24.49,24.49,0,0,1,5.2,8.37A30,30,0,0,1,135.76,392Zm-9.6,0a25.31,25.31,0,0,0-1.12-7.83,16.82,16.82,0,0,0-3.17-5.86,13.88,13.88,0,0,0-5-3.68,16.64,16.64,0,0,0-6.65-1.28H100.4v37.29h9.81a16.64,16.64,0,0,0,6.65-1.28,13.88,13.88,0,0,0,5-3.68,16.82,16.82,0,0,0,3.17-5.86A25.29,25.29,0,0,0,126.16,392Z"/><path class="cls-1" d="M169.57,398.91c.34.84.67,1.69,1,2.54.32-.88.66-1.74,1-2.6s.72-1.67,1.12-2.45l14.94-29.35a4.32,4.32,0,0,1,.58-.88,1.78,1.78,0,0,1,.66-.47,2.9,2.9,0,0,1,.82-.19q.45,0,1.08,0h7.09v53h-8.28V384.24c0-.64,0-1.34.06-2.09s.08-1.53.15-2.31l-15.25,30a4.18,4.18,0,0,1-1.36,1.59,3.4,3.4,0,0,1-2,.57h-1.29a3.4,3.4,0,0,1-2-.57,4.27,4.27,0,0,1-1.36-1.59l-15.46-30.15c.09.81.15,1.59.19,2.36s.05,1.49.05,2.15v34.21h-8.27v-53h7.09q.61,0,1.08,0a3,3,0,0,1,.82.19,2.14,2.14,0,0,1,.68.47,3.64,3.64,0,0,1,.59.88l15.08,29.42A25.81,25.81,0,0,1,169.57,398.91Z"/><path class="cls-1" d="M242.77,406a1.73,1.73,0,0,1,1.32.62l3.7,4.22a20.44,20.44,0,0,1-7.56,6.11A24.92,24.92,0,0,1,229.46,419a24.29,24.29,0,0,1-10.1-2,22.34,22.34,0,0,1-7.67-5.6,25,25,0,0,1-4.87-8.58A33.53,33.53,0,0,1,205.13,392,30.49,30.49,0,0,1,207,381a25,25,0,0,1,5.3-8.55,23.82,23.82,0,0,1,8.19-5.59,27,27,0,0,1,10.53-2,23.76,23.76,0,0,1,9.82,1.89,22.81,22.81,0,0,1,7.21,5l-3.14,4.58a2.91,2.91,0,0,1-.72.77,1.94,1.94,0,0,1-1.2.33,2.66,2.66,0,0,1-1.64-.66,20,20,0,0,0-2.13-1.43,17,17,0,0,0-3.27-1.43,16,16,0,0,0-5-.66,16.33,16.33,0,0,0-6.55,1.3,14.6,14.6,0,0,0-5.13,3.72,17.23,17.23,0,0,0-3.35,5.88,23.42,23.42,0,0,0-1.21,7.79,24,24,0,0,0,1.21,7.94,17.66,17.66,0,0,0,3.26,5.87,14,14,0,0,0,4.85,3.64,14.45,14.45,0,0,0,6,1.26,26,26,0,0,0,3.47-.21,14.08,14.08,0,0,0,2.86-.7,12.46,12.46,0,0,0,2.48-1.23,15.28,15.28,0,0,0,2.32-1.85,3.61,3.61,0,0,1,.74-.53A1.8,1.8,0,0,1,242.77,406Z"/><path class="cls-1" d="M248.25,392.55h18.08v7.55H248.25Z"/><path class="cls-1" d="M284.73,391.2l-16.1-25.72H278a2.85,2.85,0,0,1,1.42.27,2.52,2.52,0,0,1,.78.9l11.49,19.45c.11-.31.24-.63.38-.93a8.33,8.33,0,0,1,.49-.93l10.51-17.41a2.26,2.26,0,0,1,2-1.35h9l-16.26,25.31,16.72,27.66h-9.39a2.2,2.2,0,0,1-1.52-.51,4.69,4.69,0,0,1-1-1.17l-11.7-20.3a6.78,6.78,0,0,1-.31.83c-.12.25-.23.49-.35.71l-11.21,18.76a5.64,5.64,0,0,1-.94,1.15,2,2,0,0,1-1.4.53h-8.79Z"/><path class="cls-1" d="M55.49,470V435.41H61v13.65A10.83,10.83,0,0,1,64,446.65a8.46,8.46,0,0,1,4-.9,7.24,7.24,0,0,1,3.41.81,7.48,7.48,0,0,1,2.66,2.34,11.5,11.5,0,0,1,1.74,3.8,20.34,20.34,0,0,1,.61,5.2,17.09,17.09,0,0,1-.69,5,12.25,12.25,0,0,1-2,4,9.08,9.08,0,0,1-3.08,2.62,8.65,8.65,0,0,1-4.06.95,8.14,8.14,0,0,1-1.91-.22,6.68,6.68,0,0,1-1.57-.62,6.56,6.56,0,0,1-1.33-1,11.91,11.91,0,0,1-1.16-1.27l-.25,1.61a1.5,1.5,0,0,1-.45.86,1.4,1.4,0,0,1-.88.26Zm10.66-19.81a5.36,5.36,0,0,0-2.92.76A8.31,8.31,0,0,0,61,453.12v10.72a5.27,5.27,0,0,0,2,1.69,5.9,5.9,0,0,0,2.39.48,5.11,5.11,0,0,0,2.24-.49,4.55,4.55,0,0,0,1.7-1.49,7.55,7.55,0,0,0,1.08-2.53,15.27,15.27,0,0,0,.37-3.6,16.46,16.46,0,0,0-.32-3.56,6.88,6.88,0,0,0-.92-2.36,3.67,3.67,0,0,0-1.45-1.33A4.37,4.37,0,0,0,66.15,450.23Z"/><path class="cls-1" d="M88.1,476.61a2.25,2.25,0,0,1-.64.92,1.85,1.85,0,0,1-1.18.32H82.19l4.26-9.58-9.21-22.14H82a1.47,1.47,0,0,1,1,.32,2.17,2.17,0,0,1,.54.75l4.86,12.4a8.46,8.46,0,0,1,.42,1.26c.12.43.23.87.32,1.3.11-.45.24-.88.38-1.3s.3-.85.46-1.29L94.6,447.2a1.72,1.72,0,0,1,.59-.77,1.54,1.54,0,0,1,.93-.3h4.39Z"/><path class="cls-1" d="M135.23,436.34v5.15h-9.66V470h-6V441.49h-9.7v-5.15Z"/><path class="cls-1" d="M135.16,470V446.13h3.22a1.72,1.72,0,0,1,1.18.32,1.92,1.92,0,0,1,.44,1.12l.34,2.89A11.22,11.22,0,0,1,143.2,447a5.84,5.84,0,0,1,3.69-1.29,4.64,4.64,0,0,1,2.8.82l-.71,4.31a1,1,0,0,1-.29.6,1,1,0,0,1-.6.17,3.47,3.47,0,0,1-.91-.16,5.8,5.8,0,0,0-1.54-.17,4.53,4.53,0,0,0-2.93,1,7.68,7.68,0,0,0-2.06,2.91V470Z"/><path class="cls-1" d="M170.52,470h-2.46a2.44,2.44,0,0,1-1.22-.25,1.55,1.55,0,0,1-.67-1l-.49-1.7a19.17,19.17,0,0,1-1.7,1.44,10.17,10.17,0,0,1-1.72,1,8.4,8.4,0,0,1-1.89.63,10.74,10.74,0,0,1-2.22.21,8.11,8.11,0,0,1-2.66-.41,5.44,5.44,0,0,1-3.47-3.26,7.45,7.45,0,0,1-.49-2.83,5.86,5.86,0,0,1,.68-2.68,6.54,6.54,0,0,1,2.25-2.38,14,14,0,0,1,4.2-1.77,26,26,0,0,1,6.51-.7V455a5.51,5.51,0,0,0-1-3.58,3.45,3.45,0,0,0-2.81-1.16,6.73,6.73,0,0,0-2.22.32,8.84,8.84,0,0,0-1.54.74c-.44.27-.84.52-1.21.73a2.35,2.35,0,0,1-1.22.33,1.57,1.57,0,0,1-1-.3,2.31,2.31,0,0,1-.64-.75l-1-1.84a13.18,13.18,0,0,1,9.48-3.78,8.81,8.81,0,0,1,3.57.69,7.64,7.64,0,0,1,2.65,1.91,8.26,8.26,0,0,1,1.66,2.93,12,12,0,0,1,.56,3.73Zm-10.66-3.59a7,7,0,0,0,1.56-.16,6.1,6.1,0,0,0,1.34-.48A7.68,7.68,0,0,0,164,465a12.15,12.15,0,0,0,1.19-1.12v-4a21.3,21.3,0,0,0-4,.32,10.17,10.17,0,0,0-2.59.81,3.42,3.42,0,0,0-1.39,1.15,2.67,2.67,0,0,0-.41,1.43,2.58,2.58,0,0,0,.86,2.18A3.54,3.54,0,0,0,159.86,466.45Z"/><path class="cls-1" d="M186.54,470h-5l-9.06-23.91h4.55a1.66,1.66,0,0,1,1,.3,1.5,1.5,0,0,1,.57.77L183,460q.38,1.13.63,2.19c.17.72.32,1.43.46,2.15.13-.72.28-1.43.45-2.15a20.72,20.72,0,0,1,.66-2.19l4.51-12.77a1.51,1.51,0,0,1,.55-.77,1.57,1.57,0,0,1,1-.3h4.33Z"/><path class="cls-1" d="M207.5,445.75a10.47,10.47,0,0,1,4,.73,8.58,8.58,0,0,1,3.12,2.11,9.67,9.67,0,0,1,2,3.4,13.37,13.37,0,0,1,.74,4.6,7.9,7.9,0,0,1-.06,1.08,1.77,1.77,0,0,1-.2.68.87.87,0,0,1-.39.35,1.56,1.56,0,0,1-.62.11H202a8.42,8.42,0,0,0,1.89,5.4,5.72,5.72,0,0,0,4.35,1.73,7.16,7.16,0,0,0,2.3-.33,11.76,11.76,0,0,0,1.69-.72l1.26-.72a2,2,0,0,1,1.06-.33,1.15,1.15,0,0,1,.57.14,1.26,1.26,0,0,1,.43.4l1.6,2.09a9.32,9.32,0,0,1-2,1.88,11.21,11.21,0,0,1-2.36,1.21,12.5,12.5,0,0,1-2.51.64,16.41,16.41,0,0,1-2.48.19,11.71,11.71,0,0,1-4.42-.83,9.8,9.8,0,0,1-3.55-2.45,11.56,11.56,0,0,1-2.38-4,16.19,16.19,0,0,1-.87-5.54,13.87,13.87,0,0,1,.76-4.6,11,11,0,0,1,2.16-3.75,10.09,10.09,0,0,1,3.45-2.53A10.72,10.72,0,0,1,207.5,445.75Zm.11,4.13a4.93,4.93,0,0,0-3.75,1.42,7.18,7.18,0,0,0-1.73,4h10.3a7.63,7.63,0,0,0-.28-2.11,5,5,0,0,0-.89-1.73,4.3,4.3,0,0,0-1.51-1.18A4.93,4.93,0,0,0,207.61,449.88Z"/><path class="cls-1" d="M227.67,435.41V470h-5.49V435.41Z"/><path class="cls-1" d="M241.75,445.71a11.61,11.61,0,0,1,2.76.31,9.21,9.21,0,0,1,2.35.92h6.55v2.15a1.3,1.3,0,0,1-.26.84,1.52,1.52,0,0,1-.91.41l-2.05.4a7.53,7.53,0,0,1,.35,1.28,8.16,8.16,0,0,1,.12,1.42,7.44,7.44,0,0,1-.68,3.21,7.21,7.21,0,0,1-1.86,2.44,8.73,8.73,0,0,1-2.82,1.54,11,11,0,0,1-3.55.55,12.28,12.28,0,0,1-2.51-.25,1.87,1.87,0,0,0-1.06,1.52,1.13,1.13,0,0,0,.63,1.07,4.81,4.81,0,0,0,1.67.48,16.35,16.35,0,0,0,2.34.14c.87,0,1.77,0,2.69.12a19.68,19.68,0,0,1,2.68.41,7.54,7.54,0,0,1,2.35.92,4.81,4.81,0,0,1,1.66,1.72,5.44,5.44,0,0,1,.64,2.79,6.8,6.8,0,0,1-.75,3.09,8.11,8.11,0,0,1-2.15,2.67,11.09,11.09,0,0,1-3.46,1.88,14,14,0,0,1-4.66.71,17.15,17.15,0,0,1-4.51-.52,10.28,10.28,0,0,1-3.16-1.4,5.79,5.79,0,0,1-1.88-2,4.82,4.82,0,0,1-.62-2.37,4.18,4.18,0,0,1,1-2.82,6.78,6.78,0,0,1,2.71-1.82,3.85,3.85,0,0,1-1.35-1.31,3.94,3.94,0,0,1-.51-2.12,3.66,3.66,0,0,1,.18-1.1,4.32,4.32,0,0,1,.54-1.13,5.34,5.34,0,0,1,.92-1.07,6.4,6.4,0,0,1,1.31-.89,7.49,7.49,0,0,1-2.72-2.61,7.23,7.23,0,0,1-1-3.83,7.43,7.43,0,0,1,.68-3.2,7.08,7.08,0,0,1,1.89-2.45,8.66,8.66,0,0,1,2.86-1.55A11.93,11.93,0,0,1,241.75,445.71Zm6,25.33a1.67,1.67,0,0,0-.4-1.16,2.62,2.62,0,0,0-1.09-.71,8,8,0,0,0-1.61-.36,15,15,0,0,0-1.95-.12h-2.13a8.67,8.67,0,0,1-2.12-.26,4.86,4.86,0,0,0-1.5,1.27,2.68,2.68,0,0,0-.57,1.69,2.44,2.44,0,0,0,.3,1.18,2.59,2.59,0,0,0,1,.94,5.5,5.5,0,0,0,1.7.62,12.44,12.44,0,0,0,2.56.22,12,12,0,0,0,2.64-.25,6.25,6.25,0,0,0,1.83-.69,2.81,2.81,0,0,0,1.06-1.05A2.69,2.69,0,0,0,247.77,471Zm-6-13.54a5,5,0,0,0,1.78-.29,3.43,3.43,0,0,0,1.25-.81,3.23,3.23,0,0,0,.76-1.23,4.72,4.72,0,0,0,.26-1.58,3.82,3.82,0,0,0-1-2.81,4.93,4.93,0,0,0-6.06,0,3.85,3.85,0,0,0-1,2.81,4.68,4.68,0,0,0,.26,1.56,3.29,3.29,0,0,0,2,2.06A5,5,0,0,0,241.75,457.5Z"/><path class="cls-1" d="M274.71,470h-2.46a2.44,2.44,0,0,1-1.22-.25,1.55,1.55,0,0,1-.67-1l-.49-1.7a19.17,19.17,0,0,1-1.7,1.44,10.17,10.17,0,0,1-1.72,1,8.4,8.4,0,0,1-1.89.63,10.74,10.74,0,0,1-2.22.21,8.11,8.11,0,0,1-2.66-.41,5.44,5.44,0,0,1-3.47-3.26,7.65,7.65,0,0,1-.49-2.83,5.86,5.86,0,0,1,.68-2.68,6.54,6.54,0,0,1,2.25-2.38,14.25,14.25,0,0,1,4.2-1.77,26,26,0,0,1,6.51-.7V455a5.51,5.51,0,0,0-1-3.58,3.44,3.44,0,0,0-2.8-1.16,6.79,6.79,0,0,0-2.23.32,8.84,8.84,0,0,0-1.54.74c-.44.27-.84.52-1.21.73a2.35,2.35,0,0,1-1.22.33,1.57,1.57,0,0,1-1-.3,2.43,2.43,0,0,1-.64-.75l-1-1.84a13.18,13.18,0,0,1,9.48-3.78,8.78,8.78,0,0,1,3.57.69,7.64,7.64,0,0,1,2.65,1.91,8.26,8.26,0,0,1,1.66,2.93,12,12,0,0,1,.56,3.73Zm-10.66-3.59a7,7,0,0,0,1.56-.16,6.1,6.1,0,0,0,1.34-.48,7.68,7.68,0,0,0,1.22-.79,12.15,12.15,0,0,0,1.19-1.12v-4a21.3,21.3,0,0,0-4,.32,10.31,10.31,0,0,0-2.59.81,3.32,3.32,0,0,0-1.38,1.15,3,3,0,0,0,.44,3.61A3.54,3.54,0,0,0,264.05,466.45Z"/><path class="cls-1" d="M287.6,470.41a5.84,5.84,0,0,1-4.56-1.76,7,7,0,0,1-1.6-4.86V450.44h-2.31a1,1,0,0,1-.76-.31,1.15,1.15,0,0,1-.32-.9v-2.29l3.66-.63,1.15-6.52a1.2,1.2,0,0,1,.42-.73,1.24,1.24,0,0,1,.81-.25h2.84v7.53h6v4.1h-6v13a2.62,2.62,0,0,0,.53,1.74,1.77,1.77,0,0,0,1.42.63,2.66,2.66,0,0,0,.86-.12,5.84,5.84,0,0,0,.6-.27c.17-.1.32-.18.45-.27a.73.73,0,0,1,.4-.13.57.57,0,0,1,.4.13,1.88,1.88,0,0,1,.34.38l1.64,2.8a8.29,8.29,0,0,1-2.75,1.59A10,10,0,0,1,287.6,470.41Z"/><path class="cls-1" d="M306.72,445.75a10.38,10.38,0,0,1,4,.73,8.5,8.5,0,0,1,3.12,2.11,9.54,9.54,0,0,1,2.05,3.4,13.38,13.38,0,0,1,.73,4.6,10.31,10.31,0,0,1-.05,1.08,2,2,0,0,1-.2.68.87.87,0,0,1-.39.35,1.6,1.6,0,0,1-.62.11H301.23a8.53,8.53,0,0,0,1.89,5.4,5.75,5.75,0,0,0,4.35,1.73,7.12,7.12,0,0,0,2.3-.33,10.86,10.86,0,0,0,1.69-.72l1.27-.72a2,2,0,0,1,1-.33,1.16,1.16,0,0,1,.58.14,1.33,1.33,0,0,1,.42.4l1.6,2.09a9.5,9.5,0,0,1-2,1.88,11.53,11.53,0,0,1-2.37,1.21,12.33,12.33,0,0,1-2.51.64,16.28,16.28,0,0,1-2.47.19,11.67,11.67,0,0,1-4.42-.83,9.84,9.84,0,0,1-3.56-2.45,11.54,11.54,0,0,1-2.37-4,16.19,16.19,0,0,1-.87-5.54,13.87,13.87,0,0,1,.75-4.6,11.22,11.22,0,0,1,2.17-3.75,10.15,10.15,0,0,1,3.44-2.53A10.79,10.79,0,0,1,306.72,445.75Zm.11,4.13a4.91,4.91,0,0,0-3.75,1.42,7.19,7.19,0,0,0-1.74,4h10.31a7.63,7.63,0,0,0-.29-2.11,4.82,4.82,0,0,0-.89-1.73,4.21,4.21,0,0,0-1.51-1.18A4.88,4.88,0,0,0,306.83,449.88Z"/><path class="cls-1" d="M329.06,452.7l-10.24-16.36h6a1.86,1.86,0,0,1,.9.17,1.68,1.68,0,0,1,.5.57l7.3,12.38c.08-.2.16-.4.25-.59a5.71,5.71,0,0,1,.31-.6l6.68-11.07a1.46,1.46,0,0,1,1.27-.86h5.73l-10.35,16.1L348,470h-6a1.37,1.37,0,0,1-1-.33,2.71,2.71,0,0,1-.61-.74L333,456.05a5.36,5.36,0,0,1-.2.53c-.08.16-.15.31-.23.45L325.47,469a4.16,4.16,0,0,1-.6.73,1.24,1.24,0,0,1-.89.34h-5.6Z"/><polygon class="cls-2" points="275.9 52.2 124.83 52.2 49.29 183.04 124.83 313.87 275.9 313.87 351.44 183.04 275.9 52.2"/><path class="cls-3" d="M144.13,147.65a195.57,195.57,0,0,1,170.27,99.6L351.48,183,275.94,52.21H124.86L58.26,167.56A194.25,194.25,0,0,1,144.13,147.65Z"/><path class="cls-3" d="M307.5,259.21a183.53,183.53,0,0,0-257-74.08l74.33,128.74H275.94Z"/><path class="cls-2" d="M201,276.48A18.09,18.09,0,0,1,184.11,265l-37.92-95.5a53.18,53.18,0,0,1-1.29-35.93c8.52-26.31,31.07-44,56.1-44s47.59,17.68,56.1,44a53.12,53.12,0,0,1-1.28,35.93L217.9,265A18.09,18.09,0,0,1,201,276.48Z"/><path class="cls-3" d="M201,94.91c23.45,0,43.43,16.79,51.05,40.31a48.16,48.16,0,0,1-1.17,32.34L213,263.05a12.86,12.86,0,0,1-23.91,0l-37.93-95.49A48.22,48.22,0,0,1,150,135.22c7.62-23.52,27.6-40.31,51-40.31m0-10.63c-27.34,0-51.92,19.16-61.15,47.67a58.51,58.51,0,0,0,1.4,39.54L179.17,267a23.5,23.5,0,0,0,43.67,0l37.92-95.49a58.52,58.52,0,0,0,1.4-39.54c-9.23-28.51-33.81-47.67-61.16-47.67Z"/><path class="cls-3" d="M193.36,177.29a1.85,1.85,0,0,0,1.85,1.85h11.58a1.85,1.85,0,0,0,1.86-1.85V173.7a29.32,29.32,0,0,0,6.95-2.88l2.53,2.53a1.86,1.86,0,0,0,2.62,0l8.19-8.19a1.86,1.86,0,0,0,0-2.62L226.41,160a29.22,29.22,0,0,0,2.88-7h3.58a1.85,1.85,0,0,0,1.85-1.85V139.62a1.85,1.85,0,0,0-1.85-1.85h-3.58a29.15,29.15,0,0,0-2.88-7l2.52-2.52a1.86,1.86,0,0,0,0-2.62l-8.2-8.19a1.86,1.86,0,0,0-2.62,0L215.6,120a28.91,28.91,0,0,0-6.95-2.88v-3.56a1.85,1.85,0,0,0-1.86-1.85H195.21a1.85,1.85,0,0,0-1.85,1.85v3.56a28.91,28.91,0,0,0-7,2.88l-2.52-2.52a1.85,1.85,0,0,0-2.61,0l-8.2,8.19a1.86,1.86,0,0,0,0,2.62l2.52,2.52a29.15,29.15,0,0,0-2.88,7h-3.57a1.85,1.85,0,0,0-1.85,1.85V151.2a1.89,1.89,0,0,0,.54,1.31,1.85,1.85,0,0,0,1.31.54h3.58a29.22,29.22,0,0,0,2.88,7l-2.53,2.53a1.86,1.86,0,0,0,0,2.62l8.18,8.19a1.85,1.85,0,0,0,1.31.54h0a1.81,1.81,0,0,0,1.3-.54l2.54-2.53a29.32,29.32,0,0,0,7,2.88Zm-6.22-10.37a1.86,1.86,0,0,0-2.32.25l-2.25,2.25L177,163.85l2.25-2.25a1.86,1.86,0,0,0,.25-2.32,25.4,25.4,0,0,1-3.51-8.47,1.86,1.86,0,0,0-1.81-1.46H171v-7.88h3.18A1.86,1.86,0,0,0,176,140a25.4,25.4,0,0,1,3.51-8.47,1.85,1.85,0,0,0-.25-2.31L177,127l5.57-5.57,2.24,2.24a1.86,1.86,0,0,0,2.32.25,25.06,25.06,0,0,1,8.46-3.51,1.86,1.86,0,0,0,1.47-1.81v-3.17h7.87v3.16a1.86,1.86,0,0,0,1.47,1.82,25.21,25.21,0,0,1,8.46,3.5,1.85,1.85,0,0,0,2.32-.24l2.23-2.24L225,127l-2.24,2.24a1.85,1.85,0,0,0-.25,2.31A25.4,25.4,0,0,1,226,140a1.85,1.85,0,0,0,1.81,1.46H231v7.88h-3.18a1.85,1.85,0,0,0-1.81,1.46,25.4,25.4,0,0,1-3.51,8.47,1.86,1.86,0,0,0,.25,2.32l2.25,2.25-5.57,5.57-2.25-2.25a1.86,1.86,0,0,0-2.32-.25,25.43,25.43,0,0,1-8.46,3.51,1.85,1.85,0,0,0-1.47,1.81v3.2h-7.87v-3.2a1.85,1.85,0,0,0-1.47-1.81A25.26,25.26,0,0,1,187.14,166.92Z"/><path class="cls-3" d="M168.63,150.86l.49-10.48,5-.88,3.24-8.43-2.26-3.28s7.25-8.18,7.64-8.18,2.51,2.06,3,2.16,8.3-3.14,8.3-3.14l2.44-4.7,9.8-.49.88,5.49,8.13,3.62,4.51-2.64,6.85,6.56-2.74,4.7L228,139.4l4.12.78v9.9L228,151.84l-3.92,8.89,2.75,3.06-7.54,9.11-3-4.31-9,4.31-1,4.7h-11l-.49-5.39-8.62-3.53-3.53,2.84-8.62-7.73,3.82-3.72-3.72-8.92Z"/><circle class="cls-2" cx="200.8" cy="145.23" r="12.58"/></g></svg>