<svg id="Capa_1" data-name="Capa 1" xmlns="http://www.w3.org/2000/svg" viewBox="0 0 400.76 523"><defs><style>.cls-1{fill:#fff;}.cls-2{fill:#ff6d33;}</style></defs><title>logos-RGB</title><path class="cls-1" d="M84.35,365.48v7.84H62V389H80.86v7.87H62v21.58H52.51v-53Z"/><path class="cls-1" d="M101.11,410.32h20.21v8.13H91.72v-53h9.39Z"/><path class="cls-1" d="M138.4,418.45H129v-53h9.43Z"/><path class="cls-1" d="M172.92,411.2a22.13,22.13,0,0,0,5.54-.61,22.88,22.88,0,0,0,4.48-1.66v-9.64h-6.32a1.94,1.94,0,0,1-1.43-.53,1.77,1.77,0,0,1-.52-1.3v-5.57h16.79v21.43a27,27,0,0,1-4,2.55,25.14,25.14,0,0,1-4.43,1.78,32.76,32.76,0,0,1-5,1,45.77,45.77,0,0,1-5.8.35A25.15,25.15,0,0,1,162,417a24.16,24.16,0,0,1-8-5.6,25.69,25.69,0,0,1-5.29-8.58,30.17,30.17,0,0,1-1.9-10.87,31.31,31.31,0,0,1,1.85-11,24.93,24.93,0,0,1,5.25-8.57,23.5,23.5,0,0,1,8.26-5.57,28.63,28.63,0,0,1,10.89-2,27.05,27.05,0,0,1,10.7,1.93,24.37,24.37,0,0,1,7.67,5l-2.73,4.47a2.4,2.4,0,0,1-2.13,1.35,3,3,0,0,1-1.71-.59l-2.28-1.39a15.89,15.89,0,0,0-2.59-1.21,20.49,20.49,0,0,0-3.17-.84,22.34,22.34,0,0,0-4.07-.33A16.74,16.74,0,0,0,166,374.6a14.42,14.42,0,0,0-5.15,3.77,17.34,17.34,0,0,0-3.28,5.9,24.13,24.13,0,0,0-1.15,7.7,25.3,25.3,0,0,0,1.22,8.15,17.39,17.39,0,0,0,3.42,6,14.83,14.83,0,0,0,5.24,3.76A16.83,16.83,0,0,0,172.92,411.2Z"/><path class="cls-1" d="M242.82,418.45h-9.46V395.3H209.69v23.15h-9.47v-53h9.47v22.78h23.67V365.48h9.46Z"/><path class="cls-1" d="M288.59,365.48v8.09H273.4v44.88H264V373.57H248.75v-8.09Z"/><path class="cls-1" d="M286.66,392.55h18.09v7.55H286.66Z"/><path class="cls-1" d="M323.15,391.2l-16.1-25.72h9.36a2.78,2.78,0,0,1,1.41.27,2.44,2.44,0,0,1,.79.9L330.1,386.1c.11-.31.24-.63.38-.93a8.33,8.33,0,0,1,.49-.93l10.51-17.41a2.26,2.26,0,0,1,2-1.35h9l-16.26,25.31,16.72,27.66h-9.39a2.2,2.2,0,0,1-1.52-.51,4.48,4.48,0,0,1-1-1.17l-11.7-20.3c-.09.29-.2.57-.31.83s-.23.49-.35.71l-11.21,18.76a5.64,5.64,0,0,1-.94,1.15,2,2,0,0,1-1.4.53h-8.79Z"/><path class="cls-1" d="M55.49,470V435.41H61v13.65A10.83,10.83,0,0,1,64,446.65a8.46,8.46,0,0,1,4-.9,7.24,7.24,0,0,1,3.41.81,7.48,7.48,0,0,1,2.66,2.34,11.5,11.5,0,0,1,1.74,3.8,20.34,20.34,0,0,1,.61,5.2,17.09,17.09,0,0,1-.69,5,12.45,12.45,0,0,1-2,4,9.08,9.08,0,0,1-3.08,2.62,8.65,8.65,0,0,1-4.06.95,8.14,8.14,0,0,1-1.91-.22,6.93,6.93,0,0,1-1.58-.62,6.79,6.79,0,0,1-1.32-1,11.91,11.91,0,0,1-1.16-1.27l-.25,1.61a1.5,1.5,0,0,1-.45.86,1.4,1.4,0,0,1-.88.26Zm10.66-19.81a5.36,5.36,0,0,0-2.92.76A8.31,8.31,0,0,0,61,453.12v10.72a5.27,5.27,0,0,0,2,1.69,5.9,5.9,0,0,0,2.39.48,5.15,5.15,0,0,0,2.24-.49,4.55,4.55,0,0,0,1.7-1.49,8,8,0,0,0,1.08-2.53,15.27,15.27,0,0,0,.37-3.6,16.46,16.46,0,0,0-.32-3.56,6.88,6.88,0,0,0-.92-2.36,3.69,3.69,0,0,0-1.46-1.33A4.32,4.32,0,0,0,66.15,450.23Z"/><path class="cls-1" d="M88.1,476.61a2.25,2.25,0,0,1-.64.92,1.86,1.86,0,0,1-1.19.32H82.19l4.26-9.58-9.22-22.14H82a1.47,1.47,0,0,1,1,.32,2.17,2.17,0,0,1,.54.75l4.86,12.4a11.63,11.63,0,0,1,.42,1.26c.12.43.23.87.31,1.3.12-.45.25-.88.39-1.3s.3-.85.46-1.29L94.6,447.2a1.72,1.72,0,0,1,.59-.77,1.53,1.53,0,0,1,.92-.3h4.4Z"/><path class="cls-1" d="M135.23,436.34v5.15h-9.66V470h-6V441.49h-9.71v-5.15Z"/><path class="cls-1" d="M135.16,470V446.13h3.22a1.72,1.72,0,0,1,1.18.32,1.92,1.92,0,0,1,.44,1.12l.34,2.89A11.08,11.08,0,0,1,143.2,447a5.84,5.84,0,0,1,3.69-1.29,4.64,4.64,0,0,1,2.8.82l-.71,4.31a1,1,0,0,1-.29.6,1,1,0,0,1-.6.17,3.47,3.47,0,0,1-.91-.16,5.8,5.8,0,0,0-1.54-.17,4.52,4.52,0,0,0-2.93,1,7.68,7.68,0,0,0-2.06,2.91V470Z"/><path class="cls-1" d="M170.52,470h-2.46a2.51,2.51,0,0,1-1.23-.25,1.58,1.58,0,0,1-.66-1l-.49-1.7a19.17,19.17,0,0,1-1.7,1.44,10.58,10.58,0,0,1-1.72,1,8.4,8.4,0,0,1-1.89.63,10.87,10.87,0,0,1-2.22.21,8.21,8.21,0,0,1-2.67-.41,5.78,5.78,0,0,1-2.1-1.22,5.62,5.62,0,0,1-1.36-2,7.45,7.45,0,0,1-.49-2.83,5.86,5.86,0,0,1,.68-2.68,6.54,6.54,0,0,1,2.25-2.38,14,14,0,0,1,4.2-1.77,26,26,0,0,1,6.51-.7V455a5.51,5.51,0,0,0-1-3.58,3.45,3.45,0,0,0-2.81-1.16,6.68,6.68,0,0,0-2.22.32,8.51,8.51,0,0,0-1.54.74c-.44.27-.84.52-1.21.73a2.35,2.35,0,0,1-1.22.33,1.57,1.57,0,0,1-1-.3,2.31,2.31,0,0,1-.64-.75l-1-1.84a13.18,13.18,0,0,1,9.48-3.78,8.81,8.81,0,0,1,3.57.69,7.73,7.73,0,0,1,2.65,1.91,8.26,8.26,0,0,1,1.66,2.93,12,12,0,0,1,.56,3.73Zm-10.66-3.59a6.83,6.83,0,0,0,1.55-.16,6,6,0,0,0,1.35-.48A7.68,7.68,0,0,0,164,465a12.15,12.15,0,0,0,1.19-1.12v-4a21.3,21.3,0,0,0-4,.32,10.17,10.17,0,0,0-2.59.81,3.42,3.42,0,0,0-1.39,1.15,2.67,2.67,0,0,0-.41,1.43,2.58,2.58,0,0,0,.86,2.18A3.54,3.54,0,0,0,159.86,466.45Z"/><path class="cls-1" d="M186.54,470h-5l-9.06-23.91h4.55a1.66,1.66,0,0,1,1,.3,1.5,1.5,0,0,1,.57.77L183,460q.38,1.13.63,2.19c.17.72.32,1.43.46,2.15.13-.72.28-1.43.45-2.15a20.72,20.72,0,0,1,.66-2.19l4.5-12.77a1.59,1.59,0,0,1,.56-.77,1.54,1.54,0,0,1,1-.3h4.34Z"/><path class="cls-1" d="M207.5,445.75a10.47,10.47,0,0,1,4,.73,8.67,8.67,0,0,1,3.12,2.11,9.67,9.67,0,0,1,2,3.4,13.38,13.38,0,0,1,.73,4.6,8.14,8.14,0,0,1-.05,1.08,1.77,1.77,0,0,1-.2.68.87.87,0,0,1-.39.35,1.56,1.56,0,0,1-.62.11H202a8.48,8.48,0,0,0,1.88,5.4,5.75,5.75,0,0,0,4.36,1.73,7.16,7.16,0,0,0,2.3-.33,11.76,11.76,0,0,0,1.69-.72l1.26-.72a2,2,0,0,1,1.06-.33,1.15,1.15,0,0,1,.57.14,1.26,1.26,0,0,1,.43.4l1.59,2.09a9.06,9.06,0,0,1-2,1.88,11.21,11.21,0,0,1-2.36,1.21,12.5,12.5,0,0,1-2.51.64,16.51,16.51,0,0,1-2.48.19,11.67,11.67,0,0,1-4.42-.83,9.8,9.8,0,0,1-3.55-2.45,11.56,11.56,0,0,1-2.38-4,16.19,16.19,0,0,1-.87-5.54,13.62,13.62,0,0,1,.76-4.6,11,11,0,0,1,2.16-3.75,10.09,10.09,0,0,1,3.45-2.53A10.72,10.72,0,0,1,207.5,445.75Zm.11,4.13a4.91,4.91,0,0,0-3.75,1.42,7.18,7.18,0,0,0-1.73,4h10.3a7.27,7.27,0,0,0-.29-2.11,4.8,4.8,0,0,0-.88-1.73,4.3,4.3,0,0,0-1.51-1.18A4.93,4.93,0,0,0,207.61,449.88Z"/><path class="cls-1" d="M227.67,435.41V470h-5.49V435.41Z"/><path class="cls-1" d="M241.75,445.71a11.61,11.61,0,0,1,2.76.31,9.35,9.35,0,0,1,2.35.92h6.55v2.15a1.3,1.3,0,0,1-.26.84,1.55,1.55,0,0,1-.91.41l-2.05.4a8.59,8.59,0,0,1,.35,1.28,8.16,8.16,0,0,1,.12,1.42,7.44,7.44,0,0,1-.68,3.21,7.21,7.21,0,0,1-1.86,2.44,8.67,8.67,0,0,1-2.83,1.54,10.9,10.9,0,0,1-3.54.55,12.28,12.28,0,0,1-2.51-.25,1.87,1.87,0,0,0-1.06,1.52,1.13,1.13,0,0,0,.63,1.07,4.81,4.81,0,0,0,1.66.48,16.59,16.59,0,0,0,2.35.14c.87,0,1.77,0,2.68.12a19.58,19.58,0,0,1,2.69.41,7.54,7.54,0,0,1,2.35.92,4.89,4.89,0,0,1,1.66,1.72,5.54,5.54,0,0,1,.64,2.79,6.8,6.8,0,0,1-.75,3.09,8.24,8.24,0,0,1-2.15,2.67,11.2,11.2,0,0,1-3.46,1.88,14,14,0,0,1-4.66.71,17.15,17.15,0,0,1-4.51-.52,10.45,10.45,0,0,1-3.17-1.4,5.85,5.85,0,0,1-1.87-2,4.82,4.82,0,0,1-.62-2.37,4.18,4.18,0,0,1,1-2.82,6.71,6.71,0,0,1,2.71-1.82,3.85,3.85,0,0,1-1.35-1.31,3.94,3.94,0,0,1-.51-2.12,4,4,0,0,1,.17-1.1,4.36,4.36,0,0,1,.55-1.13,5.34,5.34,0,0,1,.92-1.07,6.4,6.4,0,0,1,1.31-.89,7.49,7.49,0,0,1-2.72-2.61,7.23,7.23,0,0,1-1-3.83,7.43,7.43,0,0,1,.68-3.2,7.08,7.08,0,0,1,1.89-2.45,8.56,8.56,0,0,1,2.86-1.55A11.93,11.93,0,0,1,241.75,445.71Zm6,25.33a1.67,1.67,0,0,0-.4-1.16,2.69,2.69,0,0,0-1.09-.71,8,8,0,0,0-1.61-.36,15,15,0,0,0-1.95-.12h-2.13a8.81,8.81,0,0,1-2.13-.26,5.1,5.1,0,0,0-1.5,1.27,2.73,2.73,0,0,0-.56,1.69,2.44,2.44,0,0,0,.3,1.18,2.59,2.59,0,0,0,1,.94,5.5,5.5,0,0,0,1.7.62,12.44,12.44,0,0,0,2.56.22,12,12,0,0,0,2.64-.25,6.25,6.25,0,0,0,1.83-.69,2.88,2.88,0,0,0,1.06-1.05A2.69,2.69,0,0,0,247.77,471Zm-6-13.54a5.07,5.07,0,0,0,1.78-.29,3.43,3.43,0,0,0,1.25-.81,3.23,3.23,0,0,0,.76-1.23,4.72,4.72,0,0,0,.25-1.58,3.81,3.81,0,0,0-1-2.81,4.93,4.93,0,0,0-6.06,0,3.85,3.85,0,0,0-1,2.81,4.68,4.68,0,0,0,.25,1.56,3.49,3.49,0,0,0,.76,1.24,3.36,3.36,0,0,0,1.27.82A5,5,0,0,0,241.75,457.5Z"/><path class="cls-1" d="M274.71,470h-2.46a2.44,2.44,0,0,1-1.22-.25,1.55,1.55,0,0,1-.67-1l-.49-1.7a19.17,19.17,0,0,1-1.7,1.44,10.17,10.17,0,0,1-1.72,1,8.4,8.4,0,0,1-1.89.63,10.74,10.74,0,0,1-2.22.21,8.11,8.11,0,0,1-2.66-.41,5.44,5.44,0,0,1-3.47-3.26,7.45,7.45,0,0,1-.49-2.83,5.86,5.86,0,0,1,.68-2.68,6.54,6.54,0,0,1,2.25-2.38,14.14,14.14,0,0,1,4.2-1.77,26,26,0,0,1,6.51-.7V455a5.51,5.51,0,0,0-1-3.58,3.45,3.45,0,0,0-2.81-1.16,6.77,6.77,0,0,0-2.22.32,8.84,8.84,0,0,0-1.54.74c-.44.27-.84.52-1.21.73a2.35,2.35,0,0,1-1.22.33,1.57,1.57,0,0,1-1-.3,2.43,2.43,0,0,1-.64-.75l-1-1.84a13.18,13.18,0,0,1,9.48-3.78,8.81,8.81,0,0,1,3.57.69,7.64,7.64,0,0,1,2.65,1.91,8.26,8.26,0,0,1,1.66,2.93,12,12,0,0,1,.56,3.73Zm-10.66-3.59a7,7,0,0,0,1.56-.16,6.1,6.1,0,0,0,1.34-.48,7.68,7.68,0,0,0,1.22-.79,12.15,12.15,0,0,0,1.19-1.12v-4a21.3,21.3,0,0,0-4,.32,10.17,10.17,0,0,0-2.59.81,3.32,3.32,0,0,0-1.38,1.15,3,3,0,0,0,.44,3.61A3.54,3.54,0,0,0,264.05,466.45Z"/><path class="cls-1" d="M287.59,470.41a5.83,5.83,0,0,1-4.55-1.76,7,7,0,0,1-1.6-4.86V450.44h-2.31a1,1,0,0,1-.76-.31,1.16,1.16,0,0,1-.33-.9v-2.29l3.67-.63,1.15-6.52a1.24,1.24,0,0,1,.41-.73,1.29,1.29,0,0,1,.82-.25h2.84v7.53h6v4.1h-6v13a2.62,2.62,0,0,0,.53,1.74,1.77,1.77,0,0,0,1.42.63,2.66,2.66,0,0,0,.86-.12,5.84,5.84,0,0,0,.6-.27c.17-.1.32-.18.45-.27a.73.73,0,0,1,.4-.13.57.57,0,0,1,.4.13,1.88,1.88,0,0,1,.34.38l1.64,2.8a8.29,8.29,0,0,1-2.75,1.59A10,10,0,0,1,287.59,470.41Z"/><path class="cls-1" d="M306.72,445.75a10.41,10.41,0,0,1,4,.73,8.5,8.5,0,0,1,3.12,2.11,9.54,9.54,0,0,1,2.05,3.4,13.38,13.38,0,0,1,.73,4.6,7.9,7.9,0,0,1-.06,1.08,1.78,1.78,0,0,1-.19.68.87.87,0,0,1-.39.35,1.62,1.62,0,0,1-.63.11H301.23c.17,2.45.79,4.25,1.89,5.4a5.75,5.75,0,0,0,4.35,1.73,7.12,7.12,0,0,0,2.3-.33,10.86,10.86,0,0,0,1.69-.72l1.27-.72a2,2,0,0,1,1-.33,1.18,1.18,0,0,1,.58.14,1.33,1.33,0,0,1,.42.4l1.6,2.09a9.5,9.5,0,0,1-2,1.88,11.53,11.53,0,0,1-2.37,1.21,12.33,12.33,0,0,1-2.51.64,16.38,16.38,0,0,1-2.47.19,11.67,11.67,0,0,1-4.42-.83,9.84,9.84,0,0,1-3.56-2.45,11.56,11.56,0,0,1-2.38-4,16.44,16.44,0,0,1-.86-5.54,13.87,13.87,0,0,1,.75-4.6,11.22,11.22,0,0,1,2.17-3.75,10.15,10.15,0,0,1,3.44-2.53A10.79,10.79,0,0,1,306.72,445.75Zm.11,4.13a4.91,4.91,0,0,0-3.75,1.42,7.12,7.12,0,0,0-1.74,4h10.31a7.63,7.63,0,0,0-.29-2.11,4.82,4.82,0,0,0-.89-1.73,4.21,4.21,0,0,0-1.51-1.18A4.91,4.91,0,0,0,306.83,449.88Z"/><path class="cls-1" d="M329.06,452.7l-10.24-16.36h6a1.79,1.79,0,0,1,.89.17,1.49,1.49,0,0,1,.5.57l7.31,12.38c.08-.2.16-.4.25-.59a5.71,5.71,0,0,1,.31-.6l6.68-11.07a1.46,1.46,0,0,1,1.27-.86h5.73l-10.35,16.1L348,470h-6a1.37,1.37,0,0,1-1-.33,2.71,2.71,0,0,1-.61-.74L333,456.05a5.36,5.36,0,0,1-.2.53c-.08.16-.15.31-.23.45L325.46,469a3.43,3.43,0,0,1-.6.73,1.2,1.2,0,0,1-.88.34h-5.6Z"/><polygon class="cls-1" points="275.92 52.2 124.84 52.2 49.31 183.04 124.84 313.87 275.92 313.87 351.46 183.04 275.92 52.2"/><polygon class="cls-1" points="275.91 52.2 124.84 52.2 49.3 183.04 124.84 313.87 275.91 313.87 351.45 183.04 275.91 52.2"/><path class="cls-2" d="M275.92,52.21H124.84L49.3,183.05l75.54,130.81H275.92l75.54-130.81ZM219.31,254.4l-17.57,10.06L205,207.83l30.2-17.33Zm-62.4-29.92L90.48,204.16l17-9.77,35.2,5.36,38.47-22-77.8-21.11L123.7,145l94.83,11.31,40.93-23.47,41.65,9Z"/></svg>