<svg id="Capa_1" data-name="Capa 1" xmlns="http://www.w3.org/2000/svg" viewBox="0 0 644.76 523"><defs><style>.cls-1{fill:#0c2340;}.cls-2{fill:#fff;}.cls-3{fill:#0bc8de;}</style></defs><title>logos-RGB</title><path class="cls-1" d="M95.54,418.45H86.08V395.3H62.41v23.15H53v-53h9.46v22.78H86.08V365.48h9.46Z"/><path class="cls-1" d="M154.16,392a30.7,30.7,0,0,1-1.85,10.78,25.67,25.67,0,0,1-5.2,8.59A23.42,23.42,0,0,1,139,417a27.76,27.76,0,0,1-20.89,0,23.44,23.44,0,0,1-8.1-5.66,25.39,25.39,0,0,1-5.22-8.59,32.36,32.36,0,0,1,0-21.57,25.39,25.39,0,0,1,5.22-8.59,23.44,23.44,0,0,1,8.1-5.66,27.7,27.7,0,0,1,20.89,0,24,24,0,0,1,8.07,5.66,25.63,25.63,0,0,1,5.2,8.58A30.71,30.71,0,0,1,154.16,392Zm-9.64,0a25.63,25.63,0,0,0-1.1-7.83,16.9,16.9,0,0,0-3.15-5.88,13.82,13.82,0,0,0-5-3.7,18,18,0,0,0-13.32,0,13.88,13.88,0,0,0-5,3.7,17,17,0,0,0-3.19,5.88,27.9,27.9,0,0,0,0,15.65,16.69,16.69,0,0,0,3.19,5.86,13.94,13.94,0,0,0,5,3.68,18,18,0,0,0,13.32,0,13.88,13.88,0,0,0,5-3.68,16.63,16.63,0,0,0,3.15-5.86A25.61,25.61,0,0,0,144.52,392Z"/><path class="cls-1" d="M194.41,365.48v8.09H179.23v44.88h-9.39V373.57H154.58v-8.09Z"/><path class="cls-1" d="M232.22,365.48v7.84H209.85V388h17.63v7.58H209.85v15h22.37v7.87H200.38v-53Z"/><path class="cls-1" d="M249.75,410.32H270v8.13h-29.6v-53h9.39Z"/><path class="cls-1" d="M334.76,392a30,30,0,0,1-1.85,10.69,24.83,24.83,0,0,1-5.2,8.39,23.15,23.15,0,0,1-8.07,5.46,27.23,27.23,0,0,1-10.44,1.94H289.93v-53H309.2a26.86,26.86,0,0,1,10.44,2,23.56,23.56,0,0,1,8.07,5.46,24.64,24.64,0,0,1,5.2,8.37A30,30,0,0,1,334.76,392Zm-9.6,0a25.61,25.61,0,0,0-1.12-7.83,16.68,16.68,0,0,0-3.18-5.86,13.71,13.71,0,0,0-5-3.68,16.57,16.57,0,0,0-6.65-1.28h-9.81v37.29h9.81a16.57,16.57,0,0,0,6.65-1.28,13.71,13.71,0,0,0,5-3.68,16.68,16.68,0,0,0,3.18-5.86A25.59,25.59,0,0,0,325.16,392Z"/><path class="cls-1" d="M352.7,418.45h-9.42v-53h9.42Z"/><path class="cls-1" d="M373.76,397.75v20.7h-9.4v-53h15.4a30.59,30.59,0,0,1,8.85,1.12,16.35,16.35,0,0,1,6,3.13,12.12,12.12,0,0,1,3.46,4.82,17.64,17.64,0,0,1,.35,11.22,15.3,15.3,0,0,1-2.17,4.33,14.85,14.85,0,0,1-3.49,3.4,18,18,0,0,1-4.73,2.35,9.46,9.46,0,0,1,3.07,3l12.64,19.56h-8.45a4,4,0,0,1-2.08-.51,4.23,4.23,0,0,1-1.44-1.47l-10.62-17a3.7,3.7,0,0,0-1.31-1.35,4.38,4.38,0,0,0-2.11-.41Zm0-7.07h5.86a14.06,14.06,0,0,0,4.63-.69,8.93,8.93,0,0,0,3.24-1.93,7.73,7.73,0,0,0,1.91-2.91,10.49,10.49,0,0,0,.62-3.7,7.68,7.68,0,0,0-2.53-6.19q-2.52-2.16-7.73-2.16h-6Z"/><path class="cls-1" d="M441.62,365.48v7.84H419.25V388h17.63v7.58H419.25v15h22.37v7.87H409.78v-53Z"/><path class="cls-1" d="M484.46,406a1.76,1.76,0,0,1,1.33.62l3.7,4.22a20.44,20.44,0,0,1-7.56,6.11A24.92,24.92,0,0,1,471.16,419a24.31,24.31,0,0,1-10.11-2,22.3,22.3,0,0,1-7.66-5.6,24.81,24.81,0,0,1-4.87-8.58,33.53,33.53,0,0,1-1.7-10.87A30.49,30.49,0,0,1,448.71,381a25.22,25.22,0,0,1,5.31-8.55,23.87,23.87,0,0,1,8.18-5.59,27,27,0,0,1,10.53-2,23.81,23.81,0,0,1,9.83,1.89,22.92,22.92,0,0,1,7.21,5l-3.15,4.58a2.87,2.87,0,0,1-.71.77,2,2,0,0,1-1.21.33,2.68,2.68,0,0,1-1.64-.66,19,19,0,0,0-2.13-1.43,17.18,17.18,0,0,0-3.26-1.43,16,16,0,0,0-5-.66,16.36,16.36,0,0,0-6.55,1.3A14.6,14.6,0,0,0,461,378.3a17.23,17.23,0,0,0-3.35,5.88,23.68,23.68,0,0,0-1.2,7.79,24.31,24.31,0,0,0,1.2,7.94,17.5,17.5,0,0,0,3.27,5.87,14,14,0,0,0,4.85,3.64,14.41,14.41,0,0,0,6,1.26,26.24,26.24,0,0,0,3.48-.21,14.25,14.25,0,0,0,2.86-.7,12.73,12.73,0,0,0,2.48-1.23,15.79,15.79,0,0,0,2.32-1.85,3.56,3.56,0,0,1,.73-.53A1.86,1.86,0,0,1,484.46,406Z"/><path class="cls-1" d="M532.15,365.48v8.09H517v44.88h-9.39V373.57H492.31v-8.09Z"/><path class="cls-1" d="M530.23,392.55h18.08v7.55H530.23Z"/><path class="cls-1" d="M566.71,391.2l-16.09-25.72H560a2.82,2.82,0,0,1,1.42.27,2.52,2.52,0,0,1,.78.9l11.49,19.45c.11-.31.24-.63.38-.93a8.33,8.33,0,0,1,.49-.93L585,366.83a2.26,2.26,0,0,1,2-1.35h9l-16.27,25.31,16.72,27.66H587.1a2.2,2.2,0,0,1-1.52-.51,4.92,4.92,0,0,1-1-1.17l-11.7-20.3a6.78,6.78,0,0,1-.31.83c-.12.25-.23.49-.35.71l-11.21,18.76a5.64,5.64,0,0,1-.94,1.15,2,2,0,0,1-1.39.53h-8.8Z"/><path class="cls-1" d="M177.49,470V435.41H183v13.65a10.83,10.83,0,0,1,3.06-2.41,8.46,8.46,0,0,1,4-.9,7.24,7.24,0,0,1,3.41.81,7.48,7.48,0,0,1,2.66,2.34,11.5,11.5,0,0,1,1.74,3.8,20.34,20.34,0,0,1,.61,5.2,17.09,17.09,0,0,1-.69,5,12.45,12.45,0,0,1-2,4,9.08,9.08,0,0,1-3.08,2.62,8.65,8.65,0,0,1-4.06.95,8.14,8.14,0,0,1-1.91-.22,6.93,6.93,0,0,1-1.58-.62,6.79,6.79,0,0,1-1.32-1,10.94,10.94,0,0,1-1.16-1.27l-.25,1.61a1.5,1.5,0,0,1-.45.86,1.4,1.4,0,0,1-.88.26Zm10.66-19.81a5.36,5.36,0,0,0-2.92.76,8.31,8.31,0,0,0-2.25,2.13v10.72a5.2,5.2,0,0,0,2,1.69,5.9,5.9,0,0,0,2.39.48,5.15,5.15,0,0,0,2.24-.49,4.55,4.55,0,0,0,1.7-1.49,8,8,0,0,0,1.08-2.53,15.27,15.27,0,0,0,.37-3.6,16.46,16.46,0,0,0-.32-3.56,6.88,6.88,0,0,0-.92-2.36,3.69,3.69,0,0,0-1.46-1.33A4.32,4.32,0,0,0,188.15,450.23Z"/><path class="cls-1" d="M210.1,476.61a2.25,2.25,0,0,1-.64.92,1.86,1.86,0,0,1-1.19.32h-4.08l4.26-9.58-9.22-22.14H204a1.47,1.47,0,0,1,1,.32,2.17,2.17,0,0,1,.54.75l4.86,12.4a11.63,11.63,0,0,1,.42,1.26c.12.43.23.87.31,1.3.12-.45.25-.88.39-1.3s.29-.85.46-1.29l4.57-12.37a1.72,1.72,0,0,1,.59-.77,1.53,1.53,0,0,1,.92-.3h4.4Z"/><path class="cls-1" d="M257.23,436.34v5.15h-9.66V470h-6V441.49h-9.71v-5.15Z"/><path class="cls-1" d="M257.16,470V446.13h3.22a1.72,1.72,0,0,1,1.18.32,1.92,1.92,0,0,1,.44,1.12l.34,2.89A11.08,11.08,0,0,1,265.2,447a5.82,5.82,0,0,1,3.69-1.29,4.64,4.64,0,0,1,2.8.82l-.71,4.31a.79.79,0,0,1-.89.77,3.41,3.41,0,0,1-.91-.16,5.8,5.8,0,0,0-1.54-.17,4.52,4.52,0,0,0-2.93,1,7.68,7.68,0,0,0-2.06,2.91V470Z"/><path class="cls-1" d="M292.52,470h-2.46a2.51,2.51,0,0,1-1.23-.25,1.58,1.58,0,0,1-.66-1l-.49-1.7a20.72,20.72,0,0,1-1.7,1.44,10.58,10.58,0,0,1-1.72,1,8.4,8.4,0,0,1-1.89.63,10.87,10.87,0,0,1-2.22.21,8.21,8.21,0,0,1-2.67-.41,5.78,5.78,0,0,1-2.1-1.22,5.62,5.62,0,0,1-1.36-2,7.45,7.45,0,0,1-.49-2.83,5.86,5.86,0,0,1,.68-2.68,6.54,6.54,0,0,1,2.25-2.38,14,14,0,0,1,4.2-1.77,26,26,0,0,1,6.51-.7V455a5.51,5.51,0,0,0-1-3.58,3.45,3.45,0,0,0-2.81-1.16,6.68,6.68,0,0,0-2.22.32,8.51,8.51,0,0,0-1.54.74c-.44.27-.84.52-1.21.73a2.36,2.36,0,0,1-1.23.33,1.54,1.54,0,0,1-.95-.3,2.31,2.31,0,0,1-.64-.75l-1-1.84a13.18,13.18,0,0,1,9.48-3.78,8.81,8.81,0,0,1,3.57.69,7.73,7.73,0,0,1,2.65,1.91,8.24,8.24,0,0,1,1.65,2.93,11.67,11.67,0,0,1,.57,3.73Zm-10.66-3.59a6.83,6.83,0,0,0,1.55-.16,6,6,0,0,0,1.35-.48A7.68,7.68,0,0,0,286,465a12.15,12.15,0,0,0,1.19-1.12v-4a21.3,21.3,0,0,0-4,.32,10,10,0,0,0-2.59.81,3.42,3.42,0,0,0-1.39,1.15,2.67,2.67,0,0,0-.41,1.43,2.58,2.58,0,0,0,.86,2.18A3.54,3.54,0,0,0,281.86,466.45Z"/><path class="cls-1" d="M308.54,470h-5l-9.06-23.91h4.55a1.66,1.66,0,0,1,1,.3,1.55,1.55,0,0,1,.57.77L305,460q.38,1.13.63,2.19c.17.72.32,1.43.45,2.15.14-.72.29-1.43.46-2.15a20.72,20.72,0,0,1,.66-2.19l4.5-12.77a1.59,1.59,0,0,1,.56-.77,1.54,1.54,0,0,1,.95-.3h4.34Z"/><path class="cls-1" d="M329.5,445.75a10.47,10.47,0,0,1,4,.73,8.67,8.67,0,0,1,3.12,2.11,9.67,9.67,0,0,1,2,3.4,13.38,13.38,0,0,1,.73,4.6,8.14,8.14,0,0,1-.05,1.08,2,2,0,0,1-.2.68.87.87,0,0,1-.39.35,1.56,1.56,0,0,1-.62.11H324a8.48,8.48,0,0,0,1.88,5.4,5.75,5.75,0,0,0,4.36,1.73,7.16,7.16,0,0,0,2.3-.33,11.15,11.15,0,0,0,1.68-.72l1.27-.72a2,2,0,0,1,1.06-.33,1.15,1.15,0,0,1,.57.14,1.26,1.26,0,0,1,.43.4l1.59,2.09a9.06,9.06,0,0,1-2,1.88,11.21,11.21,0,0,1-2.36,1.21,12.5,12.5,0,0,1-2.51.64,16.51,16.51,0,0,1-2.48.19,11.67,11.67,0,0,1-4.42-.83,9.8,9.8,0,0,1-3.55-2.45,11.56,11.56,0,0,1-2.38-4,16.19,16.19,0,0,1-.87-5.54,13.62,13.62,0,0,1,.76-4.6,11,11,0,0,1,2.16-3.75,10.09,10.09,0,0,1,3.45-2.53A10.72,10.72,0,0,1,329.5,445.75Zm.11,4.13a4.91,4.91,0,0,0-3.75,1.42,7.18,7.18,0,0,0-1.73,4h10.3a7.27,7.27,0,0,0-.29-2.11,4.8,4.8,0,0,0-.88-1.73,4.3,4.3,0,0,0-1.51-1.18A4.93,4.93,0,0,0,329.61,449.88Z"/><path class="cls-1" d="M349.67,435.41V470h-5.49V435.41Z"/><path class="cls-1" d="M363.75,445.71a11.61,11.61,0,0,1,2.76.31,9.35,9.35,0,0,1,2.35.92h6.55v2.15a1.3,1.3,0,0,1-.26.84,1.55,1.55,0,0,1-.92.41l-2,.4a8.59,8.59,0,0,1,.35,1.28,8.16,8.16,0,0,1,.12,1.42,7.44,7.44,0,0,1-.68,3.21,7.11,7.11,0,0,1-1.87,2.44,8.52,8.52,0,0,1-2.82,1.54,10.9,10.9,0,0,1-3.54.55,12.28,12.28,0,0,1-2.51-.25,1.87,1.87,0,0,0-1.06,1.52,1.13,1.13,0,0,0,.63,1.07,4.81,4.81,0,0,0,1.66.48,16.59,16.59,0,0,0,2.35.14c.87,0,1.77,0,2.68.12a19.58,19.58,0,0,1,2.69.41,7.54,7.54,0,0,1,2.35.92,4.89,4.89,0,0,1,1.66,1.72,5.54,5.54,0,0,1,.63,2.79,6.79,6.79,0,0,1-.74,3.09,8.24,8.24,0,0,1-2.15,2.67,11.2,11.2,0,0,1-3.46,1.88,14,14,0,0,1-4.66.71,17.15,17.15,0,0,1-4.51-.52,10.34,10.34,0,0,1-3.17-1.4,5.85,5.85,0,0,1-1.87-2,4.82,4.82,0,0,1-.62-2.37,4.18,4.18,0,0,1,1-2.82,6.71,6.71,0,0,1,2.71-1.82,3.85,3.85,0,0,1-1.35-1.31,3.94,3.94,0,0,1-.51-2.12,3.64,3.64,0,0,1,.17-1.1,4.36,4.36,0,0,1,.55-1.13,5.34,5.34,0,0,1,.92-1.07,6.4,6.4,0,0,1,1.31-.89,7.49,7.49,0,0,1-2.72-2.61,7.23,7.23,0,0,1-1-3.83,7.43,7.43,0,0,1,.68-3.2,7.08,7.08,0,0,1,1.89-2.45,8.56,8.56,0,0,1,2.86-1.55A11.88,11.88,0,0,1,363.75,445.71Zm6,25.33a1.67,1.67,0,0,0-.4-1.16,2.69,2.69,0,0,0-1.09-.71,8,8,0,0,0-1.61-.36,15,15,0,0,0-1.95-.12h-2.14a8.79,8.79,0,0,1-2.12-.26,5.1,5.1,0,0,0-1.5,1.27,2.73,2.73,0,0,0-.56,1.69,2.44,2.44,0,0,0,.3,1.18,2.59,2.59,0,0,0,.95.94,5.5,5.5,0,0,0,1.7.62,12.44,12.44,0,0,0,2.56.22,12,12,0,0,0,2.64-.25,6.25,6.25,0,0,0,1.83-.69,2.88,2.88,0,0,0,1.06-1.05A2.69,2.69,0,0,0,369.77,471Zm-6-13.54a5.07,5.07,0,0,0,1.78-.29,3.43,3.43,0,0,0,1.25-.81,3.23,3.23,0,0,0,.76-1.23,4.72,4.72,0,0,0,.25-1.58,3.81,3.81,0,0,0-1-2.81,4.93,4.93,0,0,0-6.06,0,3.85,3.85,0,0,0-1,2.81,4.68,4.68,0,0,0,.25,1.56,3.49,3.49,0,0,0,.76,1.24,3.4,3.4,0,0,0,1.26.82A5.09,5.09,0,0,0,363.75,457.5Z"/><path class="cls-1" d="M396.71,470h-2.46a2.51,2.51,0,0,1-1.23-.25,1.58,1.58,0,0,1-.66-1l-.49-1.7a19.17,19.17,0,0,1-1.7,1.44,10.17,10.17,0,0,1-1.72,1,8.4,8.4,0,0,1-1.89.63,10.8,10.8,0,0,1-2.22.21,8.11,8.11,0,0,1-2.66-.41,5.44,5.44,0,0,1-3.47-3.26,7.45,7.45,0,0,1-.49-2.83,5.86,5.86,0,0,1,.68-2.68,6.54,6.54,0,0,1,2.25-2.38,14,14,0,0,1,4.2-1.77,26,26,0,0,1,6.51-.7V455a5.51,5.51,0,0,0-1-3.58,3.45,3.45,0,0,0-2.81-1.16,6.68,6.68,0,0,0-2.22.32,8.84,8.84,0,0,0-1.54.74c-.44.27-.84.52-1.21.73a2.35,2.35,0,0,1-1.22.33,1.57,1.57,0,0,1-1-.3,2.31,2.31,0,0,1-.64-.75l-1-1.84a13.18,13.18,0,0,1,9.48-3.78,8.81,8.81,0,0,1,3.57.69,7.64,7.64,0,0,1,2.65,1.91,8.26,8.26,0,0,1,1.66,2.93,12,12,0,0,1,.56,3.73Zm-10.66-3.59a7,7,0,0,0,1.56-.16,6.1,6.1,0,0,0,1.34-.48,7.68,7.68,0,0,0,1.22-.79,12.15,12.15,0,0,0,1.19-1.12v-4a21.3,21.3,0,0,0-4,.32,10.17,10.17,0,0,0-2.59.81,3.42,3.42,0,0,0-1.39,1.15,2.67,2.67,0,0,0-.41,1.43,2.58,2.58,0,0,0,.86,2.18A3.54,3.54,0,0,0,386.05,466.45Z"/><path class="cls-1" d="M409.59,470.41a5.81,5.81,0,0,1-4.55-1.76,7,7,0,0,1-1.6-4.86V450.44h-2.31a1,1,0,0,1-.76-.31,1.16,1.16,0,0,1-.33-.9v-2.29l3.67-.63,1.15-6.52a1.24,1.24,0,0,1,.41-.73,1.28,1.28,0,0,1,.81-.25h2.85v7.53h6v4.1h-6v13a2.62,2.62,0,0,0,.53,1.74,1.77,1.77,0,0,0,1.42.63,2.66,2.66,0,0,0,.86-.12,5.84,5.84,0,0,0,.6-.27c.17-.1.32-.18.45-.27a.73.73,0,0,1,.4-.13.57.57,0,0,1,.4.13,1.88,1.88,0,0,1,.34.38l1.64,2.8a8.29,8.29,0,0,1-2.75,1.59A10.08,10.08,0,0,1,409.59,470.41Z"/><path class="cls-1" d="M428.72,445.75a10.41,10.41,0,0,1,4,.73,8.5,8.5,0,0,1,3.12,2.11,9.54,9.54,0,0,1,2.05,3.4,13.38,13.38,0,0,1,.73,4.6,7.9,7.9,0,0,1-.06,1.08,1.61,1.61,0,0,1-.2.68.8.8,0,0,1-.38.35,1.62,1.62,0,0,1-.63.11H423.23c.17,2.45.79,4.25,1.89,5.4a5.75,5.75,0,0,0,4.35,1.73,7.12,7.12,0,0,0,2.3-.33,10.86,10.86,0,0,0,1.69-.72l1.27-.72a2,2,0,0,1,1-.33,1.18,1.18,0,0,1,.58.14,1.33,1.33,0,0,1,.42.4l1.6,2.09a9.5,9.5,0,0,1-2,1.88,11.53,11.53,0,0,1-2.37,1.21,12.33,12.33,0,0,1-2.51.64,16.41,16.41,0,0,1-2.48.19,11.65,11.65,0,0,1-4.41-.83,9.84,9.84,0,0,1-3.56-2.45,11.56,11.56,0,0,1-2.38-4,16.44,16.44,0,0,1-.86-5.54,13.87,13.87,0,0,1,.75-4.6,11.22,11.22,0,0,1,2.17-3.75,10.15,10.15,0,0,1,3.44-2.53A10.79,10.79,0,0,1,428.72,445.75Zm.11,4.13a4.91,4.91,0,0,0-3.75,1.42,7.12,7.12,0,0,0-1.74,4h10.31a7.63,7.63,0,0,0-.29-2.11,4.82,4.82,0,0,0-.89-1.73,4.21,4.21,0,0,0-1.51-1.18A4.91,4.91,0,0,0,428.83,449.88Z"/><path class="cls-1" d="M451.06,452.7l-10.24-16.36h5.95a1.81,1.81,0,0,1,.9.17,1.49,1.49,0,0,1,.5.57l7.31,12.38c.08-.2.16-.4.25-.59a5.71,5.71,0,0,1,.31-.6l6.68-11.07a1.46,1.46,0,0,1,1.27-.86h5.73l-10.35,16.1L470,470h-6a1.37,1.37,0,0,1-1-.33,2.71,2.71,0,0,1-.61-.74L455,456.05a5.36,5.36,0,0,1-.2.53c-.08.16-.15.31-.23.45L447.46,469a3.43,3.43,0,0,1-.6.73,1.2,1.2,0,0,1-.88.34h-5.6Z"/><polygon class="cls-2" points="397.92 52.2 246.84 52.2 171.31 183.04 246.84 313.87 397.92 313.87 473.46 183.04 397.92 52.2"/><polygon class="cls-2" points="397.82 52.27 246.81 52.27 171.3 183.05 246.81 313.83 397.82 313.83 473.33 183.05 397.82 52.27"/><polygon class="cls-2" points="397.96 52.27 246.94 52.27 171.44 183.05 246.94 313.83 397.96 313.83 473.46 183.05 397.96 52.27"/><path class="cls-3" d="M239.2,212.57l-7.37-9.25-4.46-5.54L214,181.16l21.3-.35h.29A119.65,119.65,0,0,1,412.49,77.7L397.8,52.25h-151L171.3,183l29.53,51.17,20-11.28Zm116.05.11a29.87,29.87,0,0,1-15.53-4.33l-4.1,6.61-8.84,14.11a53.8,53.8,0,0,0,28.47,8.08A54.38,54.38,0,1,0,301,180l14.84-.19,9.71-.14a29.91,29.91,0,1,1,29.75,33Zm0-127.8a97.88,97.88,0,0,0-97.86,95.66l9.11-.11,15.41-.25a73.35,73.35,0,1,1,34.75,65l-7.2,11.53L303.69,266A97.9,97.9,0,1,0,355.25,84.88ZM292.19,284.46l-10.47,17-7.37-20.33L272,274.59l-3.42-9.41-.66-1.79-.68.38-17.67,10-19.55,11,16.8,29.09h151L413,287.59a119.74,119.74,0,0,1-120.76-3.13Zm-31.81-28.82,3.37-1.9,9.71-5.47L281.78,271l2.39,6.58,2.07-3.34L295.13,260l5.46-8.78,7.59-12.16,1.88-3,8.34-13.35,8.35-13.32,5-8.08,7.15-11.45-12.67.19h0l-10.31.14-14.52.16-16.86.22-2.28,0-15.64.24-8.94.11-18.25.19-3.53.08h-.38l.43.52,4,5,15.09,18.87-9.68,5.41-2.91,1.66L226,232l-19.93,11.23,18.74,32.44,19.63-11.07Z"/></svg>