<svg id="Capa_1" data-name="Capa 1" xmlns="http://www.w3.org/2000/svg" viewBox="0 0 399.76 523"><defs><style>.cls-1{fill:#0c2340;}.cls-2{fill:#fff;}.cls-3{fill:#0b59de;}</style></defs><title>logos-RGB</title><path class="cls-1" d="M103.84,418.45H94.38V395.3H70.71v23.15H61.25v-53h9.46v22.78H94.38V365.48h9.46Z"/><path class="cls-1" d="M162.46,392a30.7,30.7,0,0,1-1.85,10.78,25.69,25.69,0,0,1-5.21,8.59,23.38,23.38,0,0,1-8.06,5.66,27.76,27.76,0,0,1-20.89,0,23.44,23.44,0,0,1-8.1-5.66,25.39,25.39,0,0,1-5.22-8.59,32.36,32.36,0,0,1,0-21.57,25.39,25.39,0,0,1,5.22-8.59,23.44,23.44,0,0,1,8.1-5.66,27.7,27.7,0,0,1,20.89,0,23.92,23.92,0,0,1,8.06,5.66,25.65,25.65,0,0,1,5.21,8.58A30.71,30.71,0,0,1,162.46,392Zm-9.64,0a25.94,25.94,0,0,0-1.1-7.83,16.92,16.92,0,0,0-3.16-5.88,13.65,13.65,0,0,0-5-3.7,18,18,0,0,0-13.32,0,13.76,13.76,0,0,0-5,3.7,17,17,0,0,0-3.2,5.88,28.14,28.14,0,0,0,0,15.65,16.71,16.71,0,0,0,3.2,5.86,13.82,13.82,0,0,0,5,3.68,18,18,0,0,0,13.32,0,13.71,13.71,0,0,0,5-3.68,16.65,16.65,0,0,0,3.16-5.86A25.92,25.92,0,0,0,152.82,392Z"/><path class="cls-1" d="M202.71,365.48v8.09H187.52v44.88h-9.39V373.57H162.88v-8.09Z"/><path class="cls-1" d="M240.52,365.48v7.84H218.14V388h17.63v7.58H218.14v15h22.38v7.87H208.68v-53Z"/><path class="cls-1" d="M258.05,410.32h20.21v8.13H248.65v-53h9.4Z"/><path class="cls-1" d="M276.93,392.55H295v7.55H276.93Z"/><path class="cls-1" d="M313.42,391.2l-16.1-25.72h9.36a2.78,2.78,0,0,1,1.41.27,2.63,2.63,0,0,1,.79.9l11.48,19.45c.12-.31.25-.63.39-.93a8.33,8.33,0,0,1,.49-.93l10.5-17.41a2.28,2.28,0,0,1,2-1.35h9l-16.27,25.31,16.73,27.66h-9.4a2.19,2.19,0,0,1-1.51-.51,4.73,4.73,0,0,1-1-1.17l-11.69-20.3a6.81,6.81,0,0,1-.32.83c-.11.25-.23.49-.34.71l-11.21,18.76a6,6,0,0,1-.94,1.15,2,2,0,0,1-1.4.53h-8.8Z"/><path class="cls-1" d="M55,470V435.41h5.48v13.65a11,11,0,0,1,3.07-2.41,8.46,8.46,0,0,1,4-.9,7.24,7.24,0,0,1,3.41.81,7.48,7.48,0,0,1,2.66,2.34,11.3,11.3,0,0,1,1.73,3.8,19.88,19.88,0,0,1,.62,5.2,17.09,17.09,0,0,1-.69,5,12.45,12.45,0,0,1-2,4,9,9,0,0,1-3.09,2.62,8.58,8.58,0,0,1-4,.95,8.08,8.08,0,0,1-1.91-.22,6.93,6.93,0,0,1-1.58-.62,6.79,6.79,0,0,1-1.32-1,10.94,10.94,0,0,1-1.16-1.27l-.25,1.61a1.5,1.5,0,0,1-.45.86,1.4,1.4,0,0,1-.88.26Zm10.66-19.81a5.36,5.36,0,0,0-2.92.76,8.49,8.49,0,0,0-2.26,2.13v10.72a5.29,5.29,0,0,0,2,1.69,5.89,5.89,0,0,0,2.38.48,5.16,5.16,0,0,0,2.25-.49,4.63,4.63,0,0,0,1.7-1.49,8,8,0,0,0,1.08-2.53,15.27,15.27,0,0,0,.37-3.6,17.12,17.12,0,0,0-.32-3.56,7.09,7.09,0,0,0-.92-2.36,3.69,3.69,0,0,0-1.46-1.33A4.32,4.32,0,0,0,65.65,450.23Z"/><path class="cls-1" d="M87.59,476.61a2.15,2.15,0,0,1-.63.92,1.86,1.86,0,0,1-1.19.32H81.69L86,468.27l-9.22-22.14h4.8a1.47,1.47,0,0,1,1,.32,2.17,2.17,0,0,1,.54.75L88,459.6a11.63,11.63,0,0,1,.42,1.26c.12.43.22.87.31,1.3.12-.45.25-.88.39-1.3s.29-.85.46-1.29L94.1,447.2a1.72,1.72,0,0,1,.59-.77,1.51,1.51,0,0,1,.92-.3H100Z"/><path class="cls-1" d="M134.73,436.34v5.15h-9.67V470h-6V441.49h-9.71v-5.15Z"/><path class="cls-1" d="M134.66,470V446.13h3.22a1.72,1.72,0,0,1,1.18.32,1.92,1.92,0,0,1,.44,1.12l.34,2.89A11.08,11.08,0,0,1,142.7,447a5.82,5.82,0,0,1,3.69-1.29,4.64,4.64,0,0,1,2.8.82l-.72,4.31a.94.94,0,0,1-.28.6,1,1,0,0,1-.6.17,3.41,3.41,0,0,1-.91-.16,5.8,5.8,0,0,0-1.54-.17,4.52,4.52,0,0,0-2.93,1,7.68,7.68,0,0,0-2.06,2.91V470Z"/><path class="cls-1" d="M170,470h-2.47a2.49,2.49,0,0,1-1.22-.25,1.54,1.54,0,0,1-.66-1l-.49-1.7a20.72,20.72,0,0,1-1.7,1.44,10.58,10.58,0,0,1-1.72,1,8.4,8.4,0,0,1-1.89.63,10.87,10.87,0,0,1-2.22.21A8.21,8.21,0,0,1,155,470a5.78,5.78,0,0,1-2.1-1.22,5.62,5.62,0,0,1-1.36-2,7.45,7.45,0,0,1-.49-2.83,5.73,5.73,0,0,1,.68-2.68,6.54,6.54,0,0,1,2.25-2.38,14,14,0,0,1,4.2-1.77,26,26,0,0,1,6.51-.7V455a5.56,5.56,0,0,0-1-3.58,3.45,3.45,0,0,0-2.81-1.16,6.68,6.68,0,0,0-2.22.32,8.51,8.51,0,0,0-1.54.74c-.44.27-.84.52-1.21.73a2.36,2.36,0,0,1-1.23.33,1.54,1.54,0,0,1-.95-.3,2.47,2.47,0,0,1-.65-.75l-1-1.84a13.18,13.18,0,0,1,9.48-3.78,8.73,8.73,0,0,1,3.56.69,7.68,7.68,0,0,1,2.66,1.91,8.24,8.24,0,0,1,1.65,2.93,11.67,11.67,0,0,1,.57,3.73Zm-10.66-3.59a6.83,6.83,0,0,0,1.55-.16,6,6,0,0,0,1.35-.48,7.68,7.68,0,0,0,1.22-.79,12.15,12.15,0,0,0,1.19-1.12v-4a21.3,21.3,0,0,0-4,.32,10,10,0,0,0-2.59.81,3.42,3.42,0,0,0-1.39,1.15,2.67,2.67,0,0,0-.41,1.43,2.58,2.58,0,0,0,.86,2.18A3.54,3.54,0,0,0,159.36,466.45Z"/><path class="cls-1" d="M186,470h-5L172,446.13h4.55a1.66,1.66,0,0,1,1,.3,1.55,1.55,0,0,1,.57.77l4.4,12.77q.38,1.13.63,2.19c.17.72.32,1.43.45,2.15.14-.72.29-1.43.46-2.15s.39-1.44.65-2.19l4.51-12.77a1.59,1.59,0,0,1,.56-.77,1.52,1.52,0,0,1,1-.3h4.34Z"/><path class="cls-1" d="M207,445.75a10.47,10.47,0,0,1,4,.73,8.67,8.67,0,0,1,3.12,2.11,9.67,9.67,0,0,1,2,3.4,13.38,13.38,0,0,1,.73,4.6,10.31,10.31,0,0,1-.05,1.08,2,2,0,0,1-.2.68.87.87,0,0,1-.39.35,1.56,1.56,0,0,1-.62.11H201.52a8.48,8.48,0,0,0,1.88,5.4,5.75,5.75,0,0,0,4.36,1.73,7.16,7.16,0,0,0,2.3-.33,11.15,11.15,0,0,0,1.68-.72l1.27-.72a2,2,0,0,1,1.05-.33,1.16,1.16,0,0,1,.58.14,1.23,1.23,0,0,1,.42.4l1.6,2.09a9.06,9.06,0,0,1-2,1.88,11,11,0,0,1-2.37,1.21,12.24,12.24,0,0,1-2.5.64,16.51,16.51,0,0,1-2.48.19,11.67,11.67,0,0,1-4.42-.83,9.8,9.8,0,0,1-3.55-2.45,11.56,11.56,0,0,1-2.38-4,16.19,16.19,0,0,1-.87-5.54,13.62,13.62,0,0,1,.76-4.6,11,11,0,0,1,2.16-3.75,10.09,10.09,0,0,1,3.45-2.53A10.72,10.72,0,0,1,207,445.75Zm.11,4.13a4.91,4.91,0,0,0-3.75,1.42,7.18,7.18,0,0,0-1.73,4h10.3a7.27,7.27,0,0,0-.29-2.11,4.66,4.66,0,0,0-.89-1.73,4.17,4.17,0,0,0-1.5-1.18A4.93,4.93,0,0,0,207.11,449.88Z"/><path class="cls-1" d="M227.17,435.41V470h-5.49V435.41Z"/><path class="cls-1" d="M241.25,445.71A11.47,11.47,0,0,1,244,446a9.28,9.28,0,0,1,2.36.92h6.55v2.15a1.25,1.25,0,0,1-.27.84,1.49,1.49,0,0,1-.91.41l-2,.4A8.59,8.59,0,0,1,250,452a8.16,8.16,0,0,1,.12,1.42,7.44,7.44,0,0,1-.68,3.21,7.11,7.11,0,0,1-1.87,2.44,8.52,8.52,0,0,1-2.82,1.54,10.9,10.9,0,0,1-3.54.55,12.21,12.21,0,0,1-2.51-.25,1.88,1.88,0,0,0-1.07,1.52,1.14,1.14,0,0,0,.64,1.07A4.81,4.81,0,0,0,240,464a16.59,16.59,0,0,0,2.35.14c.87,0,1.77,0,2.68.12a19.58,19.58,0,0,1,2.69.41,7.54,7.54,0,0,1,2.35.92,4.89,4.89,0,0,1,1.66,1.72,5.54,5.54,0,0,1,.63,2.79,6.79,6.79,0,0,1-.74,3.09,8.24,8.24,0,0,1-2.15,2.67,11.2,11.2,0,0,1-3.46,1.88,14,14,0,0,1-4.66.71,17.15,17.15,0,0,1-4.51-.52,10.34,10.34,0,0,1-3.17-1.4,5.85,5.85,0,0,1-1.87-2,4.84,4.84,0,0,1-.63-2.37,4.19,4.19,0,0,1,1-2.82,6.71,6.71,0,0,1,2.71-1.82,3.85,3.85,0,0,1-1.35-1.31,3.94,3.94,0,0,1-.51-2.12,3.64,3.64,0,0,1,.17-1.1,4.36,4.36,0,0,1,.55-1.13,5.34,5.34,0,0,1,.92-1.07,6.4,6.4,0,0,1,1.31-.89,7.42,7.42,0,0,1-2.72-2.61,7.23,7.23,0,0,1-1-3.83,7.43,7.43,0,0,1,.68-3.2,7.08,7.08,0,0,1,1.89-2.45,8.56,8.56,0,0,1,2.86-1.55A11.88,11.88,0,0,1,241.25,445.71Zm6,25.33a1.67,1.67,0,0,0-.4-1.16,2.69,2.69,0,0,0-1.09-.71,8,8,0,0,0-1.61-.36,15,15,0,0,0-1.95-.12h-2.14a8.73,8.73,0,0,1-2.12-.26,5.1,5.1,0,0,0-1.5,1.27,2.73,2.73,0,0,0-.56,1.69,2.44,2.44,0,0,0,.3,1.18,2.59,2.59,0,0,0,1,.94,5.5,5.5,0,0,0,1.7.62,12.44,12.44,0,0,0,2.56.22,12,12,0,0,0,2.64-.25,6.25,6.25,0,0,0,1.83-.69,2.88,2.88,0,0,0,1.06-1.05A2.69,2.69,0,0,0,247.27,471Zm-6-13.54a5.07,5.07,0,0,0,1.78-.29,3.43,3.43,0,0,0,1.25-.81,3.23,3.23,0,0,0,.76-1.23,4.72,4.72,0,0,0,.25-1.58,3.81,3.81,0,0,0-1-2.81,4.93,4.93,0,0,0-6.06,0,3.85,3.85,0,0,0-1,2.81,4.68,4.68,0,0,0,.25,1.56,3.49,3.49,0,0,0,.76,1.24,3.4,3.4,0,0,0,1.26.82A5.09,5.09,0,0,0,241.25,457.5Z"/><path class="cls-1" d="M274.21,470h-2.46a2.51,2.51,0,0,1-1.23-.25,1.58,1.58,0,0,1-.66-1l-.49-1.7a19.17,19.17,0,0,1-1.7,1.44,10.17,10.17,0,0,1-1.72,1,8.4,8.4,0,0,1-1.89.63,10.87,10.87,0,0,1-2.22.21,8.21,8.21,0,0,1-2.67-.41,5.45,5.45,0,0,1-3.46-3.26,7.45,7.45,0,0,1-.49-2.83,5.86,5.86,0,0,1,.68-2.68,6.54,6.54,0,0,1,2.25-2.38,14,14,0,0,1,4.2-1.77,26,26,0,0,1,6.51-.7V455a5.51,5.51,0,0,0-1-3.58,3.45,3.45,0,0,0-2.81-1.16,6.68,6.68,0,0,0-2.22.32,8.51,8.51,0,0,0-1.54.74c-.44.27-.84.52-1.21.73a2.35,2.35,0,0,1-1.22.33,1.57,1.57,0,0,1-1-.3,2.31,2.31,0,0,1-.64-.75l-1-1.84a13.18,13.18,0,0,1,9.48-3.78,8.81,8.81,0,0,1,3.57.69,7.73,7.73,0,0,1,2.65,1.91,8.26,8.26,0,0,1,1.66,2.93,12,12,0,0,1,.56,3.73Zm-10.66-3.59a6.83,6.83,0,0,0,1.55-.16,6,6,0,0,0,1.35-.48,7.68,7.68,0,0,0,1.22-.79,12.15,12.15,0,0,0,1.19-1.12v-4a21.3,21.3,0,0,0-4,.32,10.17,10.17,0,0,0-2.59.81,3.42,3.42,0,0,0-1.39,1.15,2.67,2.67,0,0,0-.41,1.43,2.58,2.58,0,0,0,.86,2.18A3.54,3.54,0,0,0,263.55,466.45Z"/><path class="cls-1" d="M287.09,470.41a5.81,5.81,0,0,1-4.55-1.76,6.93,6.93,0,0,1-1.6-4.86V450.44h-2.31a1,1,0,0,1-.76-.31,1.16,1.16,0,0,1-.33-.9v-2.29l3.67-.63,1.15-6.52a1.24,1.24,0,0,1,.41-.73,1.28,1.28,0,0,1,.81-.25h2.85v7.53h6v4.1h-6v13a2.62,2.62,0,0,0,.53,1.74,1.77,1.77,0,0,0,1.42.63,2.66,2.66,0,0,0,.86-.12,5.84,5.84,0,0,0,.6-.27c.17-.1.32-.18.45-.27a.73.73,0,0,1,.4-.13.58.58,0,0,1,.4.13,1.61,1.61,0,0,1,.33.38l1.65,2.8a8.24,8.24,0,0,1-2.76,1.59A10,10,0,0,1,287.09,470.41Z"/><path class="cls-1" d="M306.22,445.75a10.41,10.41,0,0,1,4,.73,8.5,8.5,0,0,1,3.12,2.11,9.54,9.54,0,0,1,2.05,3.4,13.38,13.38,0,0,1,.73,4.6,7.9,7.9,0,0,1-.06,1.08,1.61,1.61,0,0,1-.2.68.8.8,0,0,1-.38.35,1.65,1.65,0,0,1-.63.11H300.73a8.42,8.42,0,0,0,1.89,5.4,5.73,5.73,0,0,0,4.35,1.73,7.12,7.12,0,0,0,2.3-.33,10.86,10.86,0,0,0,1.69-.72l1.27-.72a2,2,0,0,1,1-.33,1.18,1.18,0,0,1,.58.14,1.33,1.33,0,0,1,.42.4l1.6,2.09a9.5,9.5,0,0,1-2,1.88,11.53,11.53,0,0,1-2.37,1.21,12.33,12.33,0,0,1-2.51.64,16.41,16.41,0,0,1-2.48.19,11.74,11.74,0,0,1-4.42-.83,9.89,9.89,0,0,1-3.55-2.45,11.56,11.56,0,0,1-2.38-4,16.44,16.44,0,0,1-.86-5.54A13.87,13.87,0,0,1,296,453a11.22,11.22,0,0,1,2.17-3.75,10.15,10.15,0,0,1,3.44-2.53A10.76,10.76,0,0,1,306.22,445.75Zm.11,4.13a4.91,4.91,0,0,0-3.75,1.42,7.12,7.12,0,0,0-1.74,4h10.31a7.63,7.63,0,0,0-.29-2.11,4.82,4.82,0,0,0-.89-1.73,4.21,4.21,0,0,0-1.51-1.18A4.91,4.91,0,0,0,306.33,449.88Z"/><path class="cls-1" d="M328.56,452.7l-10.24-16.36h5.95a1.81,1.81,0,0,1,.9.17,1.49,1.49,0,0,1,.5.57L333,449.46c.08-.2.16-.4.25-.59a4.28,4.28,0,0,1,.31-.6l6.68-11.07a1.46,1.46,0,0,1,1.27-.86h5.73l-10.35,16.1L347.51,470h-6a1.37,1.37,0,0,1-1-.33A2.71,2.71,0,0,1,340,469l-7.45-12.92a3.65,3.65,0,0,1-.19.53c-.08.16-.15.31-.23.45L325,469a3.43,3.43,0,0,1-.6.73,1.21,1.21,0,0,1-.89.34h-5.59Z"/><polygon class="cls-2" points="275.42 52.2 124.34 52.2 48.81 183.04 124.34 313.87 275.42 313.87 350.96 183.04 275.42 52.2"/><polygon class="cls-2" points="275.42 52.2 124.34 52.2 48.8 183.04 124.34 313.88 275.42 313.88 350.96 183.04 275.42 52.2"/><path class="cls-3" d="M351,183.05,275.42,52.2H124.33L48.81,183.05l40.92,70.86v-33.4a8.55,8.55,0,0,1,8.46-8.63h203.4a8.55,8.55,0,0,1,8.46,8.63v33.4Zm-221.57,1.49-10.26-5.41-10.25,5.41,2-11.42L102.54,165,114,163.35,119.13,153l5.12,10.39L135.73,165l-8.3,8.11Zm40.37,0-10.26-5.41-10.25,5.41,2-11.42-8.3-8.11,11.45-1.66L159.5,153l5.14,10.39L176.1,165l-8.3,8.11Zm40.4,0-10.29-5.41-10.25,5.41,2-11.42-8.3-8.11,11.48-1.66L199.87,153,205,163.35,216.49,165l-8.32,8.11Zm40.37,0-10.26-5.41L230,184.54l2-11.42-8.3-8.11,11.48-1.66L240.27,153l5.11,10.39L256.87,165l-8.3,8.11Zm40.37,0-10.26-5.41-10.25,5.41,1.95-11.42L264,165l11.48-1.66L280.64,153l5.12,10.39L297.24,165l-8.3,8.11Zm-6.29,44.56H267.67a8.55,8.55,0,0,0-8.47,8.63v17.19a8.55,8.55,0,0,0,8.47,8.62h16.94a8.54,8.54,0,0,0,8.49-8.62V237.73A8.55,8.55,0,0,0,284.61,229.1Zm0,51.66H267.67a8.53,8.53,0,0,0-8.47,8.6v17.22a8.57,8.57,0,0,0,4,7.29h12.22L292,285.14A8.44,8.44,0,0,0,284.61,280.76Zm-50.84,0h-17a8.52,8.52,0,0,0-8.46,8.6v17.22a8.57,8.57,0,0,0,4,7.29h25.9a8.57,8.57,0,0,0,4-7.29V289.36A8.53,8.53,0,0,0,233.77,280.76Zm0-51.66h-17a8.55,8.55,0,0,0-8.46,8.63v17.19a8.54,8.54,0,0,0,8.46,8.62h17a8.54,8.54,0,0,0,8.49-8.62V237.73A8.55,8.55,0,0,0,233.77,229.1Zm-50.85,51.66H166a8.52,8.52,0,0,0-8.46,8.6v17.22a8.54,8.54,0,0,0,4,7.29h25.89a8.54,8.54,0,0,0,4-7.29V289.36A8.53,8.53,0,0,0,182.92,280.76Zm0-51.66H166a8.55,8.55,0,0,0-8.46,8.63v17.19a8.54,8.54,0,0,0,8.46,8.62h16.94a8.54,8.54,0,0,0,8.49-8.62V237.73A8.55,8.55,0,0,0,182.92,229.1Zm-50.84,51.66h-17a8.35,8.35,0,0,0-7.37,4.41l16.57,28.7h12.21a8.52,8.52,0,0,0,4-7.29V289.36A8.54,8.54,0,0,0,132.08,280.76Zm0-51.66h-17a8.55,8.55,0,0,0-8.46,8.63v17.19a8.54,8.54,0,0,0,8.46,8.62h17a8.56,8.56,0,0,0,8.49-8.62V237.73A8.57,8.57,0,0,0,132.08,229.1Z"/></svg>