<svg id="Capa_1" data-name="Capa 1" xmlns="http://www.w3.org/2000/svg" viewBox="0 0 523.76 523"><defs><style>.cls-1{fill:#0c2340;}.cls-2{fill:#fff;}.cls-3{fill:#0b90de;}</style></defs><title>logos-RGB</title><rect class="cls-1" x="-14.17" y="-10.07" width="552" height="552"/><path class="cls-2" d="M95.21,418.45H85.75V395.3H62.08v23.15H52.62v-53h9.46v22.78H85.75V365.48h9.46Z"/><path class="cls-2" d="M153.83,392A30.7,30.7,0,0,1,152,402.75a25.83,25.83,0,0,1-5.2,8.59,23.51,23.51,0,0,1-8.07,5.66,27.76,27.76,0,0,1-20.89,0,23.44,23.44,0,0,1-8.1-5.66,25.39,25.39,0,0,1-5.22-8.59,32.36,32.36,0,0,1,0-21.57,25.39,25.39,0,0,1,5.22-8.59,23.44,23.44,0,0,1,8.1-5.66,27.7,27.7,0,0,1,20.89,0,24.06,24.06,0,0,1,8.07,5.66,25.79,25.79,0,0,1,5.2,8.58A30.71,30.71,0,0,1,153.83,392Zm-9.64,0a25.63,25.63,0,0,0-1.1-7.83,16.76,16.76,0,0,0-3.16-5.88,13.65,13.65,0,0,0-5-3.7,17.94,17.94,0,0,0-13.31,0,13.79,13.79,0,0,0-5,3.7,17,17,0,0,0-3.19,5.88,27.9,27.9,0,0,0,0,15.65,16.69,16.69,0,0,0,3.19,5.86,13.86,13.86,0,0,0,5,3.68,17.94,17.94,0,0,0,13.31,0,13.71,13.71,0,0,0,5-3.68,16.49,16.49,0,0,0,3.16-5.86A25.61,25.61,0,0,0,144.19,392Z"/><path class="cls-2" d="M194.08,365.48v8.09H178.9v44.88h-9.39V373.57H154.25v-8.09Z"/><path class="cls-2" d="M231.89,365.48v7.84H209.51V388h17.63v7.58H209.51v15h22.38v7.87H200.05v-53Z"/><path class="cls-2" d="M249.42,410.32h20.21v8.13H240v-53h9.39Z"/><path class="cls-2" d="M299.31,399.8v18.65h-9.4v-53h16.45a27.58,27.58,0,0,1,8.76,1.24,16.71,16.71,0,0,1,6.11,3.48,13.68,13.68,0,0,1,3.56,5.35,20.89,20.89,0,0,1-.07,13.87,14.56,14.56,0,0,1-3.66,5.51,16.82,16.82,0,0,1-6.11,3.59,25.93,25.93,0,0,1-8.59,1.28Zm0-7.69h7.05a13.31,13.31,0,0,0,4.5-.68,8.2,8.2,0,0,0,3.18-1.94,7.89,7.89,0,0,0,1.88-3.07,12.29,12.29,0,0,0,.63-4.05,11.14,11.14,0,0,0-.63-3.85,7.51,7.51,0,0,0-1.88-2.93,8.3,8.3,0,0,0-3.18-1.85,14.16,14.16,0,0,0-4.5-.64h-7.05Z"/><path class="cls-2" d="M372.2,418.45h-7.26a3.08,3.08,0,0,1-2-.64,3.67,3.67,0,0,1-1.13-1.59L358,405.41H337.12l-3.78,10.81a3.43,3.43,0,0,1-1.1,1.54,3,3,0,0,1-2,.69h-7.3l19.83-53h9.6Zm-32.68-20h16.1l-6.15-17.62c-.28-.78-.59-1.7-.92-2.77s-.67-2.21-1-3.46q-.48,1.88-1,3.48c-.31,1.08-.62,2-.92,2.82Z"/><path class="cls-2" d="M393.5,397.86v20.59h-9.39V397.86l-18.4-32.38H374a2.88,2.88,0,0,1,1.94.62,5.26,5.26,0,0,1,1.21,1.58l9.25,17.69c.53,1.05,1,2.05,1.39,3s.76,1.86,1.09,2.76c.3-.93.64-1.86,1-2.8s.85-1.92,1.38-2.95l9.19-17.69a4.86,4.86,0,0,1,1.15-1.51,2.8,2.8,0,0,1,1.95-.69h8.31Z"/><path class="cls-2" d="M409.56,392.55h18.08v7.55H409.56Z"/><path class="cls-2" d="M446,391.2,430,365.48h9.35a2.8,2.8,0,0,1,1.42.27,2.52,2.52,0,0,1,.78.9L453,386.1c.12-.31.24-.63.38-.93a10.41,10.41,0,0,1,.49-.93l10.51-17.41a2.27,2.27,0,0,1,2-1.35h9L459.1,390.79l16.72,27.66h-9.39a2.22,2.22,0,0,1-1.52-.51,4.92,4.92,0,0,1-1-1.17l-11.69-20.3c-.1.29-.2.57-.32.83s-.23.49-.35.71l-11.21,18.76a5.64,5.64,0,0,1-.94,1.15,1.94,1.94,0,0,1-1.39.53h-8.8Z"/><path class="cls-2" d="M117,470V435.41h5.48v13.65a11,11,0,0,1,3.07-2.41,8.46,8.46,0,0,1,4-.9,7.24,7.24,0,0,1,3.41.81,7.48,7.48,0,0,1,2.66,2.34,11.3,11.3,0,0,1,1.73,3.8,19.88,19.88,0,0,1,.62,5.2,17.09,17.09,0,0,1-.69,5,12.45,12.45,0,0,1-2,4,9,9,0,0,1-3.09,2.62,8.58,8.58,0,0,1-4.05.95,8.08,8.08,0,0,1-1.91-.22,6.93,6.93,0,0,1-1.58-.62,6.79,6.79,0,0,1-1.32-1,10.94,10.94,0,0,1-1.16-1.27l-.25,1.61a1.5,1.5,0,0,1-.45.86,1.4,1.4,0,0,1-.88.26Zm10.66-19.81a5.36,5.36,0,0,0-2.92.76,8.49,8.49,0,0,0-2.26,2.13v10.72a5.29,5.29,0,0,0,2,1.69,5.89,5.89,0,0,0,2.38.48,5.16,5.16,0,0,0,2.25-.49,4.63,4.63,0,0,0,1.7-1.49,8,8,0,0,0,1.08-2.53,15.27,15.27,0,0,0,.37-3.6,17.12,17.12,0,0,0-.32-3.56,7.09,7.09,0,0,0-.92-2.36,3.69,3.69,0,0,0-1.46-1.33A4.32,4.32,0,0,0,127.65,450.23Z"/><path class="cls-2" d="M149.59,476.61a2.15,2.15,0,0,1-.63.92,1.86,1.86,0,0,1-1.19.32h-4.08l4.26-9.58-9.22-22.14h4.8a1.47,1.47,0,0,1,1,.32,2.17,2.17,0,0,1,.54.75L150,459.6a11.63,11.63,0,0,1,.42,1.26c.12.43.22.87.31,1.3.12-.45.25-.88.39-1.3s.29-.85.46-1.29l4.57-12.37a1.72,1.72,0,0,1,.59-.77,1.51,1.51,0,0,1,.92-.3H162Z"/><path class="cls-2" d="M196.73,436.34v5.15h-9.67V470h-6V441.49h-9.71v-5.15Z"/><path class="cls-2" d="M196.66,470V446.13h3.22a1.72,1.72,0,0,1,1.18.32,1.92,1.92,0,0,1,.44,1.12l.34,2.89A11.08,11.08,0,0,1,204.7,447a5.82,5.82,0,0,1,3.69-1.29,4.64,4.64,0,0,1,2.8.82l-.72,4.31a.94.94,0,0,1-.28.6,1,1,0,0,1-.6.17,3.41,3.41,0,0,1-.91-.16,5.8,5.8,0,0,0-1.54-.17,4.52,4.52,0,0,0-2.93,1,7.68,7.68,0,0,0-2.06,2.91V470Z"/><path class="cls-2" d="M232,470h-2.47a2.49,2.49,0,0,1-1.22-.25,1.54,1.54,0,0,1-.66-1l-.49-1.7a20.72,20.72,0,0,1-1.7,1.44,10.58,10.58,0,0,1-1.72,1,8.4,8.4,0,0,1-1.89.63,10.87,10.87,0,0,1-2.22.21A8.21,8.21,0,0,1,217,470a5.78,5.78,0,0,1-2.1-1.22,5.62,5.62,0,0,1-1.36-2,7.45,7.45,0,0,1-.49-2.83,5.73,5.73,0,0,1,.68-2.68,6.54,6.54,0,0,1,2.25-2.38,14,14,0,0,1,4.2-1.77,26,26,0,0,1,6.51-.7V455a5.56,5.56,0,0,0-1-3.58,3.45,3.45,0,0,0-2.81-1.16,6.68,6.68,0,0,0-2.22.32,8.51,8.51,0,0,0-1.54.74c-.44.27-.84.52-1.21.73a2.36,2.36,0,0,1-1.23.33,1.54,1.54,0,0,1-.95-.3,2.47,2.47,0,0,1-.65-.75l-1-1.84a13.18,13.18,0,0,1,9.48-3.78,8.73,8.73,0,0,1,3.56.69,7.68,7.68,0,0,1,2.66,1.91,8.24,8.24,0,0,1,1.65,2.93,11.67,11.67,0,0,1,.57,3.73Zm-10.66-3.59a6.83,6.83,0,0,0,1.55-.16,6,6,0,0,0,1.35-.48,7.68,7.68,0,0,0,1.22-.79,12.15,12.15,0,0,0,1.19-1.12v-4a21.3,21.3,0,0,0-4,.32,10,10,0,0,0-2.59.81,3.42,3.42,0,0,0-1.39,1.15,2.67,2.67,0,0,0-.41,1.43,2.58,2.58,0,0,0,.86,2.18A3.54,3.54,0,0,0,221.36,466.45Z"/><path class="cls-2" d="M248,470h-5L234,446.13h4.55a1.66,1.66,0,0,1,1,.3,1.55,1.55,0,0,1,.57.77l4.4,12.77q.38,1.13.63,2.19c.17.72.32,1.43.45,2.15.14-.72.29-1.43.46-2.15s.39-1.44.65-2.19l4.51-12.77a1.59,1.59,0,0,1,.56-.77,1.52,1.52,0,0,1,1-.3h4.34Z"/><path class="cls-2" d="M269,445.75a10.47,10.47,0,0,1,4,.73,8.67,8.67,0,0,1,3.12,2.11,9.67,9.67,0,0,1,2,3.4,13.38,13.38,0,0,1,.73,4.6,10.31,10.31,0,0,1-.05,1.08,2,2,0,0,1-.2.68.87.87,0,0,1-.39.35,1.56,1.56,0,0,1-.62.11H263.52a8.48,8.48,0,0,0,1.88,5.4,5.75,5.75,0,0,0,4.36,1.73,7.16,7.16,0,0,0,2.3-.33,11.15,11.15,0,0,0,1.68-.72l1.27-.72a2,2,0,0,1,1.05-.33,1.16,1.16,0,0,1,.58.14,1.23,1.23,0,0,1,.42.4l1.6,2.09a9.06,9.06,0,0,1-2,1.88,11,11,0,0,1-2.37,1.21,12.24,12.24,0,0,1-2.5.64,16.51,16.51,0,0,1-2.48.19,11.67,11.67,0,0,1-4.42-.83,9.8,9.8,0,0,1-3.55-2.45,11.56,11.56,0,0,1-2.38-4,16.19,16.19,0,0,1-.87-5.54,13.62,13.62,0,0,1,.76-4.6,11,11,0,0,1,2.16-3.75,10.09,10.09,0,0,1,3.45-2.53A10.72,10.72,0,0,1,269,445.75Zm.11,4.13a4.91,4.91,0,0,0-3.75,1.42,7.18,7.18,0,0,0-1.73,4h10.3a7.27,7.27,0,0,0-.29-2.11,4.66,4.66,0,0,0-.89-1.73,4.17,4.17,0,0,0-1.5-1.18A4.93,4.93,0,0,0,269.11,449.88Z"/><path class="cls-2" d="M289.17,435.41V470h-5.49V435.41Z"/><path class="cls-2" d="M303.25,445.71A11.47,11.47,0,0,1,306,446a9.28,9.28,0,0,1,2.36.92h6.55v2.15a1.25,1.25,0,0,1-.27.84,1.49,1.49,0,0,1-.91.41l-2,.4A8.59,8.59,0,0,1,312,452a8.16,8.16,0,0,1,.12,1.42,7.44,7.44,0,0,1-.68,3.21,7.11,7.11,0,0,1-1.87,2.44,8.52,8.52,0,0,1-2.82,1.54,10.9,10.9,0,0,1-3.54.55,12.21,12.21,0,0,1-2.51-.25,1.88,1.88,0,0,0-1.07,1.52,1.14,1.14,0,0,0,.64,1.07A4.81,4.81,0,0,0,302,464a16.59,16.59,0,0,0,2.35.14c.87,0,1.77,0,2.68.12a19.58,19.58,0,0,1,2.69.41,7.54,7.54,0,0,1,2.35.92,4.89,4.89,0,0,1,1.66,1.72,5.54,5.54,0,0,1,.63,2.79,6.79,6.79,0,0,1-.74,3.09,8.24,8.24,0,0,1-2.15,2.67,11.2,11.2,0,0,1-3.46,1.88,14,14,0,0,1-4.66.71,17.15,17.15,0,0,1-4.51-.52,10.34,10.34,0,0,1-3.17-1.4,5.85,5.85,0,0,1-1.87-2,4.84,4.84,0,0,1-.63-2.37,4.19,4.19,0,0,1,1-2.82,6.71,6.71,0,0,1,2.71-1.82,3.85,3.85,0,0,1-1.35-1.31,3.94,3.94,0,0,1-.51-2.12,3.64,3.64,0,0,1,.17-1.1,4.36,4.36,0,0,1,.55-1.13,5.34,5.34,0,0,1,.92-1.07,6.4,6.4,0,0,1,1.31-.89,7.42,7.42,0,0,1-2.72-2.61,7.23,7.23,0,0,1-1-3.83,7.43,7.43,0,0,1,.68-3.2,7.08,7.08,0,0,1,1.89-2.45,8.56,8.56,0,0,1,2.86-1.55A11.88,11.88,0,0,1,303.25,445.71Zm6,25.33a1.67,1.67,0,0,0-.4-1.16,2.69,2.69,0,0,0-1.09-.71,8,8,0,0,0-1.61-.36,15,15,0,0,0-1.95-.12h-2.14a8.73,8.73,0,0,1-2.12-.26,5.1,5.1,0,0,0-1.5,1.27,2.73,2.73,0,0,0-.56,1.69,2.44,2.44,0,0,0,.3,1.18,2.59,2.59,0,0,0,.95.94,5.5,5.5,0,0,0,1.7.62,12.44,12.44,0,0,0,2.56.22,12,12,0,0,0,2.64-.25,6.25,6.25,0,0,0,1.83-.69,2.88,2.88,0,0,0,1.06-1.05A2.69,2.69,0,0,0,309.27,471Zm-6-13.54a5.07,5.07,0,0,0,1.78-.29,3.43,3.43,0,0,0,1.25-.81,3.23,3.23,0,0,0,.76-1.23,4.72,4.72,0,0,0,.25-1.58,3.81,3.81,0,0,0-1-2.81,4.93,4.93,0,0,0-6.06,0,3.85,3.85,0,0,0-1,2.81,4.68,4.68,0,0,0,.25,1.56,3.49,3.49,0,0,0,.76,1.24,3.4,3.4,0,0,0,1.26.82A5.09,5.09,0,0,0,303.25,457.5Z"/><path class="cls-2" d="M336.21,470h-2.46a2.51,2.51,0,0,1-1.23-.25,1.58,1.58,0,0,1-.66-1l-.49-1.7a19.17,19.17,0,0,1-1.7,1.44,10.17,10.17,0,0,1-1.72,1,8.4,8.4,0,0,1-1.89.63,10.87,10.87,0,0,1-2.22.21,8.21,8.21,0,0,1-2.67-.41,5.45,5.45,0,0,1-3.46-3.26,7.45,7.45,0,0,1-.49-2.83,5.86,5.86,0,0,1,.68-2.68,6.54,6.54,0,0,1,2.25-2.38,14,14,0,0,1,4.2-1.77,26,26,0,0,1,6.51-.7V455a5.51,5.51,0,0,0-1-3.58,3.45,3.45,0,0,0-2.81-1.16,6.68,6.68,0,0,0-2.22.32,8.51,8.51,0,0,0-1.54.74c-.44.27-.84.52-1.21.73a2.35,2.35,0,0,1-1.22.33,1.57,1.57,0,0,1-1-.3,2.31,2.31,0,0,1-.64-.75l-1-1.84a13.18,13.18,0,0,1,9.48-3.78,8.81,8.81,0,0,1,3.57.69,7.73,7.73,0,0,1,2.65,1.91,8.26,8.26,0,0,1,1.66,2.93,12,12,0,0,1,.56,3.73Zm-10.66-3.59a6.83,6.83,0,0,0,1.55-.16,6,6,0,0,0,1.35-.48,7.68,7.68,0,0,0,1.22-.79,12.15,12.15,0,0,0,1.19-1.12v-4a21.3,21.3,0,0,0-4,.32,10.17,10.17,0,0,0-2.59.81,3.42,3.42,0,0,0-1.39,1.15,2.67,2.67,0,0,0-.41,1.43,2.58,2.58,0,0,0,.86,2.18A3.54,3.54,0,0,0,325.55,466.45Z"/><path class="cls-2" d="M349.09,470.41a5.81,5.81,0,0,1-4.55-1.76,6.93,6.93,0,0,1-1.6-4.86V450.44h-2.31a1,1,0,0,1-.76-.31,1.16,1.16,0,0,1-.33-.9v-2.29l3.67-.63,1.15-6.52a1.24,1.24,0,0,1,.41-.73,1.28,1.28,0,0,1,.81-.25h2.85v7.53h6v4.1h-6v13a2.62,2.62,0,0,0,.53,1.74,1.77,1.77,0,0,0,1.42.63,2.66,2.66,0,0,0,.86-.12,5.84,5.84,0,0,0,.6-.27c.17-.1.32-.18.45-.27a.73.73,0,0,1,.4-.13.58.58,0,0,1,.4.13,1.61,1.61,0,0,1,.33.38l1.65,2.8a8.24,8.24,0,0,1-2.76,1.59A10,10,0,0,1,349.09,470.41Z"/><path class="cls-2" d="M368.22,445.75a10.41,10.41,0,0,1,4,.73,8.5,8.5,0,0,1,3.12,2.11,9.54,9.54,0,0,1,2.05,3.4,13.38,13.38,0,0,1,.73,4.6,7.9,7.9,0,0,1-.06,1.08,1.61,1.61,0,0,1-.2.68.8.8,0,0,1-.38.35,1.65,1.65,0,0,1-.63.11H362.73a8.42,8.42,0,0,0,1.89,5.4,5.73,5.73,0,0,0,4.35,1.73,7.12,7.12,0,0,0,2.3-.33,10.86,10.86,0,0,0,1.69-.72l1.27-.72a2,2,0,0,1,1-.33,1.18,1.18,0,0,1,.58.14,1.33,1.33,0,0,1,.42.4l1.6,2.09a9.5,9.5,0,0,1-2,1.88,11.53,11.53,0,0,1-2.37,1.21,12.33,12.33,0,0,1-2.51.64,16.41,16.41,0,0,1-2.48.19,11.74,11.74,0,0,1-4.42-.83,9.89,9.89,0,0,1-3.55-2.45,11.56,11.56,0,0,1-2.38-4,16.44,16.44,0,0,1-.86-5.54A13.87,13.87,0,0,1,358,453a11.22,11.22,0,0,1,2.17-3.75,10.15,10.15,0,0,1,3.44-2.53A10.76,10.76,0,0,1,368.22,445.75Zm.11,4.13a4.91,4.91,0,0,0-3.75,1.42,7.12,7.12,0,0,0-1.74,4h10.31a7.63,7.63,0,0,0-.29-2.11,4.82,4.82,0,0,0-.89-1.73,4.21,4.21,0,0,0-1.51-1.18A4.91,4.91,0,0,0,368.33,449.88Z"/><path class="cls-2" d="M390.56,452.7l-10.24-16.36h5.95a1.81,1.81,0,0,1,.9.17,1.49,1.49,0,0,1,.5.57L395,449.46c.08-.2.16-.4.25-.59a4.28,4.28,0,0,1,.31-.6l6.68-11.07a1.46,1.46,0,0,1,1.27-.86h5.73l-10.35,16.1L409.51,470h-6a1.37,1.37,0,0,1-1-.33A2.71,2.71,0,0,1,402,469l-7.45-12.92a3.65,3.65,0,0,1-.19.53c-.08.16-.15.31-.23.45L387,469a3.43,3.43,0,0,1-.6.73,1.21,1.21,0,0,1-.89.34h-5.59Z"/><polygon class="cls-2" points="337.42 52.2 186.34 52.2 110.81 183.04 186.34 313.87 337.42 313.87 412.96 183.04 337.42 52.2"/><polygon class="cls-2" points="337.42 52.2 186.34 52.2 110.8 183.04 186.34 313.88 337.42 313.88 412.96 183.04 337.42 52.2"/><path class="cls-3" d="M324.11,122.82H199.65a7.15,7.15,0,0,0-7.13,7.16v8.7H331.27V130A7.17,7.17,0,0,0,324.11,122.82ZM192.52,213.63a7.12,7.12,0,0,0,7.13,7.13H324.11a7.14,7.14,0,0,0,7.16-7.13V165H192.52ZM337.44,52.2H186.35L110.8,183.05l75.55,130.83H337.44L413,183.05ZM211.1,277.62l-7.4-3.89-7.4,3.89,1.42-8.25-6-5.82,8.27-1.2,3.7-7.5,3.7,7.5,8.27,1.2-6,5.82Zm29.09,0-7.4-3.89-7.38,3.89,1.39-8.25-6-5.82,8.25-1.2,3.7-7.5,3.69,7.5,8.28,1.2-6,5.82Zm29.08,0-7.38-3.89-7.4,3.89,1.42-8.25-6-5.82,8.27-1.2,3.7-7.5,3.7,7.5,8.25,1.2-6,5.82Zm29.11,0-7.4-3.89-7.4,3.89,1.41-8.25-6-5.82,8.27-1.2,3.7-7.5,3.7,7.5,8.27,1.2-6,5.82Zm29.08,0-7.4-3.89-7.37,3.89,1.38-8.25-5.95-5.82,8.24-1.2,3.7-7.5,3.7,7.5,8.27,1.2-6,5.82Zm3.78-45.84H192.52a10.88,10.88,0,0,1-10.88-10.88V122.69a10.88,10.88,0,0,1,10.88-10.89H331.24a10.91,10.91,0,0,1,10.91,10.89V220.9A10.9,10.9,0,0,1,331.24,231.78Z"/></svg>