<svg id="Capa_1" data-name="Capa 1" xmlns="http://www.w3.org/2000/svg" viewBox="0 0 478.76 523"><defs><style>.cls-1{fill:#0c2340;}.cls-2{fill:#fff;}.cls-3{fill:#00e37d;}</style></defs><title>logos-RGB</title><path class="cls-1" d="M61.79,418.45H52.36v-53h9.43Z"/><path class="cls-1" d="M79.1,365.53a2.44,2.44,0,0,1,.75.22,2.37,2.37,0,0,1,.65.48,8.29,8.29,0,0,1,.7.82l26.5,35.43c-.1-.86-.16-1.69-.2-2.51s0-1.58,0-2.29v-32.2h8.28v53h-4.86a4.21,4.21,0,0,1-1.85-.36,4.33,4.33,0,0,1-1.43-1.32L81.2,381.49c.07.78.12,1.55.16,2.32s0,1.48,0,2.11v32.53H73.13v-53h4.93A9.9,9.9,0,0,1,79.1,365.53Z"/><path class="cls-1" d="M153,375.11a2.78,2.78,0,0,1-.89,1.14,2.17,2.17,0,0,1-1.21.33,3,3,0,0,1-1.57-.57c-.58-.38-1.27-.8-2.06-1.26a16,16,0,0,0-2.78-1.27,11.05,11.05,0,0,0-3.75-.56,10.51,10.51,0,0,0-3.4.49,7.26,7.26,0,0,0-2.45,1.37,5.58,5.58,0,0,0-1.48,2.11,7.15,7.15,0,0,0-.49,2.69,4.8,4.8,0,0,0,1,3.12,8.26,8.26,0,0,0,2.63,2.12,24.17,24.17,0,0,0,3.74,1.58c1.4.46,2.82,1,4.28,1.48a42.18,42.18,0,0,1,4.27,1.83,15,15,0,0,1,3.74,2.64,11.91,11.91,0,0,1,2.63,3.9,14,14,0,0,1,1,5.61,19.06,19.06,0,0,1-1.17,6.72A15.59,15.59,0,0,1,151.6,414a16.06,16.06,0,0,1-5.5,3.66,19.43,19.43,0,0,1-7.44,1.34,22.94,22.94,0,0,1-4.75-.5,24.08,24.08,0,0,1-4.48-1.41,23,23,0,0,1-4-2.2,20,20,0,0,1-3.33-2.85l2.72-4.73a3.63,3.63,0,0,1,.93-.86,2.19,2.19,0,0,1,1.2-.35,3.27,3.27,0,0,1,1.89.75c.67.5,1.47,1.06,2.39,1.67a17.9,17.9,0,0,0,3.25,1.67,12,12,0,0,0,4.48.75,8.94,8.94,0,0,0,6.22-2,7.36,7.36,0,0,0,2.2-5.73,5.54,5.54,0,0,0-1-3.41,7.91,7.91,0,0,0-2.64-2.21A19.09,19.09,0,0,0,140,396.1q-2.1-.62-4.26-1.35a37.14,37.14,0,0,1-4.26-1.76,13.73,13.73,0,0,1-3.74-2.67,12.3,12.3,0,0,1-2.63-4.12,16.5,16.5,0,0,1-1-6.1,15.19,15.19,0,0,1,1.1-5.65,14.62,14.62,0,0,1,3.22-4.87,15.84,15.84,0,0,1,5.18-3.41,18.19,18.19,0,0,1,7-1.28,22.52,22.52,0,0,1,8.24,1.47,18.51,18.51,0,0,1,6.42,4.1Z"/><path class="cls-1" d="M174,418.45h-9.43v-53H174Z"/><path class="cls-1" d="M208.49,411.2a22.1,22.1,0,0,0,5.53-.61,23,23,0,0,0,4.49-1.66v-9.64h-6.32a1.91,1.91,0,0,1-1.43-.53,1.78,1.78,0,0,1-.53-1.3v-5.57H227v21.43a27.43,27.43,0,0,1-4,2.55,25.56,25.56,0,0,1-4.44,1.78,32.76,32.76,0,0,1-5,1,45.66,45.66,0,0,1-5.8.35,25.18,25.18,0,0,1-10.16-2,24.16,24.16,0,0,1-8-5.6,25.85,25.85,0,0,1-5.29-8.58,30.38,30.38,0,0,1-1.9-10.87,31.31,31.31,0,0,1,1.85-11,25,25,0,0,1,5.26-8.57,23.46,23.46,0,0,1,8.25-5.57,28.64,28.64,0,0,1,10.9-2,27.09,27.09,0,0,1,10.7,1.93,24.44,24.44,0,0,1,7.66,5l-2.72,4.47a2.42,2.42,0,0,1-2.13,1.35,3,3,0,0,1-1.71-.59l-2.29-1.39a16.18,16.18,0,0,0-2.58-1.21,20.94,20.94,0,0,0-3.18-.84,22.34,22.34,0,0,0-4.07-.33,16.66,16.66,0,0,0-6.75,1.32,14.33,14.33,0,0,0-5.15,3.77,17.35,17.35,0,0,0-3.29,5.9A24.42,24.42,0,0,0,192,392a25.3,25.3,0,0,0,1.22,8.15,17.25,17.25,0,0,0,3.43,6,14.7,14.7,0,0,0,5.23,3.76A16.84,16.84,0,0,0,208.49,411.2Z"/><path class="cls-1" d="M278.38,418.45h-9.46V395.3H245.25v23.15h-9.46v-53h9.46v22.78h23.67V365.48h9.46Z"/><path class="cls-1" d="M324.15,365.48v8.09H309v44.88h-9.39V373.57H284.31v-8.09Z"/><path class="cls-1" d="M357.17,375.11a2.63,2.63,0,0,1-.89,1.14,2.14,2.14,0,0,1-1.2.33,2.94,2.94,0,0,1-1.57-.57c-.58-.38-1.27-.8-2.06-1.26a16,16,0,0,0-2.78-1.27,11.13,11.13,0,0,0-3.75-.56,10.51,10.51,0,0,0-3.4.49,7.26,7.26,0,0,0-2.45,1.37,5.47,5.47,0,0,0-1.48,2.11,7.15,7.15,0,0,0-.49,2.69,4.86,4.86,0,0,0,1,3.12,8.42,8.42,0,0,0,2.64,2.12,23.77,23.77,0,0,0,3.74,1.58c1.39.46,2.82,1,4.27,1.48a42.34,42.34,0,0,1,4.28,1.83,15,15,0,0,1,3.74,2.64,11.91,11.91,0,0,1,2.63,3.9,14.21,14.21,0,0,1,1,5.61,19.06,19.06,0,0,1-1.17,6.72,15.48,15.48,0,0,1-3.43,5.46,16,16,0,0,1-5.49,3.66,19.47,19.47,0,0,1-7.44,1.34,22.87,22.87,0,0,1-4.75-.5,24.08,24.08,0,0,1-4.48-1.41,22.6,22.6,0,0,1-4-2.2,19.61,19.61,0,0,1-3.33-2.85l2.72-4.73a3.47,3.47,0,0,1,.93-.86,2.19,2.19,0,0,1,1.2-.35,3.22,3.22,0,0,1,1.88.75c.68.5,1.48,1.06,2.4,1.67a18.13,18.13,0,0,0,3.24,1.67,12.06,12.06,0,0,0,4.49.75,8.9,8.9,0,0,0,6.21-2,7.33,7.33,0,0,0,2.2-5.73,5.54,5.54,0,0,0-1-3.41,8,8,0,0,0-2.64-2.21,19.35,19.35,0,0,0-3.73-1.53q-2.1-.62-4.26-1.35a35.71,35.71,0,0,1-4.26-1.76,13.73,13.73,0,0,1-3.74-2.67,12.3,12.3,0,0,1-2.63-4.12,16.29,16.29,0,0,1-1-6.1,15.19,15.19,0,0,1,1.1-5.65,14.44,14.44,0,0,1,3.21-4.87,16,16,0,0,1,5.19-3.41,18.11,18.11,0,0,1,7-1.28,22.48,22.48,0,0,1,8.24,1.47,18.46,18.46,0,0,1,6.43,4.1Z"/><path class="cls-1" d="M366,392.55h18.08v7.55H366Z"/><path class="cls-1" d="M402.45,391.2l-16.09-25.72h9.36a2.78,2.78,0,0,1,1.41.27,2.63,2.63,0,0,1,.79.9L409.4,386.1c.12-.31.25-.63.39-.93a10.28,10.28,0,0,1,.48-.93l10.51-17.41a2.27,2.27,0,0,1,2-1.35h9l-16.27,25.31,16.72,27.66h-9.39a2.22,2.22,0,0,1-1.52-.51,4.92,4.92,0,0,1-1-1.17l-11.69-20.3a6.81,6.81,0,0,1-.32.83c-.11.25-.23.49-.34.71L396.8,416.77a6,6,0,0,1-.94,1.15,2,2,0,0,1-1.4.53h-8.8Z"/><path class="cls-1" d="M94.49,470V435.41H100v13.65a10.83,10.83,0,0,1,3.06-2.41,8.46,8.46,0,0,1,4-.9,7.24,7.24,0,0,1,3.41.81,7.48,7.48,0,0,1,2.66,2.34,11.3,11.3,0,0,1,1.73,3.8,19.88,19.88,0,0,1,.62,5.2,17.09,17.09,0,0,1-.69,5,12.45,12.45,0,0,1-2,4,9.08,9.08,0,0,1-3.08,2.62,8.65,8.65,0,0,1-4.06.95,8.14,8.14,0,0,1-1.91-.22,6.68,6.68,0,0,1-1.57-.62,6.56,6.56,0,0,1-1.33-1,10.94,10.94,0,0,1-1.16-1.27l-.25,1.61a1.5,1.5,0,0,1-.45.86,1.4,1.4,0,0,1-.88.26Zm10.66-19.81a5.36,5.36,0,0,0-2.92.76,8.31,8.31,0,0,0-2.25,2.13v10.72a5.2,5.2,0,0,0,2,1.69,5.9,5.9,0,0,0,2.39.48,5.15,5.15,0,0,0,2.24-.49,4.55,4.55,0,0,0,1.7-1.49,8,8,0,0,0,1.08-2.53,15.27,15.27,0,0,0,.37-3.6,17.12,17.12,0,0,0-.32-3.56,6.88,6.88,0,0,0-.92-2.36,3.69,3.69,0,0,0-1.46-1.33A4.32,4.32,0,0,0,105.15,450.23Z"/><path class="cls-1" d="M127.09,476.61a2.15,2.15,0,0,1-.63.92,1.86,1.86,0,0,1-1.19.32h-4.08l4.26-9.58-9.22-22.14H121a1.47,1.47,0,0,1,1,.32,2.17,2.17,0,0,1,.54.75l4.86,12.4a9.8,9.8,0,0,1,.42,1.26c.12.43.22.87.31,1.3.12-.45.25-.88.39-1.3s.29-.85.46-1.29l4.57-12.37a1.72,1.72,0,0,1,.59-.77,1.53,1.53,0,0,1,.92-.3h4.4Z"/><path class="cls-1" d="M174.23,436.34v5.15h-9.66V470h-6V441.49h-9.71v-5.15Z"/><path class="cls-1" d="M174.16,470V446.13h3.22a1.72,1.72,0,0,1,1.18.32,1.92,1.92,0,0,1,.44,1.12l.34,2.89A11.08,11.08,0,0,1,182.2,447a5.82,5.82,0,0,1,3.69-1.29,4.64,4.64,0,0,1,2.8.82l-.71,4.31a1,1,0,0,1-.29.6,1,1,0,0,1-.6.17,3.41,3.41,0,0,1-.91-.16,5.8,5.8,0,0,0-1.54-.17,4.52,4.52,0,0,0-2.93,1,7.68,7.68,0,0,0-2.06,2.91V470Z"/><path class="cls-1" d="M209.52,470h-2.46a2.51,2.51,0,0,1-1.23-.25,1.58,1.58,0,0,1-.66-1l-.49-1.7a20.72,20.72,0,0,1-1.7,1.44,10.17,10.17,0,0,1-1.72,1,8.4,8.4,0,0,1-1.89.63,10.87,10.87,0,0,1-2.22.21,8.21,8.21,0,0,1-2.67-.41,5.78,5.78,0,0,1-2.1-1.22,5.62,5.62,0,0,1-1.36-2,7.45,7.45,0,0,1-.49-2.83,5.86,5.86,0,0,1,.68-2.68,6.54,6.54,0,0,1,2.25-2.38,14,14,0,0,1,4.2-1.77,26,26,0,0,1,6.51-.7V455a5.56,5.56,0,0,0-1-3.58,3.45,3.45,0,0,0-2.81-1.16,6.68,6.68,0,0,0-2.22.32,8.51,8.51,0,0,0-1.54.74c-.44.27-.84.52-1.21.73a2.36,2.36,0,0,1-1.23.33,1.56,1.56,0,0,1-.95-.3,2.47,2.47,0,0,1-.65-.75l-1-1.84a13.18,13.18,0,0,1,9.48-3.78,8.81,8.81,0,0,1,3.57.69,7.73,7.73,0,0,1,2.65,1.91,8.24,8.24,0,0,1,1.65,2.93,11.67,11.67,0,0,1,.57,3.73Zm-10.66-3.59a6.83,6.83,0,0,0,1.55-.16,6,6,0,0,0,1.35-.48A7.68,7.68,0,0,0,203,465a12.15,12.15,0,0,0,1.19-1.12v-4a21.3,21.3,0,0,0-4,.32,10.17,10.17,0,0,0-2.59.81,3.42,3.42,0,0,0-1.39,1.15,2.67,2.67,0,0,0-.41,1.43,2.58,2.58,0,0,0,.86,2.18A3.54,3.54,0,0,0,198.86,466.45Z"/><path class="cls-1" d="M225.54,470h-5l-9.06-23.91h4.55a1.66,1.66,0,0,1,1,.3,1.55,1.55,0,0,1,.57.77L222,460q.38,1.13.63,2.19c.17.72.32,1.43.45,2.15.14-.72.29-1.43.46-2.15a20.72,20.72,0,0,1,.66-2.19l4.5-12.77a1.59,1.59,0,0,1,.56-.77,1.54,1.54,0,0,1,1-.3h4.34Z"/><path class="cls-1" d="M246.5,445.75a10.47,10.47,0,0,1,4,.73,8.67,8.67,0,0,1,3.12,2.11,9.67,9.67,0,0,1,2,3.4,13.38,13.38,0,0,1,.73,4.6,10.31,10.31,0,0,1-.05,1.08,2,2,0,0,1-.2.68.87.87,0,0,1-.39.35,1.56,1.56,0,0,1-.62.11H241a8.48,8.48,0,0,0,1.88,5.4,5.75,5.75,0,0,0,4.36,1.73,7.16,7.16,0,0,0,2.3-.33,11.76,11.76,0,0,0,1.69-.72l1.26-.72a2,2,0,0,1,1.06-.33,1.15,1.15,0,0,1,.57.14,1.26,1.26,0,0,1,.43.4l1.59,2.09a9.06,9.06,0,0,1-2,1.88,11.21,11.21,0,0,1-2.36,1.21,12.5,12.5,0,0,1-2.51.64,16.51,16.51,0,0,1-2.48.19,11.67,11.67,0,0,1-4.42-.83,9.8,9.8,0,0,1-3.55-2.45,11.56,11.56,0,0,1-2.38-4,16.19,16.19,0,0,1-.87-5.54,13.62,13.62,0,0,1,.76-4.6,11,11,0,0,1,2.16-3.75,10.09,10.09,0,0,1,3.45-2.53A10.72,10.72,0,0,1,246.5,445.75Zm.11,4.13a4.91,4.91,0,0,0-3.75,1.42,7.18,7.18,0,0,0-1.73,4h10.3a7.27,7.27,0,0,0-.29-2.11,4.8,4.8,0,0,0-.88-1.73,4.3,4.3,0,0,0-1.51-1.18A4.93,4.93,0,0,0,246.61,449.88Z"/><path class="cls-1" d="M266.67,435.41V470h-5.49V435.41Z"/><path class="cls-1" d="M280.75,445.71a11.61,11.61,0,0,1,2.76.31,9.35,9.35,0,0,1,2.35.92h6.55v2.15a1.3,1.3,0,0,1-.26.84,1.55,1.55,0,0,1-.91.41l-2.05.4a8.59,8.59,0,0,1,.35,1.28,8.16,8.16,0,0,1,.12,1.42,7.44,7.44,0,0,1-.68,3.21,7.11,7.11,0,0,1-1.87,2.44,8.52,8.52,0,0,1-2.82,1.54,10.9,10.9,0,0,1-3.54.55,12.28,12.28,0,0,1-2.51-.25,1.87,1.87,0,0,0-1.06,1.52,1.13,1.13,0,0,0,.63,1.07,4.81,4.81,0,0,0,1.66.48,16.59,16.59,0,0,0,2.35.14c.87,0,1.77,0,2.69.12a19.68,19.68,0,0,1,2.68.41,7.54,7.54,0,0,1,2.35.92,4.89,4.89,0,0,1,1.66,1.72,5.54,5.54,0,0,1,.64,2.79,6.8,6.8,0,0,1-.75,3.09,8.24,8.24,0,0,1-2.15,2.67,11.2,11.2,0,0,1-3.46,1.88,14,14,0,0,1-4.66.71,17.15,17.15,0,0,1-4.51-.52,10.34,10.34,0,0,1-3.17-1.4,5.85,5.85,0,0,1-1.87-2,4.82,4.82,0,0,1-.62-2.37,4.18,4.18,0,0,1,1-2.82,6.71,6.71,0,0,1,2.71-1.82,3.85,3.85,0,0,1-1.35-1.31,3.94,3.94,0,0,1-.51-2.12,3.64,3.64,0,0,1,.17-1.1,4.36,4.36,0,0,1,.55-1.13,5.34,5.34,0,0,1,.92-1.07,6.4,6.4,0,0,1,1.31-.89,7.42,7.42,0,0,1-2.72-2.61,7.23,7.23,0,0,1-1-3.83,7.43,7.43,0,0,1,.68-3.2,7.08,7.08,0,0,1,1.89-2.45,8.56,8.56,0,0,1,2.86-1.55A11.93,11.93,0,0,1,280.75,445.71Zm6,25.33a1.67,1.67,0,0,0-.4-1.16,2.69,2.69,0,0,0-1.09-.71,8,8,0,0,0-1.61-.36,15,15,0,0,0-1.95-.12h-2.13a8.81,8.81,0,0,1-2.13-.26,5.1,5.1,0,0,0-1.5,1.27,2.73,2.73,0,0,0-.56,1.69,2.44,2.44,0,0,0,.3,1.18,2.59,2.59,0,0,0,.95.94,5.5,5.5,0,0,0,1.7.62,12.44,12.44,0,0,0,2.56.22,12,12,0,0,0,2.64-.25,6.25,6.25,0,0,0,1.83-.69,2.88,2.88,0,0,0,1.06-1.05A2.69,2.69,0,0,0,286.77,471Zm-6-13.54a5.07,5.07,0,0,0,1.78-.29,3.43,3.43,0,0,0,1.25-.81,3.23,3.23,0,0,0,.76-1.23,4.72,4.72,0,0,0,.25-1.58,3.81,3.81,0,0,0-1-2.81,4.93,4.93,0,0,0-6.06,0,3.85,3.85,0,0,0-1,2.81,4.68,4.68,0,0,0,.25,1.56,3.49,3.49,0,0,0,.76,1.24,3.36,3.36,0,0,0,1.27.82A5,5,0,0,0,280.75,457.5Z"/><path class="cls-1" d="M313.71,470h-2.46a2.51,2.51,0,0,1-1.23-.25,1.58,1.58,0,0,1-.66-1l-.49-1.7a19.17,19.17,0,0,1-1.7,1.44,10.17,10.17,0,0,1-1.72,1,8.4,8.4,0,0,1-1.89.63,10.74,10.74,0,0,1-2.22.21,8.11,8.11,0,0,1-2.66-.41,5.44,5.44,0,0,1-3.47-3.26,7.45,7.45,0,0,1-.49-2.83,5.86,5.86,0,0,1,.68-2.68,6.54,6.54,0,0,1,2.25-2.38,14,14,0,0,1,4.2-1.77,26,26,0,0,1,6.51-.7V455a5.51,5.51,0,0,0-1-3.58,3.45,3.45,0,0,0-2.81-1.16,6.68,6.68,0,0,0-2.22.32,8.84,8.84,0,0,0-1.54.74c-.44.27-.84.52-1.21.73a2.35,2.35,0,0,1-1.22.33,1.57,1.57,0,0,1-1-.3,2.43,2.43,0,0,1-.64-.75l-1-1.84a13.18,13.18,0,0,1,9.48-3.78,8.81,8.81,0,0,1,3.57.69,7.73,7.73,0,0,1,2.65,1.91,8.26,8.26,0,0,1,1.66,2.93,12,12,0,0,1,.56,3.73Zm-10.66-3.59a6.83,6.83,0,0,0,1.55-.16,6,6,0,0,0,1.35-.48,7.68,7.68,0,0,0,1.22-.79,12.15,12.15,0,0,0,1.19-1.12v-4a21.3,21.3,0,0,0-4,.32,10.17,10.17,0,0,0-2.59.81,3.42,3.42,0,0,0-1.39,1.15,2.67,2.67,0,0,0-.41,1.43,2.58,2.58,0,0,0,.86,2.18A3.54,3.54,0,0,0,303.05,466.45Z"/><path class="cls-1" d="M326.59,470.41a5.81,5.81,0,0,1-4.55-1.76,7,7,0,0,1-1.6-4.86V450.44h-2.31a1,1,0,0,1-.76-.31,1.16,1.16,0,0,1-.33-.9v-2.29l3.67-.63,1.15-6.52a1.24,1.24,0,0,1,.41-.73,1.29,1.29,0,0,1,.82-.25h2.84v7.53h6v4.1h-6v13a2.62,2.62,0,0,0,.53,1.74,1.77,1.77,0,0,0,1.42.63,2.66,2.66,0,0,0,.86-.12,5.84,5.84,0,0,0,.6-.27c.17-.1.32-.18.45-.27a.73.73,0,0,1,.4-.13.58.58,0,0,1,.4.13,1.88,1.88,0,0,1,.34.38l1.64,2.8a8.29,8.29,0,0,1-2.75,1.59A10.08,10.08,0,0,1,326.59,470.41Z"/><path class="cls-1" d="M345.72,445.75a10.41,10.41,0,0,1,4,.73,8.5,8.5,0,0,1,3.12,2.11,9.54,9.54,0,0,1,2.05,3.4,13.38,13.38,0,0,1,.73,4.6,7.9,7.9,0,0,1-.06,1.08,1.78,1.78,0,0,1-.19.68.87.87,0,0,1-.39.35,1.62,1.62,0,0,1-.63.11H340.23c.17,2.45.79,4.25,1.89,5.4a5.75,5.75,0,0,0,4.35,1.73,7.12,7.12,0,0,0,2.3-.33,10.86,10.86,0,0,0,1.69-.72l1.27-.72a2,2,0,0,1,1-.33,1.18,1.18,0,0,1,.58.14,1.33,1.33,0,0,1,.42.4l1.6,2.09a9.5,9.5,0,0,1-2,1.88,11.53,11.53,0,0,1-2.37,1.21,12.33,12.33,0,0,1-2.51.64,16.38,16.38,0,0,1-2.47.19,11.67,11.67,0,0,1-4.42-.83,9.84,9.84,0,0,1-3.56-2.45,11.56,11.56,0,0,1-2.38-4,16.44,16.44,0,0,1-.86-5.54,13.87,13.87,0,0,1,.75-4.6,11.22,11.22,0,0,1,2.17-3.75,10.15,10.15,0,0,1,3.44-2.53A10.76,10.76,0,0,1,345.72,445.75Zm.11,4.13a4.91,4.91,0,0,0-3.75,1.42,7.12,7.12,0,0,0-1.74,4h10.31a7.63,7.63,0,0,0-.29-2.11,4.82,4.82,0,0,0-.89-1.73,4.21,4.21,0,0,0-1.51-1.18A4.91,4.91,0,0,0,345.83,449.88Z"/><path class="cls-1" d="M368.06,452.7l-10.24-16.36h5.95a1.88,1.88,0,0,1,.91.17,1.68,1.68,0,0,1,.5.57l7.3,12.38c.08-.2.16-.4.25-.59a5.71,5.71,0,0,1,.31-.6l6.68-11.07a1.46,1.46,0,0,1,1.27-.86h5.73l-10.35,16.1L387,470h-6a1.37,1.37,0,0,1-1-.33,2.71,2.71,0,0,1-.61-.74L372,456.05a3.65,3.65,0,0,1-.19.53c-.08.16-.15.31-.23.45L364.46,469a3.43,3.43,0,0,1-.6.73,1.2,1.2,0,0,1-.88.34h-5.6Z"/><polygon class="cls-2" points="314.92 52.2 163.84 52.2 88.31 183.04 163.84 313.87 314.92 313.87 390.46 183.04 314.92 52.2"/><polygon class="cls-2" points="314.92 52.2 163.84 52.2 88.31 183.04 163.84 313.88 314.92 313.88 390.46 183.04 314.92 52.2"/><path class="cls-3" d="M314.92,52.2H163.84L88.3,183.05l75.54,130.81H314.92l75.54-130.81Zm-33.75,78.46,34.3-34.33a4.68,4.68,0,0,1,6.58,0l1.22,1.22a4.63,4.63,0,0,1,0,6.58l-34.33,34.31a4.65,4.65,0,0,1-6.58,0l-1.19-1.2A4.63,4.63,0,0,1,281.17,130.66Zm-48.91-59.6a4.65,4.65,0,0,1,4.65-4.66h1.71a4.67,4.67,0,0,1,4.65,4.66v48.55a4.64,4.64,0,0,1-4.65,4.63h-1.71a4.62,4.62,0,0,1-4.65-4.63ZM122,182.72V181a4.64,4.64,0,0,1,4.65-4.62h48.53a4.62,4.62,0,0,1,4.65,4.62v1.74a4.64,4.64,0,0,1-4.65,4.65H126.68A4.67,4.67,0,0,1,122,182.72Zm72.55,50.33-34.33,34.33a4.7,4.7,0,0,1-6.58,0l-1.2-1.23a4.65,4.65,0,0,1,0-6.58l34.3-34.3a4.64,4.64,0,0,1,6.59,0l1.22,1.19A4.7,4.7,0,0,1,194.58,233.05Zm0-95.81-1.22,1.2a4.66,4.66,0,0,1-6.59,0l-34.3-34.31a4.65,4.65,0,0,1,0-6.58l1.2-1.22a4.68,4.68,0,0,1,6.58,0l34.33,34.33A4.68,4.68,0,0,1,194.58,137.24Zm58.24,138h-3.59c0,2.83-5,5.15-11.13,5.15S227,278.09,227,275.26h-1.88a3.26,3.26,0,0,1,0-6.52h27.75a3.26,3.26,0,1,1,0,6.52Zm0-10.44H225.07a3.27,3.27,0,0,1,0-6.53h27.75a3.27,3.27,0,1,1,0,6.53Zm0-10.47H225.07a3.27,3.27,0,0,1,0-6.53h27.75a3.27,3.27,0,1,1,0,6.53Zm5.88-19.73a10.67,10.67,0,0,1-10.26,7.4H230.62a10.68,10.68,0,0,1-10.25-7.4l-7-23a38.64,38.64,0,1,1,52.5-.41ZM319,266.15l-1.2,1.23a4.7,4.7,0,0,1-6.58,0l-34.33-34.33a4.66,4.66,0,0,1,0-6.59l1.23-1.19a4.63,4.63,0,0,1,6.58,0l34.3,34.3A4.65,4.65,0,0,1,319,266.15Zm33.05-74.07H303.53a4.65,4.65,0,0,1-4.63-4.65v-1.72a4.63,4.63,0,0,1,4.63-4.65h48.55a4.65,4.65,0,0,1,4.65,4.65v1.72A4.67,4.67,0,0,1,352.08,192.08Z"/></svg>