<svg id="Capa_1" data-name="Capa 1" xmlns="http://www.w3.org/2000/svg" viewBox="0 0 558.76 523"><defs><style>.cls-1{fill:#fff;}.cls-2{fill:#0bacde;}</style></defs><title>logos-RGB</title><path class="cls-1" d="M59.2,418.45H49.77v-53H59.2Z"/><path class="cls-1" d="M76.52,365.53a2.44,2.44,0,0,1,.75.22,2.49,2.49,0,0,1,.64.48,7.13,7.13,0,0,1,.7.82l26.5,35.43c-.09-.86-.16-1.69-.19-2.51s0-1.58,0-2.29v-32.2h8.27v53h-4.85a4.18,4.18,0,0,1-1.85-.36,4.24,4.24,0,0,1-1.43-1.32l-26.4-35.28c.07.78.12,1.55.16,2.32s0,1.48,0,2.11v32.53H70.55v-53h4.92A10,10,0,0,1,76.52,365.53Z"/><path class="cls-1" d="M118.38,365.48H126a3.07,3.07,0,0,1,2,.62,3.78,3.78,0,0,1,1.15,1.61L141,400c.4,1.05.78,2.21,1.14,3.47s.7,2.58,1,4a46.82,46.82,0,0,1,2-7.44L157,367.71a3.93,3.93,0,0,1,1.12-1.54,3,3,0,0,1,2-.69h7.58l-20.39,53h-8.48Z"/><path class="cls-1" d="M204.75,365.48v7.84H182.37V388H200v7.58H182.37v15h22.38v7.87H172.91v-53Z"/><path class="cls-1" d="M218.85,365.53a2.44,2.44,0,0,1,.75.22,2.53,2.53,0,0,1,.65.48,8.29,8.29,0,0,1,.7.82l26.49,35.43c-.09-.86-.15-1.69-.19-2.51s-.05-1.58-.05-2.29v-32.2h8.27v53h-4.85a4.21,4.21,0,0,1-1.85-.36,4.33,4.33,0,0,1-1.43-1.32L221,381.49c.07.78.12,1.55.15,2.32s.06,1.48.06,2.11v32.53h-8.28v-53h4.92A10,10,0,0,1,218.85,365.53Z"/><path class="cls-1" d="M301.24,365.48v8.09H286.06v44.88h-9.39V373.57H261.41v-8.09Z"/><path class="cls-1" d="M352.91,392a30.47,30.47,0,0,1-1.85,10.78,25.51,25.51,0,0,1-5.2,8.59A23.38,23.38,0,0,1,337.8,417a27.79,27.79,0,0,1-20.9,0,23.63,23.63,0,0,1-8.1-5.66,25.72,25.72,0,0,1-5.22-8.59,32.36,32.36,0,0,1,0-21.57,25.72,25.72,0,0,1,5.22-8.59,23.63,23.63,0,0,1,8.1-5.66,27.72,27.72,0,0,1,20.9,0,23.92,23.92,0,0,1,8.06,5.66,25.46,25.46,0,0,1,5.2,8.58A30.49,30.49,0,0,1,352.91,392Zm-9.63,0a25.94,25.94,0,0,0-1.1-7.83,17.09,17.09,0,0,0-3.16-5.88,13.73,13.73,0,0,0-5-3.7,18,18,0,0,0-13.32,0,13.88,13.88,0,0,0-5.05,3.7,17,17,0,0,0-3.19,5.88,27.9,27.9,0,0,0,0,15.65,16.69,16.69,0,0,0,3.19,5.86,13.94,13.94,0,0,0,5.05,3.68,18,18,0,0,0,13.32,0,13.8,13.8,0,0,0,5-3.68,16.81,16.81,0,0,0,3.16-5.86A25.92,25.92,0,0,0,343.28,392Z"/><path class="cls-1" d="M370,397.75v20.7h-9.39v-53H376a30.49,30.49,0,0,1,8.85,1.12,16.35,16.35,0,0,1,6,3.13,11.93,11.93,0,0,1,3.46,4.82,17.64,17.64,0,0,1,.35,11.22,14.48,14.48,0,0,1-5.66,7.73,17.87,17.87,0,0,1-4.73,2.35,9.59,9.59,0,0,1,3.08,3L400,418.45H391.6a4,4,0,0,1-2.08-.51,4.34,4.34,0,0,1-1.45-1.47l-10.61-17a3.86,3.86,0,0,0-1.31-1.35,4.39,4.39,0,0,0-2.12-.41Zm0-7.07h5.87a14,14,0,0,0,4.62-.69,8.89,8.89,0,0,0,3.25-1.93,7.7,7.7,0,0,0,1.9-2.91,10.49,10.49,0,0,0,.63-3.7,7.71,7.71,0,0,0-2.53-6.19q-2.53-2.16-7.74-2.16h-6Z"/><path class="cls-1" d="M428.5,397.86v20.59h-9.39V397.86l-18.4-32.38H409a2.88,2.88,0,0,1,1.94.62,5.08,5.08,0,0,1,1.2,1.58l9.26,17.69c.53,1.05,1,2.05,1.39,3s.76,1.86,1.08,2.76c.31-.93.65-1.86,1-2.8s.85-1.92,1.38-2.95l9.18-17.69a4.9,4.9,0,0,1,1.16-1.51,2.8,2.8,0,0,1,1.95-.69h8.31Z"/><path class="cls-1" d="M444.56,392.55h18.08v7.55H444.56Z"/><path class="cls-1" d="M481,391.2,465,365.48h9.35a2.82,2.82,0,0,1,1.42.27,2.52,2.52,0,0,1,.78.9L488,386.1c.11-.31.24-.63.38-.93a8.33,8.33,0,0,1,.49-.93l10.51-17.41a2.26,2.26,0,0,1,2-1.35h9L494.1,390.79l16.72,27.66h-9.39a2.2,2.2,0,0,1-1.52-.51,4.92,4.92,0,0,1-1-1.17l-11.7-20.3a6.78,6.78,0,0,1-.31.83c-.12.25-.23.49-.35.71l-11.21,18.76a5.64,5.64,0,0,1-.94,1.15,2,2,0,0,1-1.39.53h-8.8Z"/><path class="cls-1" d="M132.49,470V435.41H138v13.65a10.83,10.83,0,0,1,3.06-2.41,8.46,8.46,0,0,1,4-.9,7.24,7.24,0,0,1,3.41.81,7.48,7.48,0,0,1,2.66,2.34,11.5,11.5,0,0,1,1.74,3.8,20.34,20.34,0,0,1,.61,5.2,17.09,17.09,0,0,1-.69,5,12.45,12.45,0,0,1-2,4,9.08,9.08,0,0,1-3.08,2.62,8.65,8.65,0,0,1-4.06.95,8.14,8.14,0,0,1-1.91-.22,6.93,6.93,0,0,1-1.58-.62,6.79,6.79,0,0,1-1.32-1,10.94,10.94,0,0,1-1.16-1.27l-.25,1.61a1.5,1.5,0,0,1-.45.86,1.4,1.4,0,0,1-.88.26Zm10.66-19.81a5.36,5.36,0,0,0-2.92.76,8.31,8.31,0,0,0-2.25,2.13v10.72a5.2,5.2,0,0,0,2,1.69,5.89,5.89,0,0,0,2.38.48,5.16,5.16,0,0,0,2.25-.49,4.55,4.55,0,0,0,1.7-1.49,8,8,0,0,0,1.08-2.53,15.27,15.27,0,0,0,.37-3.6,17.12,17.12,0,0,0-.32-3.56,6.88,6.88,0,0,0-.92-2.36,3.69,3.69,0,0,0-1.46-1.33A4.32,4.32,0,0,0,143.15,450.23Z"/><path class="cls-1" d="M165.1,476.61a2.25,2.25,0,0,1-.64.92,1.86,1.86,0,0,1-1.19.32h-4.08l4.26-9.58-9.22-22.14H159a1.47,1.47,0,0,1,1,.32,2.17,2.17,0,0,1,.54.75l4.86,12.4a11.63,11.63,0,0,1,.42,1.26c.12.43.23.87.31,1.3.12-.45.25-.88.39-1.3s.29-.85.46-1.29l4.57-12.37a1.72,1.72,0,0,1,.59-.77,1.53,1.53,0,0,1,.92-.3h4.4Z"/><path class="cls-1" d="M212.23,436.34v5.15h-9.67V470h-6V441.49h-9.71v-5.15Z"/><path class="cls-1" d="M212.16,470V446.13h3.22a1.72,1.72,0,0,1,1.18.32,1.92,1.92,0,0,1,.44,1.12l.34,2.89A11.08,11.08,0,0,1,220.2,447a5.82,5.82,0,0,1,3.69-1.29,4.64,4.64,0,0,1,2.8.82l-.71,4.31a.79.79,0,0,1-.89.77,3.41,3.41,0,0,1-.91-.16,5.8,5.8,0,0,0-1.54-.17,4.52,4.52,0,0,0-2.93,1,7.68,7.68,0,0,0-2.06,2.91V470Z"/><path class="cls-1" d="M247.52,470h-2.46a2.51,2.51,0,0,1-1.23-.25,1.54,1.54,0,0,1-.66-1l-.49-1.7a20.72,20.72,0,0,1-1.7,1.44,10.58,10.58,0,0,1-1.72,1,8.4,8.4,0,0,1-1.89.63,10.87,10.87,0,0,1-2.22.21,8.21,8.21,0,0,1-2.67-.41,5.78,5.78,0,0,1-2.1-1.22,5.62,5.62,0,0,1-1.36-2,7.45,7.45,0,0,1-.49-2.83,5.86,5.86,0,0,1,.68-2.68,6.54,6.54,0,0,1,2.25-2.38,14,14,0,0,1,4.2-1.77,26,26,0,0,1,6.51-.7V455a5.51,5.51,0,0,0-1-3.58,3.45,3.45,0,0,0-2.81-1.16,6.68,6.68,0,0,0-2.22.32,8.51,8.51,0,0,0-1.54.74c-.44.27-.84.52-1.21.73a2.36,2.36,0,0,1-1.23.33,1.54,1.54,0,0,1-.95-.3,2.31,2.31,0,0,1-.64-.75l-1-1.84a13.18,13.18,0,0,1,9.48-3.78,8.73,8.73,0,0,1,3.56.69,7.68,7.68,0,0,1,2.66,1.91,8.24,8.24,0,0,1,1.65,2.93,11.67,11.67,0,0,1,.57,3.73Zm-10.66-3.59a6.83,6.83,0,0,0,1.55-.16,6,6,0,0,0,1.35-.48A7.68,7.68,0,0,0,241,465a12.15,12.15,0,0,0,1.19-1.12v-4a21.3,21.3,0,0,0-4,.32,10,10,0,0,0-2.59.81,3.42,3.42,0,0,0-1.39,1.15,2.67,2.67,0,0,0-.41,1.43,2.58,2.58,0,0,0,.86,2.18A3.54,3.54,0,0,0,236.86,466.45Z"/><path class="cls-1" d="M263.54,470h-5l-9.06-23.91h4.55a1.66,1.66,0,0,1,1,.3,1.55,1.55,0,0,1,.57.77L260,460q.38,1.13.63,2.19c.17.72.32,1.43.45,2.15.14-.72.29-1.43.46-2.15a20.72,20.72,0,0,1,.66-2.19l4.5-12.77a1.59,1.59,0,0,1,.56-.77,1.54,1.54,0,0,1,.95-.3h4.34Z"/><path class="cls-1" d="M284.5,445.75a10.47,10.47,0,0,1,4,.73,8.67,8.67,0,0,1,3.12,2.11,9.67,9.67,0,0,1,2,3.4,13.38,13.38,0,0,1,.73,4.6,8.14,8.14,0,0,1-.05,1.08,2,2,0,0,1-.2.68.87.87,0,0,1-.39.35,1.56,1.56,0,0,1-.62.11H279a8.48,8.48,0,0,0,1.88,5.4,5.75,5.75,0,0,0,4.36,1.73,7.16,7.16,0,0,0,2.3-.33,11.15,11.15,0,0,0,1.68-.72l1.27-.72a2,2,0,0,1,1.05-.33,1.14,1.14,0,0,1,1,.54l1.6,2.09a9.06,9.06,0,0,1-2,1.88,11.21,11.21,0,0,1-2.36,1.21,12.5,12.5,0,0,1-2.51.64,16.51,16.51,0,0,1-2.48.19,11.67,11.67,0,0,1-4.42-.83,9.8,9.8,0,0,1-3.55-2.45,11.56,11.56,0,0,1-2.38-4,16.19,16.19,0,0,1-.87-5.54,13.62,13.62,0,0,1,.76-4.6,11,11,0,0,1,2.16-3.75,10.09,10.09,0,0,1,3.45-2.53A10.72,10.72,0,0,1,284.5,445.75Zm.11,4.13a4.91,4.91,0,0,0-3.75,1.42,7.18,7.18,0,0,0-1.73,4h10.3a7.27,7.27,0,0,0-.29-2.11,4.8,4.8,0,0,0-.88-1.73,4.3,4.3,0,0,0-1.51-1.18A4.93,4.93,0,0,0,284.61,449.88Z"/><path class="cls-1" d="M304.67,435.41V470h-5.49V435.41Z"/><path class="cls-1" d="M318.75,445.71a11.61,11.61,0,0,1,2.76.31,9.35,9.35,0,0,1,2.35.92h6.55v2.15a1.25,1.25,0,0,1-.27.84,1.49,1.49,0,0,1-.91.41l-2,.4a8.59,8.59,0,0,1,.35,1.28,8.16,8.16,0,0,1,.12,1.42,7.44,7.44,0,0,1-.68,3.21,7.11,7.11,0,0,1-1.87,2.44,8.52,8.52,0,0,1-2.82,1.54,10.9,10.9,0,0,1-3.54.55,12.28,12.28,0,0,1-2.51-.25,1.87,1.87,0,0,0-1.06,1.52,1.13,1.13,0,0,0,.63,1.07,4.81,4.81,0,0,0,1.66.48,16.59,16.59,0,0,0,2.35.14c.87,0,1.77,0,2.68.12a19.58,19.58,0,0,1,2.69.41,7.54,7.54,0,0,1,2.35.92,4.89,4.89,0,0,1,1.66,1.72,5.54,5.54,0,0,1,.63,2.79,6.79,6.79,0,0,1-.74,3.09,8.24,8.24,0,0,1-2.15,2.67,11.2,11.2,0,0,1-3.46,1.88,14,14,0,0,1-4.66.71,17.15,17.15,0,0,1-4.51-.52,10.34,10.34,0,0,1-3.17-1.4,5.85,5.85,0,0,1-1.87-2,4.84,4.84,0,0,1-.63-2.37,4.19,4.19,0,0,1,1-2.82,6.71,6.71,0,0,1,2.71-1.82,3.85,3.85,0,0,1-1.35-1.31,3.94,3.94,0,0,1-.51-2.12,3.64,3.64,0,0,1,.17-1.1,4.36,4.36,0,0,1,.55-1.13,5.34,5.34,0,0,1,.92-1.07,6.4,6.4,0,0,1,1.31-.89,7.49,7.49,0,0,1-2.72-2.61,7.23,7.23,0,0,1-1-3.83,7.43,7.43,0,0,1,.68-3.2,7.08,7.08,0,0,1,1.89-2.45,8.56,8.56,0,0,1,2.86-1.55A11.88,11.88,0,0,1,318.75,445.71Zm6,25.33a1.67,1.67,0,0,0-.4-1.16,2.69,2.69,0,0,0-1.09-.71,8,8,0,0,0-1.61-.36,15,15,0,0,0-1.95-.12h-2.14a8.73,8.73,0,0,1-2.12-.26,5.1,5.1,0,0,0-1.5,1.27,2.73,2.73,0,0,0-.56,1.69,2.44,2.44,0,0,0,.3,1.18,2.59,2.59,0,0,0,.95.94,5.5,5.5,0,0,0,1.7.62,12.44,12.44,0,0,0,2.56.22,12,12,0,0,0,2.64-.25,6.25,6.25,0,0,0,1.83-.69,2.88,2.88,0,0,0,1.06-1.05A2.69,2.69,0,0,0,324.77,471Zm-6-13.54a5.07,5.07,0,0,0,1.78-.29,3.43,3.43,0,0,0,1.25-.81,3.23,3.23,0,0,0,.76-1.23,4.72,4.72,0,0,0,.25-1.58,3.81,3.81,0,0,0-1-2.81,4.93,4.93,0,0,0-6.06,0,3.85,3.85,0,0,0-1,2.81,4.68,4.68,0,0,0,.25,1.56,3.49,3.49,0,0,0,.76,1.24,3.4,3.4,0,0,0,1.26.82A5.09,5.09,0,0,0,318.75,457.5Z"/><path class="cls-1" d="M351.71,470h-2.46a2.51,2.51,0,0,1-1.23-.25,1.58,1.58,0,0,1-.66-1l-.49-1.7a19.17,19.17,0,0,1-1.7,1.44,10.17,10.17,0,0,1-1.72,1,8.4,8.4,0,0,1-1.89.63,10.87,10.87,0,0,1-2.22.21,8.11,8.11,0,0,1-2.66-.41,5.44,5.44,0,0,1-3.47-3.26,7.45,7.45,0,0,1-.49-2.83,5.86,5.86,0,0,1,.68-2.68,6.54,6.54,0,0,1,2.25-2.38,14,14,0,0,1,4.2-1.77,26,26,0,0,1,6.51-.7V455a5.51,5.51,0,0,0-1-3.58,3.45,3.45,0,0,0-2.81-1.16,6.68,6.68,0,0,0-2.22.32,8.84,8.84,0,0,0-1.54.74c-.44.27-.84.52-1.21.73a2.35,2.35,0,0,1-1.22.33,1.57,1.57,0,0,1-1-.3,2.31,2.31,0,0,1-.64-.75l-1-1.84a13.18,13.18,0,0,1,9.48-3.78,8.81,8.81,0,0,1,3.57.69,7.64,7.64,0,0,1,2.65,1.91,8.26,8.26,0,0,1,1.66,2.93,12,12,0,0,1,.56,3.73Zm-10.66-3.59a6.83,6.83,0,0,0,1.55-.16,6,6,0,0,0,1.35-.48,7.68,7.68,0,0,0,1.22-.79,12.15,12.15,0,0,0,1.19-1.12v-4a21.3,21.3,0,0,0-4,.32,10.17,10.17,0,0,0-2.59.81,3.42,3.42,0,0,0-1.39,1.15,2.67,2.67,0,0,0-.41,1.43,2.58,2.58,0,0,0,.86,2.18A3.54,3.54,0,0,0,341.05,466.45Z"/><path class="cls-1" d="M364.59,470.41a5.81,5.81,0,0,1-4.55-1.76,7,7,0,0,1-1.6-4.86V450.44h-2.31a1,1,0,0,1-.76-.31,1.16,1.16,0,0,1-.33-.9v-2.29l3.67-.63,1.15-6.52a1.24,1.24,0,0,1,.41-.73,1.28,1.28,0,0,1,.81-.25h2.85v7.53h6v4.1h-6v13a2.62,2.62,0,0,0,.53,1.74,1.77,1.77,0,0,0,1.42.63,2.66,2.66,0,0,0,.86-.12,5.84,5.84,0,0,0,.6-.27c.17-.1.32-.18.45-.27a.73.73,0,0,1,.4-.13.58.58,0,0,1,.4.13,1.88,1.88,0,0,1,.34.38l1.64,2.8a8.24,8.24,0,0,1-2.76,1.59A10,10,0,0,1,364.59,470.41Z"/><path class="cls-1" d="M383.72,445.75a10.41,10.41,0,0,1,4,.73,8.5,8.5,0,0,1,3.12,2.11,9.54,9.54,0,0,1,2.05,3.4,13.38,13.38,0,0,1,.73,4.6,7.9,7.9,0,0,1-.06,1.08,1.61,1.61,0,0,1-.2.68.8.8,0,0,1-.38.35,1.65,1.65,0,0,1-.63.11H378.23a8.42,8.42,0,0,0,1.89,5.4,5.75,5.75,0,0,0,4.35,1.73,7.12,7.12,0,0,0,2.3-.33,10.86,10.86,0,0,0,1.69-.72l1.27-.72a2,2,0,0,1,1-.33,1.18,1.18,0,0,1,.58.14,1.33,1.33,0,0,1,.42.4l1.6,2.09a9.5,9.5,0,0,1-2,1.88,11.53,11.53,0,0,1-2.37,1.21,12.33,12.33,0,0,1-2.51.64,16.41,16.41,0,0,1-2.48.19,11.74,11.74,0,0,1-4.42-.83,9.89,9.89,0,0,1-3.55-2.45,11.56,11.56,0,0,1-2.38-4,16.44,16.44,0,0,1-.86-5.54,13.87,13.87,0,0,1,.75-4.6,11.22,11.22,0,0,1,2.17-3.75,10.15,10.15,0,0,1,3.44-2.53A10.79,10.79,0,0,1,383.72,445.75Zm.11,4.13a4.91,4.91,0,0,0-3.75,1.42,7.12,7.12,0,0,0-1.74,4h10.31a7.63,7.63,0,0,0-.29-2.11,4.82,4.82,0,0,0-.89-1.73,4.21,4.21,0,0,0-1.51-1.18A4.91,4.91,0,0,0,383.83,449.88Z"/><path class="cls-1" d="M406.06,452.7l-10.24-16.36h5.95a1.81,1.81,0,0,1,.9.17,1.49,1.49,0,0,1,.5.57l7.31,12.38c.08-.2.16-.4.25-.59a4.28,4.28,0,0,1,.31-.6l6.68-11.07a1.46,1.46,0,0,1,1.27-.86h5.73l-10.35,16.1L425,470h-6a1.37,1.37,0,0,1-1-.33,2.71,2.71,0,0,1-.61-.74L410,456.05a5.36,5.36,0,0,1-.2.53c-.08.16-.15.31-.23.45L402.46,469a3.43,3.43,0,0,1-.6.73,1.2,1.2,0,0,1-.88.34h-5.6Z"/><polygon class="cls-1" points="352.92 52.2 201.84 52.2 126.31 183.04 201.84 313.87 352.92 313.87 428.46 183.04 352.92 52.2"/><polygon class="cls-1" points="352.92 52.2 201.84 52.2 126.31 183.04 201.84 313.88 352.92 313.88 428.46 183.04 352.92 52.2"/><path class="cls-2" d="M220.72,191.26,215,177.85h-9.57l11.5,17.25h5.74l11.51-17.25Zm.08-58.67-5.74-13.41h-9.6L217,136.42h5.76l11.48-17.24Zm0,0-5.74-13.41h-9.6L217,136.42h5.76l11.48-17.24Zm-.08,58.67L215,177.85h-9.57l11.5,17.25h5.74l11.51-17.25Zm0,0L215,177.85h-9.57l11.5,17.25h5.74l11.51-17.25Zm.08-58.67-5.74-13.41h-9.6L217,136.42h5.76l11.48-17.24Zm0,0-5.74-13.41h-9.6L217,136.42h5.76l11.48-17.24Zm-.08,58.67L215,177.85h-9.57l11.5,17.25h5.74l11.51-17.25ZM352.92,52.2H201.84L126.3,183.05l75.54,130.81H352.92l75.54-130.81Zm-121,210.5H207.63l-12.13-21,12.13-21h24.24l12.11,21ZM232,204H207.72l-12.11-21,12.11-21H232l12.14,21Zm.11-58.67H207.82l-12.13-21,12.13-21h24.24l12.11,21ZM349,248.63a7.24,7.24,0,0,1-5.17,2.15h-73a7.3,7.3,0,0,1-7.32-7.31,7.34,7.34,0,0,1,7.32-7.32h73a7.32,7.32,0,0,1,7.32,7.32A7.17,7.17,0,0,1,349,248.63Zm0-59.84a7.28,7.28,0,0,1-5.17,2.15h-73a7.31,7.31,0,0,1-7.32-7.32,7.34,7.34,0,0,1,7.32-7.32h73a7.32,7.32,0,0,1,7.32,7.32A7.21,7.21,0,0,1,349,188.79Zm0-59.85a7.24,7.24,0,0,1-5.17,2.15h-73a7.3,7.3,0,0,1-7.32-7.32,7.34,7.34,0,0,1,7.32-7.31h73a7.31,7.31,0,0,1,7.32,7.31A7.19,7.19,0,0,1,349,128.94Zm-133.89-9.76h-9.6L217,136.42h5.76l11.48-17.24L220.8,132.59ZM215,177.85h-9.57l11.5,17.25h5.74l11.51-17.25-13.41,13.41Zm-.08,58.68h-9.6l11.5,17.25h5.77L234,236.53l-13.41,13.41Zm5.85-45.27L215,177.85h-9.57l11.5,17.25h5.74l11.51-17.25Zm.08-58.67-5.74-13.41h-9.6L217,136.42h5.76l11.48-17.24Zm0,0-5.74-13.41h-9.6L217,136.42h5.76l11.48-17.24Zm-.08,58.67L215,177.85h-9.57l11.5,17.25h5.74l11.51-17.25Zm.08-58.67-5.74-13.41h-9.6L217,136.42h5.76l11.48-17.24Zm0,0-5.74-13.41h-9.6L217,136.42h5.76l11.48-17.24Z"/></svg>