<svg id="Capa_1" data-name="Capa 1" xmlns="http://www.w3.org/2000/svg" viewBox="0 0 478.76 523"><defs><style>.cls-1{fill:#0c2340;}.cls-2{fill:#fff;}.cls-3{fill:#2b7a6d;}</style></defs><title>logos-RGB-trazado</title><rect class="cls-1" x="-17.12" y="-19" width="532.07" height="561"/><path class="cls-2" d="M61.14,410.32H81.35v8.13H51.75v-53h9.39Z"/><path class="cls-2" d="M133.48,392a30.71,30.71,0,0,1-1.85,10.79,25.83,25.83,0,0,1-5.2,8.59,23.51,23.51,0,0,1-8.07,5.66,27.76,27.76,0,0,1-20.89,0,23.44,23.44,0,0,1-8.1-5.66,25.39,25.39,0,0,1-5.22-8.59,32.36,32.36,0,0,1,0-21.57,25.54,25.54,0,0,1,5.22-8.6,23.55,23.55,0,0,1,8.1-5.65,27.7,27.7,0,0,1,20.89,0,24.06,24.06,0,0,1,8.07,5.66,25.79,25.79,0,0,1,5.2,8.58A30.66,30.66,0,0,1,133.48,392Zm-9.64,0a25.61,25.61,0,0,0-1.1-7.82,16.67,16.67,0,0,0-3.16-5.88,13.65,13.65,0,0,0-5-3.7,16.57,16.57,0,0,0-6.65-1.28,16.77,16.77,0,0,0-6.67,1.28,13.84,13.84,0,0,0-5,3.7,16.9,16.9,0,0,0-3.2,5.88,28.14,28.14,0,0,0,0,15.65,16.71,16.71,0,0,0,3.2,5.86,13.91,13.91,0,0,0,5,3.68,16.77,16.77,0,0,0,6.67,1.28,16.57,16.57,0,0,0,6.65-1.28,13.71,13.71,0,0,0,5-3.68,16.49,16.49,0,0,0,3.16-5.86A25.63,25.63,0,0,0,123.84,392Z"/><path class="cls-2" d="M164.06,411.2a22,22,0,0,0,5.53-.61,23,23,0,0,0,4.49-1.66v-9.64h-6.32a1.94,1.94,0,0,1-1.43-.53,1.77,1.77,0,0,1-.52-1.3v-5.57H182.6v21.43a27,27,0,0,1-4,2.55,25.14,25.14,0,0,1-4.43,1.78,32.89,32.89,0,0,1-5,1,45.5,45.5,0,0,1-5.79.35,25.11,25.11,0,0,1-10.16-2,24,24,0,0,1-8-5.6,25.69,25.69,0,0,1-5.29-8.58A30.18,30.18,0,0,1,138,392,31.07,31.07,0,0,1,139.8,381a24.78,24.78,0,0,1,5.25-8.57,23.41,23.41,0,0,1,8.26-5.57,28.56,28.56,0,0,1,10.89-2,27.05,27.05,0,0,1,10.7,1.93,24.32,24.32,0,0,1,7.66,5l-2.72,4.46a2.4,2.4,0,0,1-2.13,1.36,3.07,3.07,0,0,1-1.71-.59c-.74-.46-1.51-.92-2.29-1.39a16.18,16.18,0,0,0-2.58-1.21,20.33,20.33,0,0,0-3.18-.84,22.22,22.22,0,0,0-4.06-.33,16.67,16.67,0,0,0-6.76,1.32,14.42,14.42,0,0,0-5.15,3.77,17.34,17.34,0,0,0-3.28,5.9,24.11,24.11,0,0,0-1.15,7.69,25,25,0,0,0,1.22,8.16,17.08,17.08,0,0,0,3.42,6,14.74,14.74,0,0,0,5.24,3.76A16.76,16.76,0,0,0,164.06,411.2Z"/><path class="cls-2" d="M214.54,411.2a22.13,22.13,0,0,0,5.54-.61,22.88,22.88,0,0,0,4.48-1.66v-9.64h-6.32a1.94,1.94,0,0,1-1.43-.53,1.77,1.77,0,0,1-.52-1.3v-5.57h16.79v21.43a27,27,0,0,1-4,2.55,25.14,25.14,0,0,1-4.43,1.78,32.65,32.65,0,0,1-5.05,1,45.5,45.5,0,0,1-5.79.35,25.15,25.15,0,0,1-10.16-2,24.06,24.06,0,0,1-8-5.6,25.69,25.69,0,0,1-5.29-8.58,30.18,30.18,0,0,1-1.9-10.88A31.3,31.3,0,0,1,190.28,381a24.78,24.78,0,0,1,5.25-8.57,23.41,23.41,0,0,1,8.26-5.57,28.59,28.59,0,0,1,10.89-2,27.05,27.05,0,0,1,10.7,1.93,24.37,24.37,0,0,1,7.67,5l-2.73,4.46a2.39,2.39,0,0,1-2.13,1.36,3.07,3.07,0,0,1-1.71-.59l-2.28-1.39a16.29,16.29,0,0,0-2.59-1.21,20.33,20.33,0,0,0-3.18-.84,22.22,22.22,0,0,0-4.06-.33,16.74,16.74,0,0,0-6.76,1.32,14.42,14.42,0,0,0-5.15,3.77,17.34,17.34,0,0,0-3.28,5.9A24.11,24.11,0,0,0,198,392a25.32,25.32,0,0,0,1.22,8.16,17.39,17.39,0,0,0,3.42,6,14.74,14.74,0,0,0,5.24,3.76A16.76,16.76,0,0,0,214.54,411.2Z"/><path class="cls-2" d="M252.42,418.45H243v-53h9.42Z"/><path class="cls-2" d="M269.74,365.53a2.44,2.44,0,0,1,.75.22,2.49,2.49,0,0,1,.64.48,7.13,7.13,0,0,1,.7.82l26.5,35.43c-.09-.86-.16-1.69-.19-2.51s-.05-1.58-.05-2.29v-32.2h8.27v53h-4.85a4,4,0,0,1-1.85-.37,4.2,4.2,0,0,1-1.44-1.31l-26.39-35.28c.07.78.12,1.55.16,2.32s.05,1.47.05,2.11v32.53h-8.27v-53h4.92A10,10,0,0,1,269.74,365.53Z"/><path class="cls-2" d="M339.74,411.2a22.1,22.1,0,0,0,5.53-.61,23,23,0,0,0,4.49-1.66v-9.64h-6.32a1.91,1.91,0,0,1-1.43-.53,1.78,1.78,0,0,1-.53-1.3v-5.57h16.79v21.43a27.43,27.43,0,0,1-4,2.55,25.56,25.56,0,0,1-4.44,1.78,32.76,32.76,0,0,1-5,1,45.66,45.66,0,0,1-5.8.35,25.18,25.18,0,0,1-10.16-2,24.16,24.16,0,0,1-8-5.6,25.85,25.85,0,0,1-5.29-8.58,30.4,30.4,0,0,1-1.9-10.88A31.3,31.3,0,0,1,315.47,381a25,25,0,0,1,5.26-8.57,23.46,23.46,0,0,1,8.25-5.57,28.64,28.64,0,0,1,10.9-2,27.09,27.09,0,0,1,10.7,1.93,24.44,24.44,0,0,1,7.66,5l-2.72,4.46a2.41,2.41,0,0,1-2.13,1.36,3.07,3.07,0,0,1-1.71-.59l-2.29-1.39a16.18,16.18,0,0,0-2.58-1.21,20.94,20.94,0,0,0-3.18-.84,22.34,22.34,0,0,0-4.07-.33,16.66,16.66,0,0,0-6.75,1.32,14.33,14.33,0,0,0-5.15,3.77,17.35,17.35,0,0,0-3.29,5.9,24.4,24.4,0,0,0-1.15,7.69,25.32,25.32,0,0,0,1.22,8.16,17.25,17.25,0,0,0,3.43,6,14.7,14.7,0,0,0,5.23,3.76A16.84,16.84,0,0,0,339.74,411.2Z"/><path class="cls-2" d="M365.43,392.55h18.08v7.55H365.43Z"/><path class="cls-2" d="M401.91,391.19l-16.09-25.71h9.36a2.78,2.78,0,0,1,1.41.27,2.43,2.43,0,0,1,.78.9l11.49,19.45c.12-.31.24-.63.38-.93s.31-.62.49-.94l10.51-17.4a2.27,2.27,0,0,1,2-1.35h9L415,390.79l16.72,27.66H422.3a2.22,2.22,0,0,1-1.52-.51,4.92,4.92,0,0,1-1-1.17l-11.69-20.3a7.79,7.79,0,0,1-.32.82c-.11.26-.23.5-.35.72l-11.2,18.76a5.7,5.7,0,0,1-.95,1.15,1.94,1.94,0,0,1-1.39.53h-8.8Z"/><path class="cls-2" d="M94.49,470V435.4H100v13.66a11,11,0,0,1,3.07-2.41,8.46,8.46,0,0,1,4-.9,7.24,7.24,0,0,1,3.41.81,7.48,7.48,0,0,1,2.66,2.34,11.5,11.5,0,0,1,1.74,3.8,20.34,20.34,0,0,1,.61,5.2,17.09,17.09,0,0,1-.69,5,12.45,12.45,0,0,1-2,4,9.08,9.08,0,0,1-3.08,2.62,8.65,8.65,0,0,1-4.06.95,8.14,8.14,0,0,1-1.91-.22,6.93,6.93,0,0,1-1.58-.62,7.23,7.23,0,0,1-1.32-1,10.94,10.94,0,0,1-1.16-1.27l-.25,1.61a1.5,1.5,0,0,1-.45.86,1.4,1.4,0,0,1-.88.26Zm10.66-19.81a5.44,5.44,0,0,0-2.92.75,8.7,8.7,0,0,0-2.26,2.14v10.72a5.29,5.29,0,0,0,2,1.69,5.89,5.89,0,0,0,2.38.48,5.16,5.16,0,0,0,2.25-.49,4.63,4.63,0,0,0,1.7-1.49,8,8,0,0,0,1.08-2.53,15.27,15.27,0,0,0,.37-3.6,17.12,17.12,0,0,0-.32-3.56,6.88,6.88,0,0,0-.92-2.36,3.69,3.69,0,0,0-1.46-1.33A4.32,4.32,0,0,0,105.15,450.23Z"/><path class="cls-2" d="M127.1,476.61a2.25,2.25,0,0,1-.64.92,1.86,1.86,0,0,1-1.19.32h-4.08l4.26-9.58-9.22-22.14H121a1.42,1.42,0,0,1,1,.32,2.17,2.17,0,0,1,.54.75l4.86,12.4a11.63,11.63,0,0,1,.42,1.26c.12.43.23.87.31,1.3.12-.45.25-.89.39-1.3s.29-.85.46-1.29l4.57-12.37a1.72,1.72,0,0,1,.59-.77,1.53,1.53,0,0,1,.92-.3h4.4Z"/><path class="cls-2" d="M174.23,436.34v5.15h-9.67V470h-6V441.49h-9.71v-5.15Z"/><path class="cls-2" d="M174.16,470V446.13h3.22a1.67,1.67,0,0,1,1.18.32,1.92,1.92,0,0,1,.44,1.12l.34,2.89A11,11,0,0,1,182.2,447a5.82,5.82,0,0,1,3.69-1.29,4.64,4.64,0,0,1,2.8.82l-.72,4.31a.89.89,0,0,1-.28.59.93.93,0,0,1-.6.18,3.41,3.41,0,0,1-.91-.16,5.8,5.8,0,0,0-1.54-.17,4.52,4.52,0,0,0-2.93,1,7.6,7.6,0,0,0-2.06,2.91V470Z"/><path class="cls-2" d="M209.52,470h-2.47a2.49,2.49,0,0,1-1.22-.25,1.54,1.54,0,0,1-.66-1l-.49-1.7a20.72,20.72,0,0,1-1.7,1.44,10.58,10.58,0,0,1-1.72,1,8.57,8.57,0,0,1-1.89.63,10.87,10.87,0,0,1-2.22.21,8.44,8.44,0,0,1-2.67-.41,5.66,5.66,0,0,1-2.1-1.23,5.5,5.5,0,0,1-1.36-2,7.45,7.45,0,0,1-.49-2.83,5.73,5.73,0,0,1,.68-2.68,6.54,6.54,0,0,1,2.25-2.38,14,14,0,0,1,4.2-1.77,25.55,25.55,0,0,1,6.51-.7V455a5.56,5.56,0,0,0-1-3.58,3.45,3.45,0,0,0-2.81-1.16,6.68,6.68,0,0,0-2.22.32,8.51,8.51,0,0,0-1.54.74c-.44.27-.84.52-1.21.73a2.36,2.36,0,0,1-1.23.33,1.54,1.54,0,0,1-.95-.3,2.47,2.47,0,0,1-.65-.75l-1-1.84a13.18,13.18,0,0,1,9.48-3.78,8.73,8.73,0,0,1,3.56.69,7.68,7.68,0,0,1,2.66,1.91,8.24,8.24,0,0,1,1.65,2.93,11.63,11.63,0,0,1,.57,3.73Zm-10.66-3.59a6.83,6.83,0,0,0,1.55-.16,6.19,6.19,0,0,0,1.35-.48A7.68,7.68,0,0,0,203,465a12.15,12.15,0,0,0,1.19-1.12v-4a21.3,21.3,0,0,0-4,.32,10,10,0,0,0-2.59.81,3.42,3.42,0,0,0-1.39,1.15,2.67,2.67,0,0,0-.41,1.43,2.58,2.58,0,0,0,.86,2.18A3.54,3.54,0,0,0,198.86,466.45Z"/><path class="cls-2" d="M225.53,470h-5l-9.06-23.91h4.55a1.66,1.66,0,0,1,1,.3,1.61,1.61,0,0,1,.57.77L222,460c.26.75.47,1.48.64,2.19s.32,1.43.45,2.15c.14-.72.29-1.43.46-2.15s.39-1.44.65-2.19l4.51-12.77a1.59,1.59,0,0,1,.56-.77,1.52,1.52,0,0,1,1-.3h4.33Z"/><path class="cls-2" d="M246.5,445.75a10.47,10.47,0,0,1,4,.73,8.77,8.77,0,0,1,3.12,2.1,9.81,9.81,0,0,1,2,3.41,13.38,13.38,0,0,1,.73,4.6,10.31,10.31,0,0,1-.05,1.08,2,2,0,0,1-.2.68.87.87,0,0,1-.39.35,1.56,1.56,0,0,1-.62.11H241a8.53,8.53,0,0,0,1.89,5.4,5.75,5.75,0,0,0,4.36,1.73,7.1,7.1,0,0,0,2.29-.33,10.86,10.86,0,0,0,1.69-.72l1.27-.72a2,2,0,0,1,1.05-.33,1.16,1.16,0,0,1,.58.14,1.22,1.22,0,0,1,.42.4l1.6,2.09a9.27,9.27,0,0,1-2,1.88,11.28,11.28,0,0,1-2.37,1.21,12.17,12.17,0,0,1-2.51.64,16.28,16.28,0,0,1-2.47.19,11.67,11.67,0,0,1-4.42-.83,9.84,9.84,0,0,1-3.56-2.45,11.54,11.54,0,0,1-2.37-4,16.19,16.19,0,0,1-.87-5.54,13.62,13.62,0,0,1,.76-4.6,11.18,11.18,0,0,1,2.16-3.76,10.26,10.26,0,0,1,3.44-2.52A10.79,10.79,0,0,1,246.5,445.75Zm.11,4.13a4.91,4.91,0,0,0-3.75,1.42,7.18,7.18,0,0,0-1.73,4h10.3a7.27,7.27,0,0,0-.29-2.11,4.82,4.82,0,0,0-.89-1.73,4.21,4.21,0,0,0-1.51-1.18A4.85,4.85,0,0,0,246.61,449.88Z"/><path class="cls-2" d="M266.67,435.4V470h-5.49V435.4Z"/><path class="cls-2" d="M280.75,445.71a11.53,11.53,0,0,1,2.75.31,9.28,9.28,0,0,1,2.36.92h6.55v2.15a1.25,1.25,0,0,1-.27.84,1.49,1.49,0,0,1-.91.41l-2,.4a7.52,7.52,0,0,1,.34,1.28,7.28,7.28,0,0,1,.13,1.42,7.44,7.44,0,0,1-.68,3.21,7,7,0,0,1-1.87,2.43,8.37,8.37,0,0,1-2.82,1.55,11,11,0,0,1-3.54.55,12.21,12.21,0,0,1-2.51-.25,1.88,1.88,0,0,0-1.07,1.52,1.14,1.14,0,0,0,.64,1.07,4.75,4.75,0,0,0,1.66.48,16.59,16.59,0,0,0,2.35.14c.87,0,1.77,0,2.68.12a19.58,19.58,0,0,1,2.69.41,7.48,7.48,0,0,1,2.34.92,4.83,4.83,0,0,1,1.67,1.72,5.54,5.54,0,0,1,.63,2.79,6.82,6.82,0,0,1-.74,3.09,8.27,8.27,0,0,1-2.16,2.67,11.15,11.15,0,0,1-3.45,1.88,14.26,14.26,0,0,1-4.66.71,17.1,17.1,0,0,1-4.51-.52,10.34,10.34,0,0,1-3.17-1.4,5.94,5.94,0,0,1-1.87-2,4.84,4.84,0,0,1-.63-2.37,4.19,4.19,0,0,1,1-2.82,6.71,6.71,0,0,1,2.71-1.82,3.85,3.85,0,0,1-1.35-1.31,3.94,3.94,0,0,1-.51-2.12,3.59,3.59,0,0,1,.17-1.1,4.42,4.42,0,0,1,.55-1.14,5.59,5.59,0,0,1,.92-1.06,6.4,6.4,0,0,1,1.31-.89,7.42,7.42,0,0,1-2.72-2.61,7.26,7.26,0,0,1-1-3.83,7.4,7.4,0,0,1,.68-3.2,7.18,7.18,0,0,1,1.88-2.45,8.71,8.71,0,0,1,2.87-1.55A11.88,11.88,0,0,1,280.75,445.71Zm6,25.33a1.67,1.67,0,0,0-.4-1.16,2.69,2.69,0,0,0-1.09-.71,8.18,8.18,0,0,0-1.61-.36,15.13,15.13,0,0,0-1.95-.12h-2.14a8.73,8.73,0,0,1-2.12-.26,5.1,5.1,0,0,0-1.5,1.27,2.73,2.73,0,0,0-.56,1.69,2.44,2.44,0,0,0,.3,1.18,2.59,2.59,0,0,0,.95.94,5.67,5.67,0,0,0,1.7.62,12.44,12.44,0,0,0,2.56.22,12,12,0,0,0,2.64-.25,6.25,6.25,0,0,0,1.83-.69,2.88,2.88,0,0,0,1.06-1.05A2.69,2.69,0,0,0,286.77,471Zm-6-13.54a5.07,5.07,0,0,0,1.78-.29,3.43,3.43,0,0,0,1.25-.81,3.36,3.36,0,0,0,.76-1.23,4.74,4.74,0,0,0,.25-1.59,3.8,3.8,0,0,0-1-2.8,4.93,4.93,0,0,0-6.06,0,3.8,3.8,0,0,0-1,2.8,4.74,4.74,0,0,0,.25,1.57,3.49,3.49,0,0,0,.76,1.24,3.4,3.4,0,0,0,1.26.82A5.05,5.05,0,0,0,280.75,457.5Z"/><path class="cls-2" d="M313.71,470h-2.47a2.49,2.49,0,0,1-1.22-.25,1.54,1.54,0,0,1-.66-1l-.49-1.7a20.72,20.72,0,0,1-1.7,1.44,10.58,10.58,0,0,1-1.72,1,8.57,8.57,0,0,1-1.89.63,10.87,10.87,0,0,1-2.22.21,8.49,8.49,0,0,1-2.67-.41,5.66,5.66,0,0,1-2.1-1.23,5.5,5.5,0,0,1-1.36-2,7.45,7.45,0,0,1-.49-2.83,5.73,5.73,0,0,1,.68-2.68,6.54,6.54,0,0,1,2.25-2.38,14,14,0,0,1,4.2-1.77,25.55,25.55,0,0,1,6.51-.7V455a5.56,5.56,0,0,0-1-3.58,3.45,3.45,0,0,0-2.81-1.16,6.68,6.68,0,0,0-2.22.32,8.51,8.51,0,0,0-1.54.74c-.44.27-.84.52-1.21.73a2.36,2.36,0,0,1-1.23.33,1.54,1.54,0,0,1-.95-.3,2.47,2.47,0,0,1-.65-.75l-1-1.84a13.18,13.18,0,0,1,9.48-3.78,8.73,8.73,0,0,1,3.56.69,7.68,7.68,0,0,1,2.66,1.91,8.24,8.24,0,0,1,1.65,2.93,11.63,11.63,0,0,1,.57,3.73Zm-10.66-3.59a6.83,6.83,0,0,0,1.55-.16,6.19,6.19,0,0,0,1.35-.48,7.68,7.68,0,0,0,1.22-.79,12.15,12.15,0,0,0,1.19-1.12v-4a21.3,21.3,0,0,0-4,.32,10,10,0,0,0-2.59.81,3.42,3.42,0,0,0-1.39,1.15,2.67,2.67,0,0,0-.41,1.43,2.58,2.58,0,0,0,.86,2.18A3.54,3.54,0,0,0,303.05,466.45Z"/><path class="cls-2" d="M326.59,470.41a5.83,5.83,0,0,1-4.55-1.76,6.93,6.93,0,0,1-1.6-4.86V450.44h-2.31a1.06,1.06,0,0,1-.77-.31,1.19,1.19,0,0,1-.32-.9v-2.29l3.67-.63,1.15-6.52a1.21,1.21,0,0,1,.41-.73,1.28,1.28,0,0,1,.81-.25h2.85v7.53h6v4.1h-6v13a2.57,2.57,0,0,0,.53,1.74,1.76,1.76,0,0,0,1.42.63,2.66,2.66,0,0,0,.86-.12c.23-.09.42-.18.6-.27l.45-.27a.7.7,0,0,1,.4-.13.58.58,0,0,1,.4.13,1.9,1.9,0,0,1,.33.38l1.65,2.8a8.24,8.24,0,0,1-2.76,1.59A10,10,0,0,1,326.59,470.41Z"/><path class="cls-2" d="M345.72,445.75a10.45,10.45,0,0,1,4,.73,8.6,8.6,0,0,1,3.12,2.1,9.68,9.68,0,0,1,2.05,3.41,13.62,13.62,0,0,1,.73,4.6,7.9,7.9,0,0,1-.06,1.08,1.77,1.77,0,0,1-.2.68.78.78,0,0,1-.39.35,1.56,1.56,0,0,1-.62.11H340.23a8.42,8.42,0,0,0,1.89,5.4,5.72,5.72,0,0,0,4.35,1.73,7.12,7.12,0,0,0,2.3-.33,11.29,11.29,0,0,0,1.69-.72l1.26-.72a2.07,2.07,0,0,1,1.06-.33,1.14,1.14,0,0,1,1,.54l1.6,2.09a9.32,9.32,0,0,1-2.05,1.88,11.21,11.21,0,0,1-2.36,1.21,12.33,12.33,0,0,1-2.51.64,16.41,16.41,0,0,1-2.48.19,11.71,11.71,0,0,1-4.42-.83,9.8,9.8,0,0,1-3.55-2.45,11.56,11.56,0,0,1-2.38-4,16.2,16.2,0,0,1-.86-5.54,13.87,13.87,0,0,1,.75-4.6,11.2,11.2,0,0,1,2.17-3.76,10.16,10.16,0,0,1,3.44-2.52A10.73,10.73,0,0,1,345.72,445.75Zm.11,4.13a5,5,0,0,0-3.76,1.42,7.18,7.18,0,0,0-1.73,4h10.31a7.63,7.63,0,0,0-.29-2.11,4.82,4.82,0,0,0-.89-1.73,4.21,4.21,0,0,0-1.51-1.18A4.91,4.91,0,0,0,345.83,449.88Z"/><path class="cls-2" d="M368.06,452.7l-10.24-16.36h5.95a1.81,1.81,0,0,1,.9.17,1.58,1.58,0,0,1,.5.57l7.31,12.38c.07-.2.16-.4.24-.6s.2-.39.32-.59l6.68-11.07a1.44,1.44,0,0,1,1.27-.86h5.73l-10.35,16.1L387,470h-6a1.41,1.41,0,0,1-1-.33,3.34,3.34,0,0,1-.61-.74L372,456.05a3.65,3.65,0,0,1-.2.53,4.71,4.71,0,0,1-.22.45L364.46,469a3.43,3.43,0,0,1-.6.73,1.22,1.22,0,0,1-.89.34h-5.59Z"/><polygon class="cls-2" points="314.92 52.2 163.85 52.2 88.31 183.04 163.85 313.87 314.92 313.87 390.46 183.04 314.92 52.2"/><path class="cls-3" d="M292.68,105.14H180.09a8.61,8.61,0,0,0-8.6,8.6V226.33a8.61,8.61,0,0,0,8.6,8.6h40.14c-.15-1.6-.22-3.22-.22-4.86a54.09,54.09,0,0,1,3.25-18.51H193.59v-10h34.53a54.23,54.23,0,0,1,12.49-14h-47v-10h67.25a54.38,54.38,0,0,1,40.44,5.61V113.74A8.61,8.61,0,0,0,292.68,105.14Zm-13.5,58.42H193.59v-10h85.59Zm0-24H193.59v-10h85.59Zm32.1,66.61a44.54,44.54,0,0,0-10-10.94,44.25,44.25,0,1,0,10,10.94ZM299.7,233.51l-21.39,19.15a5,5,0,0,1-3.34,1.27,1.51,1.51,0,0,1-.3,0,2.73,2.73,0,0,1-.5,0l-.29,0h0a4,4,0,0,1-.49,0,5,5,0,0,1-3.33-1.27l-21.4-19.15a5,5,0,0,1,6.67-7.45l14.06,12.59V208.39a5,5,0,0,1,10,0v29.9L293,226.06a5,5,0,1,1,6.66,7.45Zm-7-128.37H180.09a8.61,8.61,0,0,0-8.6,8.6V226.33a8.61,8.61,0,0,0,8.6,8.6h40.14c-.15-1.6-.22-3.22-.22-4.86a54.09,54.09,0,0,1,3.25-18.51H193.59v-10h34.53a54.23,54.23,0,0,1,12.49-14h-47v-10h67.25a54.38,54.38,0,0,1,40.44,5.61V113.74A8.61,8.61,0,0,0,292.68,105.14Zm-13.5,58.42H193.59v-10h85.59Zm0-24H193.59v-10h85.59Zm32.1,66.61a44.54,44.54,0,0,0-10-10.94,44.25,44.25,0,1,0,10,10.94ZM299.7,233.51l-21.39,19.15a5,5,0,0,1-3.34,1.27,1.51,1.51,0,0,1-.3,0,2.73,2.73,0,0,1-.5,0l-.29,0h0a4,4,0,0,1-.49,0,5,5,0,0,1-3.33-1.27l-21.4-19.15a5,5,0,0,1,6.67-7.45l14.06,12.59V208.39a5,5,0,0,1,10,0v29.9L293,226.06a5,5,0,1,1,6.66,7.45Zm-7-128.37H180.09a8.61,8.61,0,0,0-8.6,8.6V226.33a8.61,8.61,0,0,0,8.6,8.6h40.14c-.15-1.6-.22-3.22-.22-4.86a54.09,54.09,0,0,1,3.25-18.51H193.59v-10h34.53a54.23,54.23,0,0,1,12.49-14h-47v-10h67.25a54.38,54.38,0,0,1,40.44,5.61V113.74A8.61,8.61,0,0,0,292.68,105.14Zm-13.5,58.42H193.59v-10h85.59Zm0-24H193.59v-10h85.59Zm32.1,66.61a44.54,44.54,0,0,0-10-10.94,44.25,44.25,0,1,0,10,10.94ZM299.7,233.51l-21.39,19.15a5,5,0,0,1-3.34,1.27,1.51,1.51,0,0,1-.3,0,2.73,2.73,0,0,1-.5,0l-.29,0h0a4,4,0,0,1-.49,0,5,5,0,0,1-3.33-1.27l-21.4-19.15a5,5,0,0,1,6.67-7.45l14.06,12.59V208.39a5,5,0,0,1,10,0v29.9L293,226.06a5,5,0,1,1,6.66,7.45Zm-7-128.37H180.09a8.61,8.61,0,0,0-8.6,8.6V226.33a8.61,8.61,0,0,0,8.6,8.6h40.14c-.15-1.6-.22-3.22-.22-4.86a54.09,54.09,0,0,1,3.25-18.51H193.59v-10h34.53a54.23,54.23,0,0,1,12.49-14h-47v-10h67.25a54.38,54.38,0,0,1,40.44,5.61V113.74A8.61,8.61,0,0,0,292.68,105.14Zm-13.5,58.42H193.59v-10h85.59Zm0-24H193.59v-10h85.59Zm32.1,66.61a44.54,44.54,0,0,0-10-10.94,44.25,44.25,0,1,0,10,10.94ZM299.7,233.51l-21.39,19.15a5,5,0,0,1-3.34,1.27,1.51,1.51,0,0,1-.3,0,2.73,2.73,0,0,1-.5,0l-.29,0h0a4,4,0,0,1-.49,0,5,5,0,0,1-3.33-1.27l-21.4-19.15a5,5,0,0,1,6.67-7.45l14.06,12.59V208.39a5,5,0,0,1,10,0v29.9L293,226.06a5,5,0,1,1,6.66,7.45Zm-7-128.37H180.09a8.61,8.61,0,0,0-8.6,8.6V226.33a8.61,8.61,0,0,0,8.6,8.6h40.14c-.15-1.6-.22-3.22-.22-4.86a54.09,54.09,0,0,1,3.25-18.51H193.59v-10h34.53a54.23,54.23,0,0,1,12.49-14h-47v-10h67.25a54.38,54.38,0,0,1,40.44,5.61V113.74A8.61,8.61,0,0,0,292.68,105.14Zm-13.5,58.42H193.59v-10h85.59Zm0-24H193.59v-10h85.59Zm32.1,66.61a44.54,44.54,0,0,0-10-10.94,44.25,44.25,0,1,0,10,10.94ZM299.7,233.51l-21.39,19.15a5,5,0,0,1-3.34,1.27,1.51,1.51,0,0,1-.3,0,2.73,2.73,0,0,1-.5,0l-.29,0h0a4,4,0,0,1-.49,0,5,5,0,0,1-3.33-1.27l-21.4-19.15a5,5,0,0,1,6.67-7.45l14.06,12.59V208.39a5,5,0,0,1,10,0v29.9L293,226.06a5,5,0,1,1,6.66,7.45Zm11.58-27.34a44.54,44.54,0,0,0-10-10.94,44.25,44.25,0,1,0,10,10.94ZM299.7,233.51l-21.39,19.15a5,5,0,0,1-3.34,1.27,1.51,1.51,0,0,1-.3,0,2.73,2.73,0,0,1-.5,0l-.29,0h0a4,4,0,0,1-.49,0,5,5,0,0,1-3.33-1.27l-21.4-19.15a5,5,0,0,1,6.67-7.45l14.06,12.59V208.39a5,5,0,0,1,10,0v29.9L293,226.06a5,5,0,1,1,6.66,7.45Zm-7-128.37H180.09a8.61,8.61,0,0,0-8.6,8.6V226.33a8.61,8.61,0,0,0,8.6,8.6h40.14c-.15-1.6-.22-3.22-.22-4.86a54.09,54.09,0,0,1,3.25-18.51H193.59v-10h34.53a54.23,54.23,0,0,1,12.49-14h-47v-10h67.25a54.38,54.38,0,0,1,40.44,5.61V113.74A8.61,8.61,0,0,0,292.68,105.14Zm-13.5,58.42H193.59v-10h85.59Zm0-24H193.59v-10h85.59Zm13.5-34.42H180.09a8.61,8.61,0,0,0-8.6,8.6V226.33a8.61,8.61,0,0,0,8.6,8.6h40.14c-.15-1.6-.22-3.22-.22-4.86a54.09,54.09,0,0,1,3.25-18.51H193.59v-10h34.53a54.23,54.23,0,0,1,12.49-14h-47v-10h67.25a54.38,54.38,0,0,1,40.44,5.61V113.74A8.61,8.61,0,0,0,292.68,105.14Zm-13.5,58.42H193.59v-10h85.59Zm0-24H193.59v-10h85.59Zm32.1,66.61a44.54,44.54,0,0,0-10-10.94,44.25,44.25,0,1,0,10,10.94ZM299.7,233.51l-21.39,19.15a5,5,0,0,1-3.34,1.27,1.51,1.51,0,0,1-.3,0,2.73,2.73,0,0,1-.5,0l-.29,0h0a4,4,0,0,1-.49,0,5,5,0,0,1-3.33-1.27l-21.4-19.15a5,5,0,0,1,6.67-7.45l14.06,12.59V208.39a5,5,0,0,1,10,0v29.9L293,226.06a5,5,0,1,1,6.66,7.45Zm11.58-27.34a44.54,44.54,0,0,0-10-10.94,44.25,44.25,0,1,0,10,10.94ZM299.7,233.51l-21.39,19.15a5,5,0,0,1-3.34,1.27,1.51,1.51,0,0,1-.3,0,2.73,2.73,0,0,1-.5,0l-.29,0h0a4,4,0,0,1-.49,0,5,5,0,0,1-3.33-1.27l-21.4-19.15a5,5,0,0,1,6.67-7.45l14.06,12.59V208.39a5,5,0,0,1,10,0v29.9L293,226.06a5,5,0,1,1,6.66,7.45Zm-7-128.37H180.09a8.61,8.61,0,0,0-8.6,8.6V226.33a8.61,8.61,0,0,0,8.6,8.6h40.14c-.15-1.6-.22-3.22-.22-4.86a54.09,54.09,0,0,1,3.25-18.51H193.59v-10h34.53a54.23,54.23,0,0,1,12.49-14h-47v-10h67.25a54.38,54.38,0,0,1,40.44,5.61V113.74A8.61,8.61,0,0,0,292.68,105.14Zm-13.5,58.42H193.59v-10h85.59Zm0-24H193.59v-10h85.59Zm13.5-34.42H180.09a8.61,8.61,0,0,0-8.6,8.6V226.33a8.61,8.61,0,0,0,8.6,8.6h40.14c-.15-1.6-.22-3.22-.22-4.86a54.09,54.09,0,0,1,3.25-18.51H193.59v-10h34.53a54.23,54.23,0,0,1,12.49-14h-47v-10h67.25a54.38,54.38,0,0,1,40.44,5.61V113.74A8.61,8.61,0,0,0,292.68,105.14Zm-13.5,58.42H193.59v-10h85.59Zm0-24H193.59v-10h85.59Zm32.1,66.61a44.54,44.54,0,0,0-10-10.94,44.25,44.25,0,1,0,10,10.94ZM299.7,233.51l-21.39,19.15a5,5,0,0,1-3.34,1.27,1.51,1.51,0,0,1-.3,0,2.73,2.73,0,0,1-.5,0l-.29,0h0a4,4,0,0,1-.49,0,5,5,0,0,1-3.33-1.27l-21.4-19.15a5,5,0,0,1,6.67-7.45l14.06,12.59V208.39a5,5,0,0,1,10,0v29.9L293,226.06a5,5,0,1,1,6.66,7.45Zm11.58-27.34a44.54,44.54,0,0,0-10-10.94,44.25,44.25,0,1,0,10,10.94ZM299.7,233.51l-21.39,19.15a5,5,0,0,1-3.34,1.27,1.51,1.51,0,0,1-.3,0,2.73,2.73,0,0,1-.5,0l-.29,0h0a4,4,0,0,1-.49,0,5,5,0,0,1-3.33-1.27l-21.4-19.15a5,5,0,0,1,6.67-7.45l14.06,12.59V208.39a5,5,0,0,1,10,0v29.9L293,226.06a5,5,0,1,1,6.66,7.45Zm-7-128.37H180.09a8.61,8.61,0,0,0-8.6,8.6V226.33a8.61,8.61,0,0,0,8.6,8.6h40.14c-.15-1.6-.22-3.22-.22-4.86a54.09,54.09,0,0,1,3.25-18.51H193.59v-10h34.53a54.23,54.23,0,0,1,12.49-14h-47v-10h67.25a54.38,54.38,0,0,1,40.44,5.61V113.74A8.61,8.61,0,0,0,292.68,105.14Zm-13.5,58.42H193.59v-10h85.59Zm0-24H193.59v-10h85.59Zm13.5-34.42H180.09a8.61,8.61,0,0,0-8.6,8.6V226.33a8.61,8.61,0,0,0,8.6,8.6h40.14c-.15-1.6-.22-3.22-.22-4.86a54.09,54.09,0,0,1,3.25-18.51H193.59v-10h34.53a54.23,54.23,0,0,1,12.49-14h-47v-10h67.25a54.38,54.38,0,0,1,40.44,5.61V113.74A8.61,8.61,0,0,0,292.68,105.14Zm-13.5,58.42H193.59v-10h85.59Zm0-24H193.59v-10h85.59Zm32.1,66.61a44.54,44.54,0,0,0-10-10.94,44.25,44.25,0,1,0,10,10.94ZM299.7,233.51l-21.39,19.15a5,5,0,0,1-3.34,1.27,1.51,1.51,0,0,1-.3,0,2.73,2.73,0,0,1-.5,0l-.29,0h0a4,4,0,0,1-.49,0,5,5,0,0,1-3.33-1.27l-21.4-19.15a5,5,0,0,1,6.67-7.45l14.06,12.59V208.39a5,5,0,0,1,10,0v29.9L293,226.06a5,5,0,1,1,6.66,7.45Zm11.58-27.34a44.54,44.54,0,0,0-10-10.94,44.25,44.25,0,1,0,10,10.94ZM299.7,233.51l-21.39,19.15a5,5,0,0,1-3.34,1.27,1.51,1.51,0,0,1-.3,0,2.73,2.73,0,0,1-.5,0l-.29,0h0a4,4,0,0,1-.49,0,5,5,0,0,1-3.33-1.27l-21.4-19.15a5,5,0,0,1,6.67-7.45l14.06,12.59V208.39a5,5,0,0,1,10,0v29.9L293,226.06a5,5,0,1,1,6.66,7.45Zm-71.58-31.95a54.23,54.23,0,0,1,12.49-14h-47v-10h67.25a54.38,54.38,0,0,1,40.44,5.61V113.74a8.61,8.61,0,0,0-8.6-8.6H180.09a8.61,8.61,0,0,0-8.6,8.6V226.33a8.61,8.61,0,0,0,8.6,8.6h40.14c-.15-1.6-.22-3.22-.22-4.86a54.09,54.09,0,0,1,3.25-18.51H193.59v-10Zm-34.53-72h85.59v10H193.59Zm0,24h85.59v10H193.59ZM314.92,52.2H163.85L88.31,183l75.54,130.84H314.92L390.46,183Zm-40.75,232a54.19,54.19,0,0,1-52.1-39.29h-42a18.6,18.6,0,0,1-18.6-18.6V113.74a18.6,18.6,0,0,1,18.6-18.6h11.52V85.33h22v9.81h45V85.33h22v9.81h12.11a18.6,18.6,0,0,1,18.6,18.6v76.88a54.15,54.15,0,0,1-37.11,93.6Zm37.11-78.05a44.54,44.54,0,0,0-10-10.94,44.25,44.25,0,1,0,10,10.94ZM299.7,233.51l-21.39,19.15a5,5,0,0,1-3.34,1.27,1.51,1.51,0,0,1-.3,0,2.73,2.73,0,0,1-.5,0l-.29,0h0a4,4,0,0,1-.49,0,5,5,0,0,1-3.33-1.27l-21.4-19.15a5,5,0,0,1,6.67-7.45l14.06,12.59V208.39a5,5,0,0,1,10,0v29.9L293,226.06a5,5,0,1,1,6.66,7.45Zm-71.58-31.95a54.23,54.23,0,0,1,12.49-14h-47v-10h67.25a54.38,54.38,0,0,1,40.44,5.61V113.74a8.61,8.61,0,0,0-8.6-8.6H180.09a8.61,8.61,0,0,0-8.6,8.6V226.33a8.61,8.61,0,0,0,8.6,8.6h40.14c-.15-1.6-.22-3.22-.22-4.86a54.09,54.09,0,0,1,3.25-18.51H193.59v-10Zm-34.53-72h85.59v10H193.59Zm0,24h85.59v10H193.59Zm99.09-48.42H180.09a8.61,8.61,0,0,0-8.6,8.6V226.33a8.61,8.61,0,0,0,8.6,8.6h40.14c-.15-1.6-.22-3.22-.22-4.86a54.09,54.09,0,0,1,3.25-18.51H193.59v-10h34.53a54.23,54.23,0,0,1,12.49-14h-47v-10h67.25a54.38,54.38,0,0,1,40.44,5.61V113.74A8.61,8.61,0,0,0,292.68,105.14Zm-13.5,58.42H193.59v-10h85.59Zm0-24H193.59v-10h85.59Zm32.1,66.61a44.54,44.54,0,0,0-10-10.94,44.25,44.25,0,1,0,10,10.94ZM299.7,233.51l-21.39,19.15a5,5,0,0,1-3.34,1.27,1.51,1.51,0,0,1-.3,0,2.73,2.73,0,0,1-.5,0l-.29,0h0a4,4,0,0,1-.49,0,5,5,0,0,1-3.33-1.27l-21.4-19.15a5,5,0,0,1,6.67-7.45l14.06,12.59V208.39a5,5,0,0,1,10,0v29.9L293,226.06a5,5,0,1,1,6.66,7.45Zm11.58-27.34a44.54,44.54,0,0,0-10-10.94,44.25,44.25,0,1,0,10,10.94ZM299.7,233.51l-21.39,19.15a5,5,0,0,1-3.34,1.27,1.51,1.51,0,0,1-.3,0,2.73,2.73,0,0,1-.5,0l-.29,0h0a4,4,0,0,1-.49,0,5,5,0,0,1-3.33-1.27l-21.4-19.15a5,5,0,0,1,6.67-7.45l14.06,12.59V208.39a5,5,0,0,1,10,0v29.9L293,226.06a5,5,0,1,1,6.66,7.45Zm-7-128.37H180.09a8.61,8.61,0,0,0-8.6,8.6V226.33a8.61,8.61,0,0,0,8.6,8.6h40.14c-.15-1.6-.22-3.22-.22-4.86a54.09,54.09,0,0,1,3.25-18.51H193.59v-10h34.53a54.23,54.23,0,0,1,12.49-14h-47v-10h67.25a54.38,54.38,0,0,1,40.44,5.61V113.74A8.61,8.61,0,0,0,292.68,105.14Zm-13.5,58.42H193.59v-10h85.59Zm0-24H193.59v-10h85.59Zm13.5-34.42H180.09a8.61,8.61,0,0,0-8.6,8.6V226.33a8.61,8.61,0,0,0,8.6,8.6h40.14c-.15-1.6-.22-3.22-.22-4.86a54.09,54.09,0,0,1,3.25-18.51H193.59v-10h34.53a54.23,54.23,0,0,1,12.49-14h-47v-10h67.25a54.38,54.38,0,0,1,40.44,5.61V113.74A8.61,8.61,0,0,0,292.68,105.14Zm-13.5,58.42H193.59v-10h85.59Zm0-24H193.59v-10h85.59Zm32.1,66.61a44.54,44.54,0,0,0-10-10.94,44.25,44.25,0,1,0,10,10.94ZM299.7,233.51l-21.39,19.15a5,5,0,0,1-3.34,1.27,1.51,1.51,0,0,1-.3,0,2.73,2.73,0,0,1-.5,0l-.29,0h0a4,4,0,0,1-.49,0,5,5,0,0,1-3.33-1.27l-21.4-19.15a5,5,0,0,1,6.67-7.45l14.06,12.59V208.39a5,5,0,0,1,10,0v29.9L293,226.06a5,5,0,1,1,6.66,7.45Zm11.58-27.34a44.54,44.54,0,0,0-10-10.94,44.25,44.25,0,1,0,10,10.94ZM299.7,233.51l-21.39,19.15a5,5,0,0,1-3.34,1.27,1.51,1.51,0,0,1-.3,0,2.73,2.73,0,0,1-.5,0l-.29,0h0a4,4,0,0,1-.49,0,5,5,0,0,1-3.33-1.27l-21.4-19.15a5,5,0,0,1,6.67-7.45l14.06,12.59V208.39a5,5,0,0,1,10,0v29.9L293,226.06a5,5,0,1,1,6.66,7.45Zm-7-128.37H180.09a8.61,8.61,0,0,0-8.6,8.6V226.33a8.61,8.61,0,0,0,8.6,8.6h40.14c-.15-1.6-.22-3.22-.22-4.86a54.09,54.09,0,0,1,3.25-18.51H193.59v-10h34.53a54.23,54.23,0,0,1,12.49-14h-47v-10h67.25a54.38,54.38,0,0,1,40.44,5.61V113.74A8.61,8.61,0,0,0,292.68,105.14Zm-13.5,58.42H193.59v-10h85.59Zm0-24H193.59v-10h85.59Zm13.5-34.42H180.09a8.61,8.61,0,0,0-8.6,8.6V226.33a8.61,8.61,0,0,0,8.6,8.6h40.14c-.15-1.6-.22-3.22-.22-4.86a54.09,54.09,0,0,1,3.25-18.51H193.59v-10h34.53a54.23,54.23,0,0,1,12.49-14h-47v-10h67.25a54.38,54.38,0,0,1,40.44,5.61V113.74A8.61,8.61,0,0,0,292.68,105.14Zm-13.5,58.42H193.59v-10h85.59Zm0-24H193.59v-10h85.59Zm32.1,66.61a44.54,44.54,0,0,0-10-10.94,44.25,44.25,0,1,0,10,10.94ZM299.7,233.51l-21.39,19.15a5,5,0,0,1-3.34,1.27,1.51,1.51,0,0,1-.3,0,2.73,2.73,0,0,1-.5,0l-.29,0h0a4,4,0,0,1-.49,0,5,5,0,0,1-3.33-1.27l-21.4-19.15a5,5,0,0,1,6.67-7.45l14.06,12.59V208.39a5,5,0,0,1,10,0v29.9L293,226.06a5,5,0,1,1,6.66,7.45Zm11.58-27.34a44.54,44.54,0,0,0-10-10.94,44.25,44.25,0,1,0,10,10.94ZM299.7,233.51l-21.39,19.15a5,5,0,0,1-3.34,1.27,1.51,1.51,0,0,1-.3,0,2.73,2.73,0,0,1-.5,0l-.29,0h0a4,4,0,0,1-.49,0,5,5,0,0,1-3.33-1.27l-21.4-19.15a5,5,0,0,1,6.67-7.45l14.06,12.59V208.39a5,5,0,0,1,10,0v29.9L293,226.06a5,5,0,1,1,6.66,7.45Zm-7-128.37H180.09a8.61,8.61,0,0,0-8.6,8.6V226.33a8.61,8.61,0,0,0,8.6,8.6h40.14c-.15-1.6-.22-3.22-.22-4.86a54.09,54.09,0,0,1,3.25-18.51H193.59v-10h34.53a54.23,54.23,0,0,1,12.49-14h-47v-10h67.25a54.38,54.38,0,0,1,40.44,5.61V113.74A8.61,8.61,0,0,0,292.68,105.14Zm-13.5,58.42H193.59v-10h85.59Zm0-24H193.59v-10h85.59Zm13.5-34.42H180.09a8.61,8.61,0,0,0-8.6,8.6V226.33a8.61,8.61,0,0,0,8.6,8.6h40.14c-.15-1.6-.22-3.22-.22-4.86a54.09,54.09,0,0,1,3.25-18.51H193.59v-10h34.53a54.23,54.23,0,0,1,12.49-14h-47v-10h67.25a54.38,54.38,0,0,1,40.44,5.61V113.74A8.61,8.61,0,0,0,292.68,105.14Zm-13.5,58.42H193.59v-10h85.59Zm0-24H193.59v-10h85.59Zm32.1,66.61a44.54,44.54,0,0,0-10-10.94,44.25,44.25,0,1,0,10,10.94ZM299.7,233.51l-21.39,19.15a5,5,0,0,1-3.34,1.27,1.51,1.51,0,0,1-.3,0,2.73,2.73,0,0,1-.5,0l-.29,0h0a4,4,0,0,1-.49,0,5,5,0,0,1-3.33-1.27l-21.4-19.15a5,5,0,0,1,6.67-7.45l14.06,12.59V208.39a5,5,0,0,1,10,0v29.9L293,226.06a5,5,0,1,1,6.66,7.45Zm-7-128.37H180.09a8.61,8.61,0,0,0-8.6,8.6V226.33a8.61,8.61,0,0,0,8.6,8.6h40.14c-.15-1.6-.22-3.22-.22-4.86a54.09,54.09,0,0,1,3.25-18.51H193.59v-10h34.53a54.23,54.23,0,0,1,12.49-14h-47v-10h67.25a54.38,54.38,0,0,1,40.44,5.61V113.74A8.61,8.61,0,0,0,292.68,105.14Zm-13.5,58.42H193.59v-10h85.59Zm0-24H193.59v-10h85.59Zm32.1,66.61a44.54,44.54,0,0,0-10-10.94,44.25,44.25,0,1,0,10,10.94ZM299.7,233.51l-21.39,19.15a5,5,0,0,1-3.34,1.27,1.51,1.51,0,0,1-.3,0,2.73,2.73,0,0,1-.5,0l-.29,0h0a4,4,0,0,1-.49,0,5,5,0,0,1-3.33-1.27l-21.4-19.15a5,5,0,0,1,6.67-7.45l14.06,12.59V208.39a5,5,0,0,1,10,0v29.9L293,226.06a5,5,0,1,1,6.66,7.45Zm-7-128.37H180.09a8.61,8.61,0,0,0-8.6,8.6V226.33a8.61,8.61,0,0,0,8.6,8.6h40.14c-.15-1.6-.22-3.22-.22-4.86a54.09,54.09,0,0,1,3.25-18.51H193.59v-10h34.53a54.23,54.23,0,0,1,12.49-14h-47v-10h67.25a54.38,54.38,0,0,1,40.44,5.61V113.74A8.61,8.61,0,0,0,292.68,105.14Zm-13.5,58.42H193.59v-10h85.59Zm0-24H193.59v-10h85.59Zm32.1,66.61a44.54,44.54,0,0,0-10-10.94,44.25,44.25,0,1,0,10,10.94ZM299.7,233.51l-21.39,19.15a5,5,0,0,1-3.34,1.27,1.51,1.51,0,0,1-.3,0,2.73,2.73,0,0,1-.5,0l-.29,0h0a4,4,0,0,1-.49,0,5,5,0,0,1-3.33-1.27l-21.4-19.15a5,5,0,0,1,6.67-7.45l14.06,12.59V208.39a5,5,0,0,1,10,0v29.9L293,226.06a5,5,0,1,1,6.66,7.45Zm-7-128.37H180.09a8.61,8.61,0,0,0-8.6,8.6V226.33a8.61,8.61,0,0,0,8.6,8.6h40.14c-.15-1.6-.22-3.22-.22-4.86a54.09,54.09,0,0,1,3.25-18.51H193.59v-10h34.53a54.23,54.23,0,0,1,12.49-14h-47v-10h67.25a54.38,54.38,0,0,1,40.44,5.61V113.74A8.61,8.61,0,0,0,292.68,105.14Zm-13.5,58.42H193.59v-10h85.59Zm0-24H193.59v-10h85.59Zm32.1,66.61a44.54,44.54,0,0,0-10-10.94,44.25,44.25,0,1,0,10,10.94ZM299.7,233.51l-21.39,19.15a5,5,0,0,1-3.34,1.27,1.51,1.51,0,0,1-.3,0,2.73,2.73,0,0,1-.5,0l-.29,0h0a4,4,0,0,1-.49,0,5,5,0,0,1-3.33-1.27l-21.4-19.15a5,5,0,0,1,6.67-7.45l14.06,12.59V208.39a5,5,0,0,1,10,0v29.9L293,226.06a5,5,0,1,1,6.66,7.45Zm-7-128.37H180.09a8.61,8.61,0,0,0-8.6,8.6V226.33a8.61,8.61,0,0,0,8.6,8.6h40.14c-.15-1.6-.22-3.22-.22-4.86a54.09,54.09,0,0,1,3.25-18.51H193.59v-10h34.53a54.23,54.23,0,0,1,12.49-14h-47v-10h67.25a54.38,54.38,0,0,1,40.44,5.61V113.74A8.61,8.61,0,0,0,292.68,105.14Zm-13.5,58.42H193.59v-10h85.59Zm0-24H193.59v-10h85.59Zm32.1,66.61a44.54,44.54,0,0,0-10-10.94,44.25,44.25,0,1,0,10,10.94ZM299.7,233.51l-21.39,19.15a5,5,0,0,1-3.34,1.27,1.51,1.51,0,0,1-.3,0,2.73,2.73,0,0,1-.5,0l-.29,0h0a4,4,0,0,1-.49,0,5,5,0,0,1-3.33-1.27l-21.4-19.15a5,5,0,0,1,6.67-7.45l14.06,12.59V208.39a5,5,0,0,1,10,0v29.9L293,226.06a5,5,0,1,1,6.66,7.45Zm-7-128.37H180.09a8.61,8.61,0,0,0-8.6,8.6V226.33a8.61,8.61,0,0,0,8.6,8.6h40.14c-.15-1.6-.22-3.22-.22-4.86a54.09,54.09,0,0,1,3.25-18.51H193.59v-10h34.53a54.23,54.23,0,0,1,12.49-14h-47v-10h67.25a54.38,54.38,0,0,1,40.44,5.61V113.74A8.61,8.61,0,0,0,292.68,105.14Zm-13.5,58.42H193.59v-10h85.59Zm0-24H193.59v-10h85.59Zm32.1,66.61a44.54,44.54,0,0,0-10-10.94,44.25,44.25,0,1,0,10,10.94ZM299.7,233.51l-21.39,19.15a5,5,0,0,1-3.34,1.27,1.51,1.51,0,0,1-.3,0,2.73,2.73,0,0,1-.5,0l-.29,0h0a4,4,0,0,1-.49,0,5,5,0,0,1-3.33-1.27l-21.4-19.15a5,5,0,0,1,6.67-7.45l14.06,12.59V208.39a5,5,0,0,1,10,0v29.9L293,226.06a5,5,0,1,1,6.66,7.45Z"/></svg>