<svg id="Capa_1" data-name="Capa 1" xmlns="http://www.w3.org/2000/svg" viewBox="0 0 451.76 523"><defs><style>.cls-1{fill:#0c2340;}.cls-2{fill:#fff;}.cls-3{fill:#2b7a6d;}.cls-4{fill:none;stroke:#fff;stroke-linecap:round;stroke-miterlimit:10;stroke-width:5.44px;}</style></defs><title>logos-RGB</title><rect class="cls-1" x="-8.74" y="-10.07" width="472" height="553"/><path class="cls-2" d="M77.34,398.91c.34.84.67,1.69,1,2.54.33-.88.67-1.74,1-2.6s.72-1.67,1.11-2.45L95.4,367.05a4.32,4.32,0,0,1,.58-.88,1.9,1.9,0,0,1,.67-.47,2.82,2.82,0,0,1,.82-.19q.45,0,1.08,0h7.08v53H97.36V384.24c0-.64,0-1.34,0-2.09s.09-1.53.16-2.31l-15.26,30A4.18,4.18,0,0,1,81,411.47a3.39,3.39,0,0,1-2,.57H77.7a3.39,3.39,0,0,1-2-.57,4.18,4.18,0,0,1-1.36-1.59L58.92,379.73c.1.81.16,1.59.19,2.36s.06,1.49.06,2.15v34.21H50.89v-53H58q.63,0,1.08,0a2.9,2.9,0,0,1,.82.19,2,2,0,0,1,.68.47,4,4,0,0,1,.6.88l15.08,29.42C76.63,397.25,77,398.06,77.34,398.91Z"/><path class="cls-2" d="M160.2,418.45h-7.26a3.07,3.07,0,0,1-2-.64,3.67,3.67,0,0,1-1.13-1.59L146,405.41H125.11l-3.77,10.81a3.43,3.43,0,0,1-1.1,1.54,3,3,0,0,1-2,.69h-7.3l19.83-53h9.6Zm-32.68-20h16.1l-6.15-17.62c-.28-.78-.58-1.7-.92-2.77s-.67-2.21-1-3.46q-.48,1.88-1,3.48c-.31,1.08-.62,2-.92,2.82Z"/><path class="cls-2" d="M175.11,399.8v18.65h-9.39v-53h16.44a27.54,27.54,0,0,1,8.76,1.24A16.71,16.71,0,0,1,197,370.2a13.57,13.57,0,0,1,3.56,5.35,20.73,20.73,0,0,1-.07,13.87,14.56,14.56,0,0,1-3.66,5.51,16.82,16.82,0,0,1-6.11,3.59,25.93,25.93,0,0,1-8.59,1.28Zm0-7.69h7a13.31,13.31,0,0,0,4.5-.68,8.2,8.2,0,0,0,3.18-1.94,8,8,0,0,0,1.89-3.07,12.3,12.3,0,0,0,.62-4.05,11.15,11.15,0,0,0-.62-3.85,7.64,7.64,0,0,0-1.89-2.93,8.3,8.3,0,0,0-3.18-1.85,14.16,14.16,0,0,0-4.5-.64h-7Z"/><path class="cls-2" d="M218.75,399.8v18.65h-9.39v-53H225.8a27.54,27.54,0,0,1,8.76,1.24,16.71,16.71,0,0,1,6.11,3.48,13.57,13.57,0,0,1,3.56,5.35,20.73,20.73,0,0,1-.07,13.87,14.56,14.56,0,0,1-3.66,5.51,16.82,16.82,0,0,1-6.11,3.59,25.93,25.93,0,0,1-8.59,1.28Zm0-7.69h7.05a13.31,13.31,0,0,0,4.5-.68,8.2,8.2,0,0,0,3.18-1.94,8,8,0,0,0,1.89-3.07,12.56,12.56,0,0,0,.62-4.05,11.39,11.39,0,0,0-.62-3.85,7.64,7.64,0,0,0-1.89-2.93,8.3,8.3,0,0,0-3.18-1.85,14.16,14.16,0,0,0-4.5-.64h-7.05Z"/><path class="cls-2" d="M284.52,365.48v7.84H262.14V388h17.63v7.58H262.14v15h22.38v7.87H252.68v-53Z"/><path class="cls-2" d="M337,418.45h-7.26a3,3,0,0,1-2-.64,3.77,3.77,0,0,1-1.14-1.59l-3.77-10.81H301.94l-3.77,10.81a3.51,3.51,0,0,1-1.1,1.54,3,3,0,0,1-2,.69h-7.29l19.83-53h9.6Zm-32.68-20h16.09l-6.14-17.62c-.28-.78-.59-1.7-.92-2.77s-.67-2.21-1-3.46q-.5,1.88-1,3.48c-.31,1.08-.62,2-.92,2.82Z"/><path class="cls-2" d="M338.28,392.55h18.09v7.55H338.28Z"/><path class="cls-2" d="M374.77,391.2l-16.1-25.72H368a2.78,2.78,0,0,1,1.41.27,2.44,2.44,0,0,1,.79.9l11.49,19.45c.11-.31.24-.63.38-.93a8.33,8.33,0,0,1,.49-.93l10.51-17.41a2.26,2.26,0,0,1,2-1.35h9l-16.26,25.31,16.72,27.66h-9.39a2.2,2.2,0,0,1-1.52-.51,4.48,4.48,0,0,1-1-1.17L381,396.47c-.09.29-.2.57-.31.83s-.23.49-.35.71l-11.21,18.76a5.64,5.64,0,0,1-.94,1.15,2,2,0,0,1-1.4.53H358Z"/><path class="cls-2" d="M80.49,470V435.41H86v13.65A10.83,10.83,0,0,1,89,446.65a8.46,8.46,0,0,1,4-.9,7.24,7.24,0,0,1,3.41.81,7.48,7.48,0,0,1,2.66,2.34,11.5,11.5,0,0,1,1.74,3.8,20.34,20.34,0,0,1,.61,5.2,17.09,17.09,0,0,1-.69,5,12.45,12.45,0,0,1-2,4,9.08,9.08,0,0,1-3.08,2.62,8.65,8.65,0,0,1-4.06.95,8.14,8.14,0,0,1-1.91-.22,6.93,6.93,0,0,1-1.58-.62,6.79,6.79,0,0,1-1.32-1,10.94,10.94,0,0,1-1.16-1.27l-.25,1.61a1.5,1.5,0,0,1-.45.86,1.4,1.4,0,0,1-.88.26Zm10.66-19.81a5.36,5.36,0,0,0-2.92.76A8.31,8.31,0,0,0,86,453.12v10.72a5.27,5.27,0,0,0,2,1.69,5.9,5.9,0,0,0,2.39.48,5.15,5.15,0,0,0,2.24-.49,4.55,4.55,0,0,0,1.7-1.49,8,8,0,0,0,1.08-2.53,15.27,15.27,0,0,0,.37-3.6,16.46,16.46,0,0,0-.32-3.56,6.88,6.88,0,0,0-.92-2.36,3.69,3.69,0,0,0-1.46-1.33A4.32,4.32,0,0,0,91.15,450.23Z"/><path class="cls-2" d="M113.1,476.61a2.25,2.25,0,0,1-.64.92,1.86,1.86,0,0,1-1.19.32h-4.08l4.26-9.58-9.22-22.14H107a1.47,1.47,0,0,1,1,.32,2.17,2.17,0,0,1,.54.75l4.86,12.4a11.63,11.63,0,0,1,.42,1.26c.12.43.23.87.31,1.3.12-.45.25-.88.39-1.3s.29-.85.46-1.29l4.57-12.37a1.72,1.72,0,0,1,.59-.77,1.53,1.53,0,0,1,.92-.3h4.4Z"/><path class="cls-2" d="M160.23,436.34v5.15h-9.66V470h-6V441.49h-9.71v-5.15Z"/><path class="cls-2" d="M160.16,470V446.13h3.22a1.72,1.72,0,0,1,1.18.32,1.92,1.92,0,0,1,.44,1.12l.34,2.89A11.08,11.08,0,0,1,168.2,447a5.84,5.84,0,0,1,3.69-1.29,4.64,4.64,0,0,1,2.8.82l-.71,4.31a.79.79,0,0,1-.89.77,3.41,3.41,0,0,1-.91-.16,5.8,5.8,0,0,0-1.54-.17,4.52,4.52,0,0,0-2.93,1,7.68,7.68,0,0,0-2.06,2.91V470Z"/><path class="cls-2" d="M195.52,470h-2.46a2.51,2.51,0,0,1-1.23-.25,1.58,1.58,0,0,1-.66-1l-.49-1.7a20.72,20.72,0,0,1-1.7,1.44,10.58,10.58,0,0,1-1.72,1,8.4,8.4,0,0,1-1.89.63,10.87,10.87,0,0,1-2.22.21,8.21,8.21,0,0,1-2.67-.41,5.78,5.78,0,0,1-2.1-1.22,5.62,5.62,0,0,1-1.36-2,7.45,7.45,0,0,1-.49-2.83,5.86,5.86,0,0,1,.68-2.68,6.54,6.54,0,0,1,2.25-2.38,14,14,0,0,1,4.2-1.77,26,26,0,0,1,6.51-.7V455a5.51,5.51,0,0,0-1-3.58,3.45,3.45,0,0,0-2.81-1.16,6.68,6.68,0,0,0-2.22.32,8.51,8.51,0,0,0-1.54.74c-.44.27-.84.52-1.21.73a2.36,2.36,0,0,1-1.23.33,1.54,1.54,0,0,1-.95-.3,2.31,2.31,0,0,1-.64-.75l-1-1.84a13.18,13.18,0,0,1,9.48-3.78,8.81,8.81,0,0,1,3.57.69,7.73,7.73,0,0,1,2.65,1.91,8.09,8.09,0,0,1,1.65,2.93,11.67,11.67,0,0,1,.57,3.73Zm-10.66-3.59a6.83,6.83,0,0,0,1.55-.16,6,6,0,0,0,1.35-.48A7.68,7.68,0,0,0,189,465a12.15,12.15,0,0,0,1.19-1.12v-4a21.3,21.3,0,0,0-4,.32,10,10,0,0,0-2.59.81,3.42,3.42,0,0,0-1.39,1.15,2.67,2.67,0,0,0-.41,1.43,2.58,2.58,0,0,0,.86,2.18A3.54,3.54,0,0,0,184.86,466.45Z"/><path class="cls-2" d="M211.54,470h-5l-9.06-23.91h4.55a1.66,1.66,0,0,1,1,.3,1.5,1.5,0,0,1,.57.77L208,460q.38,1.13.63,2.19c.17.72.32,1.43.45,2.15.14-.72.29-1.43.46-2.15a20.72,20.72,0,0,1,.66-2.19l4.5-12.77a1.59,1.59,0,0,1,.56-.77,1.54,1.54,0,0,1,1-.3h4.34Z"/><path class="cls-2" d="M232.5,445.75a10.47,10.47,0,0,1,4,.73,8.67,8.67,0,0,1,3.12,2.11,9.67,9.67,0,0,1,2,3.4,13.38,13.38,0,0,1,.73,4.6,8.14,8.14,0,0,1-.05,1.08,2,2,0,0,1-.2.68.87.87,0,0,1-.39.35,1.56,1.56,0,0,1-.62.11H227a8.48,8.48,0,0,0,1.88,5.4,5.75,5.75,0,0,0,4.36,1.73,7.16,7.16,0,0,0,2.3-.33,11.15,11.15,0,0,0,1.68-.72l1.27-.72a2,2,0,0,1,1.06-.33,1.15,1.15,0,0,1,.57.14,1.26,1.26,0,0,1,.43.4l1.59,2.09a9.06,9.06,0,0,1-2,1.88,11.21,11.21,0,0,1-2.36,1.21,12.5,12.5,0,0,1-2.51.64,16.51,16.51,0,0,1-2.48.19,11.67,11.67,0,0,1-4.42-.83,9.8,9.8,0,0,1-3.55-2.45,11.56,11.56,0,0,1-2.38-4,16.19,16.19,0,0,1-.87-5.54,13.62,13.62,0,0,1,.76-4.6,11,11,0,0,1,2.16-3.75,10.09,10.09,0,0,1,3.45-2.53A10.72,10.72,0,0,1,232.5,445.75Zm.11,4.13a4.91,4.91,0,0,0-3.75,1.42,7.18,7.18,0,0,0-1.73,4h10.3a7.27,7.27,0,0,0-.29-2.11,4.8,4.8,0,0,0-.88-1.73,4.3,4.3,0,0,0-1.51-1.18A4.93,4.93,0,0,0,232.61,449.88Z"/><path class="cls-2" d="M252.67,435.41V470h-5.49V435.41Z"/><path class="cls-2" d="M266.75,445.71a11.61,11.61,0,0,1,2.76.31,9.35,9.35,0,0,1,2.35.92h6.55v2.15a1.3,1.3,0,0,1-.26.84,1.55,1.55,0,0,1-.92.41l-2,.4a8.59,8.59,0,0,1,.35,1.28,8.16,8.16,0,0,1,.12,1.42,7.44,7.44,0,0,1-.68,3.21,7.11,7.11,0,0,1-1.87,2.44,8.52,8.52,0,0,1-2.82,1.54,10.9,10.9,0,0,1-3.54.55,12.28,12.28,0,0,1-2.51-.25,1.87,1.87,0,0,0-1.06,1.52,1.13,1.13,0,0,0,.63,1.07,4.81,4.81,0,0,0,1.66.48,16.59,16.59,0,0,0,2.35.14c.87,0,1.77,0,2.68.12a19.58,19.58,0,0,1,2.69.41,7.54,7.54,0,0,1,2.35.92,4.89,4.89,0,0,1,1.66,1.72,5.54,5.54,0,0,1,.63,2.79,6.79,6.79,0,0,1-.74,3.09,8.24,8.24,0,0,1-2.15,2.67,11.2,11.2,0,0,1-3.46,1.88,14,14,0,0,1-4.66.71,17.15,17.15,0,0,1-4.51-.52,10.34,10.34,0,0,1-3.17-1.4,5.85,5.85,0,0,1-1.87-2,4.82,4.82,0,0,1-.62-2.37,4.18,4.18,0,0,1,1-2.82,6.71,6.71,0,0,1,2.71-1.82,3.85,3.85,0,0,1-1.35-1.31,3.94,3.94,0,0,1-.51-2.12,4,4,0,0,1,.17-1.1,4.36,4.36,0,0,1,.55-1.13,5.34,5.34,0,0,1,.92-1.07,6.4,6.4,0,0,1,1.31-.89,7.49,7.49,0,0,1-2.72-2.61,7.23,7.23,0,0,1-1-3.83,7.43,7.43,0,0,1,.68-3.2,7.08,7.08,0,0,1,1.89-2.45,8.56,8.56,0,0,1,2.86-1.55A11.88,11.88,0,0,1,266.75,445.71Zm6,25.33a1.67,1.67,0,0,0-.4-1.16,2.69,2.69,0,0,0-1.09-.71,8,8,0,0,0-1.61-.36,15,15,0,0,0-1.95-.12h-2.14a8.79,8.79,0,0,1-2.12-.26,5.1,5.1,0,0,0-1.5,1.27,2.73,2.73,0,0,0-.56,1.69,2.44,2.44,0,0,0,.3,1.18,2.59,2.59,0,0,0,.95.94,5.5,5.5,0,0,0,1.7.62,12.44,12.44,0,0,0,2.56.22,12,12,0,0,0,2.64-.25,6.25,6.25,0,0,0,1.83-.69,2.88,2.88,0,0,0,1.06-1.05A2.69,2.69,0,0,0,272.77,471Zm-6-13.54a5.07,5.07,0,0,0,1.78-.29,3.43,3.43,0,0,0,1.25-.81,3.23,3.23,0,0,0,.76-1.23,4.72,4.72,0,0,0,.25-1.58,3.81,3.81,0,0,0-1-2.81,4.93,4.93,0,0,0-6.06,0,3.85,3.85,0,0,0-1,2.81,4.68,4.68,0,0,0,.25,1.56,3.49,3.49,0,0,0,.76,1.24,3.4,3.4,0,0,0,1.26.82A5.09,5.09,0,0,0,266.75,457.5Z"/><path class="cls-2" d="M299.71,470h-2.46a2.44,2.44,0,0,1-1.22-.25,1.55,1.55,0,0,1-.67-1l-.49-1.7a19.17,19.17,0,0,1-1.7,1.44,10.17,10.17,0,0,1-1.72,1,8.4,8.4,0,0,1-1.89.63,10.8,10.8,0,0,1-2.22.21,8.11,8.11,0,0,1-2.66-.41,5.44,5.44,0,0,1-3.47-3.26,7.45,7.45,0,0,1-.49-2.83,5.86,5.86,0,0,1,.68-2.68,6.54,6.54,0,0,1,2.25-2.38,14,14,0,0,1,4.2-1.77,26,26,0,0,1,6.51-.7V455a5.51,5.51,0,0,0-1-3.58,3.45,3.45,0,0,0-2.81-1.16,6.68,6.68,0,0,0-2.22.32,8.84,8.84,0,0,0-1.54.74c-.44.27-.84.52-1.21.73a2.35,2.35,0,0,1-1.22.33,1.57,1.57,0,0,1-1-.3,2.31,2.31,0,0,1-.64-.75l-1-1.84a13.18,13.18,0,0,1,9.48-3.78,8.81,8.81,0,0,1,3.57.69,7.64,7.64,0,0,1,2.65,1.91,8.26,8.26,0,0,1,1.66,2.93,12,12,0,0,1,.56,3.73Zm-10.66-3.59a7,7,0,0,0,1.56-.16,6.1,6.1,0,0,0,1.34-.48,7.68,7.68,0,0,0,1.22-.79,12.15,12.15,0,0,0,1.19-1.12v-4a21.3,21.3,0,0,0-4,.32,10.17,10.17,0,0,0-2.59.81,3.42,3.42,0,0,0-1.39,1.15,2.67,2.67,0,0,0-.41,1.43,2.58,2.58,0,0,0,.86,2.18A3.54,3.54,0,0,0,289.05,466.45Z"/><path class="cls-2" d="M312.59,470.41a5.81,5.81,0,0,1-4.55-1.76,7,7,0,0,1-1.6-4.86V450.44h-2.31a1,1,0,0,1-.76-.31,1.16,1.16,0,0,1-.33-.9v-2.29l3.67-.63,1.15-6.52a1.24,1.24,0,0,1,.41-.73,1.28,1.28,0,0,1,.81-.25h2.85v7.53h6v4.1h-6v13a2.62,2.62,0,0,0,.53,1.74,1.77,1.77,0,0,0,1.42.63,2.66,2.66,0,0,0,.86-.12,5.84,5.84,0,0,0,.6-.27c.17-.1.32-.18.45-.27a.73.73,0,0,1,.4-.13.57.57,0,0,1,.4.13,1.88,1.88,0,0,1,.34.38l1.64,2.8a8.29,8.29,0,0,1-2.75,1.59A10.08,10.08,0,0,1,312.59,470.41Z"/><path class="cls-2" d="M331.72,445.75a10.41,10.41,0,0,1,4,.73,8.5,8.5,0,0,1,3.12,2.11,9.54,9.54,0,0,1,2.05,3.4,13.38,13.38,0,0,1,.73,4.6,7.9,7.9,0,0,1-.06,1.08,1.61,1.61,0,0,1-.2.68.8.8,0,0,1-.38.35,1.62,1.62,0,0,1-.63.11H326.23c.17,2.45.79,4.25,1.89,5.4a5.75,5.75,0,0,0,4.35,1.73,7.12,7.12,0,0,0,2.3-.33,10.86,10.86,0,0,0,1.69-.72l1.27-.72a2,2,0,0,1,1-.33,1.18,1.18,0,0,1,.58.14,1.33,1.33,0,0,1,.42.4l1.6,2.09a9.5,9.5,0,0,1-2,1.88,11.53,11.53,0,0,1-2.37,1.21,12.33,12.33,0,0,1-2.51.64,16.41,16.41,0,0,1-2.48.19,11.65,11.65,0,0,1-4.41-.83,9.84,9.84,0,0,1-3.56-2.45,11.56,11.56,0,0,1-2.38-4,16.44,16.44,0,0,1-.86-5.54,13.87,13.87,0,0,1,.75-4.6,11.22,11.22,0,0,1,2.17-3.75,10.15,10.15,0,0,1,3.44-2.53A10.79,10.79,0,0,1,331.72,445.75Zm.11,4.13a4.91,4.91,0,0,0-3.75,1.42,7.12,7.12,0,0,0-1.74,4h10.31a7.63,7.63,0,0,0-.29-2.11,4.82,4.82,0,0,0-.89-1.73,4.21,4.21,0,0,0-1.51-1.18A4.91,4.91,0,0,0,331.83,449.88Z"/><path class="cls-2" d="M354.06,452.7l-10.24-16.36h6a1.79,1.79,0,0,1,.89.17,1.49,1.49,0,0,1,.5.57l7.31,12.38c.08-.2.16-.4.25-.59a5.71,5.71,0,0,1,.31-.6l6.68-11.07a1.46,1.46,0,0,1,1.27-.86h5.73l-10.35,16.1L373,470h-6a1.37,1.37,0,0,1-1-.33,2.71,2.71,0,0,1-.61-.74L358,456.05a5.36,5.36,0,0,1-.2.53c-.08.16-.15.31-.23.45L350.46,469a3.43,3.43,0,0,1-.6.73,1.2,1.2,0,0,1-.88.34h-5.6Z"/><polygon class="cls-2" points="300.92 52.2 149.84 52.2 74.31 183.04 149.84 313.87 300.92 313.87 376.46 183.04 300.92 52.2"/><polygon class="cls-3" points="300.92 52.21 149.84 52.21 74.3 183.05 149.84 313.87 300.92 313.87 376.46 183.05 300.92 52.21"/><polygon class="cls-2" points="152.5 136.96 140.83 116.73 152.5 96.51 175.85 96.51 187.53 116.73 175.85 136.96 152.5 136.96"/><path class="cls-2" d="M172.88,101.66l8.71,15.07-8.71,15.08H155.47l-8.7-15.08,8.7-15.07h17.41m5.94-10.29H149.53l-14.64,25.36,14.64,25.37h29.29l14.65-25.37L178.82,91.37Z"/><polygon class="cls-2" points="152.5 202.24 140.83 182.02 152.5 161.8 175.85 161.8 187.53 182.02 175.85 202.24 152.5 202.24"/><path class="cls-2" d="M172.88,166.94,181.59,182l-8.71,15.08H155.47L146.77,182l8.7-15.08h17.41m5.94-10.29H149.53L134.89,182l14.64,25.37h29.29L193.47,182l-14.65-25.37Z"/><polygon class="cls-2" points="152.5 272.97 140.83 252.75 152.5 232.53 175.85 232.53 187.53 252.75 175.85 272.97 152.5 272.97"/><path class="cls-2" d="M172.88,237.67l8.71,15.08-8.71,15.07H155.47l-8.7-15.07,8.7-15.08h17.41m5.94-10.29H149.53l-14.64,25.37,14.64,25.36h29.29l14.65-25.36-14.65-25.37Z"/><polygon class="cls-2" points="274.91 136.96 263.24 116.73 274.91 96.51 298.26 96.51 309.94 116.73 298.26 136.96 274.91 136.96"/><path class="cls-2" d="M295.29,101.66,304,116.73l-8.71,15.08h-17.4l-8.71-15.08,8.71-15.07h17.4m5.95-10.29h-29.3L257.3,116.73l14.64,25.37h29.3l14.64-25.37L301.24,91.37Z"/><polygon class="cls-2" points="274.91 202.24 263.24 182.02 274.91 161.8 298.26 161.8 309.94 182.02 298.26 202.24 274.91 202.24"/><path class="cls-2" d="M295.29,166.94,304,182l-8.71,15.08h-17.4L269.18,182l8.71-15.08h17.4m5.95-10.29h-29.3L257.3,182l14.64,25.37h29.3L315.88,182l-14.64-25.37Z"/><polygon class="cls-2" points="274.91 272.97 263.24 252.75 274.91 232.53 298.26 232.53 309.94 252.75 298.26 272.97 274.91 272.97"/><path class="cls-2" d="M295.29,237.67,304,252.75l-8.71,15.07h-17.4l-8.71-15.07,8.71-15.08h17.4m5.95-10.29h-29.3L257.3,252.75l14.64,25.36h29.3l14.64-25.36-14.64-25.37Z"/><path class="cls-4" d="M193.47,116.73h25.89a2.73,2.73,0,0,1,2.72,2.67l2.6,130.68a2.73,2.73,0,0,0,2.72,2.67h29.9"/><path class="cls-4" d="M257.3,116.73H245.51a2.72,2.72,0,0,0-2.72,2.72v34.48a2.72,2.72,0,0,1-2.72,2.72H207.6a2.72,2.72,0,0,0-2.72,2.72V179.3a2.72,2.72,0,0,1-2.72,2.72h-8.69"/><path class="cls-4" d="M193.47,252.75h8.69a2.72,2.72,0,0,0,2.72-2.72v-33.5a2.72,2.72,0,0,1,2.72-2.72h31.57a2.72,2.72,0,0,0,2.72-2.72V184.74a2.72,2.72,0,0,1,2.72-2.72H257.3"/></svg>