<svg id="Capa_1" data-name="Capa 1" xmlns="http://www.w3.org/2000/svg" viewBox="0 0 400.76 523"><defs><style>.cls-1{fill:#0c2340;}.cls-2{fill:#fff;}.cls-3{fill:#0dfad2;}.cls-4{fill:#0ac879;}</style></defs><title>logos-RGB</title><rect class="cls-1" x="-17.12" y="-19" width="435" height="561"/><path class="cls-2" d="M90.83,375.11a2.7,2.7,0,0,1-.89,1.14,2.16,2.16,0,0,1-1.2.33,3,3,0,0,1-1.58-.57c-.58-.38-1.26-.8-2.06-1.26a15.92,15.92,0,0,0-2.77-1.27,11.13,11.13,0,0,0-3.75-.56,10.58,10.58,0,0,0-3.41.49,7.21,7.21,0,0,0-2.44,1.37,5.5,5.5,0,0,0-1.49,2.11,7.35,7.35,0,0,0-.48,2.69,4.86,4.86,0,0,0,1,3.12,8.2,8.2,0,0,0,2.64,2.12,24,24,0,0,0,3.73,1.58c1.4.46,2.82,1,4.28,1.48a42.18,42.18,0,0,1,4.27,1.83,14.86,14.86,0,0,1,3.74,2.64,11.94,11.94,0,0,1,2.64,3.9,14.22,14.22,0,0,1,1,5.61,19.06,19.06,0,0,1-1.17,6.72A15.59,15.59,0,0,1,89.45,414,16,16,0,0,1,84,417.7,19.38,19.38,0,0,1,76.52,419a22.87,22.87,0,0,1-4.75-.5,24.18,24.18,0,0,1-4.49-1.41,22.51,22.51,0,0,1-4-2.2,19.69,19.69,0,0,1-3.34-2.85l2.73-4.73a3.43,3.43,0,0,1,.92-.86,2.2,2.2,0,0,1,1.21-.35,3.22,3.22,0,0,1,1.88.75c.68.5,1.47,1.06,2.39,1.67a17.9,17.9,0,0,0,3.25,1.67,12,12,0,0,0,4.49.75A8.93,8.93,0,0,0,83,409a7.33,7.33,0,0,0,2.2-5.73,5.48,5.48,0,0,0-1-3.41,8,8,0,0,0-2.63-2.21,19.45,19.45,0,0,0-3.74-1.53q-2.09-.62-4.26-1.35A37.14,37.14,0,0,1,69.32,393a13.69,13.69,0,0,1-3.73-2.67A12.32,12.32,0,0,1,63,386.2a16.51,16.51,0,0,1-1-6.1,15,15,0,0,1,1.1-5.65,14.44,14.44,0,0,1,3.21-4.87,16,16,0,0,1,5.18-3.41,18.19,18.19,0,0,1,7-1.28,22.48,22.48,0,0,1,8.24,1.47,18.42,18.42,0,0,1,6.42,4.1Z"/><path class="cls-2" d="M110.94,399.8v18.65h-9.39v-53H118a27.5,27.5,0,0,1,8.76,1.24,16.71,16.71,0,0,1,6.11,3.48,13.57,13.57,0,0,1,3.56,5.35,20.73,20.73,0,0,1-.07,13.87,14.56,14.56,0,0,1-3.66,5.51,16.82,16.82,0,0,1-6.11,3.59A25.93,25.93,0,0,1,118,399.8Zm0-7.69h7a13.31,13.31,0,0,0,4.5-.68,8.2,8.2,0,0,0,3.18-1.94,8,8,0,0,0,1.89-3.07,12.3,12.3,0,0,0,.62-4.05,11.15,11.15,0,0,0-.62-3.85,7.64,7.64,0,0,0-1.89-2.93,8.3,8.3,0,0,0-3.18-1.85,14.16,14.16,0,0,0-4.5-.64h-7Z"/><path class="cls-2" d="M176.71,365.48v7.84H154.33V388H172v7.58H154.33v15h22.38v7.87H144.87v-53Z"/><path class="cls-2" d="M216.69,365.48v7.84H194.31V388h17.63v7.58H194.31v15h22.38v7.87H184.85v-53Z"/><path class="cls-2" d="M269.65,392a30,30,0,0,1-1.85,10.69,24.69,24.69,0,0,1-5.21,8.39,23,23,0,0,1-8.06,5.46,27.23,27.23,0,0,1-10.44,1.94H224.82v-53h19.27a26.86,26.86,0,0,1,10.44,2,23.43,23.43,0,0,1,8.06,5.46,24.51,24.51,0,0,1,5.21,8.37A30,30,0,0,1,269.65,392Zm-9.6,0a25.61,25.61,0,0,0-1.12-7.83,16.84,16.84,0,0,0-3.18-5.86,13.71,13.71,0,0,0-5-3.68,16.6,16.6,0,0,0-6.65-1.28h-9.81v37.29h9.81a16.6,16.6,0,0,0,6.65-1.28,13.71,13.71,0,0,0,5-3.68,16.84,16.84,0,0,0,3.18-5.86A25.59,25.59,0,0,0,260.05,392Z"/><path class="cls-2" d="M275.41,392.55h18.08v7.55H275.41Z"/><path class="cls-2" d="M311.89,391.2,295.8,365.48h9.35a2.82,2.82,0,0,1,1.42.27,2.52,2.52,0,0,1,.78.9l11.49,19.45c.11-.31.24-.63.38-.93a8.33,8.33,0,0,1,.49-.93l10.51-17.41a2.26,2.26,0,0,1,2-1.35h9L325,390.79l16.72,27.66h-9.39a2.2,2.2,0,0,1-1.52-.51,4.92,4.92,0,0,1-1-1.17l-11.7-20.3a6.78,6.78,0,0,1-.31.83c-.12.25-.23.49-.35.71l-11.21,18.76a5.64,5.64,0,0,1-.94,1.15,2,2,0,0,1-1.39.53h-8.8Z"/><path class="cls-2" d="M55.49,470V435.41H61v13.65A10.83,10.83,0,0,1,64,446.65a8.46,8.46,0,0,1,4-.9,7.24,7.24,0,0,1,3.41.81,7.48,7.48,0,0,1,2.66,2.34,11.5,11.5,0,0,1,1.74,3.8,20.34,20.34,0,0,1,.61,5.2,17.09,17.09,0,0,1-.69,5,12.45,12.45,0,0,1-2,4,9.08,9.08,0,0,1-3.08,2.62,8.65,8.65,0,0,1-4.06.95,8.14,8.14,0,0,1-1.91-.22,6.93,6.93,0,0,1-1.58-.62,6.79,6.79,0,0,1-1.32-1,11.91,11.91,0,0,1-1.16-1.27l-.25,1.61a1.5,1.5,0,0,1-.45.86,1.4,1.4,0,0,1-.88.26Zm10.66-19.81a5.36,5.36,0,0,0-2.92.76A8.31,8.31,0,0,0,61,453.12v10.72a5.27,5.27,0,0,0,2,1.69,5.9,5.9,0,0,0,2.39.48,5.15,5.15,0,0,0,2.24-.49,4.55,4.55,0,0,0,1.7-1.49,8,8,0,0,0,1.08-2.53,15.27,15.27,0,0,0,.37-3.6,16.46,16.46,0,0,0-.32-3.56,6.88,6.88,0,0,0-.92-2.36,3.69,3.69,0,0,0-1.46-1.33A4.32,4.32,0,0,0,66.15,450.23Z"/><path class="cls-2" d="M88.1,476.61a2.25,2.25,0,0,1-.64.92,1.86,1.86,0,0,1-1.19.32H82.19l4.26-9.58-9.22-22.14H82a1.47,1.47,0,0,1,1,.32,2.17,2.17,0,0,1,.54.75l4.86,12.4a9.8,9.8,0,0,1,.42,1.26c.12.43.23.87.31,1.3.12-.45.25-.88.39-1.3s.3-.85.46-1.29L94.6,447.2a1.72,1.72,0,0,1,.59-.77,1.53,1.53,0,0,1,.92-.3h4.4Z"/><path class="cls-2" d="M135.23,436.34v5.15h-9.66V470h-6V441.49h-9.71v-5.15Z"/><path class="cls-2" d="M135.16,470V446.13h3.22a1.72,1.72,0,0,1,1.18.32,1.92,1.92,0,0,1,.44,1.12l.34,2.89A11.08,11.08,0,0,1,143.2,447a5.84,5.84,0,0,1,3.69-1.29,4.64,4.64,0,0,1,2.8.82l-.71,4.31a1,1,0,0,1-.29.6,1,1,0,0,1-.6.17,3.47,3.47,0,0,1-.91-.16,5.8,5.8,0,0,0-1.54-.17,4.52,4.52,0,0,0-2.93,1,7.68,7.68,0,0,0-2.06,2.91V470Z"/><path class="cls-2" d="M170.52,470h-2.46a2.51,2.51,0,0,1-1.23-.25,1.58,1.58,0,0,1-.66-1l-.49-1.7a19.17,19.17,0,0,1-1.7,1.44,10.58,10.58,0,0,1-1.72,1,8.4,8.4,0,0,1-1.89.63,10.87,10.87,0,0,1-2.22.21,8.21,8.21,0,0,1-2.67-.41,5.78,5.78,0,0,1-2.1-1.22,5.62,5.62,0,0,1-1.36-2,7.45,7.45,0,0,1-.49-2.83,5.86,5.86,0,0,1,.68-2.68,6.54,6.54,0,0,1,2.25-2.38,14,14,0,0,1,4.2-1.77,26,26,0,0,1,6.51-.7V455a5.51,5.51,0,0,0-1-3.58,3.45,3.45,0,0,0-2.81-1.16,6.68,6.68,0,0,0-2.22.32,8.51,8.51,0,0,0-1.54.74c-.44.27-.84.52-1.21.73a2.35,2.35,0,0,1-1.22.33,1.57,1.57,0,0,1-1-.3,2.31,2.31,0,0,1-.64-.75l-1-1.84a13.18,13.18,0,0,1,9.48-3.78,8.81,8.81,0,0,1,3.57.69,7.73,7.73,0,0,1,2.65,1.91,8.26,8.26,0,0,1,1.66,2.93,12,12,0,0,1,.56,3.73Zm-10.66-3.59a6.83,6.83,0,0,0,1.55-.16,6,6,0,0,0,1.35-.48A7.68,7.68,0,0,0,164,465a12.15,12.15,0,0,0,1.19-1.12v-4a21.3,21.3,0,0,0-4,.32,10.17,10.17,0,0,0-2.59.81,3.42,3.42,0,0,0-1.39,1.15,2.67,2.67,0,0,0-.41,1.43,2.58,2.58,0,0,0,.86,2.18A3.54,3.54,0,0,0,159.86,466.45Z"/><path class="cls-2" d="M186.54,470h-5l-9.06-23.91h4.55a1.66,1.66,0,0,1,1,.3,1.5,1.5,0,0,1,.57.77L183,460q.38,1.13.63,2.19c.17.72.32,1.43.46,2.15.13-.72.28-1.43.45-2.15a20.72,20.72,0,0,1,.66-2.19l4.5-12.77a1.59,1.59,0,0,1,.56-.77,1.54,1.54,0,0,1,1-.3h4.34Z"/><path class="cls-2" d="M207.5,445.75a10.47,10.47,0,0,1,4,.73,8.67,8.67,0,0,1,3.12,2.11,9.67,9.67,0,0,1,2,3.4,13.38,13.38,0,0,1,.73,4.6,8.14,8.14,0,0,1-.05,1.08,1.77,1.77,0,0,1-.2.68.87.87,0,0,1-.39.35,1.56,1.56,0,0,1-.62.11H202a8.48,8.48,0,0,0,1.88,5.4,5.75,5.75,0,0,0,4.36,1.73,7.16,7.16,0,0,0,2.3-.33,11.76,11.76,0,0,0,1.69-.72l1.26-.72a2,2,0,0,1,1.06-.33,1.15,1.15,0,0,1,.57.14,1.26,1.26,0,0,1,.43.4l1.59,2.09a9.06,9.06,0,0,1-2,1.88,11.21,11.21,0,0,1-2.36,1.21,12.5,12.5,0,0,1-2.51.64,16.51,16.51,0,0,1-2.48.19,11.67,11.67,0,0,1-4.42-.83,9.8,9.8,0,0,1-3.55-2.45,11.56,11.56,0,0,1-2.38-4,16.19,16.19,0,0,1-.87-5.54,13.62,13.62,0,0,1,.76-4.6,11,11,0,0,1,2.16-3.75,10.09,10.09,0,0,1,3.45-2.53A10.72,10.72,0,0,1,207.5,445.75Zm.11,4.13a4.91,4.91,0,0,0-3.75,1.42,7.18,7.18,0,0,0-1.73,4h10.3a7.27,7.27,0,0,0-.29-2.11,4.8,4.8,0,0,0-.88-1.73,4.3,4.3,0,0,0-1.51-1.18A4.93,4.93,0,0,0,207.61,449.88Z"/><path class="cls-2" d="M227.67,435.41V470h-5.49V435.41Z"/><path class="cls-2" d="M241.75,445.71a11.61,11.61,0,0,1,2.76.31,9.35,9.35,0,0,1,2.35.92h6.55v2.15a1.3,1.3,0,0,1-.26.84,1.55,1.55,0,0,1-.91.41l-2.05.4a8.59,8.59,0,0,1,.35,1.28,8.16,8.16,0,0,1,.12,1.42,7.44,7.44,0,0,1-.68,3.21,7.21,7.21,0,0,1-1.86,2.44,8.67,8.67,0,0,1-2.83,1.54,10.9,10.9,0,0,1-3.54.55,12.28,12.28,0,0,1-2.51-.25,1.87,1.87,0,0,0-1.06,1.52,1.13,1.13,0,0,0,.63,1.07,4.81,4.81,0,0,0,1.66.48,16.59,16.59,0,0,0,2.35.14c.87,0,1.77,0,2.69.12a19.68,19.68,0,0,1,2.68.41,7.54,7.54,0,0,1,2.35.92,4.89,4.89,0,0,1,1.66,1.72,5.54,5.54,0,0,1,.64,2.79,6.8,6.8,0,0,1-.75,3.09,8.24,8.24,0,0,1-2.15,2.67,11.2,11.2,0,0,1-3.46,1.88,14,14,0,0,1-4.66.71,17.15,17.15,0,0,1-4.51-.52,10.45,10.45,0,0,1-3.17-1.4,5.85,5.85,0,0,1-1.87-2,4.82,4.82,0,0,1-.62-2.37,4.18,4.18,0,0,1,1-2.82,6.71,6.71,0,0,1,2.71-1.82,3.85,3.85,0,0,1-1.35-1.31,3.94,3.94,0,0,1-.51-2.12,4,4,0,0,1,.17-1.1,4.36,4.36,0,0,1,.55-1.13,5.34,5.34,0,0,1,.92-1.07,6.4,6.4,0,0,1,1.31-.89,7.49,7.49,0,0,1-2.72-2.61,7.23,7.23,0,0,1-1-3.83,7.43,7.43,0,0,1,.68-3.2,7.08,7.08,0,0,1,1.89-2.45,8.56,8.56,0,0,1,2.86-1.55A11.93,11.93,0,0,1,241.75,445.71Zm6,25.33a1.67,1.67,0,0,0-.4-1.16,2.69,2.69,0,0,0-1.09-.71,8,8,0,0,0-1.61-.36,15,15,0,0,0-1.95-.12h-2.13a8.81,8.81,0,0,1-2.13-.26A4.93,4.93,0,0,0,237,469.7a2.68,2.68,0,0,0-.57,1.69,2.44,2.44,0,0,0,.3,1.18,2.59,2.59,0,0,0,1,.94,5.5,5.5,0,0,0,1.7.62,12.44,12.44,0,0,0,2.56.22,12,12,0,0,0,2.64-.25,6.25,6.25,0,0,0,1.83-.69,2.81,2.81,0,0,0,1.06-1.05A2.69,2.69,0,0,0,247.77,471Zm-6-13.54a5.07,5.07,0,0,0,1.78-.29,3.43,3.43,0,0,0,1.25-.81,3.23,3.23,0,0,0,.76-1.23,4.72,4.72,0,0,0,.25-1.58,3.81,3.81,0,0,0-1-2.81,4.93,4.93,0,0,0-6.06,0,3.85,3.85,0,0,0-1,2.81,4.44,4.44,0,0,0,.26,1.56,3.33,3.33,0,0,0,.75,1.24,3.36,3.36,0,0,0,1.27.82A5,5,0,0,0,241.75,457.5Z"/><path class="cls-2" d="M274.71,470h-2.46a2.44,2.44,0,0,1-1.22-.25,1.55,1.55,0,0,1-.67-1l-.49-1.7a19.17,19.17,0,0,1-1.7,1.44,10.17,10.17,0,0,1-1.72,1,8.4,8.4,0,0,1-1.89.63,10.74,10.74,0,0,1-2.22.21,8.11,8.11,0,0,1-2.66-.41,5.44,5.44,0,0,1-3.47-3.26,7.45,7.45,0,0,1-.49-2.83,5.86,5.86,0,0,1,.68-2.68,6.54,6.54,0,0,1,2.25-2.38,14.14,14.14,0,0,1,4.2-1.77,26,26,0,0,1,6.51-.7V455a5.51,5.51,0,0,0-1-3.58,3.45,3.45,0,0,0-2.81-1.16,6.77,6.77,0,0,0-2.22.32,8.84,8.84,0,0,0-1.54.74c-.44.27-.84.52-1.21.73a2.35,2.35,0,0,1-1.22.33,1.57,1.57,0,0,1-1-.3,2.43,2.43,0,0,1-.64-.75l-1-1.84a13.18,13.18,0,0,1,9.48-3.78,8.81,8.81,0,0,1,3.57.69,7.64,7.64,0,0,1,2.65,1.91,8.26,8.26,0,0,1,1.66,2.93,12,12,0,0,1,.56,3.73Zm-10.66-3.59a7,7,0,0,0,1.56-.16,6.1,6.1,0,0,0,1.34-.48,7.68,7.68,0,0,0,1.22-.79,12.15,12.15,0,0,0,1.19-1.12v-4a21.3,21.3,0,0,0-4,.32,10.17,10.17,0,0,0-2.59.81,3.32,3.32,0,0,0-1.38,1.15,3,3,0,0,0,.44,3.61A3.54,3.54,0,0,0,264.05,466.45Z"/><path class="cls-2" d="M287.59,470.41a5.83,5.83,0,0,1-4.55-1.76,7,7,0,0,1-1.6-4.86V450.44h-2.31a1,1,0,0,1-.76-.31,1.16,1.16,0,0,1-.33-.9v-2.29l3.67-.63,1.15-6.52a1.24,1.24,0,0,1,.41-.73,1.29,1.29,0,0,1,.82-.25h2.84v7.53h6v4.1h-6v13a2.62,2.62,0,0,0,.53,1.74,1.77,1.77,0,0,0,1.42.63,2.66,2.66,0,0,0,.86-.12,5.84,5.84,0,0,0,.6-.27c.17-.1.32-.18.45-.27a.73.73,0,0,1,.4-.13.57.57,0,0,1,.4.13,1.88,1.88,0,0,1,.34.38l1.64,2.8a8.29,8.29,0,0,1-2.75,1.59A10,10,0,0,1,287.59,470.41Z"/><path class="cls-2" d="M306.72,445.75a10.41,10.41,0,0,1,4,.73,8.5,8.5,0,0,1,3.12,2.11,9.54,9.54,0,0,1,2.05,3.4,13.38,13.38,0,0,1,.73,4.6,7.9,7.9,0,0,1-.06,1.08,1.78,1.78,0,0,1-.19.68.87.87,0,0,1-.39.35,1.62,1.62,0,0,1-.63.11H301.23c.17,2.45.79,4.25,1.89,5.4a5.75,5.75,0,0,0,4.35,1.73,7.12,7.12,0,0,0,2.3-.33,10.86,10.86,0,0,0,1.69-.72l1.27-.72a2,2,0,0,1,1-.33,1.18,1.18,0,0,1,.58.14,1.33,1.33,0,0,1,.42.4l1.6,2.09a9.5,9.5,0,0,1-2,1.88,11.53,11.53,0,0,1-2.37,1.21,12.33,12.33,0,0,1-2.51.64,16.38,16.38,0,0,1-2.47.19,11.67,11.67,0,0,1-4.42-.83,9.84,9.84,0,0,1-3.56-2.45,11.56,11.56,0,0,1-2.38-4,16.44,16.44,0,0,1-.86-5.54,13.87,13.87,0,0,1,.75-4.6,11.22,11.22,0,0,1,2.17-3.75,10.15,10.15,0,0,1,3.44-2.53A10.79,10.79,0,0,1,306.72,445.75Zm.11,4.13a4.91,4.91,0,0,0-3.75,1.42,7.12,7.12,0,0,0-1.74,4h10.31a7.63,7.63,0,0,0-.29-2.11,4.82,4.82,0,0,0-.89-1.73,4.21,4.21,0,0,0-1.51-1.18A4.91,4.91,0,0,0,306.83,449.88Z"/><path class="cls-2" d="M329.06,452.7l-10.24-16.36h6a1.79,1.79,0,0,1,.89.17,1.49,1.49,0,0,1,.5.57l7.31,12.38c.08-.2.16-.4.25-.59a5.71,5.71,0,0,1,.31-.6l6.68-11.07a1.46,1.46,0,0,1,1.27-.86h5.73l-10.35,16.1L348,470h-6a1.37,1.37,0,0,1-1-.33,2.71,2.71,0,0,1-.61-.74L333,456.05a5.36,5.36,0,0,1-.2.53c-.08.16-.15.31-.23.45L325.46,469a3.43,3.43,0,0,1-.6.73,1.2,1.2,0,0,1-.88.34h-5.6Z"/><polygon class="cls-2" points="275.92 52.2 124.84 52.2 49.31 183.04 124.84 313.87 275.92 313.87 351.46 183.04 275.92 52.2"/><polygon class="cls-3" points="275.92 52.2 124.84 52.2 49.3 183.04 124.84 313.88 275.92 313.88 351.46 183.04 275.92 52.2"/><polygon class="cls-4" points="275.91 52.2 124.82 52.2 49.31 183.05 124.82 313.87 275.91 313.87 351.46 183.05 275.91 52.2"/><path class="cls-2" d="M292.71,242.5A4.23,4.23,0,0,0,294,239c-1.52-14.29-6-43-17.73-51.31-15.87-11.21-167-65.16-167.9-64.9-5.23,1.45,1.71,22.8,18.88,29.2,0,0,95.48,31.17,95.5,34.36s-87.13-25.89-87.13-25.89-.57,19.85,24.36,27.75S217.8,204,217,207c-.21.82-47.52-11.49-47.52-11.49s3,11.28,13.09,14.84,31.78,10,31.54,11.83c-.18,1.4-28.14-6.53-28.14-6.53s3.46,12.68,21.49,15.27c20.87,3,49-1.75,54.36.6,3.67,1.62,14.16,10.3,20.41,15.61a4.23,4.23,0,0,0,5.63-.13Z"/></svg>